<svg width="1440" height="974" viewBox="0 0 1440 974" fill="none" xmlns="http://www.w3.org/2000/svg">
<path d="M261.124 706.306C260.992 677.853 255.385 649.691 244.608 623.358C234.384 597.363 220.518 572.952 203.428 550.857C186.567 526.103 167.679 502.793 146.958 481.167C122.883 456.827 103.334 435.606 88.5551 418.155C76.1691 403.525 66.5524 386.761 60.1758 368.684C55.9575 354.847 56.9265 339.946 62.9014 326.772C66.1694 317.185 72.3186 308.842 80.5084 302.883C88.6981 296.924 98.5284 293.64 108.655 293.48C134.264 291.673 159.88 296.887 182.745 308.562C202.659 317.361 220.872 329.591 236.553 344.695C251.217 357.982 264.421 372.796 275.942 388.885C283.586 399.189 290.627 409.927 297.029 421.045L431.91 327.648C424.08 314.324 415.186 301.656 405.314 289.767C386.09 264.877 364.465 241.938 340.751 221.28C318.686 203.611 295.008 188.056 270.029 174.822L316.313 72.2033L223.553 30.3659L175.248 137.466C151.281 130.977 126.608 127.455 101.782 126.98C60.0503 125.494 18.6489 134.882 -18.3602 154.223C-53.9731 173.913 -82.0011 204.919 -98.007 242.333C-115.27 276.741 -122.569 315.289 -119.082 353.625C-114.226 388.088 -102.107 421.126 -83.526 450.553C-64.0137 480.807 -41.5101 509.024 -16.3547 534.777C5.84149 556.813 26.6189 580.234 45.8526 604.898C59.7472 621.204 70.4932 639.948 77.5442 660.177C82.2654 676.257 81.0004 693.504 73.9836 708.723C69.8746 718.837 63.3687 727.8 55.0261 734.841C46.6836 741.882 36.7546 746.789 26.0942 749.14C-2.22896 753.279 -31.132 748.185 -56.3337 734.613C-76.7174 725.304 -95.8254 713.424 -113.191 699.261C-130.251 685.288 -146.297 670.121 -161.209 653.876C-173.582 640.344 -185.169 626.115 -195.915 611.259C-202.219 602.626 -208.083 593.681 -213.487 584.458L-354.334 682.715C-345.474 698.702 -335.147 713.831 -323.486 727.906C-300.896 756.545 -275.209 782.598 -246.895 805.593C-218.426 829.08 -187.271 849.106 -154.083 865.25L-199.154 965.18L-106.394 1007.02L-59.7059 903.503C-45.6999 907.123 -31.6941 910.744 -17.732 913.266C16.4687 919.86 51.5467 920.542 85.978 915.283C119.947 910.054 151.983 896.121 178.97 874.839C205.957 853.558 226.975 825.652 239.98 793.839C253.077 766.463 260.28 736.642 261.124 706.306Z" fill="#0D6474"/>
<path d="M1552.06 199.295C1525.08 190.246 1496.62 186.473 1468.21 188.183C1440.31 189.48 1412.73 194.733 1386.31 203.787C1357.44 211.765 1329.28 222.129 1302.13 234.769C1271.33 249.71 1244.94 261.373 1223.65 269.735C1205.81 276.742 1186.84 280.44 1167.67 280.647C1153.22 280.179 1139.42 274.457 1128.88 264.553C1120.86 258.368 1114.94 249.857 1111.94 240.184C1108.94 230.51 1109 220.146 1112.12 210.508C1118.66 185.685 1131.86 163.118 1150.28 145.239C1165.03 129.225 1182.48 115.928 1201.84 105.955C1219.14 96.359 1237.42 88.6365 1256.37 82.9186C1268.59 79.0055 1281.02 75.8031 1293.61 73.3278L1248.69 -84.4639C1233.56 -81.3486 1218.7 -77.014 1204.26 -71.5028C1174.5 -61.3309 1145.81 -48.2576 1118.61 -32.4718C1094.77 -17.2822 1072.41 0.116038 1051.83 19.4933L969.617 -57.4072L900.105 16.9083L985.909 97.1669C972.038 117.762 960.749 139.981 952.295 163.328C937.432 202.351 932.969 244.568 939.344 285.837C946.499 325.897 966.812 362.426 997.066 389.641C1024.07 417.076 1058.21 436.415 1095.62 445.475C1129.81 451.99 1164.99 451.171 1198.83 443.072C1233.76 434.357 1267.73 422.154 1300.22 406.646C1328.23 392.74 1357.1 380.625 1386.65 370.371C1406.57 362.476 1427.78 358.348 1449.2 358.196C1465.94 358.912 1481.86 365.67 1494 377.22C1502.25 384.371 1508.64 393.419 1512.61 403.586C1516.59 413.754 1518.03 424.735 1516.82 435.584C1511.6 463.729 1497.46 489.445 1476.49 508.925C1461.11 525.218 1443.7 539.475 1424.69 551.347C1405.97 562.99 1386.43 573.288 1366.25 582.166C1349.45 589.514 1332.25 595.895 1314.72 601.276C1304.51 604.46 1294.15 607.127 1283.68 609.269L1331.28 774.275C1349.27 771.043 1366.92 766.145 1384 759.646C1418.39 747.496 1451.34 731.583 1482.23 712.195C1513.65 692.82 1542.65 669.786 1568.63 643.576L1648.69 718.462L1718.2 644.146L1635.27 566.574C1643.22 554.484 1651.16 542.393 1658.05 529.99C1675.32 499.742 1687.27 466.758 1693.4 432.47C1699.4 398.629 1696.54 363.811 1685.1 331.404C1673.66 298.996 1654.02 270.102 1628.1 247.535C1606.41 226.31 1580.5 209.876 1552.06 199.295Z" fill="#0D6474"/>
<path d="M877.736 868.331C877.141 875.741 875.39 883.012 872.548 889.881C868.658 900.149 862.936 909.626 855.66 917.85C846.476 927.356 834.309 933.423 821.19 935.036C808.887 937.131 796.345 937.443 783.953 935.963C772.354 934.676 760.843 932.692 749.482 930.023L721.706 922.942C713.736 920.617 705.421 919.701 697.135 920.237C696.565 916.89 699.322 907.071 701.265 892.471C703.047 877.148 702.563 861.646 699.828 846.463C696.789 829.463 692.138 812.79 685.939 796.671L825.091 772.98L808.402 674.952L635.298 704.423L623.19 685.326C616.21 673.23 608.904 659.22 600.958 644.335C593.011 629.451 586.255 612.887 580.384 598.633C574.396 583.467 569.907 567.751 566.982 551.71C560.703 524.794 564.461 496.511 577.55 472.168C584.791 460.506 594.611 450.661 606.254 443.39C617.897 436.119 631.053 431.615 644.709 430.227C664.348 426.191 684.776 428.96 702.631 438.079C718.89 446.936 732.943 459.344 743.747 474.379C753.728 488.181 761.478 503.466 766.712 519.674L898.119 424.479C886.904 397.249 869.639 372.93 847.631 353.363C820.627 328.441 788.381 309.888 753.263 299.066C708.166 286.221 660.573 284.852 614.812 295.083C565.846 301.909 519.35 320.816 479.517 350.101C446.422 375.468 421.504 409.993 407.853 449.394C394.687 489.183 391.763 531.65 399.352 572.869C402.541 591.315 407.435 609.425 413.975 626.965C420.192 643.42 427.522 659.434 435.912 674.895C443.778 689.301 451.48 702.751 458.775 713.81C466.07 724.87 468.39 726.935 472.715 732.103L377.077 748.386L393.767 846.414L537.223 821.99C547.267 838.853 554.547 857.216 558.784 876.381C561.066 887.282 561.643 898.471 560.494 909.549C559.683 918.249 557.839 926.822 555.001 935.087C528.588 939.303 503.94 951.013 483.987 968.827C463.479 987.17 447.81 1010.29 438.368 1036.13C428.926 1063.55 426.479 1092.88 431.249 1121.48L553.665 1100.64C555.277 1094.35 557.724 1088.31 560.939 1082.67C565.353 1074.92 571.202 1068.08 578.173 1062.52C585.968 1056.23 595.275 1052.1 605.165 1050.54C625.689 1046.81 646.66 1046.23 667.36 1048.81C686.905 1050.9 706.612 1053.94 726.401 1057.46C747.515 1061.24 768.822 1063.85 790.225 1065.29C815.812 1067.19 841.537 1065.79 866.766 1061.11C896.302 1056.99 924.334 1045.53 948.302 1027.78C972.269 1010.04 991.409 986.566 1003.97 959.518C1014.69 939.023 1021.41 916.671 1023.76 893.66L877.736 868.331Z" fill="#0D6474"/>
<path d="M234.541 -233.804C233.945 -226.394 232.195 -219.123 229.353 -212.254C225.463 -201.986 219.74 -192.509 212.465 -184.285C203.281 -174.779 191.114 -168.712 177.995 -167.099C165.691 -165.004 153.15 -164.692 140.757 -166.172C129.158 -167.459 117.647 -169.443 106.287 -172.112L78.5107 -179.193C70.5404 -181.518 62.2252 -182.434 53.9399 -181.898C53.37 -185.245 56.1269 -195.064 58.0696 -209.664C59.8514 -224.987 59.3674 -240.489 56.6332 -255.671C53.5938 -272.672 48.9428 -289.345 42.7434 -305.464L181.896 -329.155L165.206 -427.183L-7.89729 -397.712L-20.0054 -416.808C-26.9854 -428.905 -34.2909 -442.915 -42.2375 -457.8C-50.1842 -472.684 -56.9406 -489.248 -62.8117 -503.501C-68.7995 -518.668 -73.288 -534.384 -76.213 -550.425C-82.4924 -577.341 -78.7348 -605.624 -65.6451 -629.967C-58.4042 -641.629 -48.5845 -651.474 -36.9416 -658.745C-25.2987 -666.016 -12.1428 -670.519 1.51361 -671.908C21.1525 -675.944 41.5804 -673.174 59.436 -664.056C75.6945 -655.199 89.7478 -642.791 100.551 -627.756C110.533 -613.954 118.282 -598.669 123.516 -582.461L254.923 -677.656C243.709 -704.885 226.444 -729.205 204.436 -748.772C177.431 -773.694 145.186 -792.247 110.068 -803.068C64.9706 -815.913 17.3778 -817.282 -28.3834 -807.051C-77.3491 -800.226 -123.846 -781.318 -163.679 -752.034C-196.773 -726.667 -221.691 -692.141 -235.342 -652.741C-248.509 -612.951 -251.432 -570.485 -243.843 -529.266C-240.655 -510.82 -235.76 -492.71 -229.221 -475.17C-223.003 -458.715 -215.673 -442.701 -207.283 -427.24C-199.418 -412.834 -191.716 -399.383 -184.42 -388.324C-177.125 -377.265 -174.805 -375.2 -170.481 -370.032L-266.118 -353.749L-249.429 -255.721L-105.973 -280.145C-95.9281 -263.282 -88.6488 -244.919 -84.4113 -225.754C-82.1294 -214.853 -81.5524 -203.664 -82.7009 -192.586C-83.5121 -183.886 -85.356 -175.313 -88.1939 -167.048C-114.607 -162.832 -139.255 -151.121 -159.209 -133.308C-179.717 -114.964 -195.386 -91.8474 -204.828 -66.0036C-214.269 -38.5892 -216.716 -9.25109 -211.946 19.3486L-89.5305 -1.49292C-87.9181 -7.77985 -85.4718 -13.8228 -82.2566 -19.4609C-77.8419 -27.2116 -71.9932 -34.0518 -65.0223 -39.6168C-57.2274 -45.901 -47.9202 -50.0303 -38.0303 -51.5929C-17.5064 -55.3209 3.46505 -55.9049 24.1646 -53.3248C43.7095 -51.2398 63.4169 -48.1986 83.206 -44.679C104.32 -40.8945 125.627 -38.2799 147.03 -36.8473C172.617 -34.9468 198.342 -36.3497 223.57 -41.0216C253.107 -45.1463 281.139 -56.6055 305.106 -74.3525C329.074 -92.0995 348.213 -115.569 360.776 -142.617C371.499 -163.112 378.214 -185.464 380.563 -208.475L234.541 -233.804Z" fill="#0D6474"/>
<path d="M1761.38 1204.31L1702.62 1192.36L1758.89 915.694L1612.8 885.981L1556.53 1162.65L1445.95 1140.15L1359.81 834.522L1159.86 793.854L1103.59 1070.52L1049.31 1059.48L1030.39 1152.52L1084.66 1163.56L1028.39 1440.22L1174.88 1470.02L1231.16 1193.35L1340.52 1215.6L1425.02 1520.89L1625.79 1561.73L1682.06 1285.06L1740.82 1297.02L1761.38 1204.31ZM1251.71 1100.65L1276.61 978.228L1313.74 1113.26L1251.71 1100.65ZM1513.54 1374.02L1476.4 1243.23L1537.61 1255.68L1513.54 1374.02Z" fill="#0D6474"/>
<path d="M1152.01 -380.219L1098.49 -353.185L971.203 -605.196L838.136 -537.988L965.418 -285.978L864.688 -235.102L607.684 -421.594L425.553 -329.606L552.835 -77.5953L503.399 -52.6269L546.202 32.1198L595.638 7.15144L722.92 259.162L856.359 191.766L729.077 -60.2442L828.692 -110.556L1084.21 76.6863L1267.08 -15.6777L1139.8 -267.688L1193.33 -294.721L1152.01 -380.219ZM687.761 -145.742L631.441 -257.251L744.258 -174.277L687.761 -145.742ZM1062.66 -93.4389L952.467 -173.071L1008.22 -201.231L1062.66 -93.4389Z" fill="#0D6474"/>
</svg>
