<svg width="310" height="361" viewBox="0 0 310 361" fill="none" xmlns="http://www.w3.org/2000/svg">
<g clip-path="url(#clip0_4313_21446)">
<path d="M5 42C5 18.804 23.804 0 47 0H263C286.196 0 305 18.804 305 42V360H5V42Z" fill="#171717"/>
<g clip-path="url(#clip1_4313_21446)">
<path d="M15 42C15 24.3269 29.3269 10 47 10H263C280.673 10 295 24.3269 295 42V409H15V42Z" fill="#232323"/>
<rect width="279" height="604.128" transform="translate(15.5 10)" fill="#131313"/>
<rect x="30.38" y="79.936" width="19.4133" height="19.4133" rx="4.48" fill="#2E2E2E"/>
<path d="M36.6022 89.6429H43.5711M39.5888 86.6562L36.6022 89.6429L39.5888 92.6296" stroke="#AFAFAF" stroke-linecap="round" stroke-linejoin="round"/>
<path d="M36.358 133.532C35.266 133.532 34.3093 133.322 33.488 132.902C32.6667 132.482 32.0273 131.884 31.57 131.11C31.122 130.335 30.898 129.416 30.898 128.352C30.898 127.81 30.9587 127.311 31.08 126.854C31.2013 126.396 31.3693 125.972 31.584 125.58C31.808 125.188 32.0787 124.842 32.396 124.544C32.7227 124.245 33.0867 123.998 33.488 123.802C33.8893 123.596 34.328 123.442 34.804 123.34C35.2893 123.228 35.8073 123.172 36.358 123.172C37.4407 123.172 38.3927 123.382 39.214 123.802C40.0353 124.212 40.67 124.805 41.118 125.58C41.5753 126.354 41.804 127.278 41.804 128.352C41.804 128.884 41.7433 129.383 41.622 129.85C41.5007 130.307 41.328 130.732 41.104 131.124C40.8893 131.506 40.6233 131.847 40.306 132.146C39.9887 132.444 39.6247 132.696 39.214 132.902C38.8127 133.107 38.3693 133.261 37.884 133.364C37.408 133.476 36.8993 133.532 36.358 133.532ZM36.344 131.824C36.68 131.824 36.988 131.791 37.268 131.726C37.5573 131.66 37.8233 131.558 38.066 131.418C38.3087 131.278 38.5187 131.114 38.696 130.928C38.8827 130.732 39.0413 130.503 39.172 130.242C39.3027 129.98 39.4007 129.691 39.466 129.374C39.5313 129.056 39.564 128.716 39.564 128.352C39.564 127.614 39.4333 126.984 39.172 126.462C38.92 125.939 38.5513 125.547 38.066 125.286C37.59 125.015 37.0207 124.88 36.358 124.88C36.022 124.88 35.7093 124.912 35.42 124.978C35.14 125.043 34.8787 125.146 34.636 125.286C34.3933 125.426 34.1787 125.594 33.992 125.79C33.8147 125.976 33.6607 126.2 33.53 126.462C33.3993 126.723 33.3013 127.012 33.236 127.33C33.1707 127.638 33.138 127.978 33.138 128.352C33.138 129.089 33.2687 129.719 33.53 130.242C33.7913 130.764 34.16 131.161 34.636 131.432C35.1213 131.693 35.6907 131.824 36.344 131.824ZM42.9596 133.35V126.154H45.0176V128.002L44.8216 127.764C44.9896 127.353 45.2182 127.017 45.5076 126.756C45.7969 126.485 46.1329 126.284 46.5156 126.154C46.9076 126.023 47.3229 125.958 47.7616 125.958C48.2282 125.958 48.6389 126.032 48.9936 126.182C49.3576 126.322 49.6609 126.522 49.9036 126.784C50.1462 127.045 50.3282 127.367 50.4496 127.75C50.5802 128.132 50.6456 128.566 50.6456 129.052V133.35H48.6016V129.374C48.6016 128.991 48.5362 128.664 48.4056 128.394C48.2749 128.123 48.0836 127.918 47.8316 127.778C47.5889 127.628 47.2902 127.554 46.9356 127.554C46.5529 127.554 46.2169 127.642 45.9276 127.82C45.6382 127.988 45.4142 128.221 45.2556 128.52C45.0969 128.818 45.0176 129.154 45.0176 129.528V133.35H42.9596ZM56.8227 133.546C56.3654 133.546 55.9454 133.48 55.5627 133.35C55.1801 133.228 54.8487 133.051 54.5687 132.818C54.2887 132.584 54.0601 132.304 53.8827 131.978L54.0647 131.67V133.35H52.0347V123.354H54.0647V127.82L53.8827 127.512C54.0601 127.176 54.2887 126.896 54.5687 126.672C54.8487 126.438 55.1801 126.261 55.5627 126.14C55.9454 126.018 56.3654 125.958 56.8227 125.958C57.4294 125.958 57.9847 126.102 58.4887 126.392C59.0021 126.672 59.4127 127.092 59.7207 127.652C60.0287 128.212 60.1827 128.907 60.1827 129.738C60.1827 130.232 60.1221 130.685 60.0007 131.096C59.8794 131.497 59.7161 131.852 59.5107 132.16C59.3054 132.468 59.0581 132.724 58.7687 132.93C58.4887 133.135 58.1807 133.289 57.8447 133.392C57.5181 133.494 57.1774 133.546 56.8227 133.546ZM56.0947 132.02C56.3374 132.02 56.5614 131.987 56.7667 131.922C56.9814 131.847 57.1681 131.744 57.3267 131.614C57.4947 131.474 57.6347 131.31 57.7467 131.124C57.8681 130.928 57.9521 130.713 57.9987 130.48C58.0547 130.246 58.0827 129.999 58.0827 129.738C58.0827 129.299 58.0034 128.912 57.8447 128.576C57.6861 128.23 57.4574 127.964 57.1587 127.778C56.8601 127.582 56.5054 127.484 56.0947 127.484C55.8334 127.484 55.5954 127.521 55.3807 127.596C55.1754 127.661 54.9887 127.764 54.8207 127.904C54.6527 128.034 54.5081 128.193 54.3867 128.38C54.2747 128.566 54.1861 128.776 54.1207 129.01C54.0647 129.234 54.0367 129.481 54.0367 129.752C54.0367 130.19 54.1207 130.582 54.2887 130.928C54.4567 131.264 54.6901 131.53 54.9887 131.726C55.2967 131.922 55.6654 132.02 56.0947 132.02ZM65.0253 133.546C64.176 133.546 63.4433 133.387 62.8273 133.07C62.2206 132.752 61.754 132.309 61.4273 131.74C61.1006 131.161 60.9373 130.498 60.9373 129.752C60.9373 129.304 60.9933 128.888 61.1053 128.506C61.2266 128.114 61.3993 127.764 61.6233 127.456C61.8566 127.138 62.1366 126.868 62.4633 126.644C62.7993 126.42 63.182 126.252 63.6113 126.14C64.0406 126.018 64.512 125.958 65.0253 125.958C65.884 125.958 66.6166 126.121 67.2233 126.448C67.8393 126.765 68.306 127.208 68.6233 127.778C68.95 128.347 69.1133 129.005 69.1133 129.752C69.1133 130.2 69.0526 130.62 68.9313 131.012C68.81 131.404 68.6373 131.754 68.4133 132.062C68.1893 132.37 67.9093 132.636 67.5733 132.86C67.2466 133.084 66.8686 133.252 66.4393 133.364C66.01 133.485 65.5386 133.546 65.0253 133.546ZM65.0253 132.034C65.2866 132.034 65.5246 132.001 65.7393 131.936C65.954 131.861 66.1406 131.758 66.2993 131.628C66.458 131.488 66.5933 131.324 66.7053 131.138C66.8173 130.951 66.8966 130.741 66.9433 130.508C66.9993 130.265 67.0273 130.013 67.0273 129.752C67.0273 129.285 66.9526 128.884 66.8033 128.548C66.654 128.202 66.43 127.936 66.1313 127.75C65.8326 127.563 65.464 127.47 65.0253 127.47C64.7546 127.47 64.512 127.507 64.2973 127.582C64.0826 127.647 63.896 127.745 63.7373 127.876C63.588 128.006 63.4573 128.165 63.3453 128.352C63.2333 128.538 63.1493 128.748 63.0933 128.982C63.0466 129.215 63.0233 129.472 63.0233 129.752C63.0233 130.2 63.098 130.596 63.2473 130.942C63.3966 131.287 63.6206 131.558 63.9193 131.754C64.218 131.94 64.5866 132.034 65.0253 132.034ZM72.4518 133.546C71.6491 133.546 71.0191 133.359 70.5618 132.986C70.1138 132.603 69.8898 132.09 69.8898 131.446C69.8898 131.026 69.9878 130.662 70.1838 130.354C70.3891 130.046 70.6924 129.794 71.0938 129.598C71.5044 129.392 72.0084 129.252 72.6058 129.178L74.5658 128.926C74.7991 128.888 74.9671 128.818 75.0698 128.716C75.1724 128.613 75.2238 128.473 75.2238 128.296V128.282C75.2238 128.086 75.1678 127.918 75.0558 127.778C74.9438 127.638 74.7804 127.53 74.5658 127.456C74.3604 127.381 74.1038 127.344 73.7958 127.344C73.3384 127.344 72.9744 127.409 72.7038 127.54C72.4331 127.67 72.2698 127.876 72.2138 128.156H70.1978C70.2631 127.661 70.4544 127.255 70.7718 126.938C71.0984 126.611 71.5184 126.368 72.0318 126.21C72.5544 126.042 73.1564 125.958 73.8378 125.958C74.5938 125.958 75.2238 126.06 75.7278 126.266C76.2411 126.462 76.6238 126.756 76.8758 127.148C77.1278 127.54 77.2538 128.03 77.2538 128.618V133.35H75.3358V131.474L75.5318 131.684C75.3544 132.122 75.1118 132.477 74.8038 132.748C74.5051 133.018 74.1551 133.219 73.7538 133.35C73.3618 133.48 72.9278 133.546 72.4518 133.546ZM73.1378 132.09C73.4551 132.09 73.7398 132.038 73.9918 131.936C74.2438 131.833 74.4631 131.693 74.6498 131.516C74.8458 131.329 74.9904 131.119 75.0838 130.886C75.1771 130.643 75.2238 130.396 75.2238 130.144V129.248L75.5738 129.654C75.4431 129.766 75.2938 129.85 75.1258 129.906C74.9578 129.952 74.7198 130.004 74.4118 130.06L72.9558 130.298C72.6291 130.363 72.3771 130.47 72.1998 130.62C72.0318 130.769 71.9478 130.96 71.9478 131.194C71.9478 131.483 72.0551 131.707 72.2698 131.866C72.4844 132.015 72.7738 132.09 73.1378 132.09ZM78.63 133.35V126.154H80.688V128.464L80.534 128.394C80.6554 127.843 80.828 127.404 81.052 127.078C81.276 126.751 81.5514 126.518 81.878 126.378C82.2047 126.228 82.592 126.154 83.04 126.154H83.614V128.03H82.83C82.382 128.03 81.9994 128.128 81.682 128.324C81.3647 128.52 81.1174 128.8 80.94 129.164C80.772 129.518 80.688 129.943 80.688 130.438V133.35H78.63ZM87.461 133.546C86.8543 133.546 86.299 133.401 85.795 133.112C85.291 132.822 84.885 132.393 84.577 131.824C84.269 131.254 84.115 130.559 84.115 129.738C84.115 129.243 84.171 128.795 84.283 128.394C84.395 127.992 84.5536 127.642 84.759 127.344C84.9736 127.036 85.221 126.784 85.501 126.588C85.781 126.382 86.089 126.228 86.425 126.126C86.761 126.014 87.1063 125.958 87.461 125.958C87.9183 125.958 88.3383 126.018 88.721 126.14C89.1036 126.261 89.435 126.438 89.715 126.672C90.0043 126.896 90.233 127.176 90.401 127.512L90.205 127.82V123.354H92.249V133.35H90.205V131.67L90.401 131.978C90.2236 132.314 89.9856 132.598 89.687 132.832C89.3976 133.065 89.0616 133.242 88.679 133.364C88.3056 133.485 87.8996 133.546 87.461 133.546ZM88.203 132.02C88.455 132.02 88.6836 131.987 88.889 131.922C89.1036 131.847 89.2903 131.744 89.449 131.614C89.617 131.474 89.757 131.31 89.869 131.124C89.9903 130.928 90.0836 130.718 90.149 130.494C90.2143 130.26 90.247 130.013 90.247 129.752C90.247 129.304 90.163 128.912 89.995 128.576C89.827 128.23 89.589 127.964 89.281 127.778C88.9823 127.582 88.623 127.484 88.203 127.484C87.951 127.484 87.7176 127.521 87.503 127.596C87.2976 127.661 87.111 127.764 86.943 127.904C86.7843 128.034 86.649 128.193 86.537 128.38C86.425 128.557 86.341 128.762 86.285 128.996C86.229 129.229 86.201 129.476 86.201 129.738C86.201 130.176 86.2756 130.568 86.425 130.914C86.5836 131.259 86.8123 131.53 87.111 131.726C87.4096 131.922 87.7736 132.02 88.203 132.02ZM93.7862 133.35V126.154H95.8442V133.35H93.7862ZM93.7442 125.076V123.354H95.8582V125.076H93.7442ZM97.296 133.35V126.154H99.354V128.002L99.158 127.764C99.326 127.353 99.5546 127.017 99.844 126.756C100.133 126.485 100.469 126.284 100.852 126.154C101.244 126.023 101.659 125.958 102.098 125.958C102.565 125.958 102.975 126.032 103.33 126.182C103.694 126.322 103.997 126.522 104.24 126.784C104.483 127.045 104.665 127.367 104.786 127.75C104.917 128.132 104.982 128.566 104.982 129.052V133.35H102.938V129.374C102.938 128.991 102.873 128.664 102.742 128.394C102.611 128.123 102.42 127.918 102.168 127.778C101.925 127.628 101.627 127.554 101.272 127.554C100.889 127.554 100.553 127.642 100.264 127.82C99.9746 127.988 99.7506 128.221 99.592 128.52C99.4333 128.818 99.354 129.154 99.354 129.528V133.35H97.296ZM110.123 136.206C109.376 136.206 108.728 136.112 108.177 135.926C107.626 135.739 107.188 135.478 106.861 135.142C106.544 134.806 106.343 134.4 106.259 133.924H108.303C108.406 134.204 108.606 134.414 108.905 134.554C109.213 134.703 109.624 134.778 110.137 134.778C110.492 134.778 110.809 134.722 111.089 134.61C111.378 134.498 111.607 134.32 111.775 134.078C111.943 133.835 112.027 133.532 112.027 133.168V131.306L112.237 131.6C112.06 131.936 111.836 132.22 111.565 132.454C111.294 132.678 110.977 132.85 110.613 132.972C110.249 133.084 109.843 133.14 109.395 133.14C108.779 133.14 108.214 132.995 107.701 132.706C107.197 132.416 106.791 132.006 106.483 131.474C106.175 130.942 106.021 130.302 106.021 129.556C106.021 129.098 106.077 128.683 106.189 128.31C106.31 127.927 106.474 127.596 106.679 127.316C106.884 127.026 107.127 126.779 107.407 126.574C107.696 126.368 108.004 126.214 108.331 126.112C108.667 126.009 109.022 125.958 109.395 125.958C109.843 125.958 110.249 126.018 110.613 126.14C110.986 126.261 111.308 126.434 111.579 126.658C111.85 126.882 112.064 127.152 112.223 127.47L112.027 127.764V126.154H114.071V133.112C114.071 133.681 113.964 134.157 113.749 134.54C113.534 134.922 113.24 135.235 112.867 135.478C112.503 135.73 112.083 135.912 111.607 136.024C111.131 136.145 110.636 136.206 110.123 136.206ZM110.067 131.628C110.31 131.628 110.534 131.6 110.739 131.544C110.944 131.478 111.126 131.39 111.285 131.278C111.453 131.156 111.593 131.012 111.705 130.844C111.826 130.676 111.915 130.484 111.971 130.27C112.036 130.046 112.069 129.803 112.069 129.542C112.069 129.103 111.985 128.73 111.817 128.422C111.649 128.104 111.416 127.866 111.117 127.708C110.818 127.54 110.468 127.456 110.067 127.456C109.834 127.456 109.61 127.488 109.395 127.554C109.19 127.61 109.003 127.698 108.835 127.82C108.676 127.932 108.541 128.072 108.429 128.24C108.317 128.408 108.233 128.604 108.177 128.828C108.121 129.042 108.093 129.28 108.093 129.542C108.093 129.98 108.172 130.358 108.331 130.676C108.499 130.984 108.728 131.222 109.017 131.39C109.316 131.548 109.666 131.628 110.067 131.628ZM119.233 133.35V123.354H121.375V129.024L120.745 128.786L125.995 123.354H128.683L124.441 127.61C124.712 127.684 124.945 127.787 125.141 127.918C125.337 128.039 125.514 128.193 125.673 128.38C125.841 128.557 126.009 128.767 126.177 129.01L129.131 133.35H126.583L124.077 129.612C123.89 129.313 123.662 129.154 123.391 129.136C123.13 129.108 122.868 129.22 122.607 129.472L120.731 131.306L121.375 129.724V133.35H119.233ZM133.197 133.35V129.556L129.123 123.354H131.587L134.863 128.66H133.911L137.159 123.354H139.385L135.325 129.556V133.35H133.197ZM144.554 133.532C143.48 133.532 142.538 133.322 141.726 132.902C140.914 132.472 140.284 131.866 139.836 131.082C139.397 130.298 139.178 129.388 139.178 128.352C139.178 127.829 139.234 127.339 139.346 126.882C139.467 126.424 139.635 126.004 139.85 125.622C140.074 125.23 140.34 124.884 140.648 124.586C140.965 124.278 141.32 124.021 141.712 123.816C142.113 123.61 142.552 123.452 143.028 123.34C143.504 123.228 144.012 123.172 144.554 123.172C145.496 123.172 146.327 123.316 147.046 123.606C147.774 123.886 148.357 124.287 148.796 124.81C149.234 125.332 149.491 125.948 149.566 126.658H147.312C147.228 126.284 147.055 125.967 146.794 125.706C146.542 125.435 146.229 125.23 145.856 125.09C145.482 124.94 145.053 124.866 144.568 124.866C144.25 124.866 143.947 124.903 143.658 124.978C143.378 125.052 143.121 125.16 142.888 125.3C142.654 125.44 142.444 125.608 142.258 125.804C142.08 126 141.926 126.228 141.796 126.49C141.674 126.751 141.581 127.04 141.516 127.358C141.45 127.666 141.418 127.997 141.418 128.352C141.418 129.061 141.548 129.677 141.81 130.2C142.071 130.713 142.435 131.114 142.902 131.404C143.378 131.684 143.933 131.824 144.568 131.824C145.053 131.824 145.487 131.754 145.87 131.614C146.252 131.474 146.57 131.268 146.822 130.998C147.083 130.727 147.265 130.396 147.368 130.004H149.622C149.51 130.75 149.23 131.39 148.782 131.922C148.343 132.444 147.764 132.846 147.046 133.126C146.336 133.396 145.506 133.532 144.554 133.532Z" fill="#FAFAFA"/>
<path d="M31.3 145.25H33.85C34.6367 145.25 35.25 145.44 35.69 145.82C36.1367 146.2 36.36 146.726 36.36 147.4C36.36 148.086 36.1367 148.623 35.69 149.01C35.25 149.396 34.6367 149.59 33.85 149.59H32.16V152.35H31.3V145.25ZM33.85 148.75C34.9233 148.75 35.46 148.3 35.46 147.4C35.46 146.526 34.9233 146.09 33.85 146.09H32.16V148.75H33.85ZM37.5113 147.05H38.2513L38.2813 148.03C38.4679 147.376 38.8879 147.05 39.5413 147.05H40.0613V147.85H39.5513C38.7513 147.85 38.3513 148.283 38.3513 149.15V152.35H37.5113V147.05ZM43.0519 152.47C42.5652 152.47 42.1385 152.356 41.7719 152.13C41.4052 151.903 41.1219 151.583 40.9219 151.17C40.7219 150.75 40.6219 150.26 40.6219 149.7C40.6219 149.14 40.7219 148.653 40.9219 148.24C41.1219 147.82 41.4052 147.496 41.7719 147.27C42.1385 147.043 42.5652 146.93 43.0519 146.93C43.5319 146.93 43.9552 147.043 44.3219 147.27C44.6885 147.496 44.9719 147.82 45.1719 148.24C45.3719 148.653 45.4719 149.14 45.4719 149.7C45.4719 150.26 45.3719 150.75 45.1719 151.17C44.9719 151.583 44.6885 151.903 44.3219 152.13C43.9552 152.356 43.5319 152.47 43.0519 152.47ZM43.0519 151.67C43.5385 151.67 43.9152 151.496 44.1819 151.15C44.4552 150.796 44.5919 150.313 44.5919 149.7C44.5919 149.086 44.4552 148.606 44.1819 148.26C43.9152 147.906 43.5385 147.73 43.0519 147.73C42.5652 147.73 42.1852 147.903 41.9119 148.25C41.6385 148.596 41.5019 149.08 41.5019 149.7C41.5019 150.32 41.6385 150.803 41.9119 151.15C42.1852 151.496 42.5652 151.67 43.0519 151.67ZM45.834 147.05H46.754L48.294 151.49L49.834 147.05H50.754L48.824 152.35H47.764L45.834 147.05ZM51.7003 147.05H52.5403V152.35H51.7003V147.05ZM51.6803 145.24H52.5603V146.22H51.6803V145.24ZM55.9767 152.47C55.5234 152.47 55.1267 152.356 54.7867 152.13C54.4467 151.903 54.1867 151.583 54.0067 151.17C53.8267 150.75 53.7367 150.26 53.7367 149.7C53.7367 149.14 53.8267 148.653 54.0067 148.24C54.1867 147.82 54.4467 147.496 54.7867 147.27C55.1267 147.043 55.5234 146.93 55.9767 146.93C56.3367 146.93 56.6601 147.006 56.9467 147.16C57.2401 147.313 57.4601 147.523 57.6067 147.79V145.25H58.4467V152.35H57.6867L57.6567 151.55C57.5101 151.836 57.2867 152.063 56.9867 152.23C56.6867 152.39 56.3501 152.47 55.9767 152.47ZM56.1467 151.67C56.6134 151.67 56.9734 151.496 57.2267 151.15C57.4801 150.796 57.6067 150.313 57.6067 149.7C57.6067 149.08 57.4801 148.596 57.2267 148.25C56.9734 147.903 56.6134 147.73 56.1467 147.73C55.6801 147.73 55.3067 147.906 55.0267 148.26C54.7534 148.606 54.6167 149.086 54.6167 149.7C54.6167 150.306 54.7534 150.786 55.0267 151.14C55.3067 151.493 55.6801 151.67 56.1467 151.67ZM62.0683 152.47C61.575 152.47 61.145 152.356 60.7783 152.13C60.4116 151.903 60.1283 151.583 59.9283 151.17C59.735 150.75 59.6383 150.26 59.6383 149.7C59.6383 149.146 59.735 148.66 59.9283 148.24C60.1283 147.82 60.4083 147.496 60.7683 147.27C61.1283 147.043 61.5483 146.93 62.0283 146.93C62.4883 146.93 62.895 147.04 63.2483 147.26C63.6016 147.473 63.875 147.79 64.0683 148.21C64.2683 148.63 64.3683 149.13 64.3683 149.71V149.96H60.5183C60.545 150.52 60.6916 150.946 60.9583 151.24C61.2316 151.526 61.6016 151.67 62.0683 151.67C62.4083 151.67 62.6883 151.593 62.9083 151.44C63.135 151.28 63.295 151.06 63.3883 150.78L64.2883 150.85C64.1483 151.336 63.8783 151.73 63.4783 152.03C63.085 152.323 62.615 152.47 62.0683 152.47ZM63.4483 149.22C63.4083 148.726 63.2616 148.356 63.0083 148.11C62.7616 147.856 62.435 147.73 62.0283 147.73C61.615 147.73 61.275 147.856 61.0083 148.11C60.7483 148.363 60.585 148.733 60.5183 149.22H63.4483ZM69.9321 152.35C69.4521 152.35 69.0954 152.24 68.8621 152.02C68.6354 151.8 68.5221 151.456 68.5221 150.99V147.79H67.7421V147.05H68.5221V145.81H69.3621V147.05H70.7721V147.79H69.3621V150.97C69.3621 151.203 69.4121 151.37 69.5121 151.47C69.6188 151.563 69.7854 151.61 70.0121 151.61H70.7721V152.35H69.9321ZM71.8624 145.25H72.7024V147.88C72.8358 147.566 73.0391 147.33 73.3124 147.17C73.5924 147.01 73.9224 146.93 74.3024 146.93C74.8624 146.93 75.2958 147.113 75.6024 147.48C75.9158 147.846 76.0724 148.333 76.0724 148.94V152.35H75.2324V149.18C75.2324 148.173 74.8624 147.67 74.1224 147.67C73.6824 147.67 73.3358 147.803 73.0824 148.07C72.8291 148.336 72.7024 148.71 72.7024 149.19V152.35H71.8624V145.25ZM79.5515 152.47C79.0582 152.47 78.6282 152.356 78.2615 152.13C77.8948 151.903 77.6115 151.583 77.4115 151.17C77.2182 150.75 77.1215 150.26 77.1215 149.7C77.1215 149.146 77.2182 148.66 77.4115 148.24C77.6115 147.82 77.8915 147.496 78.2515 147.27C78.6115 147.043 79.0315 146.93 79.5115 146.93C79.9715 146.93 80.3782 147.04 80.7315 147.26C81.0848 147.473 81.3582 147.79 81.5515 148.21C81.7515 148.63 81.8515 149.13 81.8515 149.71V149.96H78.0015C78.0282 150.52 78.1748 150.946 78.4415 151.24C78.7148 151.526 79.0848 151.67 79.5515 151.67C79.8915 151.67 80.1715 151.593 80.3915 151.44C80.6182 151.28 80.7782 151.06 80.8715 150.78L81.7715 150.85C81.6315 151.336 81.3615 151.73 80.9615 152.03C80.5682 152.323 80.0982 152.47 79.5515 152.47ZM80.9315 149.22C80.8915 148.726 80.7448 148.356 80.4915 148.11C80.2448 147.856 79.9182 147.73 79.5115 147.73C79.0982 147.73 78.7582 147.856 78.4915 148.11C78.2315 148.363 78.0682 148.733 78.0015 149.22H80.9315ZM85.4753 147.05H86.3153V152.35H85.4753V147.05ZM85.4553 145.24H86.3353V146.22H85.4553V145.24ZM87.6952 147.05H88.4652L88.4852 148C88.6186 147.646 88.8286 147.38 89.1152 147.2C89.4019 147.02 89.7352 146.93 90.1152 146.93C90.6952 146.93 91.1386 147.116 91.4452 147.49C91.7519 147.863 91.9052 148.346 91.9052 148.94V152.35H91.0652V149.18C91.0652 148.68 90.9752 148.303 90.7952 148.05C90.6152 147.796 90.3286 147.67 89.9352 147.67C89.5152 147.67 89.1752 147.803 88.9152 148.07C88.6619 148.33 88.5352 148.7 88.5352 149.18V152.35H87.6952V147.05ZM93.8043 146.57C93.8043 146.163 93.921 145.843 94.1543 145.61C94.3876 145.37 94.7376 145.25 95.2043 145.25H96.0443V145.99H95.2643C95.0576 145.99 94.901 146.046 94.7943 146.16C94.6943 146.266 94.6443 146.423 94.6443 146.63V147.05H95.9743V147.79H94.6443V152.35H93.8043V147.79H93.0843V147.05H93.8043V146.57ZM98.9909 152.47C98.5043 152.47 98.0776 152.356 97.7109 152.13C97.3443 151.903 97.0609 151.583 96.8609 151.17C96.6609 150.75 96.5609 150.26 96.5609 149.7C96.5609 149.14 96.6609 148.653 96.8609 148.24C97.0609 147.82 97.3443 147.496 97.7109 147.27C98.0776 147.043 98.5043 146.93 98.9909 146.93C99.4709 146.93 99.8943 147.043 100.261 147.27C100.628 147.496 100.911 147.82 101.111 148.24C101.311 148.653 101.411 149.14 101.411 149.7C101.411 150.26 101.311 150.75 101.111 151.17C100.911 151.583 100.628 151.903 100.261 152.13C99.8943 152.356 99.4709 152.47 98.9909 152.47ZM98.9909 151.67C99.4776 151.67 99.8543 151.496 100.121 151.15C100.394 150.796 100.531 150.313 100.531 149.7C100.531 149.086 100.394 148.606 100.121 148.26C99.8543 147.906 99.4776 147.73 98.9909 147.73C98.5043 147.73 98.1243 147.903 97.8509 148.25C97.5776 148.596 97.4409 149.08 97.4409 149.7C97.4409 150.32 97.5776 150.803 97.8509 151.15C98.1243 151.496 98.5043 151.67 98.9909 151.67ZM102.558 147.05H103.298L103.328 148.03C103.515 147.376 103.935 147.05 104.588 147.05H105.108V147.85H104.598C103.798 147.85 103.398 148.283 103.398 149.15V152.35H102.558V147.05ZM106.009 147.05H106.779L106.799 147.98C106.932 147.653 107.129 147.396 107.389 147.21C107.649 147.023 107.949 146.93 108.289 146.93C108.689 146.93 109.025 147.026 109.299 147.22C109.572 147.413 109.765 147.686 109.879 148.04C109.992 147.68 110.182 147.406 110.449 147.22C110.715 147.026 111.042 146.93 111.429 146.93C111.989 146.93 112.419 147.106 112.719 147.46C113.025 147.806 113.179 148.3 113.179 148.94V152.35H112.339V149.12C112.339 148.64 112.245 148.28 112.059 148.04C111.872 147.793 111.595 147.67 111.229 147.67C110.855 147.67 110.559 147.803 110.339 148.07C110.119 148.336 110.009 148.706 110.009 149.18V152.35H109.169V149.18C109.169 148.173 108.805 147.67 108.079 147.67C107.705 147.67 107.405 147.806 107.179 148.08C106.959 148.346 106.849 148.713 106.849 149.18V152.35H106.009V147.05ZM116.467 152.47C115.98 152.47 115.567 152.346 115.227 152.1C114.893 151.853 114.643 151.52 114.477 151.1C114.31 150.68 114.227 150.213 114.227 149.7C114.227 149.186 114.307 148.723 114.467 148.31C114.633 147.89 114.883 147.556 115.217 147.31C115.55 147.056 115.963 146.93 116.457 146.93C116.837 146.93 117.167 147.006 117.447 147.16C117.727 147.306 117.943 147.516 118.097 147.79V147.05H118.937V152.35H118.177L118.147 151.52C118.007 151.82 117.79 152.053 117.497 152.22C117.21 152.386 116.867 152.47 116.467 152.47ZM116.637 151.67C117.143 151.67 117.513 151.483 117.747 151.11C117.98 150.73 118.097 150.26 118.097 149.7C118.097 149.126 117.98 148.656 117.747 148.29C117.513 147.916 117.143 147.73 116.637 147.73C116.137 147.73 115.757 147.916 115.497 148.29C115.237 148.663 115.107 149.133 115.107 149.7C115.107 150.253 115.233 150.72 115.487 151.1C115.747 151.48 116.13 151.67 116.637 151.67ZM122.213 152.35C121.733 152.35 121.376 152.24 121.143 152.02C120.916 151.8 120.803 151.456 120.803 150.99V147.79H120.023V147.05H120.803V145.81H121.643V147.05H123.053V147.79H121.643V150.97C121.643 151.203 121.693 151.37 121.793 151.47C121.899 151.563 122.066 151.61 122.293 151.61H123.053V152.35H122.213ZM124.143 147.05H124.983V152.35H124.143V147.05ZM124.123 145.24H125.003V146.22H124.123V145.24ZM128.609 152.47C128.123 152.47 127.696 152.356 127.329 152.13C126.963 151.903 126.679 151.583 126.479 151.17C126.279 150.75 126.179 150.26 126.179 149.7C126.179 149.14 126.279 148.653 126.479 148.24C126.679 147.82 126.963 147.496 127.329 147.27C127.696 147.043 128.123 146.93 128.609 146.93C129.089 146.93 129.513 147.043 129.879 147.27C130.246 147.496 130.529 147.82 130.729 148.24C130.929 148.653 131.029 149.14 131.029 149.7C131.029 150.26 130.929 150.75 130.729 151.17C130.529 151.583 130.246 151.903 129.879 152.13C129.513 152.356 129.089 152.47 128.609 152.47ZM128.609 151.67C129.096 151.67 129.473 151.496 129.739 151.15C130.013 150.796 130.149 150.313 130.149 149.7C130.149 149.086 130.013 148.606 129.739 148.26C129.473 147.906 129.096 147.73 128.609 147.73C128.123 147.73 127.743 147.903 127.469 148.25C127.196 148.596 127.059 149.08 127.059 149.7C127.059 150.32 127.196 150.803 127.469 151.15C127.743 151.496 128.123 151.67 128.609 151.67ZM132.176 147.05H132.946L132.966 148C133.1 147.646 133.31 147.38 133.596 147.2C133.883 147.02 134.216 146.93 134.596 146.93C135.176 146.93 135.62 147.116 135.926 147.49C136.233 147.863 136.386 148.346 136.386 148.94V152.35H135.546V149.18C135.546 148.68 135.456 148.303 135.276 148.05C135.096 147.796 134.81 147.67 134.416 147.67C133.996 147.67 133.656 147.803 133.396 148.07C133.143 148.33 133.016 148.7 133.016 149.18V152.35H132.176V147.05ZM140.337 147.05H141.077L141.107 148.03C141.294 147.376 141.714 147.05 142.367 147.05H142.887V147.85H142.377C141.577 147.85 141.177 148.283 141.177 149.15V152.35H140.337V147.05ZM145.878 152.47C145.384 152.47 144.954 152.356 144.588 152.13C144.221 151.903 143.938 151.583 143.738 151.17C143.544 150.75 143.448 150.26 143.448 149.7C143.448 149.146 143.544 148.66 143.738 148.24C143.938 147.82 144.218 147.496 144.578 147.27C144.938 147.043 145.358 146.93 145.838 146.93C146.298 146.93 146.704 147.04 147.058 147.26C147.411 147.473 147.684 147.79 147.878 148.21C148.078 148.63 148.178 149.13 148.178 149.71V149.96H144.328C144.354 150.52 144.501 150.946 144.768 151.24C145.041 151.526 145.411 151.67 145.878 151.67C146.218 151.67 146.498 151.593 146.718 151.44C146.944 151.28 147.104 151.06 147.198 150.78L148.098 150.85C147.958 151.336 147.688 151.73 147.288 152.03C146.894 152.323 146.424 152.47 145.878 152.47ZM147.258 149.22C147.218 148.726 147.071 148.356 146.818 148.11C146.571 147.856 146.244 147.73 145.838 147.73C145.424 147.73 145.084 147.856 144.818 148.11C144.558 148.363 144.394 148.733 144.328 149.22H147.258ZM152.868 153.85V151.65C152.728 151.903 152.514 152.103 152.228 152.25C151.948 152.396 151.634 152.47 151.288 152.47C150.781 152.47 150.354 152.346 150.008 152.1C149.668 151.846 149.414 151.51 149.248 151.09C149.081 150.67 148.998 150.206 148.998 149.7C148.998 149.193 149.081 148.73 149.248 148.31C149.414 147.89 149.668 147.556 150.008 147.31C150.354 147.056 150.781 146.93 151.288 146.93C151.654 146.93 151.978 147.01 152.258 147.17C152.538 147.33 152.758 147.56 152.918 147.86L152.928 147.05H153.708V153.85H152.868ZM151.368 151.67C151.841 151.67 152.208 151.503 152.468 151.17C152.734 150.83 152.868 150.34 152.868 149.7C152.868 149.06 152.734 148.573 152.468 148.24C152.201 147.9 151.834 147.73 151.368 147.73C150.908 147.73 150.544 147.903 150.278 148.25C150.011 148.596 149.878 149.08 149.878 149.7C149.878 150.32 150.011 150.803 150.278 151.15C150.544 151.496 150.908 151.67 151.368 151.67ZM156.969 152.47C156.436 152.47 156.013 152.293 155.699 151.94C155.386 151.58 155.229 151.086 155.229 150.46V147.05H156.069V150.23C156.069 150.743 156.159 151.123 156.339 151.37C156.526 151.61 156.809 151.73 157.189 151.73C157.609 151.73 157.939 151.596 158.179 151.33C158.419 151.056 158.539 150.683 158.539 150.21V147.05H159.379V152.35H158.579V151.49C158.433 151.803 158.223 152.046 157.949 152.22C157.676 152.386 157.349 152.47 156.969 152.47ZM160.76 147.05H161.6V152.35H160.76V147.05ZM160.74 145.24H161.62V146.22H160.74V145.24ZM162.98 147.05H163.72L163.75 148.03C163.936 147.376 164.356 147.05 165.01 147.05H165.53V147.85H165.02C164.22 147.85 163.82 148.283 163.82 149.15V152.35H162.98V147.05ZM168.52 152.47C168.027 152.47 167.597 152.356 167.23 152.13C166.864 151.903 166.58 151.583 166.38 151.17C166.187 150.75 166.09 150.26 166.09 149.7C166.09 149.146 166.187 148.66 166.38 148.24C166.58 147.82 166.86 147.496 167.22 147.27C167.58 147.043 168 146.93 168.48 146.93C168.94 146.93 169.347 147.04 169.7 147.26C170.054 147.473 170.327 147.79 170.52 148.21C170.72 148.63 170.82 149.13 170.82 149.71V149.96H166.97C166.997 150.52 167.144 150.946 167.41 151.24C167.684 151.526 168.054 151.67 168.52 151.67C168.86 151.67 169.14 151.593 169.36 151.44C169.587 151.28 169.747 151.06 169.84 150.78L170.74 150.85C170.6 151.336 170.33 151.73 169.93 152.03C169.537 152.323 169.067 152.47 168.52 152.47ZM169.9 149.22C169.86 148.726 169.714 148.356 169.46 148.11C169.214 147.856 168.887 147.73 168.48 147.73C168.067 147.73 167.727 147.856 167.46 148.11C167.2 148.363 167.037 148.733 166.97 149.22H169.9ZM173.88 152.47C173.427 152.47 173.03 152.356 172.69 152.13C172.35 151.903 172.09 151.583 171.91 151.17C171.73 150.75 171.64 150.26 171.64 149.7C171.64 149.14 171.73 148.653 171.91 148.24C172.09 147.82 172.35 147.496 172.69 147.27C173.03 147.043 173.427 146.93 173.88 146.93C174.24 146.93 174.564 147.006 174.85 147.16C175.144 147.313 175.364 147.523 175.51 147.79V145.25H176.35V152.35H175.59L175.56 151.55C175.414 151.836 175.19 152.063 174.89 152.23C174.59 152.39 174.254 152.47 173.88 152.47ZM174.05 151.67C174.517 151.67 174.877 151.496 175.13 151.15C175.384 150.796 175.51 150.313 175.51 149.7C175.51 149.08 175.384 148.596 175.13 148.25C174.877 147.903 174.517 147.73 174.05 147.73C173.584 147.73 173.21 147.906 172.93 148.26C172.657 148.606 172.52 149.086 172.52 149.7C172.52 150.306 172.657 150.786 172.93 151.14C173.21 151.493 173.584 151.67 174.05 151.67ZM182.727 152.47C182.36 152.47 182.033 152.39 181.747 152.23C181.46 152.07 181.24 151.843 181.087 151.55L181.057 152.35H180.297V145.25H181.137V147.79C181.277 147.55 181.49 147.346 181.777 147.18C182.063 147.013 182.38 146.93 182.727 146.93C183.187 146.93 183.587 147.043 183.927 147.27C184.273 147.496 184.54 147.82 184.727 148.24C184.913 148.653 185.007 149.14 185.007 149.7C185.007 150.26 184.913 150.75 184.727 151.17C184.54 151.583 184.273 151.903 183.927 152.13C183.587 152.356 183.187 152.47 182.727 152.47ZM182.677 151.67C183.123 151.67 183.477 151.493 183.737 151.14C183.997 150.786 184.127 150.306 184.127 149.7C184.127 149.086 183.997 148.606 183.737 148.26C183.483 147.906 183.137 147.73 182.697 147.73C182.21 147.73 181.827 147.906 181.547 148.26C181.273 148.606 181.137 149.086 181.137 149.7C181.137 150.306 181.273 150.786 181.547 151.14C181.82 151.493 182.197 151.67 182.677 151.67ZM188.25 152.47C187.756 152.47 187.326 152.356 186.96 152.13C186.593 151.903 186.31 151.583 186.11 151.17C185.916 150.75 185.82 150.26 185.82 149.7C185.82 149.146 185.916 148.66 186.11 148.24C186.31 147.82 186.59 147.496 186.95 147.27C187.31 147.043 187.73 146.93 188.21 146.93C188.67 146.93 189.076 147.04 189.43 147.26C189.783 147.473 190.056 147.79 190.25 148.21C190.45 148.63 190.55 149.13 190.55 149.71V149.96H186.7C186.726 150.52 186.873 150.946 187.14 151.24C187.413 151.526 187.783 151.67 188.25 151.67C188.59 151.67 188.87 151.593 189.09 151.44C189.316 151.28 189.476 151.06 189.57 150.78L190.47 150.85C190.33 151.336 190.06 151.73 189.66 152.03C189.266 152.323 188.796 152.47 188.25 152.47ZM189.63 149.22C189.59 148.726 189.443 148.356 189.19 148.11C188.943 147.856 188.616 147.73 188.21 147.73C187.796 147.73 187.456 147.856 187.19 148.11C186.93 148.363 186.766 148.733 186.7 149.22H189.63ZM192.75 152.35C192.423 152.35 192.166 152.27 191.98 152.11C191.793 151.943 191.7 151.69 191.7 151.35L191.71 145.25H192.55V151.28C192.55 151.5 192.66 151.61 192.88 151.61H193.34V152.35H192.75ZM196.469 152.47C195.982 152.47 195.555 152.356 195.189 152.13C194.822 151.903 194.539 151.583 194.339 151.17C194.139 150.75 194.039 150.26 194.039 149.7C194.039 149.14 194.139 148.653 194.339 148.24C194.539 147.82 194.822 147.496 195.189 147.27C195.555 147.043 195.982 146.93 196.469 146.93C196.949 146.93 197.372 147.043 197.739 147.27C198.105 147.496 198.389 147.82 198.589 148.24C198.789 148.653 198.889 149.14 198.889 149.7C198.889 150.26 198.789 150.75 198.589 151.17C198.389 151.583 198.105 151.903 197.739 152.13C197.372 152.356 196.949 152.47 196.469 152.47ZM196.469 151.67C196.955 151.67 197.332 151.496 197.599 151.15C197.872 150.796 198.009 150.313 198.009 149.7C198.009 149.086 197.872 148.606 197.599 148.26C197.332 147.906 196.955 147.73 196.469 147.73C195.982 147.73 195.602 147.903 195.329 148.25C195.055 148.596 194.919 149.08 194.919 149.7C194.919 150.32 195.055 150.803 195.329 151.15C195.602 151.496 195.982 151.67 196.469 151.67ZM199.251 147.05H200.171L201.411 151.47L202.671 147.05H203.571L204.831 151.47L206.081 147.05H207.001L205.361 152.35H204.301L203.121 148.32L201.941 152.35H200.891L199.251 147.05ZM207.023 151.22H208.153V152.35H207.023V151.22Z" fill="#AFAFAF"/>
<rect x="30.38" y="177.35" width="249.24" height="29.76" rx="5.952" fill="#212121"/>
<rect x="40.052" y="187.021" width="10.416" height="10.416" rx="5.208" stroke="#58A9FF" stroke-width="1.116"/>
<path d="M45.26 188.881C45.9222 188.881 46.5695 189.078 47.12 189.446C47.6706 189.813 48.0997 190.336 48.3531 190.948C48.6065 191.56 48.6728 192.233 48.5437 192.883C48.4145 193.532 48.0956 194.129 47.6274 194.597C47.1592 195.065 46.5626 195.384 45.9131 195.513C45.2637 195.642 44.5905 195.576 43.9788 195.322C43.367 195.069 42.8441 194.64 42.4762 194.089C42.1083 193.539 41.912 192.892 41.912 192.229H45.26V188.881Z" fill="#58A9FF"/>
<path d="M63.0355 188.334H64.4729L67.1394 195.729H65.9312L65.2646 193.803H62.2439L61.5669 195.729H60.369L63.0355 188.334ZM64.9104 192.782L63.7542 189.407L62.5981 192.782H64.9104ZM69.9225 195.854C69.4503 195.854 69.0371 195.736 68.683 195.5C68.3358 195.264 68.0684 194.931 67.8809 194.5C67.6934 194.063 67.5997 193.549 67.5997 192.959C67.5997 192.376 67.6934 191.865 67.8809 191.428C68.0684 190.99 68.3358 190.653 68.683 190.417C69.0371 190.181 69.4503 190.063 69.9225 190.063C70.3044 190.063 70.6446 190.143 70.9432 190.303C71.2418 190.462 71.464 190.685 71.6099 190.969V188.334H72.714V195.729H71.6932L71.6619 194.896C71.5092 195.195 71.2765 195.431 70.9641 195.605C70.6585 195.771 70.3113 195.854 69.9225 195.854ZM70.2141 194.896C70.6585 194.896 71.0023 194.726 71.2453 194.386C71.4883 194.046 71.6099 193.57 71.6099 192.959C71.6099 192.341 71.4883 191.865 71.2453 191.532C71.0023 191.192 70.6585 191.021 70.2141 191.021C69.7628 191.021 69.4051 191.195 69.1413 191.542C68.8774 191.883 68.7455 192.355 68.7455 192.959C68.7455 193.549 68.8774 194.021 69.1413 194.375C69.4121 194.723 69.7697 194.896 70.2141 194.896ZM76.2018 195.854C75.7296 195.854 75.3164 195.736 74.9623 195.5C74.6151 195.264 74.3477 194.931 74.1602 194.5C73.9727 194.063 73.879 193.549 73.879 192.959C73.879 192.376 73.9727 191.865 74.1602 191.428C74.3477 190.99 74.6151 190.653 74.9623 190.417C75.3164 190.181 75.7296 190.063 76.2018 190.063C76.5837 190.063 76.9239 190.143 77.2225 190.303C77.5211 190.462 77.7433 190.685 77.8892 190.969V188.334H78.9933V195.729H77.9725L77.9412 194.896C77.7885 195.195 77.5559 195.431 77.2434 195.605C76.9378 195.771 76.5906 195.854 76.2018 195.854ZM76.4934 194.896C76.9378 194.896 77.2816 194.726 77.5246 194.386C77.7676 194.046 77.8892 193.57 77.8892 192.959C77.8892 192.341 77.7676 191.865 77.5246 191.532C77.2816 191.192 76.9378 191.021 76.4934 191.021C76.0421 191.021 75.6844 191.195 75.4206 191.542C75.1567 191.883 75.0248 192.355 75.0248 192.959C75.0248 193.549 75.1567 194.021 75.4206 194.375C75.6914 194.723 76.049 194.896 76.4934 194.896ZM85.7063 195.854C85.3244 195.854 84.9841 195.771 84.6855 195.605C84.3939 195.438 84.1682 195.202 84.0085 194.896L83.9772 195.729H82.9461V188.334H84.0501V190.969C84.2029 190.712 84.4251 190.497 84.7168 190.324C85.0084 190.15 85.3383 190.063 85.7063 190.063C86.1854 190.063 86.6021 190.181 86.9562 190.417C87.3104 190.653 87.5812 190.99 87.7687 191.428C87.9631 191.865 88.0603 192.376 88.0603 192.959C88.0603 193.542 87.9631 194.053 87.7687 194.49C87.5812 194.927 87.3104 195.264 86.9562 195.5C86.6021 195.736 86.1854 195.854 85.7063 195.854ZM85.5292 194.896C85.9528 194.896 86.2896 194.723 86.5396 194.375C86.7896 194.028 86.9145 193.556 86.9145 192.959C86.9145 192.355 86.7896 191.883 86.5396 191.542C86.2965 191.195 85.9632 191.021 85.5396 191.021C85.0744 191.021 84.7098 191.192 84.446 191.532C84.1821 191.872 84.0501 192.348 84.0501 192.959C84.0501 193.563 84.1786 194.039 84.4355 194.386C84.6994 194.726 85.064 194.896 85.5292 194.896ZM90.9464 195.854C90.384 195.854 89.9396 195.67 89.6132 195.302C89.2868 194.927 89.1236 194.41 89.1236 193.75V190.188H90.2277V193.469C90.2277 193.969 90.3145 194.337 90.4881 194.573C90.6617 194.809 90.9256 194.927 91.2797 194.927C91.6825 194.927 91.995 194.799 92.2172 194.542C92.4463 194.278 92.5609 193.91 92.5609 193.438V190.188H93.665V195.729H92.6338L92.6234 194.823C92.4776 195.164 92.2623 195.42 91.9776 195.594C91.6929 195.768 91.3492 195.854 90.9464 195.854ZM97.1728 195.854C96.4159 195.854 95.8222 195.684 95.3916 195.344C94.9611 195.004 94.725 194.549 94.6833 193.98L95.8291 193.928C95.9333 194.594 96.3811 194.927 97.1728 194.927C97.5269 194.927 97.8012 194.872 97.9956 194.761C98.197 194.643 98.2977 194.466 98.2977 194.23C98.2977 194.084 98.263 193.969 98.1935 193.886C98.1241 193.796 97.9956 193.719 97.8081 193.657C97.6206 193.587 97.3429 193.521 96.9749 193.459C96.4263 193.362 95.9958 193.24 95.6833 193.094C95.3708 192.948 95.1486 192.771 95.0166 192.563C94.8847 192.355 94.8187 192.094 94.8187 191.782C94.8187 191.261 95.0132 190.844 95.402 190.532C95.7909 190.219 96.336 190.063 97.0374 190.063C97.7109 190.063 98.2456 190.233 98.6414 190.574C99.0372 190.914 99.2768 191.351 99.3601 191.886L98.2248 191.948C98.1692 191.65 98.0373 191.417 97.829 191.251C97.6276 191.077 97.3602 190.99 97.0269 190.99C96.6797 190.99 96.4159 191.06 96.2353 191.199C96.0548 191.33 95.9645 191.511 95.9645 191.74C95.9645 191.983 96.0548 192.164 96.2353 192.282C96.4228 192.4 96.7457 192.497 97.204 192.573C97.7734 192.664 98.2213 192.782 98.5477 192.928C98.874 193.066 99.1032 193.24 99.2351 193.448C99.374 193.65 99.4434 193.907 99.4434 194.219C99.4434 194.726 99.2317 195.125 98.8081 195.417C98.3914 195.709 97.8463 195.854 97.1728 195.854ZM100.421 190.188H101.525V195.729H100.421V190.188ZM100.4 188.282H101.556V189.386H100.4V188.282ZM102.865 190.188H103.876L103.907 191.146C104.046 190.785 104.261 190.515 104.553 190.334C104.851 190.153 105.195 190.063 105.584 190.063C106.188 190.063 106.65 190.258 106.969 190.646C107.296 191.035 107.459 191.542 107.459 192.167V195.729H106.355V192.501C106.355 192.001 106.268 191.626 106.094 191.376C105.928 191.119 105.657 190.99 105.282 190.99C104.886 190.99 104.567 191.122 104.324 191.386C104.088 191.65 103.97 192.021 103.97 192.501V195.729H102.865V190.188ZM111.101 195.854C110.573 195.854 110.111 195.736 109.715 195.5C109.32 195.257 109.014 194.917 108.799 194.48C108.584 194.042 108.476 193.535 108.476 192.959C108.476 192.382 108.58 191.876 108.788 191.438C109.004 191.001 109.306 190.664 109.695 190.428C110.09 190.185 110.549 190.063 111.07 190.063C111.576 190.063 112.021 190.181 112.403 190.417C112.785 190.646 113.08 190.983 113.288 191.428C113.503 191.865 113.611 192.389 113.611 193V193.282H109.632C109.66 193.816 109.802 194.223 110.059 194.5C110.316 194.771 110.667 194.907 111.111 194.907C111.431 194.907 111.698 194.834 111.913 194.688C112.135 194.535 112.292 194.327 112.382 194.063L113.528 194.136C113.382 194.657 113.09 195.073 112.653 195.386C112.222 195.698 111.705 195.854 111.101 195.854ZM112.434 192.448C112.406 191.969 112.271 191.608 112.028 191.365C111.785 191.122 111.465 191.001 111.07 191.001C110.674 191.001 110.351 191.126 110.101 191.376C109.851 191.626 109.695 191.983 109.632 192.448H112.434ZM116.879 195.854C116.122 195.854 115.528 195.684 115.097 195.344C114.667 195.004 114.431 194.549 114.389 193.98L115.535 193.928C115.639 194.594 116.087 194.927 116.879 194.927C117.233 194.927 117.507 194.872 117.701 194.761C117.903 194.643 118.003 194.466 118.003 194.23C118.003 194.084 117.969 193.969 117.899 193.886C117.83 193.796 117.701 193.719 117.514 193.657C117.326 193.587 117.049 193.521 116.681 193.459C116.132 193.362 115.702 193.24 115.389 193.094C115.077 192.948 114.854 192.771 114.722 192.563C114.59 192.355 114.525 192.094 114.525 191.782C114.525 191.261 114.719 190.844 115.108 190.532C115.497 190.219 116.042 190.063 116.743 190.063C117.417 190.063 117.951 190.233 118.347 190.574C118.743 190.914 118.983 191.351 119.066 191.886L117.931 191.948C117.875 191.65 117.743 191.417 117.535 191.251C117.333 191.077 117.066 190.99 116.733 190.99C116.386 190.99 116.122 191.06 115.941 191.199C115.761 191.33 115.67 191.511 115.67 191.74C115.67 191.983 115.761 192.164 115.941 192.282C116.129 192.4 116.451 192.497 116.91 192.573C117.479 192.664 117.927 192.782 118.253 192.928C118.58 193.066 118.809 193.24 118.941 193.448C119.08 193.65 119.149 193.907 119.149 194.219C119.149 194.726 118.937 195.125 118.514 195.417C118.097 195.709 117.552 195.854 116.879 195.854ZM122.415 195.854C121.658 195.854 121.065 195.684 120.634 195.344C120.204 195.004 119.968 194.549 119.926 193.98L121.072 193.928C121.176 194.594 121.624 194.927 122.415 194.927C122.769 194.927 123.044 194.872 123.238 194.761C123.44 194.643 123.54 194.466 123.54 194.23C123.54 194.084 123.505 193.969 123.436 193.886C123.367 193.796 123.238 193.719 123.051 193.657C122.863 193.587 122.585 193.521 122.217 193.459C121.669 193.362 121.238 193.24 120.926 193.094C120.613 192.948 120.391 192.771 120.259 192.563C120.127 192.355 120.061 192.094 120.061 191.782C120.061 191.261 120.256 190.844 120.645 190.532C121.033 190.219 121.579 190.063 122.28 190.063C122.953 190.063 123.488 190.233 123.884 190.574C124.28 190.914 124.519 191.351 124.603 191.886L123.467 191.948C123.412 191.65 123.28 191.417 123.071 191.251C122.87 191.077 122.603 190.99 122.269 190.99C121.922 190.99 121.658 191.06 121.478 191.199C121.297 191.33 121.207 191.511 121.207 191.74C121.207 191.983 121.297 192.164 121.478 192.282C121.665 192.4 121.988 192.497 122.447 192.573C123.016 192.664 123.464 192.782 123.79 192.928C124.117 193.066 124.346 193.24 124.478 193.448C124.617 193.65 124.686 193.907 124.686 194.219C124.686 194.726 124.474 195.125 124.051 195.417C123.634 195.709 123.089 195.854 122.415 195.854ZM130.301 195.854C129.829 195.854 129.416 195.736 129.062 195.5C128.714 195.264 128.447 194.931 128.26 194.5C128.072 194.063 127.978 193.549 127.978 192.959C127.978 192.376 128.072 191.865 128.26 191.428C128.447 190.99 128.714 190.653 129.062 190.417C129.416 190.181 129.829 190.063 130.301 190.063C130.683 190.063 131.023 190.143 131.322 190.303C131.62 190.462 131.843 190.685 131.988 190.969V188.334H133.093V195.729H132.072L132.041 194.896C131.888 195.195 131.655 195.431 131.343 195.605C131.037 195.771 130.69 195.854 130.301 195.854ZM130.593 194.896C131.037 194.896 131.381 194.726 131.624 194.386C131.867 194.046 131.988 193.57 131.988 192.959C131.988 192.341 131.867 191.865 131.624 191.532C131.381 191.192 131.037 191.021 130.593 191.021C130.141 191.021 129.784 191.195 129.52 191.542C129.256 191.883 129.124 192.355 129.124 192.959C129.124 193.549 129.256 194.021 129.52 194.375C129.791 194.723 130.148 194.896 130.593 194.896ZM136.882 195.854C136.355 195.854 135.893 195.736 135.497 195.5C135.101 195.257 134.796 194.917 134.581 194.48C134.365 194.042 134.258 193.535 134.258 192.959C134.258 192.382 134.362 191.876 134.57 191.438C134.785 191.001 135.087 190.664 135.476 190.428C135.872 190.185 136.33 190.063 136.851 190.063C137.358 190.063 137.803 190.181 138.184 190.417C138.566 190.646 138.862 190.983 139.07 191.428C139.285 191.865 139.393 192.389 139.393 193V193.282H135.414C135.442 193.816 135.584 194.223 135.841 194.5C136.098 194.771 136.448 194.907 136.893 194.907C137.212 194.907 137.48 194.834 137.695 194.688C137.917 194.535 138.073 194.327 138.164 194.063L139.309 194.136C139.164 194.657 138.872 195.073 138.434 195.386C138.004 195.698 137.487 195.854 136.882 195.854ZM138.216 192.448C138.188 191.969 138.053 191.608 137.809 191.365C137.566 191.122 137.247 191.001 136.851 191.001C136.455 191.001 136.133 191.126 135.883 191.376C135.633 191.626 135.476 191.983 135.414 192.448H138.216ZM142.374 195.729C141.847 195.729 141.458 195.611 141.208 195.375C140.958 195.132 140.833 194.75 140.833 194.23V191.094H139.989V190.188H140.833V188.886H141.937V190.188H143.406V191.094H141.937V194.146C141.937 194.396 141.989 194.573 142.093 194.677C142.204 194.775 142.378 194.823 142.614 194.823H143.406V195.729H142.374ZM146.321 195.854C145.821 195.854 145.394 195.726 145.04 195.469C144.693 195.212 144.433 194.865 144.259 194.427C144.085 193.99 143.999 193.5 143.999 192.959C143.999 192.417 144.085 191.928 144.259 191.49C144.433 191.053 144.693 190.706 145.04 190.449C145.387 190.192 145.811 190.063 146.311 190.063C146.707 190.063 147.051 190.143 147.342 190.303C147.634 190.462 147.856 190.685 148.009 190.969V190.188H149.113V195.729H148.092L148.061 194.875C147.908 195.181 147.682 195.42 147.384 195.594C147.085 195.768 146.731 195.854 146.321 195.854ZM146.613 194.896C147.092 194.896 147.443 194.716 147.665 194.355C147.894 193.987 148.009 193.521 148.009 192.959C148.009 192.382 147.898 191.917 147.675 191.563C147.453 191.202 147.099 191.021 146.613 191.021C146.134 191.021 145.769 191.205 145.519 191.574C145.269 191.935 145.144 192.396 145.144 192.959C145.144 193.507 145.269 193.969 145.519 194.344C145.769 194.712 146.134 194.896 146.613 194.896ZM150.479 190.188H151.583V195.729H150.479V190.188ZM150.458 188.282H151.614V189.386H150.458V188.282ZM154.284 195.729C153.902 195.729 153.604 195.632 153.389 195.438C153.173 195.243 153.066 194.948 153.066 194.552L153.076 188.334H154.18V194.448C154.18 194.698 154.305 194.823 154.555 194.823H155.003V195.729H154.284ZM158.175 195.854C157.418 195.854 156.825 195.684 156.394 195.344C155.963 195.004 155.727 194.549 155.686 193.98L156.831 193.928C156.936 194.594 157.384 194.927 158.175 194.927C158.529 194.927 158.804 194.872 158.998 194.761C159.199 194.643 159.3 194.466 159.3 194.23C159.3 194.084 159.265 193.969 159.196 193.886C159.126 193.796 158.998 193.719 158.81 193.657C158.623 193.587 158.345 193.521 157.977 193.459C157.429 193.362 156.998 193.24 156.686 193.094C156.373 192.948 156.151 192.771 156.019 192.563C155.887 192.355 155.821 192.094 155.821 191.782C155.821 191.261 156.016 190.844 156.404 190.532C156.793 190.219 157.338 190.063 158.04 190.063C158.713 190.063 159.248 190.233 159.644 190.574C160.04 190.914 160.279 191.351 160.362 191.886L159.227 191.948C159.172 191.65 159.04 191.417 158.831 191.251C158.63 191.077 158.363 190.99 158.029 190.99C157.682 190.99 157.418 191.06 157.238 191.199C157.057 191.33 156.967 191.511 156.967 191.74C156.967 191.983 157.057 192.164 157.238 192.282C157.425 192.4 157.748 192.497 158.206 192.573C158.776 192.664 159.224 192.782 159.55 192.928C159.876 193.066 160.106 193.24 160.237 193.448C160.376 193.65 160.446 193.907 160.446 194.219C160.446 194.726 160.234 195.125 159.81 195.417C159.394 195.709 158.849 195.854 158.175 195.854Z" fill="#FAFAFA"/>
<path d="M258.044 192.23H268.46M263.996 187.766L268.46 192.23L263.996 196.694" stroke="#828282" stroke-width="1.116" stroke-linecap="round" stroke-linejoin="round"/>
<rect x="30.3801" y="214.549" width="249.24" height="29.76" rx="5.952" fill="#212121"/>
<rect x="40.0521" y="224.221" width="10.416" height="10.416" rx="5.208" stroke="#58A9FF" stroke-width="1.116"/>
<path d="M45.2601 226.081C45.9223 226.081 46.5696 226.277 47.1202 226.645C47.6707 227.013 48.0999 227.536 48.3533 228.148C48.6067 228.76 48.673 229.433 48.5438 230.082C48.4146 230.732 48.0957 231.328 47.6275 231.796C47.1593 232.265 46.5627 232.584 45.9133 232.713C45.2638 232.842 44.5907 232.776 43.9789 232.522C43.3671 232.269 42.8442 231.84 42.4763 231.289C42.1085 230.739 41.9121 230.091 41.9121 229.429H45.2601V226.081Z" fill="#58A9FF"/>
<path d="M63.0357 225.534H64.4731L67.1396 232.929H65.9313L65.2647 231.002H62.244L61.567 232.929H60.3692L63.0357 225.534ZM64.9105 229.981L63.7544 226.607L62.5982 229.981H64.9105ZM69.9226 233.054C69.4504 233.054 69.0372 232.936 68.6831 232.7C68.3359 232.464 68.0685 232.131 67.8811 231.7C67.6936 231.263 67.5998 230.749 67.5998 230.159C67.5998 229.575 67.6936 229.065 67.8811 228.627C68.0685 228.19 68.3359 227.853 68.6831 227.617C69.0372 227.381 69.4504 227.263 69.9226 227.263C70.3045 227.263 70.6448 227.343 70.9434 227.502C71.242 227.662 71.4642 227.884 71.61 228.169V225.534H72.7141V232.929H71.6933L71.6621 232.096C71.5093 232.395 71.2767 232.631 70.9642 232.804C70.6587 232.971 70.3115 233.054 69.9226 233.054ZM70.2142 232.096C70.6587 232.096 71.0024 231.926 71.2454 231.586C71.4885 231.245 71.61 230.77 71.61 230.159C71.61 229.541 71.4885 229.065 71.2454 228.732C71.0024 228.391 70.6587 228.221 70.2142 228.221C69.7629 228.221 69.4053 228.395 69.1414 228.742C68.8775 229.082 68.7456 229.554 68.7456 230.159C68.7456 230.749 68.8775 231.221 69.1414 231.575C69.4122 231.922 69.7698 232.096 70.2142 232.096ZM76.2019 233.054C75.7297 233.054 75.3165 232.936 74.9624 232.7C74.6152 232.464 74.3478 232.131 74.1604 231.7C73.9729 231.263 73.8791 230.749 73.8791 230.159C73.8791 229.575 73.9729 229.065 74.1604 228.627C74.3478 228.19 74.6152 227.853 74.9624 227.617C75.3165 227.381 75.7297 227.263 76.2019 227.263C76.5838 227.263 76.9241 227.343 77.2227 227.502C77.5213 227.662 77.7435 227.884 77.8893 228.169V225.534H78.9934V232.929H77.9726L77.9414 232.096C77.7886 232.395 77.556 232.631 77.2435 232.804C76.938 232.971 76.5908 233.054 76.2019 233.054ZM76.4935 232.096C76.938 232.096 77.2817 231.926 77.5247 231.586C77.7678 231.245 77.8893 230.77 77.8893 230.159C77.8893 229.541 77.7678 229.065 77.5247 228.732C77.2817 228.391 76.938 228.221 76.4935 228.221C76.0422 228.221 75.6846 228.395 75.4207 228.742C75.1568 229.082 75.0249 229.554 75.0249 230.159C75.0249 230.749 75.1568 231.221 75.4207 231.575C75.6915 231.922 76.0491 232.096 76.4935 232.096ZM85.7064 233.054C85.3245 233.054 84.9842 232.971 84.6856 232.804C84.394 232.638 84.1683 232.401 84.0086 232.096L83.9774 232.929H82.9462V225.534H84.0503V228.169C84.203 227.912 84.4252 227.697 84.7169 227.523C85.0085 227.35 85.3384 227.263 85.7064 227.263C86.1855 227.263 86.6022 227.381 86.9563 227.617C87.3105 227.853 87.5813 228.19 87.7688 228.627C87.9632 229.065 88.0604 229.575 88.0604 230.159C88.0604 230.742 87.9632 231.252 87.7688 231.69C87.5813 232.127 87.3105 232.464 86.9563 232.7C86.6022 232.936 86.1855 233.054 85.7064 233.054ZM85.5293 232.096C85.9529 232.096 86.2897 231.922 86.5397 231.575C86.7897 231.228 86.9147 230.756 86.9147 230.159C86.9147 229.554 86.7897 229.082 86.5397 228.742C86.2967 228.395 85.9633 228.221 85.5398 228.221C85.0745 228.221 84.7099 228.391 84.4461 228.732C84.1822 229.072 84.0503 229.547 84.0503 230.159C84.0503 230.763 84.1787 231.238 84.4357 231.586C84.6995 231.926 85.0641 232.096 85.5293 232.096ZM90.9466 233.054C90.3841 233.054 89.9397 232.87 89.6133 232.502C89.2869 232.127 89.1238 231.61 89.1238 230.95V227.388H90.2279V230.669C90.2279 231.169 90.3147 231.537 90.4883 231.773C90.6619 232.009 90.9257 232.127 91.2799 232.127C91.6826 232.127 91.9951 231.999 92.2173 231.742C92.4465 231.478 92.561 231.11 92.561 230.638V227.388H93.6651V232.929H92.6339L92.6235 232.023C92.4777 232.363 92.2624 232.62 91.9777 232.794C91.693 232.967 91.3493 233.054 90.9466 233.054ZM97.1729 233.054C96.416 233.054 95.8223 232.884 95.3917 232.544C94.9612 232.204 94.7251 231.749 94.6835 231.179L95.8292 231.127C95.9334 231.794 96.3813 232.127 97.1729 232.127C97.527 232.127 97.8013 232.072 97.9957 231.961C98.1971 231.842 98.2978 231.665 98.2978 231.429C98.2978 231.283 98.2631 231.169 98.1937 231.086C98.1242 230.995 97.9957 230.919 97.8083 230.856C97.6208 230.787 97.343 230.721 96.975 230.659C96.4264 230.561 95.9959 230.44 95.6834 230.294C95.3709 230.148 95.1487 229.971 95.0168 229.763C94.8848 229.554 94.8189 229.294 94.8189 228.982C94.8189 228.461 95.0133 228.044 95.4022 227.732C95.791 227.419 96.3361 227.263 97.0375 227.263C97.711 227.263 98.2457 227.433 98.6415 227.773C99.0373 228.114 99.2769 228.551 99.3602 229.086L98.2249 229.148C98.1693 228.85 98.0374 228.617 97.8291 228.45C97.6277 228.277 97.3604 228.19 97.0271 228.19C96.6799 228.19 96.416 228.259 96.2354 228.398C96.0549 228.53 95.9646 228.711 95.9646 228.94C95.9646 229.183 96.0549 229.363 96.2354 229.482C96.4229 229.6 96.7458 229.697 97.2041 229.773C97.7735 229.863 98.2214 229.981 98.5478 230.127C98.8742 230.266 99.1033 230.44 99.2353 230.648C99.3741 230.849 99.4436 231.106 99.4436 231.419C99.4436 231.926 99.2318 232.325 98.8082 232.617C98.3916 232.908 97.8465 233.054 97.1729 233.054ZM100.421 227.388H101.525V232.929H100.421V227.388ZM100.4 225.482H101.556V226.586H100.4V225.482ZM102.866 227.388H103.876L103.907 228.346C104.046 227.985 104.261 227.714 104.553 227.534C104.852 227.353 105.195 227.263 105.584 227.263C106.188 227.263 106.65 227.457 106.969 227.846C107.296 228.235 107.459 228.742 107.459 229.367V232.929H106.355V229.7C106.355 229.2 106.268 228.825 106.095 228.575C105.928 228.318 105.657 228.19 105.282 228.19C104.886 228.19 104.567 228.322 104.324 228.586C104.088 228.85 103.97 229.221 103.97 229.7V232.929H102.866V227.388ZM111.101 233.054C110.573 233.054 110.111 232.936 109.716 232.7C109.32 232.457 109.014 232.117 108.799 231.679C108.584 231.242 108.476 230.735 108.476 230.159C108.476 229.582 108.58 229.075 108.789 228.638C109.004 228.2 109.306 227.864 109.695 227.627C110.091 227.384 110.549 227.263 111.07 227.263C111.577 227.263 112.021 227.381 112.403 227.617C112.785 227.846 113.08 228.183 113.288 228.627C113.504 229.065 113.611 229.589 113.611 230.2V230.481H109.632C109.66 231.016 109.802 231.422 110.059 231.7C110.316 231.971 110.667 232.106 111.111 232.106C111.431 232.106 111.698 232.033 111.913 231.888C112.136 231.735 112.292 231.527 112.382 231.263L113.528 231.336C113.382 231.856 113.09 232.273 112.653 232.585C112.222 232.898 111.705 233.054 111.101 233.054ZM112.434 229.648C112.406 229.169 112.271 228.808 112.028 228.565C111.785 228.322 111.466 228.2 111.07 228.2C110.674 228.2 110.351 228.325 110.101 228.575C109.851 228.825 109.695 229.183 109.632 229.648H112.434ZM116.879 233.054C116.122 233.054 115.528 232.884 115.098 232.544C114.667 232.204 114.431 231.749 114.389 231.179L115.535 231.127C115.639 231.794 116.087 232.127 116.879 232.127C117.233 232.127 117.507 232.072 117.702 231.961C117.903 231.842 118.004 231.665 118.004 231.429C118.004 231.283 117.969 231.169 117.899 231.086C117.83 230.995 117.702 230.919 117.514 230.856C117.327 230.787 117.049 230.721 116.681 230.659C116.132 230.561 115.702 230.44 115.389 230.294C115.077 230.148 114.854 229.971 114.723 229.763C114.591 229.554 114.525 229.294 114.525 228.982C114.525 228.461 114.719 228.044 115.108 227.732C115.497 227.419 116.042 227.263 116.743 227.263C117.417 227.263 117.952 227.433 118.347 227.773C118.743 228.114 118.983 228.551 119.066 229.086L117.931 229.148C117.875 228.85 117.743 228.617 117.535 228.45C117.333 228.277 117.066 228.19 116.733 228.19C116.386 228.19 116.122 228.259 115.941 228.398C115.761 228.53 115.67 228.711 115.67 228.94C115.67 229.183 115.761 229.363 115.941 229.482C116.129 229.6 116.452 229.697 116.91 229.773C117.479 229.863 117.927 229.981 118.254 230.127C118.58 230.266 118.809 230.44 118.941 230.648C119.08 230.849 119.149 231.106 119.149 231.419C119.149 231.926 118.938 232.325 118.514 232.617C118.097 232.908 117.552 233.054 116.879 233.054ZM122.415 233.054C121.659 233.054 121.065 232.884 120.634 232.544C120.204 232.204 119.968 231.749 119.926 231.179L121.072 231.127C121.176 231.794 121.624 232.127 122.415 232.127C122.77 232.127 123.044 232.072 123.238 231.961C123.44 231.842 123.54 231.665 123.54 231.429C123.54 231.283 123.506 231.169 123.436 231.086C123.367 230.995 123.238 230.919 123.051 230.856C122.863 230.787 122.586 230.721 122.218 230.659C121.669 230.561 121.238 230.44 120.926 230.294C120.613 230.148 120.391 229.971 120.259 229.763C120.127 229.554 120.061 229.294 120.061 228.982C120.061 228.461 120.256 228.044 120.645 227.732C121.034 227.419 121.579 227.263 122.28 227.263C122.954 227.263 123.488 227.433 123.884 227.773C124.28 228.114 124.519 228.551 124.603 229.086L123.467 229.148C123.412 228.85 123.28 228.617 123.072 228.45C122.87 228.277 122.603 228.19 122.27 228.19C121.922 228.19 121.659 228.259 121.478 228.398C121.297 228.53 121.207 228.711 121.207 228.94C121.207 229.183 121.297 229.363 121.478 229.482C121.665 229.6 121.988 229.697 122.447 229.773C123.016 229.863 123.464 229.981 123.79 230.127C124.117 230.266 124.346 230.44 124.478 230.648C124.617 230.849 124.686 231.106 124.686 231.419C124.686 231.926 124.474 232.325 124.051 232.617C123.634 232.908 123.089 233.054 122.415 233.054ZM130.301 233.054C129.829 233.054 129.416 232.936 129.062 232.7C128.715 232.464 128.447 232.131 128.26 231.7C128.072 231.263 127.978 230.749 127.978 230.159C127.978 229.575 128.072 229.065 128.26 228.627C128.447 228.19 128.715 227.853 129.062 227.617C129.416 227.381 129.829 227.263 130.301 227.263C130.683 227.263 131.023 227.343 131.322 227.502C131.621 227.662 131.843 227.884 131.989 228.169V225.534H133.093V232.929H132.072L132.041 232.096C131.888 232.395 131.655 232.631 131.343 232.804C131.037 232.971 130.69 233.054 130.301 233.054ZM130.593 232.096C131.037 232.096 131.381 231.926 131.624 231.586C131.867 231.245 131.989 230.77 131.989 230.159C131.989 229.541 131.867 229.065 131.624 228.732C131.381 228.391 131.037 228.221 130.593 228.221C130.142 228.221 129.784 228.395 129.52 228.742C129.256 229.082 129.124 229.554 129.124 230.159C129.124 230.749 129.256 231.221 129.52 231.575C129.791 231.922 130.148 232.096 130.593 232.096ZM136.893 233.054C136.365 233.054 135.903 232.936 135.508 232.7C135.112 232.464 134.803 232.127 134.581 231.69C134.365 231.252 134.258 230.742 134.258 230.159C134.258 229.575 134.365 229.065 134.581 228.627C134.803 228.19 135.112 227.853 135.508 227.617C135.903 227.381 136.365 227.263 136.893 227.263C137.414 227.263 137.872 227.384 138.268 227.627C138.671 227.864 138.98 228.2 139.195 228.638C139.41 229.068 139.518 229.575 139.518 230.159C139.518 230.742 139.41 231.252 139.195 231.69C138.98 232.12 138.671 232.457 138.268 232.7C137.872 232.936 137.414 233.054 136.893 233.054ZM136.893 232.096C137.358 232.096 137.719 231.926 137.976 231.586C138.24 231.245 138.372 230.77 138.372 230.159C138.372 229.547 138.24 229.072 137.976 228.732C137.719 228.391 137.358 228.221 136.893 228.221C136.428 228.221 136.063 228.391 135.799 228.732C135.535 229.072 135.404 229.547 135.404 230.159C135.404 230.77 135.535 231.245 135.799 231.586C136.063 231.926 136.428 232.096 136.893 232.096ZM142.928 233.054C142.4 233.054 141.935 232.936 141.532 232.7C141.137 232.457 140.831 232.117 140.616 231.679C140.401 231.242 140.293 230.735 140.293 230.159C140.293 229.582 140.401 229.075 140.616 228.638C140.831 228.2 141.137 227.864 141.532 227.627C141.935 227.384 142.4 227.263 142.928 227.263C143.609 227.263 144.168 227.44 144.605 227.794C145.043 228.148 145.306 228.641 145.397 229.273L144.251 229.336C144.195 228.982 144.05 228.707 143.814 228.513C143.577 228.318 143.282 228.221 142.928 228.221C142.463 228.221 142.098 228.391 141.834 228.732C141.571 229.072 141.439 229.547 141.439 230.159C141.439 230.77 141.571 231.245 141.834 231.586C142.098 231.926 142.463 232.096 142.928 232.096C143.289 232.096 143.584 231.995 143.814 231.794C144.05 231.586 144.195 231.287 144.251 230.898L145.397 230.961C145.306 231.599 145.039 232.11 144.595 232.492C144.157 232.867 143.602 233.054 142.928 233.054ZM148.169 233.054C147.606 233.054 147.162 232.87 146.835 232.502C146.509 232.127 146.346 231.61 146.346 230.95V227.388H147.45V230.669C147.45 231.169 147.537 231.537 147.71 231.773C147.884 232.009 148.148 232.127 148.502 232.127C148.905 232.127 149.217 231.999 149.439 231.742C149.669 231.478 149.783 231.11 149.783 230.638V227.388H150.887V232.929H149.856L149.846 232.023C149.7 232.363 149.485 232.62 149.2 232.794C148.915 232.967 148.571 233.054 148.169 233.054ZM152.371 227.388H153.381L153.402 228.346C153.541 228.006 153.746 227.742 154.017 227.555C154.287 227.36 154.596 227.263 154.944 227.263C155.353 227.263 155.697 227.364 155.975 227.565C156.259 227.766 156.461 228.048 156.579 228.409C156.704 228.041 156.902 227.759 157.173 227.565C157.45 227.364 157.787 227.263 158.183 227.263C158.766 227.263 159.218 227.447 159.537 227.815C159.856 228.176 160.016 228.693 160.016 229.367V232.929H158.912V229.638C158.912 228.673 158.561 228.19 157.86 228.19C157.506 228.19 157.225 228.322 157.016 228.586C156.815 228.85 156.714 229.214 156.714 229.679V232.929H155.662V229.679C155.662 229.193 155.579 228.825 155.412 228.575C155.253 228.318 154.992 228.19 154.631 228.19C154.277 228.19 153.996 228.325 153.787 228.596C153.579 228.86 153.475 229.221 153.475 229.679V232.929H152.371V227.388ZM163.668 233.054C163.14 233.054 162.678 232.936 162.283 232.7C161.887 232.457 161.581 232.117 161.366 231.679C161.151 231.242 161.043 230.735 161.043 230.159C161.043 229.582 161.147 229.075 161.356 228.638C161.571 228.2 161.873 227.864 162.262 227.627C162.658 227.384 163.116 227.263 163.637 227.263C164.144 227.263 164.588 227.381 164.97 227.617C165.352 227.846 165.647 228.183 165.855 228.627C166.071 229.065 166.178 229.589 166.178 230.2V230.481H162.199C162.227 231.016 162.369 231.422 162.626 231.7C162.883 231.971 163.234 232.106 163.678 232.106C163.998 232.106 164.265 232.033 164.48 231.888C164.703 231.735 164.859 231.527 164.949 231.263L166.095 231.336C165.949 231.856 165.657 232.273 165.22 232.585C164.789 232.898 164.272 233.054 163.668 233.054ZM165.001 229.648C164.973 229.169 164.838 228.808 164.595 228.565C164.352 228.322 164.033 228.2 163.637 228.2C163.241 228.2 162.918 228.325 162.668 228.575C162.418 228.825 162.262 229.183 162.199 229.648H165.001ZM167.279 227.388H168.29L168.321 228.346C168.46 227.985 168.675 227.714 168.967 227.534C169.265 227.353 169.609 227.263 169.998 227.263C170.602 227.263 171.064 227.457 171.383 227.846C171.709 228.235 171.873 228.742 171.873 229.367V232.929H170.769V229.7C170.769 229.2 170.682 228.825 170.508 228.575C170.341 228.318 170.071 228.19 169.696 228.19C169.3 228.19 168.98 228.322 168.737 228.586C168.501 228.85 168.383 229.221 168.383 229.7V232.929H167.279V227.388ZM175.165 232.929C174.637 232.929 174.248 232.811 173.998 232.575C173.748 232.332 173.623 231.95 173.623 231.429V228.294H172.779V227.388H173.623V226.086H174.727V227.388H176.196V228.294H174.727V231.346C174.727 231.596 174.779 231.773 174.883 231.877C174.994 231.974 175.168 232.023 175.404 232.023H176.196V232.929H175.165ZM179.278 233.054C178.521 233.054 177.928 232.884 177.497 232.544C177.067 232.204 176.83 231.749 176.789 231.179L177.935 231.127C178.039 231.794 178.487 232.127 179.278 232.127C179.632 232.127 179.907 232.072 180.101 231.961C180.302 231.842 180.403 231.665 180.403 231.429C180.403 231.283 180.368 231.169 180.299 231.086C180.23 230.995 180.101 230.919 179.914 230.856C179.726 230.787 179.448 230.721 179.08 230.659C178.532 230.561 178.101 230.44 177.789 230.294C177.476 230.148 177.254 229.971 177.122 229.763C176.99 229.554 176.924 229.294 176.924 228.982C176.924 228.461 177.119 228.044 177.508 227.732C177.896 227.419 178.441 227.263 179.143 227.263C179.816 227.263 180.351 227.433 180.747 227.773C181.143 228.114 181.382 228.551 181.466 229.086L180.33 229.148C180.275 228.85 180.143 228.617 179.934 228.45C179.733 228.277 179.466 228.19 179.132 228.19C178.785 228.19 178.521 228.259 178.341 228.398C178.16 228.53 178.07 228.711 178.07 228.94C178.07 229.183 178.16 229.363 178.341 229.482C178.528 229.6 178.851 229.697 179.309 229.773C179.879 229.863 180.327 229.981 180.653 230.127C180.98 230.266 181.209 230.44 181.341 230.648C181.479 230.849 181.549 231.106 181.549 231.419C181.549 231.926 181.337 232.325 180.914 232.617C180.497 232.908 179.952 233.054 179.278 233.054Z" fill="#FAFAFA"/>
<path d="M258.044 229.429H268.46M263.996 224.965L268.46 229.429L263.996 233.893" stroke="#828282" stroke-width="1.116" stroke-linecap="round" stroke-linejoin="round"/>
<rect x="30.3801" y="251.75" width="249.24" height="29.76" rx="5.952" fill="#212121"/>
<ellipse cx="45.2602" cy="266.629" rx="5.20796" ry="5.208" stroke="#5C5C5C" stroke-width="1.116" stroke-linecap="round" stroke-dasharray="2.23 2.23"/>
<path d="M63.0357 262.734H64.4731L67.1396 270.129H65.9313L65.2647 268.202H62.244L61.567 270.129H60.3692L63.0357 262.734ZM64.9105 267.182L63.7544 263.807L62.5982 267.182H64.9105ZM69.9226 270.254C69.4504 270.254 69.0372 270.136 68.6831 269.9C68.3359 269.664 68.0685 269.331 67.8811 268.9C67.6936 268.463 67.5998 267.949 67.5998 267.359C67.5998 266.775 67.6936 266.265 67.8811 265.828C68.0685 265.39 68.3359 265.053 68.6831 264.817C69.0372 264.581 69.4504 264.463 69.9226 264.463C70.3045 264.463 70.6448 264.543 70.9434 264.703C71.242 264.862 71.4642 265.085 71.61 265.369V262.734H72.7141V270.129H71.6933L71.6621 269.296C71.5093 269.595 71.2767 269.831 70.9642 270.004C70.6587 270.171 70.3115 270.254 69.9226 270.254ZM70.2142 269.296C70.6587 269.296 71.0024 269.126 71.2454 268.786C71.4885 268.445 71.61 267.97 71.61 267.359C71.61 266.741 71.4885 266.265 71.2454 265.932C71.0024 265.591 70.6587 265.421 70.2142 265.421C69.7629 265.421 69.4053 265.595 69.1414 265.942C68.8775 266.282 68.7456 266.755 68.7456 267.359C68.7456 267.949 68.8775 268.421 69.1414 268.775C69.4122 269.123 69.7698 269.296 70.2142 269.296ZM76.2019 270.254C75.7297 270.254 75.3165 270.136 74.9624 269.9C74.6152 269.664 74.3478 269.331 74.1604 268.9C73.9729 268.463 73.8791 267.949 73.8791 267.359C73.8791 266.775 73.9729 266.265 74.1604 265.828C74.3478 265.39 74.6152 265.053 74.9624 264.817C75.3165 264.581 75.7297 264.463 76.2019 264.463C76.5838 264.463 76.9241 264.543 77.2227 264.703C77.5213 264.862 77.7435 265.085 77.8893 265.369V262.734H78.9934V270.129H77.9726L77.9414 269.296C77.7886 269.595 77.556 269.831 77.2435 270.004C76.938 270.171 76.5908 270.254 76.2019 270.254ZM76.4935 269.296C76.938 269.296 77.2817 269.126 77.5247 268.786C77.7678 268.445 77.8893 267.97 77.8893 267.359C77.8893 266.741 77.7678 266.265 77.5247 265.932C77.2817 265.591 76.938 265.421 76.4935 265.421C76.0422 265.421 75.6846 265.595 75.4207 265.942C75.1568 266.282 75.0249 266.755 75.0249 267.359C75.0249 267.949 75.1568 268.421 75.4207 268.775C75.6915 269.123 76.0491 269.296 76.4935 269.296ZM85.7064 270.254C85.3245 270.254 84.9842 270.171 84.6856 270.004C84.394 269.838 84.1683 269.602 84.0086 269.296L83.9774 270.129H82.9462V262.734H84.0503V265.369C84.203 265.112 84.4252 264.897 84.7169 264.723C85.0085 264.55 85.3384 264.463 85.7064 264.463C86.1855 264.463 86.6022 264.581 86.9563 264.817C87.3105 265.053 87.5813 265.39 87.7688 265.828C87.9632 266.265 88.0604 266.775 88.0604 267.359C88.0604 267.942 87.9632 268.452 87.7688 268.89C87.5813 269.327 87.3105 269.664 86.9563 269.9C86.6022 270.136 86.1855 270.254 85.7064 270.254ZM85.5293 269.296C85.9529 269.296 86.2897 269.123 86.5397 268.775C86.7897 268.428 86.9147 267.956 86.9147 267.359C86.9147 266.755 86.7897 266.282 86.5397 265.942C86.2967 265.595 85.9633 265.421 85.5398 265.421C85.0745 265.421 84.7099 265.591 84.4461 265.932C84.1822 266.272 84.0503 266.748 84.0503 267.359C84.0503 267.963 84.1787 268.439 84.4357 268.786C84.6995 269.126 85.0641 269.296 85.5293 269.296ZM90.9466 270.254C90.3841 270.254 89.9397 270.07 89.6133 269.702C89.2869 269.327 89.1238 268.81 89.1238 268.15V264.588H90.2279V267.869C90.2279 268.369 90.3147 268.737 90.4883 268.973C90.6619 269.209 90.9257 269.327 91.2799 269.327C91.6826 269.327 91.9951 269.199 92.2173 268.942C92.4465 268.678 92.561 268.31 92.561 267.838V264.588H93.6651V270.129H92.6339L92.6235 269.223C92.4777 269.563 92.2624 269.82 91.9777 269.994C91.693 270.168 91.3493 270.254 90.9466 270.254ZM97.1729 270.254C96.416 270.254 95.8223 270.084 95.3917 269.744C94.9612 269.404 94.7251 268.949 94.6835 268.38L95.8292 268.327C95.9334 268.994 96.3813 269.327 97.1729 269.327C97.527 269.327 97.8013 269.272 97.9957 269.161C98.1971 269.043 98.2978 268.866 98.2978 268.629C98.2978 268.484 98.2631 268.369 98.1937 268.286C98.1242 268.195 97.9957 268.119 97.8083 268.057C97.6208 267.987 97.343 267.921 96.975 267.859C96.4264 267.761 95.9959 267.64 95.6834 267.494C95.3709 267.348 95.1487 267.171 95.0168 266.963C94.8848 266.755 94.8189 266.494 94.8189 266.182C94.8189 265.661 95.0133 265.244 95.4022 264.932C95.791 264.619 96.3361 264.463 97.0375 264.463C97.711 264.463 98.2457 264.633 98.6415 264.973C99.0373 265.314 99.2769 265.751 99.3602 266.286L98.2249 266.348C98.1693 266.05 98.0374 265.817 97.8291 265.651C97.6277 265.477 97.3604 265.39 97.0271 265.39C96.6799 265.39 96.416 265.46 96.2354 265.598C96.0549 265.73 95.9646 265.911 95.9646 266.14C95.9646 266.383 96.0549 266.564 96.2354 266.682C96.4229 266.8 96.7458 266.897 97.2041 266.973C97.7735 267.064 98.2214 267.182 98.5478 267.327C98.8742 267.466 99.1033 267.64 99.2353 267.848C99.3741 268.05 99.4436 268.307 99.4436 268.619C99.4436 269.126 99.2318 269.525 98.8082 269.817C98.3916 270.109 97.8465 270.254 97.1729 270.254ZM100.421 264.588H101.525V270.129H100.421V264.588ZM100.4 262.682H101.556V263.786H100.4V262.682ZM102.866 264.588H103.876L103.907 265.546C104.046 265.185 104.261 264.914 104.553 264.734C104.852 264.553 105.195 264.463 105.584 264.463C106.188 264.463 106.65 264.658 106.969 265.046C107.296 265.435 107.459 265.942 107.459 266.567V270.129H106.355V266.9C106.355 266.4 106.268 266.025 106.095 265.776C105.928 265.519 105.657 265.39 105.282 265.39C104.886 265.39 104.567 265.522 104.324 265.786C104.088 266.05 103.97 266.421 103.97 266.9V270.129H102.866V264.588ZM111.101 270.254C110.573 270.254 110.111 270.136 109.716 269.9C109.32 269.657 109.014 269.317 108.799 268.879C108.584 268.442 108.476 267.935 108.476 267.359C108.476 266.782 108.58 266.275 108.789 265.838C109.004 265.401 109.306 265.064 109.695 264.828C110.091 264.585 110.549 264.463 111.07 264.463C111.577 264.463 112.021 264.581 112.403 264.817C112.785 265.046 113.08 265.383 113.288 265.828C113.504 266.265 113.611 266.789 113.611 267.4V267.682H109.632C109.66 268.216 109.802 268.623 110.059 268.9C110.316 269.171 110.667 269.307 111.111 269.307C111.431 269.307 111.698 269.234 111.913 269.088C112.136 268.935 112.292 268.727 112.382 268.463L113.528 268.536C113.382 269.057 113.09 269.473 112.653 269.786C112.222 270.098 111.705 270.254 111.101 270.254ZM112.434 266.848C112.406 266.369 112.271 266.008 112.028 265.765C111.785 265.522 111.466 265.401 111.07 265.401C110.674 265.401 110.351 265.526 110.101 265.776C109.851 266.025 109.695 266.383 109.632 266.848H112.434ZM116.879 270.254C116.122 270.254 115.528 270.084 115.098 269.744C114.667 269.404 114.431 268.949 114.389 268.38L115.535 268.327C115.639 268.994 116.087 269.327 116.879 269.327C117.233 269.327 117.507 269.272 117.702 269.161C117.903 269.043 118.004 268.866 118.004 268.629C118.004 268.484 117.969 268.369 117.899 268.286C117.83 268.195 117.702 268.119 117.514 268.057C117.327 267.987 117.049 267.921 116.681 267.859C116.132 267.761 115.702 267.64 115.389 267.494C115.077 267.348 114.854 267.171 114.723 266.963C114.591 266.755 114.525 266.494 114.525 266.182C114.525 265.661 114.719 265.244 115.108 264.932C115.497 264.619 116.042 264.463 116.743 264.463C117.417 264.463 117.952 264.633 118.347 264.973C118.743 265.314 118.983 265.751 119.066 266.286L117.931 266.348C117.875 266.05 117.743 265.817 117.535 265.651C117.333 265.477 117.066 265.39 116.733 265.39C116.386 265.39 116.122 265.46 115.941 265.598C115.761 265.73 115.67 265.911 115.67 266.14C115.67 266.383 115.761 266.564 115.941 266.682C116.129 266.8 116.452 266.897 116.91 266.973C117.479 267.064 117.927 267.182 118.254 267.327C118.58 267.466 118.809 267.64 118.941 267.848C119.08 268.05 119.149 268.307 119.149 268.619C119.149 269.126 118.938 269.525 118.514 269.817C118.097 270.109 117.552 270.254 116.879 270.254ZM122.415 270.254C121.659 270.254 121.065 270.084 120.634 269.744C120.204 269.404 119.968 268.949 119.926 268.38L121.072 268.327C121.176 268.994 121.624 269.327 122.415 269.327C122.77 269.327 123.044 269.272 123.238 269.161C123.44 269.043 123.54 268.866 123.54 268.629C123.54 268.484 123.506 268.369 123.436 268.286C123.367 268.195 123.238 268.119 123.051 268.057C122.863 267.987 122.586 267.921 122.218 267.859C121.669 267.761 121.238 267.64 120.926 267.494C120.613 267.348 120.391 267.171 120.259 266.963C120.127 266.755 120.061 266.494 120.061 266.182C120.061 265.661 120.256 265.244 120.645 264.932C121.034 264.619 121.579 264.463 122.28 264.463C122.954 264.463 123.488 264.633 123.884 264.973C124.28 265.314 124.519 265.751 124.603 266.286L123.467 266.348C123.412 266.05 123.28 265.817 123.072 265.651C122.87 265.477 122.603 265.39 122.27 265.39C121.922 265.39 121.659 265.46 121.478 265.598C121.297 265.73 121.207 265.911 121.207 266.14C121.207 266.383 121.297 266.564 121.478 266.682C121.665 266.8 121.988 266.897 122.447 266.973C123.016 267.064 123.464 267.182 123.79 267.327C124.117 267.466 124.346 267.64 124.478 267.848C124.617 268.05 124.686 268.307 124.686 268.619C124.686 269.126 124.474 269.525 124.051 269.817C123.634 270.109 123.089 270.254 122.415 270.254ZM130.301 270.254C129.829 270.254 129.416 270.136 129.062 269.9C128.715 269.664 128.447 269.331 128.26 268.9C128.072 268.463 127.978 267.949 127.978 267.359C127.978 266.775 128.072 266.265 128.26 265.828C128.447 265.39 128.715 265.053 129.062 264.817C129.416 264.581 129.829 264.463 130.301 264.463C130.683 264.463 131.023 264.543 131.322 264.703C131.621 264.862 131.843 265.085 131.989 265.369V262.734H133.093V270.129H132.072L132.041 269.296C131.888 269.595 131.655 269.831 131.343 270.004C131.037 270.171 130.69 270.254 130.301 270.254ZM130.593 269.296C131.037 269.296 131.381 269.126 131.624 268.786C131.867 268.445 131.989 267.97 131.989 267.359C131.989 266.741 131.867 266.265 131.624 265.932C131.381 265.591 131.037 265.421 130.593 265.421C130.142 265.421 129.784 265.595 129.52 265.942C129.256 266.282 129.124 266.755 129.124 267.359C129.124 267.949 129.256 268.421 129.52 268.775C129.791 269.123 130.148 269.296 130.593 269.296ZM134.337 264.588H135.441V270.129H134.337V264.588ZM134.316 262.682H135.472V263.786H134.316V262.682ZM136.781 264.588H137.791L137.823 265.64C137.927 265.279 138.086 265.015 138.302 264.848C138.517 264.675 138.798 264.588 139.145 264.588H139.677V265.578H139.145C138.722 265.578 138.406 265.682 138.198 265.89C137.989 266.098 137.885 266.421 137.885 266.859V270.129H136.781V264.588ZM142.809 270.254C142.281 270.254 141.82 270.136 141.424 269.9C141.028 269.657 140.722 269.317 140.507 268.879C140.292 268.442 140.184 267.935 140.184 267.359C140.184 266.782 140.288 266.275 140.497 265.838C140.712 265.401 141.014 265.064 141.403 264.828C141.799 264.585 142.257 264.463 142.778 264.463C143.285 264.463 143.729 264.581 144.111 264.817C144.493 265.046 144.788 265.383 144.996 265.828C145.212 266.265 145.319 266.789 145.319 267.4V267.682H141.34C141.368 268.216 141.511 268.623 141.768 268.9C142.024 269.171 142.375 269.307 142.82 269.307C143.139 269.307 143.406 269.234 143.622 269.088C143.844 268.935 144 268.727 144.09 268.463L145.236 268.536C145.09 269.057 144.799 269.473 144.361 269.786C143.931 270.098 143.413 270.254 142.809 270.254ZM144.142 266.848C144.115 266.369 143.979 266.008 143.736 265.765C143.493 265.522 143.174 265.401 142.778 265.401C142.382 265.401 142.059 265.526 141.809 265.776C141.559 266.025 141.403 266.383 141.34 266.848H144.142ZM148.733 270.254C148.205 270.254 147.74 270.136 147.337 269.9C146.941 269.657 146.636 269.317 146.42 268.879C146.205 268.442 146.097 267.935 146.097 267.359C146.097 266.782 146.205 266.275 146.42 265.838C146.636 265.401 146.941 265.064 147.337 264.828C147.74 264.585 148.205 264.463 148.733 264.463C149.413 264.463 149.972 264.64 150.41 264.994C150.847 265.348 151.111 265.841 151.201 266.473L150.055 266.536C150 266.182 149.854 265.907 149.618 265.713C149.382 265.519 149.087 265.421 148.733 265.421C148.267 265.421 147.903 265.591 147.639 265.932C147.375 266.272 147.243 266.748 147.243 267.359C147.243 267.97 147.375 268.445 147.639 268.786C147.903 269.126 148.267 269.296 148.733 269.296C149.094 269.296 149.389 269.195 149.618 268.994C149.854 268.786 150 268.487 150.055 268.098L151.201 268.161C151.111 268.8 150.844 269.31 150.399 269.692C149.962 270.067 149.406 270.254 148.733 270.254ZM154.082 270.129C153.554 270.129 153.165 270.011 152.915 269.775C152.665 269.532 152.54 269.15 152.54 268.629V265.494H151.697V264.588H152.54V263.286H153.644V264.588H155.113V265.494H153.644V268.546C153.644 268.796 153.697 268.973 153.801 269.077C153.912 269.175 154.085 269.223 154.321 269.223H155.113V270.129H154.082ZM158.341 270.254C157.814 270.254 157.352 270.136 156.956 269.9C156.56 269.664 156.251 269.327 156.029 268.89C155.814 268.452 155.706 267.942 155.706 267.359C155.706 266.775 155.814 266.265 156.029 265.828C156.251 265.39 156.56 265.053 156.956 264.817C157.352 264.581 157.814 264.463 158.341 264.463C158.862 264.463 159.321 264.585 159.716 264.828C160.119 265.064 160.428 265.401 160.643 265.838C160.859 266.269 160.966 266.775 160.966 267.359C160.966 267.942 160.859 268.452 160.643 268.89C160.428 269.32 160.119 269.657 159.716 269.9C159.321 270.136 158.862 270.254 158.341 270.254ZM158.341 269.296C158.807 269.296 159.168 269.126 159.425 268.786C159.689 268.445 159.82 267.97 159.82 267.359C159.82 266.748 159.689 266.272 159.425 265.932C159.168 265.591 158.807 265.421 158.341 265.421C157.876 265.421 157.512 265.591 157.248 265.932C156.984 266.272 156.852 266.748 156.852 267.359C156.852 267.97 156.984 268.445 157.248 268.786C157.512 269.126 157.876 269.296 158.341 269.296ZM162.064 264.588H163.075L163.106 265.64C163.21 265.279 163.37 265.015 163.585 264.848C163.8 264.675 164.081 264.588 164.429 264.588H164.96V265.578H164.429C164.005 265.578 163.689 265.682 163.481 265.89C163.272 266.098 163.168 266.421 163.168 266.859V270.129H162.064V264.588ZM167.957 270.254C167.2 270.254 166.606 270.084 166.176 269.744C165.745 269.404 165.509 268.949 165.468 268.38L166.613 268.327C166.717 268.994 167.165 269.327 167.957 269.327C168.311 269.327 168.585 269.272 168.78 269.161C168.981 269.043 169.082 268.866 169.082 268.629C169.082 268.484 169.047 268.369 168.978 268.286C168.908 268.195 168.78 268.119 168.592 268.057C168.405 267.987 168.127 267.921 167.759 267.859C167.21 267.761 166.78 267.64 166.467 267.494C166.155 267.348 165.933 267.171 165.801 266.963C165.669 266.755 165.603 266.494 165.603 266.182C165.603 265.661 165.797 265.244 166.186 264.932C166.575 264.619 167.12 264.463 167.822 264.463C168.495 264.463 169.03 264.633 169.426 264.973C169.821 265.314 170.061 265.751 170.144 266.286L169.009 266.348C168.953 266.05 168.821 265.817 168.613 265.651C168.412 265.477 168.144 265.39 167.811 265.39C167.464 265.39 167.2 265.46 167.019 265.598C166.839 265.73 166.749 265.911 166.749 266.14C166.749 266.383 166.839 266.564 167.019 266.682C167.207 266.8 167.53 266.897 167.988 266.973C168.558 267.064 169.005 267.182 169.332 267.327C169.658 267.466 169.887 267.64 170.019 267.848C170.158 268.05 170.228 268.307 170.228 268.619C170.228 269.126 170.016 269.525 169.592 269.817C169.176 270.109 168.63 270.254 167.957 270.254Z" fill="#FAFAFA"/>
<path d="M258.044 266.63H268.46M263.996 262.166L268.46 266.63L263.996 271.094" stroke="#828282" stroke-width="1.116" stroke-linecap="round" stroke-linejoin="round"/>
<rect x="109.5" y="25" width="92" height="28" rx="14" fill="#1B1B1B"/>
</g>
<path d="M47 10.5H263C280.397 10.5 294.5 24.603 294.5 42V408.5H15.5V42C15.5 24.603 29.603 10.5 47 10.5Z" stroke="#2E2E2E"/>
</g>
<path d="M47 0.5H263C285.92 0.5 304.5 19.0802 304.5 42V359.5H5.5V42C5.5 19.0802 24.0802 0.5 47 0.5Z" stroke="#212121"/>
<rect y="199.549" width="310" height="161" fill="url(#paint0_linear_4313_21446)"/>
<defs>
<linearGradient id="paint0_linear_4313_21446" x1="155" y1="199.549" x2="155" y2="360.549" gradientUnits="userSpaceOnUse">
<stop stop-color="#131313" stop-opacity="0"/>
<stop offset="0.9" stop-color="#131313"/>
</linearGradient>
<clipPath id="clip0_4313_21446">
<path d="M5 42C5 18.804 23.804 0 47 0H263C286.196 0 305 18.804 305 42V360H5V42Z" fill="white"/>
</clipPath>
<clipPath id="clip1_4313_21446">
<path d="M15 42C15 24.3269 29.3269 10 47 10H263C280.673 10 295 24.3269 295 42V409H15V42Z" fill="white"/>
</clipPath>
</defs>
</svg>
