<svg width="184" height="184" viewBox="0 0 184 184" fill="none" xmlns="http://www.w3.org/2000/svg">
<rect width="184" height="184" fill="#2E2E2E"/>
<g id="Home">
<rect width="375" height="9949.7" transform="translate(-95.719 -8782.4)" fill="#191919"/>
<g id="Frame 2085653927" clip-path="url(#clip0_14494_9653)">
<g id="Frame 2085653709">
<path d="M-95.719 -1353H279.281V553.299C279.281 566.554 268.536 577.299 255.281 577.299H-71.719C-84.9738 577.299 -95.719 566.554 -95.719 553.299V-1353Z" fill="white"/>
<g id="Group 48096788">
<g id="Group 48096785">
<g id="Container">
<rect width="183.561" height="183.561" rx="27.5342" fill="#8AEDFF"/>
<g id="SVG">
<rect x="11.4725" y="11.4731" width="160.616" height="160.616" rx="18.6111" stroke="black" stroke-width="4.58903"/>
<g id="Frame 48096791">
<g id="Frame" clip-path="url(#clip1_14494_9653)">
<g id="Group">
<path id="Vector" d="M33.8277 72.4072C34.5898 72.4072 35.2076 71.7894 35.2076 71.0273C35.2076 70.2652 34.5898 69.6475 33.8277 69.6475C33.0657 69.6475 32.4479 70.2652 32.4479 71.0273C32.4479 71.7894 33.0657 72.4072 33.8277 72.4072Z" fill="black"/>
<path id="Vector_2" d="M33.8277 84.8261C34.5898 84.8261 35.2076 84.2083 35.2076 83.4463C35.2076 82.6842 34.5898 82.0664 33.8277 82.0664C33.0657 82.0664 32.4479 82.6842 32.4479 83.4463C32.4479 84.2083 33.0657 84.8261 33.8277 84.8261Z" fill="black"/>
<path id="Vector_3" d="M33.8277 101.384C34.5898 101.384 35.2076 100.766 35.2076 100.004C35.2076 99.2418 34.5898 98.624 33.8277 98.624C33.0657 98.624 32.4479 99.2418 32.4479 100.004C32.4479 100.766 33.0657 101.384 33.8277 101.384Z" fill="black"/>
<path id="Vector_4" d="M33.8277 105.523C34.5898 105.523 35.2076 104.906 35.2076 104.144C35.2076 103.381 34.5898 102.764 33.8277 102.764C33.0657 102.764 32.4479 103.381 32.4479 104.144C32.4479 104.906 33.0657 105.523 33.8277 105.523Z" fill="black"/>
<path id="Vector_5" d="M33.8277 109.663C34.5898 109.663 35.2076 109.045 35.2076 108.283C35.2076 107.521 34.5898 106.903 33.8277 106.903C33.0657 106.903 32.4479 107.521 32.4479 108.283C32.4479 109.045 33.0657 109.663 33.8277 109.663Z" fill="black"/>
<path id="Vector_6" d="M33.8277 113.803C34.5898 113.803 35.2076 113.185 35.2076 112.423C35.2076 111.661 34.5898 111.043 33.8277 111.043C33.0657 111.043 32.4479 111.661 32.4479 112.423C32.4479 113.185 33.0657 113.803 33.8277 113.803Z" fill="black"/>
<path id="Vector_7" d="M33.8277 117.944C34.5898 117.944 35.2076 117.326 35.2076 116.564C35.2076 115.802 34.5898 115.185 33.8277 115.185C33.0657 115.185 32.4479 115.802 32.4479 116.564C32.4479 117.326 33.0657 117.944 33.8277 117.944Z" fill="black"/>
<path id="Vector_8" d="M37.967 68.2685C38.7291 68.2685 39.3468 67.6507 39.3468 66.8886C39.3468 66.1266 38.7291 65.5088 37.967 65.5088C37.2049 65.5088 36.5872 66.1266 36.5872 66.8886C36.5872 67.6507 37.2049 68.2685 37.967 68.2685Z" fill="black"/>
<path id="Vector_9" d="M37.967 72.4072C38.7291 72.4072 39.3468 71.7894 39.3468 71.0273C39.3468 70.2652 38.7291 69.6475 37.967 69.6475C37.2049 69.6475 36.5872 70.2652 36.5872 71.0273C36.5872 71.7894 37.2049 72.4072 37.967 72.4072Z" fill="black"/>
<path id="Vector_10" d="M37.967 80.6865C38.7291 80.6865 39.3468 80.0687 39.3468 79.3066C39.3468 78.5445 38.7291 77.9268 37.967 77.9268C37.2049 77.9268 36.5872 78.5445 36.5872 79.3066C36.5872 80.0687 37.2049 80.6865 37.967 80.6865Z" fill="black"/>
<path id="Vector_11" d="M37.967 97.245C38.7291 97.245 39.3468 96.6273 39.3468 95.8652C39.3468 95.1031 38.7291 94.4854 37.967 94.4854C37.2049 94.4854 36.5872 95.1031 36.5872 95.8652C36.5872 96.6273 37.2049 97.245 37.967 97.245Z" fill="black"/>
<path id="Vector_12" d="M37.967 101.384C38.7291 101.384 39.3468 100.766 39.3468 100.004C39.3468 99.2418 38.7291 98.624 37.967 98.624C37.2049 98.624 36.5872 99.2418 36.5872 100.004C36.5872 100.766 37.2049 101.384 37.967 101.384Z" fill="black"/>
<path id="Vector_13" d="M37.967 105.523C38.7291 105.523 39.3468 104.906 39.3468 104.144C39.3468 103.381 38.7291 102.764 37.967 102.764C37.2049 102.764 36.5872 103.381 36.5872 104.144C36.5872 104.906 37.2049 105.523 37.967 105.523Z" fill="black"/>
<path id="Vector_14" d="M37.967 109.663C38.7291 109.663 39.3468 109.045 39.3468 108.283C39.3468 107.521 38.7291 106.903 37.967 106.903C37.2049 106.903 36.5872 107.521 36.5872 108.283C36.5872 109.045 37.2049 109.663 37.967 109.663Z" fill="black"/>
<path id="Vector_15" d="M37.967 117.944C38.7291 117.944 39.3468 117.326 39.3468 116.564C39.3468 115.802 38.7291 115.185 37.967 115.185C37.2049 115.185 36.5872 115.802 36.5872 116.564C36.5872 117.326 37.2049 117.944 37.967 117.944Z" fill="black"/>
<path id="Vector_16" d="M42.1071 68.2685C42.8692 68.2685 43.487 67.6507 43.487 66.8886C43.487 66.1266 42.8692 65.5088 42.1071 65.5088C41.3451 65.5088 40.7273 66.1266 40.7273 66.8886C40.7273 67.6507 41.3451 68.2685 42.1071 68.2685Z" fill="black"/>
<path id="Vector_17" d="M42.1071 88.9638C42.8692 88.9638 43.487 88.346 43.487 87.5839C43.487 86.8219 42.8692 86.2041 42.1071 86.2041C41.3451 86.2041 40.7273 86.8219 40.7273 87.5839C40.7273 88.346 41.3451 88.9638 42.1071 88.9638Z" fill="black"/>
<path id="Vector_18" d="M42.1071 93.1054C42.8692 93.1054 43.487 92.4876 43.487 91.7255C43.487 90.9635 42.8692 90.3457 42.1071 90.3457C41.3451 90.3457 40.7273 90.9635 40.7273 91.7255C40.7273 92.4876 41.3451 93.1054 42.1071 93.1054Z" fill="black"/>
<path id="Vector_19" d="M42.1071 97.245C42.8692 97.245 43.487 96.6273 43.487 95.8652C43.487 95.1031 42.8692 94.4854 42.1071 94.4854C41.3451 94.4854 40.7273 95.1031 40.7273 95.8652C40.7273 96.6273 41.3451 97.245 42.1071 97.245Z" fill="black"/>
<path id="Vector_20" d="M42.1071 101.384C42.8692 101.384 43.487 100.766 43.487 100.004C43.487 99.2418 42.8692 98.624 42.1071 98.624C41.3451 98.624 40.7273 99.2418 40.7273 100.004C40.7273 100.766 41.3451 101.384 42.1071 101.384Z" fill="black"/>
<path id="Vector_21" d="M42.1071 109.663C42.8692 109.663 43.487 109.045 43.487 108.283C43.487 107.521 42.8692 106.903 42.1071 106.903C41.3451 106.903 40.7273 107.521 40.7273 108.283C40.7273 109.045 41.3451 109.663 42.1071 109.663Z" fill="black"/>
<path id="Vector_22" d="M42.1071 117.944C42.8692 117.944 43.487 117.326 43.487 116.564C43.487 115.802 42.8692 115.185 42.1071 115.185C41.3451 115.185 40.7273 115.802 40.7273 116.564C40.7273 117.326 41.3451 117.944 42.1071 117.944Z" fill="black"/>
<path id="Vector_23" d="M46.2464 80.6865C47.0085 80.6865 47.6263 80.0687 47.6263 79.3066C47.6263 78.5445 47.0085 77.9268 46.2464 77.9268C45.4844 77.9268 44.8666 78.5445 44.8666 79.3066C44.8666 80.0687 45.4844 80.6865 46.2464 80.6865Z" fill="black"/>
<path id="Vector_24" d="M46.2464 84.8261C47.0085 84.8261 47.6263 84.2083 47.6263 83.4463C47.6263 82.6842 47.0085 82.0664 46.2464 82.0664C45.4844 82.0664 44.8666 82.6842 44.8666 83.4463C44.8666 84.2083 45.4844 84.8261 46.2464 84.8261Z" fill="black"/>
<path id="Vector_25" d="M46.2464 88.9638C47.0085 88.9638 47.6263 88.346 47.6263 87.5839C47.6263 86.8219 47.0085 86.2041 46.2464 86.2041C45.4844 86.2041 44.8666 86.8219 44.8666 87.5839C44.8666 88.346 45.4844 88.9638 46.2464 88.9638Z" fill="black"/>
<path id="Vector_26" d="M46.2464 97.245C47.0085 97.245 47.6263 96.6273 47.6263 95.8652C47.6263 95.1031 47.0085 94.4854 46.2464 94.4854C45.4844 94.4854 44.8666 95.1031 44.8666 95.8652C44.8666 96.6273 45.4844 97.245 46.2464 97.245Z" fill="black"/>
<path id="Vector_27" d="M46.2464 105.523C47.0085 105.523 47.6263 104.906 47.6263 104.144C47.6263 103.381 47.0085 102.764 46.2464 102.764C45.4844 102.764 44.8666 103.381 44.8666 104.144C44.8666 104.906 45.4844 105.523 46.2464 105.523Z" fill="black"/>
<path id="Vector_28" d="M50.3857 72.4072C51.1478 72.4072 51.7655 71.7894 51.7655 71.0273C51.7655 70.2652 51.1478 69.6475 50.3857 69.6475C49.6236 69.6475 49.0059 70.2652 49.0059 71.0273C49.0059 71.7894 49.6236 72.4072 50.3857 72.4072Z" fill="black"/>
<path id="Vector_29" d="M50.3857 80.6865C51.1478 80.6865 51.7655 80.0687 51.7655 79.3066C51.7655 78.5445 51.1478 77.9268 50.3857 77.9268C49.6236 77.9268 49.0059 78.5445 49.0059 79.3066C49.0059 80.0687 49.6236 80.6865 50.3857 80.6865Z" fill="black"/>
<path id="Vector_30" d="M50.3857 84.8261C51.1478 84.8261 51.7655 84.2083 51.7655 83.4463C51.7655 82.6842 51.1478 82.0664 50.3857 82.0664C49.6236 82.0664 49.0059 82.6842 49.0059 83.4463C49.0059 84.2083 49.6236 84.8261 50.3857 84.8261Z" fill="black"/>
<path id="Vector_31" d="M50.3857 97.245C51.1478 97.245 51.7655 96.6273 51.7655 95.8652C51.7655 95.1031 51.1478 94.4854 50.3857 94.4854C49.6236 94.4854 49.0059 95.1031 49.0059 95.8652C49.0059 96.6273 49.6236 97.245 50.3857 97.245Z" fill="black"/>
<path id="Vector_32" d="M50.3857 113.803C51.1478 113.803 51.7655 113.185 51.7655 112.423C51.7655 111.661 51.1478 111.043 50.3857 111.043C49.6236 111.043 49.0059 111.661 49.0059 112.423C49.0059 113.185 49.6236 113.803 50.3857 113.803Z" fill="black"/>
<path id="Vector_33" d="M54.5255 72.4072C55.2875 72.4072 55.9053 71.7894 55.9053 71.0273C55.9053 70.2652 55.2875 69.6475 54.5255 69.6475C53.7634 69.6475 53.1456 70.2652 53.1456 71.0273C53.1456 71.7894 53.7634 72.4072 54.5255 72.4072Z" fill="black"/>
<path id="Vector_34" d="M54.5255 80.6865C55.2875 80.6865 55.9053 80.0687 55.9053 79.3066C55.9053 78.5445 55.2875 77.9268 54.5255 77.9268C53.7634 77.9268 53.1456 78.5445 53.1456 79.3066C53.1456 80.0687 53.7634 80.6865 54.5255 80.6865Z" fill="black"/>
<path id="Vector_35" d="M54.5255 84.8261C55.2875 84.8261 55.9053 84.2083 55.9053 83.4463C55.9053 82.6842 55.2875 82.0664 54.5255 82.0664C53.7634 82.0664 53.1456 82.6842 53.1456 83.4463C53.1456 84.2083 53.7634 84.8261 54.5255 84.8261Z" fill="black"/>
<path id="Vector_36" d="M54.5255 93.1054C55.2875 93.1054 55.9053 92.4876 55.9053 91.7255C55.9053 90.9635 55.2875 90.3457 54.5255 90.3457C53.7634 90.3457 53.1456 90.9635 53.1456 91.7255C53.1456 92.4876 53.7634 93.1054 54.5255 93.1054Z" fill="black"/>
<path id="Vector_37" d="M54.5255 101.384C55.2875 101.384 55.9053 100.766 55.9053 100.004C55.9053 99.2418 55.2875 98.624 54.5255 98.624C53.7634 98.624 53.1456 99.2418 53.1456 100.004C53.1456 100.766 53.7634 101.384 54.5255 101.384Z" fill="black"/>
<path id="Vector_38" d="M54.5255 109.663C55.2875 109.663 55.9053 109.045 55.9053 108.283C55.9053 107.521 55.2875 106.903 54.5255 106.903C53.7634 106.903 53.1456 107.521 53.1456 108.283C53.1456 109.045 53.7634 109.663 54.5255 109.663Z" fill="black"/>
<path id="Vector_39" d="M54.5255 113.803C55.2875 113.803 55.9053 113.185 55.9053 112.423C55.9053 111.661 55.2875 111.043 54.5255 111.043C53.7634 111.043 53.1456 111.661 53.1456 112.423C53.1456 113.185 53.7634 113.803 54.5255 113.803Z" fill="black"/>
<path id="Vector_40" d="M58.6648 68.2685C59.4268 68.2685 60.0446 67.6507 60.0446 66.8886C60.0446 66.1266 59.4268 65.5088 58.6648 65.5088C57.9027 65.5088 57.2849 66.1266 57.2849 66.8886C57.2849 67.6507 57.9027 68.2685 58.6648 68.2685Z" fill="black"/>
<path id="Vector_41" d="M58.6648 76.5468C59.4268 76.5468 60.0446 75.929 60.0446 75.167C60.0446 74.4049 59.4268 73.7871 58.6648 73.7871C57.9027 73.7871 57.2849 74.4049 57.2849 75.167C57.2849 75.929 57.9027 76.5468 58.6648 76.5468Z" fill="black"/>
<path id="Vector_42" d="M58.6648 84.8261C59.4268 84.8261 60.0446 84.2083 60.0446 83.4463C60.0446 82.6842 59.4268 82.0664 58.6648 82.0664C57.9027 82.0664 57.2849 82.6842 57.2849 83.4463C57.2849 84.2083 57.9027 84.8261 58.6648 84.8261Z" fill="black"/>
<path id="Vector_43" d="M58.6648 93.1054C59.4268 93.1054 60.0446 92.4876 60.0446 91.7255C60.0446 90.9635 59.4268 90.3457 58.6648 90.3457C57.9027 90.3457 57.2849 90.9635 57.2849 91.7255C57.2849 92.4876 57.9027 93.1054 58.6648 93.1054Z" fill="black"/>
<path id="Vector_44" d="M58.6648 101.384C59.4268 101.384 60.0446 100.766 60.0446 100.004C60.0446 99.2418 59.4268 98.624 58.6648 98.624C57.9027 98.624 57.2849 99.2418 57.2849 100.004C57.2849 100.766 57.9027 101.384 58.6648 101.384Z" fill="black"/>
<path id="Vector_45" d="M58.6648 109.663C59.4268 109.663 60.0446 109.045 60.0446 108.283C60.0446 107.521 59.4268 106.903 58.6648 106.903C57.9027 106.903 57.2849 107.521 57.2849 108.283C57.2849 109.045 57.9027 109.663 58.6648 109.663Z" fill="black"/>
<path id="Vector_46" d="M58.6648 117.944C59.4268 117.944 60.0446 117.326 60.0446 116.564C60.0446 115.802 59.4268 115.185 58.6648 115.185C57.9027 115.185 57.2849 115.802 57.2849 116.564C57.2849 117.326 57.9027 117.944 58.6648 117.944Z" fill="black"/>
<path id="Vector_47" d="M62.8049 72.4072C63.567 72.4072 64.1847 71.7894 64.1847 71.0273C64.1847 70.2652 63.567 69.6475 62.8049 69.6475C62.0428 69.6475 61.425 70.2652 61.425 71.0273C61.425 71.7894 62.0428 72.4072 62.8049 72.4072Z" fill="black"/>
<path id="Vector_48" d="M62.8049 76.5468C63.567 76.5468 64.1847 75.929 64.1847 75.167C64.1847 74.4049 63.567 73.7871 62.8049 73.7871C62.0428 73.7871 61.425 74.4049 61.425 75.167C61.425 75.929 62.0428 76.5468 62.8049 76.5468Z" fill="black"/>
<path id="Vector_49" d="M62.8049 80.6865C63.567 80.6865 64.1847 80.0687 64.1847 79.3066C64.1847 78.5445 63.567 77.9268 62.8049 77.9268C62.0428 77.9268 61.425 78.5445 61.425 79.3066C61.425 80.0687 62.0428 80.6865 62.8049 80.6865Z" fill="black"/>
<path id="Vector_50" d="M62.8049 93.1054C63.567 93.1054 64.1847 92.4876 64.1847 91.7255C64.1847 90.9635 63.567 90.3457 62.8049 90.3457C62.0428 90.3457 61.425 90.9635 61.425 91.7255C61.425 92.4876 62.0428 93.1054 62.8049 93.1054Z" fill="black"/>
<path id="Vector_51" d="M62.8049 97.245C63.567 97.245 64.1847 96.6273 64.1847 95.8652C64.1847 95.1031 63.567 94.4854 62.8049 94.4854C62.0428 94.4854 61.425 95.1031 61.425 95.8652C61.425 96.6273 62.0428 97.245 62.8049 97.245Z" fill="black"/>
<path id="Vector_52" d="M62.8049 105.523C63.567 105.523 64.1847 104.906 64.1847 104.144C64.1847 103.381 63.567 102.764 62.8049 102.764C62.0428 102.764 61.425 103.381 61.425 104.144C61.425 104.906 62.0428 105.523 62.8049 105.523Z" fill="black"/>
<path id="Vector_53" d="M62.8049 109.663C63.567 109.663 64.1847 109.045 64.1847 108.283C64.1847 107.521 63.567 106.903 62.8049 106.903C62.0428 106.903 61.425 107.521 61.425 108.283C61.425 109.045 62.0428 109.663 62.8049 109.663Z" fill="black"/>
<path id="Vector_54" d="M62.8049 113.803C63.567 113.803 64.1847 113.185 64.1847 112.423C64.1847 111.661 63.567 111.043 62.8049 111.043C62.0428 111.043 61.425 111.661 61.425 112.423C61.425 113.185 62.0428 113.803 62.8049 113.803Z" fill="black"/>
<path id="Vector_55" d="M66.9442 39.2929C67.7062 39.2929 68.324 38.6751 68.324 37.913C68.324 37.151 67.7062 36.5332 66.9442 36.5332C66.1821 36.5332 65.5643 37.151 65.5643 37.913C65.5643 38.6751 66.1821 39.2929 66.9442 39.2929Z" fill="black"/>
<path id="Vector_56" d="M66.9442 43.4286C67.7062 43.4286 68.324 42.8109 68.324 42.0488C68.324 41.2867 67.7062 40.6689 66.9442 40.6689C66.1821 40.6689 65.5643 41.2867 65.5643 42.0488C65.5643 42.8109 66.1821 43.4286 66.9442 43.4286Z" fill="black"/>
<path id="Vector_57" d="M66.9442 47.5702C67.7062 47.5702 68.324 46.9525 68.324 46.1904C68.324 45.4283 67.7062 44.8105 66.9442 44.8105C66.1821 44.8105 65.5643 45.4283 65.5643 46.1904C65.5643 46.9525 66.1821 47.5702 66.9442 47.5702Z" fill="black"/>
<path id="Vector_58" d="M66.9442 55.8466C67.7062 55.8466 68.324 55.2288 68.324 54.4668C68.324 53.7047 67.7062 53.0869 66.9442 53.0869C66.1821 53.0869 65.5643 53.7047 65.5643 54.4668C65.5643 55.2288 66.1821 55.8466 66.9442 55.8466Z" fill="black"/>
<path id="Vector_59" d="M66.9442 59.9882C67.7062 59.9882 68.324 59.3704 68.324 58.6084C68.324 57.8463 67.7062 57.2285 66.9442 57.2285C66.1821 57.2285 65.5643 57.8463 65.5643 58.6084C65.5643 59.3704 66.1821 59.9882 66.9442 59.9882Z" fill="black"/>
<path id="Vector_60" d="M66.9442 72.4072C67.7062 72.4072 68.324 71.7894 68.324 71.0273C68.324 70.2652 67.7062 69.6475 66.9442 69.6475C66.1821 69.6475 65.5643 70.2652 65.5643 71.0273C65.5643 71.7894 66.1821 72.4072 66.9442 72.4072Z" fill="black"/>
<path id="Vector_61" d="M66.9442 84.8261C67.7062 84.8261 68.324 84.2083 68.324 83.4463C68.324 82.6842 67.7062 82.0664 66.9442 82.0664C66.1821 82.0664 65.5643 82.6842 65.5643 83.4463C65.5643 84.2083 66.1821 84.8261 66.9442 84.8261Z" fill="black"/>
<path id="Vector_62" d="M66.9442 88.9638C67.7062 88.9638 68.324 88.346 68.324 87.5839C68.324 86.8219 67.7062 86.2041 66.9442 86.2041C66.1821 86.2041 65.5643 86.8219 65.5643 87.5839C65.5643 88.346 66.1821 88.9638 66.9442 88.9638Z" fill="black"/>
<path id="Vector_63" d="M66.9442 101.384C67.7062 101.384 68.324 100.766 68.324 100.004C68.324 99.2418 67.7062 98.624 66.9442 98.624C66.1821 98.624 65.5643 99.2418 65.5643 100.004C65.5643 100.766 66.1821 101.384 66.9442 101.384Z" fill="black"/>
<path id="Vector_64" d="M66.9442 142.779C67.7062 142.779 68.324 142.161 68.324 141.399C68.324 140.637 67.7062 140.02 66.9442 140.02C66.1821 140.02 65.5643 140.637 65.5643 141.399C65.5643 142.161 66.1821 142.779 66.9442 142.779Z" fill="black"/>
<path id="Vector_65" d="M66.9442 146.919C67.7062 146.919 68.324 146.301 68.324 145.539C68.324 144.777 67.7062 144.159 66.9442 144.159C66.1821 144.159 65.5643 144.777 65.5643 145.539C65.5643 146.301 66.1821 146.919 66.9442 146.919Z" fill="black"/>
<path id="Vector_66" d="M71.0835 43.4286C71.8455 43.4286 72.4633 42.8109 72.4633 42.0488C72.4633 41.2867 71.8455 40.6689 71.0835 40.6689C70.3214 40.6689 69.7036 41.2867 69.7036 42.0488C69.7036 42.8109 70.3214 43.4286 71.0835 43.4286Z" fill="black"/>
<path id="Vector_67" d="M71.0835 47.5702C71.8455 47.5702 72.4633 46.9525 72.4633 46.1904C72.4633 45.4283 71.8455 44.8105 71.0835 44.8105C70.3214 44.8105 69.7036 45.4283 69.7036 46.1904C69.7036 46.9525 70.3214 47.5702 71.0835 47.5702Z" fill="black"/>
<path id="Vector_68" d="M71.0835 51.7099C71.8455 51.7099 72.4633 51.0921 72.4633 50.33C72.4633 49.568 71.8455 48.9502 71.0835 48.9502C70.3214 48.9502 69.7036 49.568 69.7036 50.33C69.7036 51.0921 70.3214 51.7099 71.0835 51.7099Z" fill="black"/>
<path id="Vector_69" d="M71.0835 55.8466C71.8455 55.8466 72.4633 55.2288 72.4633 54.4668C72.4633 53.7047 71.8455 53.0869 71.0835 53.0869C70.3214 53.0869 69.7036 53.7047 69.7036 54.4668C69.7036 55.2288 70.3214 55.8466 71.0835 55.8466Z" fill="black"/>
<path id="Vector_70" d="M71.0835 68.2685C71.8455 68.2685 72.4633 67.6507 72.4633 66.8886C72.4633 66.1266 71.8455 65.5088 71.0835 65.5088C70.3214 65.5088 69.7036 66.1266 69.7036 66.8886C69.7036 67.6507 70.3214 68.2685 71.0835 68.2685Z" fill="black"/>
<path id="Vector_71" d="M71.0835 88.9638C71.8455 88.9638 72.4633 88.346 72.4633 87.5839C72.4633 86.8219 71.8455 86.2041 71.0835 86.2041C70.3214 86.2041 69.7036 86.8219 69.7036 87.5839C69.7036 88.346 70.3214 88.9638 71.0835 88.9638Z" fill="black"/>
<path id="Vector_72" d="M71.0835 97.245C71.8455 97.245 72.4633 96.6273 72.4633 95.8652C72.4633 95.1031 71.8455 94.4854 71.0835 94.4854C70.3214 94.4854 69.7036 95.1031 69.7036 95.8652C69.7036 96.6273 70.3214 97.245 71.0835 97.245Z" fill="black"/>
<path id="Vector_73" d="M71.0835 101.384C71.8455 101.384 72.4633 100.766 72.4633 100.004C72.4633 99.2418 71.8455 98.624 71.0835 98.624C70.3214 98.624 69.7036 99.2418 69.7036 100.004C69.7036 100.766 70.3214 101.384 71.0835 101.384Z" fill="black"/>
<path id="Vector_74" d="M71.0835 109.663C71.8455 109.663 72.4633 109.045 72.4633 108.283C72.4633 107.521 71.8455 106.903 71.0835 106.903C70.3214 106.903 69.7036 107.521 69.7036 108.283C69.7036 109.045 70.3214 109.663 71.0835 109.663Z" fill="black"/>
<path id="Vector_75" d="M71.0835 113.803C71.8455 113.803 72.4633 113.185 72.4633 112.423C72.4633 111.661 71.8455 111.043 71.0835 111.043C70.3214 111.043 69.7036 111.661 69.7036 112.423C69.7036 113.185 70.3214 113.803 71.0835 113.803Z" fill="black"/>
<path id="Vector_76" d="M71.0835 117.944C71.8455 117.944 72.4633 117.326 72.4633 116.564C72.4633 115.802 71.8455 115.185 71.0835 115.185C70.3214 115.185 69.7036 115.802 69.7036 116.564C69.7036 117.326 70.3214 117.944 71.0835 117.944Z" fill="black"/>
<path id="Vector_77" d="M71.0835 122.08C71.8455 122.08 72.4633 121.462 72.4633 120.7C72.4633 119.938 71.8455 119.32 71.0835 119.32C70.3214 119.32 69.7036 119.938 69.7036 120.7C69.7036 121.462 70.3214 122.08 71.0835 122.08Z" fill="black"/>
<path id="Vector_78" d="M71.0835 126.22C71.8455 126.22 72.4633 125.602 72.4633 124.84C72.4633 124.078 71.8455 123.46 71.0835 123.46C70.3214 123.46 69.7036 124.078 69.7036 124.84C69.7036 125.602 70.3214 126.22 71.0835 126.22Z" fill="black"/>
<path id="Vector_79" d="M71.0835 130.361C71.8455 130.361 72.4633 129.743 72.4633 128.981C72.4633 128.219 71.8455 127.602 71.0835 127.602C70.3214 127.602 69.7036 128.219 69.7036 128.981C69.7036 129.743 70.3214 130.361 71.0835 130.361Z" fill="black"/>
<path id="Vector_80" d="M71.0835 134.501C71.8455 134.501 72.4633 133.883 72.4633 133.121C72.4633 132.359 71.8455 131.741 71.0835 131.741C70.3214 131.741 69.7036 132.359 69.7036 133.121C69.7036 133.883 70.3214 134.501 71.0835 134.501Z" fill="black"/>
<path id="Vector_81" d="M71.0835 138.639C71.8455 138.639 72.4633 138.021 72.4633 137.259C72.4633 136.497 71.8455 135.879 71.0835 135.879C70.3214 135.879 69.7036 136.497 69.7036 137.259C69.7036 138.021 70.3214 138.639 71.0835 138.639Z" fill="black"/>
<path id="Vector_82" d="M71.0835 142.779C71.8455 142.779 72.4633 142.161 72.4633 141.399C72.4633 140.637 71.8455 140.02 71.0835 140.02C70.3214 140.02 69.7036 140.637 69.7036 141.399C69.7036 142.161 70.3214 142.779 71.0835 142.779Z" fill="black"/>
<path id="Vector_83" d="M71.0835 151.059C71.8455 151.059 72.4633 150.441 72.4633 149.679C72.4633 148.917 71.8455 148.299 71.0835 148.299C70.3214 148.299 69.7036 148.917 69.7036 149.679C69.7036 150.441 70.3214 151.059 71.0835 151.059Z" fill="black"/>
<path id="Vector_84" d="M75.2232 35.1532C75.9853 35.1532 76.6031 34.5355 76.6031 33.7734C76.6031 33.0113 75.9853 32.3936 75.2232 32.3936C74.4612 32.3936 73.8434 33.0113 73.8434 33.7734C73.8434 34.5355 74.4612 35.1532 75.2232 35.1532Z" fill="black"/>
<path id="Vector_85" d="M75.2232 47.5702C75.9853 47.5702 76.6031 46.9525 76.6031 46.1904C76.6031 45.4283 75.9853 44.8105 75.2232 44.8105C74.4612 44.8105 73.8434 45.4283 73.8434 46.1904C73.8434 46.9525 74.4612 47.5702 75.2232 47.5702Z" fill="black"/>
<path id="Vector_86" d="M75.2232 59.9882C75.9853 59.9882 76.6031 59.3704 76.6031 58.6084C76.6031 57.8463 75.9853 57.2285 75.2232 57.2285C74.4612 57.2285 73.8434 57.8463 73.8434 58.6084C73.8434 59.3704 74.4612 59.9882 75.2232 59.9882Z" fill="black"/>
<path id="Vector_87" d="M75.2232 64.1279C75.9853 64.1279 76.6031 63.5101 76.6031 62.748C76.6031 61.9859 75.9853 61.3682 75.2232 61.3682C74.4612 61.3682 73.8434 61.9859 73.8434 62.748C73.8434 63.5101 74.4612 64.1279 75.2232 64.1279Z" fill="black"/>
<path id="Vector_88" d="M75.2232 68.2685C75.9853 68.2685 76.6031 67.6507 76.6031 66.8886C76.6031 66.1266 75.9853 65.5088 75.2232 65.5088C74.4612 65.5088 73.8434 66.1266 73.8434 66.8886C73.8434 67.6507 74.4612 68.2685 75.2232 68.2685Z" fill="black"/>
<path id="Vector_89" d="M75.2232 72.4072C75.9853 72.4072 76.6031 71.7894 76.6031 71.0273C76.6031 70.2652 75.9853 69.6475 75.2232 69.6475C74.4612 69.6475 73.8434 70.2652 73.8434 71.0273C73.8434 71.7894 74.4612 72.4072 75.2232 72.4072Z" fill="black"/>
<path id="Vector_90" d="M75.2232 76.5468C75.9853 76.5468 76.6031 75.929 76.6031 75.167C76.6031 74.4049 75.9853 73.7871 75.2232 73.7871C74.4612 73.7871 73.8434 74.4049 73.8434 75.167C73.8434 75.929 74.4612 76.5468 75.2232 76.5468Z" fill="black"/>
<path id="Vector_91" d="M75.2232 80.6865C75.9853 80.6865 76.6031 80.0687 76.6031 79.3066C76.6031 78.5445 75.9853 77.9268 75.2232 77.9268C74.4612 77.9268 73.8434 78.5445 73.8434 79.3066C73.8434 80.0687 74.4612 80.6865 75.2232 80.6865Z" fill="black"/>
<path id="Vector_92" d="M75.2232 88.9638C75.9853 88.9638 76.6031 88.346 76.6031 87.5839C76.6031 86.8219 75.9853 86.2041 75.2232 86.2041C74.4612 86.2041 73.8434 86.8219 73.8434 87.5839C73.8434 88.346 74.4612 88.9638 75.2232 88.9638Z" fill="black"/>
<path id="Vector_93" d="M75.2232 101.384C75.9853 101.384 76.6031 100.766 76.6031 100.004C76.6031 99.2418 75.9853 98.624 75.2232 98.624C74.4612 98.624 73.8434 99.2418 73.8434 100.004C73.8434 100.766 74.4612 101.384 75.2232 101.384Z" fill="black"/>
<path id="Vector_94" d="M75.2232 105.523C75.9853 105.523 76.6031 104.906 76.6031 104.144C76.6031 103.381 75.9853 102.764 75.2232 102.764C74.4612 102.764 73.8434 103.381 73.8434 104.144C73.8434 104.906 74.4612 105.523 75.2232 105.523Z" fill="black"/>
<path id="Vector_95" d="M75.2232 109.663C75.9853 109.663 76.6031 109.045 76.6031 108.283C76.6031 107.521 75.9853 106.903 75.2232 106.903C74.4612 106.903 73.8434 107.521 73.8434 108.283C73.8434 109.045 74.4612 109.663 75.2232 109.663Z" fill="black"/>
<path id="Vector_96" d="M75.2232 126.22C75.9853 126.22 76.6031 125.602 76.6031 124.84C76.6031 124.078 75.9853 123.46 75.2232 123.46C74.4612 123.46 73.8434 124.078 73.8434 124.84C73.8434 125.602 74.4612 126.22 75.2232 126.22Z" fill="black"/>
<path id="Vector_97" d="M75.2232 130.361C75.9853 130.361 76.6031 129.743 76.6031 128.981C76.6031 128.219 75.9853 127.602 75.2232 127.602C74.4612 127.602 73.8434 128.219 73.8434 128.981C73.8434 129.743 74.4612 130.361 75.2232 130.361Z" fill="black"/>
<path id="Vector_98" d="M75.2232 138.639C75.9853 138.639 76.6031 138.021 76.6031 137.259C76.6031 136.497 75.9853 135.879 75.2232 135.879C74.4612 135.879 73.8434 136.497 73.8434 137.259C73.8434 138.021 74.4612 138.639 75.2232 138.639Z" fill="black"/>
<path id="Vector_99" d="M75.2232 146.919C75.9853 146.919 76.6031 146.301 76.6031 145.539C76.6031 144.777 75.9853 144.159 75.2232 144.159C74.4612 144.159 73.8434 144.777 73.8434 145.539C73.8434 146.301 74.4612 146.919 75.2232 146.919Z" fill="black"/>
<path id="Vector_100" d="M79.3625 35.1532C80.1246 35.1532 80.7424 34.5355 80.7424 33.7734C80.7424 33.0113 80.1246 32.3936 79.3625 32.3936C78.6004 32.3936 77.9827 33.0113 77.9827 33.7734C77.9827 34.5355 78.6004 35.1532 79.3625 35.1532Z" fill="black"/>
<path id="Vector_101" d="M79.3625 39.2929C80.1246 39.2929 80.7424 38.6751 80.7424 37.913C80.7424 37.151 80.1246 36.5332 79.3625 36.5332C78.6004 36.5332 77.9827 37.151 77.9827 37.913C77.9827 38.6751 78.6004 39.2929 79.3625 39.2929Z" fill="black"/>
<path id="Vector_102" d="M79.3625 43.4286C80.1246 43.4286 80.7424 42.8109 80.7424 42.0488C80.7424 41.2867 80.1246 40.6689 79.3625 40.6689C78.6004 40.6689 77.9827 41.2867 77.9827 42.0488C77.9827 42.8109 78.6004 43.4286 79.3625 43.4286Z" fill="black"/>
<path id="Vector_103" d="M79.3625 51.7099C80.1246 51.7099 80.7424 51.0921 80.7424 50.33C80.7424 49.568 80.1246 48.9502 79.3625 48.9502C78.6004 48.9502 77.9827 49.568 77.9827 50.33C77.9827 51.0921 78.6004 51.7099 79.3625 51.7099Z" fill="black"/>
<path id="Vector_104" d="M79.3625 55.8466C80.1246 55.8466 80.7424 55.2288 80.7424 54.4668C80.7424 53.7047 80.1246 53.0869 79.3625 53.0869C78.6004 53.0869 77.9827 53.7047 77.9827 54.4668C77.9827 55.2288 78.6004 55.8466 79.3625 55.8466Z" fill="black"/>
<path id="Vector_105" d="M79.3625 68.2685C80.1246 68.2685 80.7424 67.6507 80.7424 66.8886C80.7424 66.1266 80.1246 65.5088 79.3625 65.5088C78.6004 65.5088 77.9827 66.1266 77.9827 66.8886C77.9827 67.6507 78.6004 68.2685 79.3625 68.2685Z" fill="black"/>
<path id="Vector_106" d="M79.3625 72.4072C80.1246 72.4072 80.7424 71.7894 80.7424 71.0273C80.7424 70.2652 80.1246 69.6475 79.3625 69.6475C78.6004 69.6475 77.9827 70.2652 77.9827 71.0273C77.9827 71.7894 78.6004 72.4072 79.3625 72.4072Z" fill="black"/>
<path id="Vector_107" d="M79.3625 80.6865C80.1246 80.6865 80.7424 80.0687 80.7424 79.3066C80.7424 78.5445 80.1246 77.9268 79.3625 77.9268C78.6004 77.9268 77.9827 78.5445 77.9827 79.3066C77.9827 80.0687 78.6004 80.6865 79.3625 80.6865Z" fill="black"/>
<path id="Vector_108" d="M79.3625 84.8261C80.1246 84.8261 80.7424 84.2083 80.7424 83.4463C80.7424 82.6842 80.1246 82.0664 79.3625 82.0664C78.6004 82.0664 77.9827 82.6842 77.9827 83.4463C77.9827 84.2083 78.6004 84.8261 79.3625 84.8261Z" fill="black"/>
<path id="Vector_109" d="M79.3625 88.9638C80.1246 88.9638 80.7424 88.346 80.7424 87.5839C80.7424 86.8219 80.1246 86.2041 79.3625 86.2041C78.6004 86.2041 77.9827 86.8219 77.9827 87.5839C77.9827 88.346 78.6004 88.9638 79.3625 88.9638Z" fill="black"/>
<path id="Vector_110" d="M79.3625 93.1054C80.1246 93.1054 80.7424 92.4876 80.7424 91.7255C80.7424 90.9635 80.1246 90.3457 79.3625 90.3457C78.6004 90.3457 77.9827 90.9635 77.9827 91.7255C77.9827 92.4876 78.6004 93.1054 79.3625 93.1054Z" fill="black"/>
<path id="Vector_111" d="M79.3625 101.384C80.1246 101.384 80.7424 100.766 80.7424 100.004C80.7424 99.2418 80.1246 98.624 79.3625 98.624C78.6004 98.624 77.9827 99.2418 77.9827 100.004C77.9827 100.766 78.6004 101.384 79.3625 101.384Z" fill="black"/>
<path id="Vector_112" d="M79.3625 109.663C80.1246 109.663 80.7424 109.045 80.7424 108.283C80.7424 107.521 80.1246 106.903 79.3625 106.903C78.6004 106.903 77.9827 107.521 77.9827 108.283C77.9827 109.045 78.6004 109.663 79.3625 109.663Z" fill="black"/>
<path id="Vector_113" d="M79.3625 113.803C80.1246 113.803 80.7424 113.185 80.7424 112.423C80.7424 111.661 80.1246 111.043 79.3625 111.043C78.6004 111.043 77.9827 111.661 77.9827 112.423C77.9827 113.185 78.6004 113.803 79.3625 113.803Z" fill="black"/>
<path id="Vector_114" d="M79.3625 130.361C80.1246 130.361 80.7424 129.743 80.7424 128.981C80.7424 128.219 80.1246 127.602 79.3625 127.602C78.6004 127.602 77.9827 128.219 77.9827 128.981C77.9827 129.743 78.6004 130.361 79.3625 130.361Z" fill="black"/>
<path id="Vector_115" d="M79.3625 151.059C80.1246 151.059 80.7424 150.441 80.7424 149.679C80.7424 148.917 80.1246 148.299 79.3625 148.299C78.6004 148.299 77.9827 148.917 77.9827 149.679C77.9827 150.441 78.6004 151.059 79.3625 151.059Z" fill="black"/>
<path id="Vector_116" d="M83.5026 51.7099C84.2647 51.7099 84.8825 51.0921 84.8825 50.33C84.8825 49.568 84.2647 48.9502 83.5026 48.9502C82.7406 48.9502 82.1228 49.568 82.1228 50.33C82.1228 51.0921 82.7406 51.7099 83.5026 51.7099Z" fill="black"/>
<path id="Vector_117" d="M83.5026 59.9882C84.2647 59.9882 84.8825 59.3704 84.8825 58.6084C84.8825 57.8463 84.2647 57.2285 83.5026 57.2285C82.7406 57.2285 82.1228 57.8463 82.1228 58.6084C82.1228 59.3704 82.7406 59.9882 83.5026 59.9882Z" fill="black"/>
<path id="Vector_118" d="M83.5026 80.6865C84.2647 80.6865 84.8825 80.0687 84.8825 79.3066C84.8825 78.5445 84.2647 77.9268 83.5026 77.9268C82.7406 77.9268 82.1228 78.5445 82.1228 79.3066C82.1228 80.0687 82.7406 80.6865 83.5026 80.6865Z" fill="black"/>
<path id="Vector_119" d="M83.5026 84.8261C84.2647 84.8261 84.8825 84.2083 84.8825 83.4463C84.8825 82.6842 84.2647 82.0664 83.5026 82.0664C82.7406 82.0664 82.1228 82.6842 82.1228 83.4463C82.1228 84.2083 82.7406 84.8261 83.5026 84.8261Z" fill="black"/>
<path id="Vector_120" d="M83.5026 97.245C84.2647 97.245 84.8825 96.6273 84.8825 95.8652C84.8825 95.1031 84.2647 94.4854 83.5026 94.4854C82.7406 94.4854 82.1228 95.1031 82.1228 95.8652C82.1228 96.6273 82.7406 97.245 83.5026 97.245Z" fill="black"/>
<path id="Vector_121" d="M83.5026 101.384C84.2647 101.384 84.8825 100.766 84.8825 100.004C84.8825 99.2418 84.2647 98.624 83.5026 98.624C82.7406 98.624 82.1228 99.2418 82.1228 100.004C82.1228 100.766 82.7406 101.384 83.5026 101.384Z" fill="black"/>
<path id="Vector_122" d="M83.5026 105.523C84.2647 105.523 84.8825 104.906 84.8825 104.144C84.8825 103.381 84.2647 102.764 83.5026 102.764C82.7406 102.764 82.1228 103.381 82.1228 104.144C82.1228 104.906 82.7406 105.523 83.5026 105.523Z" fill="black"/>
<path id="Vector_123" d="M83.5026 109.663C84.2647 109.663 84.8825 109.045 84.8825 108.283C84.8825 107.521 84.2647 106.903 83.5026 106.903C82.7406 106.903 82.1228 107.521 82.1228 108.283C82.1228 109.045 82.7406 109.663 83.5026 109.663Z" fill="black"/>
<path id="Vector_124" d="M83.5026 113.803C84.2647 113.803 84.8825 113.185 84.8825 112.423C84.8825 111.661 84.2647 111.043 83.5026 111.043C82.7406 111.043 82.1228 111.661 82.1228 112.423C82.1228 113.185 82.7406 113.803 83.5026 113.803Z" fill="black"/>
<path id="Vector_125" d="M83.5026 122.08C84.2647 122.08 84.8825 121.462 84.8825 120.7C84.8825 119.938 84.2647 119.32 83.5026 119.32C82.7406 119.32 82.1228 119.938 82.1228 120.7C82.1228 121.462 82.7406 122.08 83.5026 122.08Z" fill="black"/>
<path id="Vector_126" d="M83.5026 130.361C84.2647 130.361 84.8825 129.743 84.8825 128.981C84.8825 128.219 84.2647 127.602 83.5026 127.602C82.7406 127.602 82.1228 128.219 82.1228 128.981C82.1228 129.743 82.7406 130.361 83.5026 130.361Z" fill="black"/>
<path id="Vector_127" d="M83.5026 142.779C84.2647 142.779 84.8825 142.161 84.8825 141.399C84.8825 140.637 84.2647 140.02 83.5026 140.02C82.7406 140.02 82.1228 140.637 82.1228 141.399C82.1228 142.161 82.7406 142.779 83.5026 142.779Z" fill="black"/>
<path id="Vector_128" d="M83.5026 146.919C84.2647 146.919 84.8825 146.301 84.8825 145.539C84.8825 144.777 84.2647 144.159 83.5026 144.159C82.7406 144.159 82.1228 144.777 82.1228 145.539C82.1228 146.301 82.7406 146.919 83.5026 146.919Z" fill="black"/>
<path id="Vector_129" d="M83.5026 151.059C84.2647 151.059 84.8825 150.441 84.8825 149.679C84.8825 148.917 84.2647 148.299 83.5026 148.299C82.7406 148.299 82.1228 148.917 82.1228 149.679C82.1228 150.441 82.7406 151.059 83.5026 151.059Z" fill="black"/>
<path id="Vector_130" d="M87.6418 47.5702C88.4039 47.5702 89.0216 46.9525 89.0216 46.1904C89.0216 45.4283 88.4039 44.8105 87.6418 44.8105C86.8797 44.8105 86.262 45.4283 86.262 46.1904C86.262 46.9525 86.8797 47.5702 87.6418 47.5702Z" fill="black"/>
<path id="Vector_131" d="M87.6418 64.1279C88.4039 64.1279 89.0216 63.5101 89.0216 62.748C89.0216 61.9859 88.4039 61.3682 87.6418 61.3682C86.8797 61.3682 86.262 61.9859 86.262 62.748C86.262 63.5101 86.8797 64.1279 87.6418 64.1279Z" fill="black"/>
<path id="Vector_132" d="M87.6418 72.4072C88.4039 72.4072 89.0216 71.7894 89.0216 71.0273C89.0216 70.2652 88.4039 69.6475 87.6418 69.6475C86.8797 69.6475 86.262 70.2652 86.262 71.0273C86.262 71.7894 86.8797 72.4072 87.6418 72.4072Z" fill="black"/>
<path id="Vector_133" d="M87.6418 76.5468C88.4039 76.5468 89.0216 75.929 89.0216 75.167C89.0216 74.4049 88.4039 73.7871 87.6418 73.7871C86.8797 73.7871 86.262 74.4049 86.262 75.167C86.262 75.929 86.8797 76.5468 87.6418 76.5468Z" fill="black"/>
<path id="Vector_134" d="M87.6418 84.8261C88.4039 84.8261 89.0216 84.2083 89.0216 83.4463C89.0216 82.6842 88.4039 82.0664 87.6418 82.0664C86.8797 82.0664 86.262 82.6842 86.262 83.4463C86.262 84.2083 86.8797 84.8261 87.6418 84.8261Z" fill="black"/>
<path id="Vector_135" d="M87.6418 88.9638C88.4039 88.9638 89.0216 88.346 89.0216 87.5839C89.0216 86.8219 88.4039 86.2041 87.6418 86.2041C86.8797 86.2041 86.262 86.8219 86.262 87.5839C86.262 88.346 86.8797 88.9638 87.6418 88.9638Z" fill="black"/>
<path id="Vector_136" d="M87.6418 97.245C88.4039 97.245 89.0216 96.6273 89.0216 95.8652C89.0216 95.1031 88.4039 94.4854 87.6418 94.4854C86.8797 94.4854 86.262 95.1031 86.262 95.8652C86.262 96.6273 86.8797 97.245 87.6418 97.245Z" fill="black"/>
<path id="Vector_137" d="M87.6418 101.384C88.4039 101.384 89.0216 100.766 89.0216 100.004C89.0216 99.2418 88.4039 98.624 87.6418 98.624C86.8797 98.624 86.262 99.2418 86.262 100.004C86.262 100.766 86.8797 101.384 87.6418 101.384Z" fill="black"/>
<path id="Vector_138" d="M87.6418 113.803C88.4039 113.803 89.0216 113.185 89.0216 112.423C89.0216 111.661 88.4039 111.043 87.6418 111.043C86.8797 111.043 86.262 111.661 86.262 112.423C86.262 113.185 86.8797 113.803 87.6418 113.803Z" fill="black"/>
<path id="Vector_139" d="M87.6418 117.944C88.4039 117.944 89.0216 117.326 89.0216 116.564C89.0216 115.802 88.4039 115.185 87.6418 115.185C86.8797 115.185 86.262 115.802 86.262 116.564C86.262 117.326 86.8797 117.944 87.6418 117.944Z" fill="black"/>
<path id="Vector_140" d="M87.6418 126.22C88.4039 126.22 89.0216 125.602 89.0216 124.84C89.0216 124.078 88.4039 123.46 87.6418 123.46C86.8797 123.46 86.262 124.078 86.262 124.84C86.262 125.602 86.8797 126.22 87.6418 126.22Z" fill="black"/>
<path id="Vector_141" d="M87.6418 130.361C88.4039 130.361 89.0216 129.743 89.0216 128.981C89.0216 128.219 88.4039 127.602 87.6418 127.602C86.8797 127.602 86.262 128.219 86.262 128.981C86.262 129.743 86.8797 130.361 87.6418 130.361Z" fill="black"/>
<path id="Vector_142" d="M87.6418 138.639C88.4039 138.639 89.0216 138.021 89.0216 137.259C89.0216 136.497 88.4039 135.879 87.6418 135.879C86.8797 135.879 86.262 136.497 86.262 137.259C86.262 138.021 86.8797 138.639 87.6418 138.639Z" fill="black"/>
<path id="Vector_143" d="M87.6418 142.779C88.4039 142.779 89.0216 142.161 89.0216 141.399C89.0216 140.637 88.4039 140.02 87.6418 140.02C86.8797 140.02 86.262 140.637 86.262 141.399C86.262 142.161 86.8797 142.779 87.6418 142.779Z" fill="black"/>
<path id="Vector_144" d="M87.6418 151.059C88.4039 151.059 89.0216 150.441 89.0216 149.679C89.0216 148.917 88.4039 148.299 87.6418 148.299C86.8797 148.299 86.262 148.917 86.262 149.679C86.262 150.441 86.8797 151.059 87.6418 151.059Z" fill="black"/>
<path id="Vector_145" d="M91.7812 39.2929C92.5433 39.2929 93.1611 38.6751 93.1611 37.913C93.1611 37.151 92.5433 36.5332 91.7812 36.5332C91.0191 36.5332 90.4014 37.151 90.4014 37.913C90.4014 38.6751 91.0191 39.2929 91.7812 39.2929Z" fill="black"/>
<path id="Vector_146" d="M91.7812 51.7099C92.5433 51.7099 93.1611 51.0921 93.1611 50.33C93.1611 49.568 92.5433 48.9502 91.7812 48.9502C91.0191 48.9502 90.4014 49.568 90.4014 50.33C90.4014 51.0921 91.0191 51.7099 91.7812 51.7099Z" fill="black"/>
<path id="Vector_147" d="M91.7812 59.9882C92.5433 59.9882 93.1611 59.3704 93.1611 58.6084C93.1611 57.8463 92.5433 57.2285 91.7812 57.2285C91.0191 57.2285 90.4014 57.8463 90.4014 58.6084C90.4014 59.3704 91.0191 59.9882 91.7812 59.9882Z" fill="black"/>
<path id="Vector_148" d="M91.7812 64.1279C92.5433 64.1279 93.1611 63.5101 93.1611 62.748C93.1611 61.9859 92.5433 61.3682 91.7812 61.3682C91.0191 61.3682 90.4014 61.9859 90.4014 62.748C90.4014 63.5101 91.0191 64.1279 91.7812 64.1279Z" fill="black"/>
<path id="Vector_149" d="M91.7812 68.2685C92.5433 68.2685 93.1611 67.6507 93.1611 66.8886C93.1611 66.1266 92.5433 65.5088 91.7812 65.5088C91.0191 65.5088 90.4014 66.1266 90.4014 66.8886C90.4014 67.6507 91.0191 68.2685 91.7812 68.2685Z" fill="black"/>
<path id="Vector_150" d="M91.7812 88.9638C92.5433 88.9638 93.1611 88.346 93.1611 87.5839C93.1611 86.8219 92.5433 86.2041 91.7812 86.2041C91.0191 86.2041 90.4014 86.8219 90.4014 87.5839C90.4014 88.346 91.0191 88.9638 91.7812 88.9638Z" fill="black"/>
<path id="Vector_151" d="M91.7812 101.384C92.5433 101.384 93.1611 100.766 93.1611 100.004C93.1611 99.2418 92.5433 98.624 91.7812 98.624C91.0191 98.624 90.4014 99.2418 90.4014 100.004C90.4014 100.766 91.0191 101.384 91.7812 101.384Z" fill="black"/>
<path id="Vector_152" d="M91.7812 105.523C92.5433 105.523 93.1611 104.906 93.1611 104.144C93.1611 103.381 92.5433 102.764 91.7812 102.764C91.0191 102.764 90.4014 103.381 90.4014 104.144C90.4014 104.906 91.0191 105.523 91.7812 105.523Z" fill="black"/>
<path id="Vector_153" d="M91.7812 109.663C92.5433 109.663 93.1611 109.045 93.1611 108.283C93.1611 107.521 92.5433 106.903 91.7812 106.903C91.0191 106.903 90.4014 107.521 90.4014 108.283C90.4014 109.045 91.0191 109.663 91.7812 109.663Z" fill="black"/>
<path id="Vector_154" d="M91.7812 113.803C92.5433 113.803 93.1611 113.185 93.1611 112.423C93.1611 111.661 92.5433 111.043 91.7812 111.043C91.0191 111.043 90.4014 111.661 90.4014 112.423C90.4014 113.185 91.0191 113.803 91.7812 113.803Z" fill="black"/>
<path id="Vector_155" d="M91.7812 117.944C92.5433 117.944 93.1611 117.326 93.1611 116.564C93.1611 115.802 92.5433 115.185 91.7812 115.185C91.0191 115.185 90.4014 115.802 90.4014 116.564C90.4014 117.326 91.0191 117.944 91.7812 117.944Z" fill="black"/>
<path id="Vector_156" d="M91.7812 122.08C92.5433 122.08 93.1611 121.462 93.1611 120.7C93.1611 119.938 92.5433 119.32 91.7812 119.32C91.0191 119.32 90.4014 119.938 90.4014 120.7C90.4014 121.462 91.0191 122.08 91.7812 122.08Z" fill="black"/>
<path id="Vector_157" d="M91.7812 130.361C92.5433 130.361 93.1611 129.743 93.1611 128.981C93.1611 128.219 92.5433 127.602 91.7812 127.602C91.0191 127.602 90.4014 128.219 90.4014 128.981C90.4014 129.743 91.0191 130.361 91.7812 130.361Z" fill="black"/>
<path id="Vector_158" d="M91.7812 134.501C92.5433 134.501 93.1611 133.883 93.1611 133.121C93.1611 132.359 92.5433 131.741 91.7812 131.741C91.0191 131.741 90.4014 132.359 90.4014 133.121C90.4014 133.883 91.0191 134.501 91.7812 134.501Z" fill="black"/>
<path id="Vector_159" d="M91.7812 138.639C92.5433 138.639 93.1611 138.021 93.1611 137.259C93.1611 136.497 92.5433 135.879 91.7812 135.879C91.0191 135.879 90.4014 136.497 90.4014 137.259C90.4014 138.021 91.0191 138.639 91.7812 138.639Z" fill="black"/>
<path id="Vector_160" d="M91.7812 146.919C92.5433 146.919 93.1611 146.301 93.1611 145.539C93.1611 144.777 92.5433 144.159 91.7812 144.159C91.0191 144.159 90.4014 144.777 90.4014 145.539C90.4014 146.301 91.0191 146.919 91.7812 146.919Z" fill="black"/>
<path id="Vector_161" d="M91.7812 151.059C92.5433 151.059 93.1611 150.441 93.1611 149.679C93.1611 148.917 92.5433 148.299 91.7812 148.299C91.0191 148.299 90.4014 148.917 90.4014 149.679C90.4014 150.441 91.0191 151.059 91.7812 151.059Z" fill="black"/>
<path id="Vector_162" d="M95.9209 39.2929C96.6829 39.2929 97.3007 38.6751 97.3007 37.913C97.3007 37.151 96.6829 36.5332 95.9209 36.5332C95.1588 36.5332 94.541 37.151 94.541 37.913C94.541 38.6751 95.1588 39.2929 95.9209 39.2929Z" fill="black"/>
<path id="Vector_163" d="M95.9209 43.4286C96.6829 43.4286 97.3007 42.8109 97.3007 42.0488C97.3007 41.2867 96.6829 40.6689 95.9209 40.6689C95.1588 40.6689 94.541 41.2867 94.541 42.0488C94.541 42.8109 95.1588 43.4286 95.9209 43.4286Z" fill="black"/>
<path id="Vector_164" d="M95.9209 47.5702C96.6829 47.5702 97.3007 46.9525 97.3007 46.1904C97.3007 45.4283 96.6829 44.8105 95.9209 44.8105C95.1588 44.8105 94.541 45.4283 94.541 46.1904C94.541 46.9525 95.1588 47.5702 95.9209 47.5702Z" fill="black"/>
<path id="Vector_165" d="M95.9209 51.7099C96.6829 51.7099 97.3007 51.0921 97.3007 50.33C97.3007 49.568 96.6829 48.9502 95.9209 48.9502C95.1588 48.9502 94.541 49.568 94.541 50.33C94.541 51.0921 95.1588 51.7099 95.9209 51.7099Z" fill="black"/>
<path id="Vector_166" d="M95.9209 55.8466C96.6829 55.8466 97.3007 55.2288 97.3007 54.4668C97.3007 53.7047 96.6829 53.0869 95.9209 53.0869C95.1588 53.0869 94.541 53.7047 94.541 54.4668C94.541 55.2288 95.1588 55.8466 95.9209 55.8466Z" fill="black"/>
<path id="Vector_167" d="M95.9209 64.1279C96.6829 64.1279 97.3007 63.5101 97.3007 62.748C97.3007 61.9859 96.6829 61.3682 95.9209 61.3682C95.1588 61.3682 94.541 61.9859 94.541 62.748C94.541 63.5101 95.1588 64.1279 95.9209 64.1279Z" fill="black"/>
<path id="Vector_168" d="M95.9209 68.2685C96.6829 68.2685 97.3007 67.6507 97.3007 66.8886C97.3007 66.1266 96.6829 65.5088 95.9209 65.5088C95.1588 65.5088 94.541 66.1266 94.541 66.8886C94.541 67.6507 95.1588 68.2685 95.9209 68.2685Z" fill="black"/>
<path id="Vector_169" d="M95.9209 93.1054C96.6829 93.1054 97.3007 92.4876 97.3007 91.7255C97.3007 90.9635 96.6829 90.3457 95.9209 90.3457C95.1588 90.3457 94.541 90.9635 94.541 91.7255C94.541 92.4876 95.1588 93.1054 95.9209 93.1054Z" fill="black"/>
<path id="Vector_170" d="M95.9209 101.384C96.6829 101.384 97.3007 100.766 97.3007 100.004C97.3007 99.2418 96.6829 98.624 95.9209 98.624C95.1588 98.624 94.541 99.2418 94.541 100.004C94.541 100.766 95.1588 101.384 95.9209 101.384Z" fill="black"/>
<path id="Vector_171" d="M95.9209 105.523C96.6829 105.523 97.3007 104.906 97.3007 104.144C97.3007 103.381 96.6829 102.764 95.9209 102.764C95.1588 102.764 94.541 103.381 94.541 104.144C94.541 104.906 95.1588 105.523 95.9209 105.523Z" fill="black"/>
<path id="Vector_172" d="M95.9209 109.663C96.6829 109.663 97.3007 109.045 97.3007 108.283C97.3007 107.521 96.6829 106.903 95.9209 106.903C95.1588 106.903 94.541 107.521 94.541 108.283C94.541 109.045 95.1588 109.663 95.9209 109.663Z" fill="black"/>
<path id="Vector_173" d="M95.9209 122.08C96.6829 122.08 97.3007 121.462 97.3007 120.7C97.3007 119.938 96.6829 119.32 95.9209 119.32C95.1588 119.32 94.541 119.938 94.541 120.7C94.541 121.462 95.1588 122.08 95.9209 122.08Z" fill="black"/>
<path id="Vector_174" d="M95.9209 134.501C96.6829 134.501 97.3007 133.883 97.3007 133.121C97.3007 132.359 96.6829 131.741 95.9209 131.741C95.1588 131.741 94.541 132.359 94.541 133.121C94.541 133.883 95.1588 134.501 95.9209 134.501Z" fill="black"/>
<path id="Vector_175" d="M95.9209 138.639C96.6829 138.639 97.3007 138.021 97.3007 137.259C97.3007 136.497 96.6829 135.879 95.9209 135.879C95.1588 135.879 94.541 136.497 94.541 137.259C94.541 138.021 95.1588 138.639 95.9209 138.639Z" fill="black"/>
<path id="Vector_176" d="M95.9209 151.059C96.6829 151.059 97.3007 150.441 97.3007 149.679C97.3007 148.917 96.6829 148.299 95.9209 148.299C95.1588 148.299 94.541 148.917 94.541 149.679C94.541 150.441 95.1588 151.059 95.9209 151.059Z" fill="black"/>
<path id="Vector_177" d="M100.06 35.1532C100.822 35.1532 101.44 34.5355 101.44 33.7734C101.44 33.0113 100.822 32.3936 100.06 32.3936C99.2982 32.3936 98.6804 33.0113 98.6804 33.7734C98.6804 34.5355 99.2982 35.1532 100.06 35.1532Z" fill="black"/>
<path id="Vector_178" d="M100.06 39.2929C100.822 39.2929 101.44 38.6751 101.44 37.913C101.44 37.151 100.822 36.5332 100.06 36.5332C99.2982 36.5332 98.6804 37.151 98.6804 37.913C98.6804 38.6751 99.2982 39.2929 100.06 39.2929Z" fill="black"/>
<path id="Vector_179" d="M100.06 43.4286C100.822 43.4286 101.44 42.8109 101.44 42.0488C101.44 41.2867 100.822 40.6689 100.06 40.6689C99.2982 40.6689 98.6804 41.2867 98.6804 42.0488C98.6804 42.8109 99.2982 43.4286 100.06 43.4286Z" fill="black"/>
<path id="Vector_180" d="M100.06 55.8466C100.822 55.8466 101.44 55.2288 101.44 54.4668C101.44 53.7047 100.822 53.0869 100.06 53.0869C99.2982 53.0869 98.6804 53.7047 98.6804 54.4668C98.6804 55.2288 99.2982 55.8466 100.06 55.8466Z" fill="black"/>
<path id="Vector_181" d="M100.06 59.9882C100.822 59.9882 101.44 59.3704 101.44 58.6084C101.44 57.8463 100.822 57.2285 100.06 57.2285C99.2982 57.2285 98.6804 57.8463 98.6804 58.6084C98.6804 59.3704 99.2982 59.9882 100.06 59.9882Z" fill="black"/>
<path id="Vector_182" d="M100.06 64.1279C100.822 64.1279 101.44 63.5101 101.44 62.748C101.44 61.9859 100.822 61.3682 100.06 61.3682C99.2982 61.3682 98.6804 61.9859 98.6804 62.748C98.6804 63.5101 99.2982 64.1279 100.06 64.1279Z" fill="black"/>
<path id="Vector_183" d="M100.06 68.2685C100.822 68.2685 101.44 67.6507 101.44 66.8886C101.44 66.1266 100.822 65.5088 100.06 65.5088C99.2982 65.5088 98.6804 66.1266 98.6804 66.8886C98.6804 67.6507 99.2982 68.2685 100.06 68.2685Z" fill="black"/>
<path id="Vector_184" d="M100.06 80.6865C100.822 80.6865 101.44 80.0687 101.44 79.3066C101.44 78.5445 100.822 77.9268 100.06 77.9268C99.2982 77.9268 98.6804 78.5445 98.6804 79.3066C98.6804 80.0687 99.2982 80.6865 100.06 80.6865Z" fill="black"/>
<path id="Vector_185" d="M100.06 84.8261C100.822 84.8261 101.44 84.2083 101.44 83.4463C101.44 82.6842 100.822 82.0664 100.06 82.0664C99.2982 82.0664 98.6804 82.6842 98.6804 83.4463C98.6804 84.2083 99.2982 84.8261 100.06 84.8261Z" fill="black"/>
<path id="Vector_186" d="M100.06 88.9638C100.822 88.9638 101.44 88.346 101.44 87.5839C101.44 86.8219 100.822 86.2041 100.06 86.2041C99.2982 86.2041 98.6804 86.8219 98.6804 87.5839C98.6804 88.346 99.2982 88.9638 100.06 88.9638Z" fill="black"/>
<path id="Vector_187" d="M100.06 101.384C100.822 101.384 101.44 100.766 101.44 100.004C101.44 99.2418 100.822 98.624 100.06 98.624C99.2982 98.624 98.6804 99.2418 98.6804 100.004C98.6804 100.766 99.2982 101.384 100.06 101.384Z" fill="black"/>
<path id="Vector_188" d="M100.06 105.523C100.822 105.523 101.44 104.906 101.44 104.144C101.44 103.381 100.822 102.764 100.06 102.764C99.2982 102.764 98.6804 103.381 98.6804 104.144C98.6804 104.906 99.2982 105.523 100.06 105.523Z" fill="black"/>
<path id="Vector_189" d="M100.06 109.663C100.822 109.663 101.44 109.045 101.44 108.283C101.44 107.521 100.822 106.903 100.06 106.903C99.2982 106.903 98.6804 107.521 98.6804 108.283C98.6804 109.045 99.2982 109.663 100.06 109.663Z" fill="black"/>
<path id="Vector_190" d="M100.06 117.944C100.822 117.944 101.44 117.326 101.44 116.564C101.44 115.802 100.822 115.185 100.06 115.185C99.2982 115.185 98.6804 115.802 98.6804 116.564C98.6804 117.326 99.2982 117.944 100.06 117.944Z" fill="black"/>
<path id="Vector_191" d="M100.06 122.08C100.822 122.08 101.44 121.462 101.44 120.7C101.44 119.938 100.822 119.32 100.06 119.32C99.2982 119.32 98.6804 119.938 98.6804 120.7C98.6804 121.462 99.2982 122.08 100.06 122.08Z" fill="black"/>
<path id="Vector_192" d="M100.06 134.501C100.822 134.501 101.44 133.883 101.44 133.121C101.44 132.359 100.822 131.741 100.06 131.741C99.2982 131.741 98.6804 132.359 98.6804 133.121C98.6804 133.883 99.2982 134.501 100.06 134.501Z" fill="black"/>
<path id="Vector_193" d="M100.06 138.639C100.822 138.639 101.44 138.021 101.44 137.259C101.44 136.497 100.822 135.879 100.06 135.879C99.2982 135.879 98.6804 136.497 98.6804 137.259C98.6804 138.021 99.2982 138.639 100.06 138.639Z" fill="black"/>
<path id="Vector_194" d="M104.2 43.4286C104.962 43.4286 105.58 42.8109 105.58 42.0488C105.58 41.2867 104.962 40.6689 104.2 40.6689C103.438 40.6689 102.82 41.2867 102.82 42.0488C102.82 42.8109 103.438 43.4286 104.2 43.4286Z" fill="black"/>
<path id="Vector_195" d="M104.2 47.5702C104.962 47.5702 105.58 46.9525 105.58 46.1904C105.58 45.4283 104.962 44.8105 104.2 44.8105C103.438 44.8105 102.82 45.4283 102.82 46.1904C102.82 46.9525 103.438 47.5702 104.2 47.5702Z" fill="black"/>
<path id="Vector_196" d="M104.2 51.7099C104.962 51.7099 105.58 51.0921 105.58 50.33C105.58 49.568 104.962 48.9502 104.2 48.9502C103.438 48.9502 102.82 49.568 102.82 50.33C102.82 51.0921 103.438 51.7099 104.2 51.7099Z" fill="black"/>
<path id="Vector_197" d="M104.2 68.2685C104.962 68.2685 105.58 67.6507 105.58 66.8886C105.58 66.1266 104.962 65.5088 104.2 65.5088C103.438 65.5088 102.82 66.1266 102.82 66.8886C102.82 67.6507 103.438 68.2685 104.2 68.2685Z" fill="black"/>
<path id="Vector_198" d="M104.2 72.4072C104.962 72.4072 105.58 71.7894 105.58 71.0273C105.58 70.2652 104.962 69.6475 104.2 69.6475C103.438 69.6475 102.82 70.2652 102.82 71.0273C102.82 71.7894 103.438 72.4072 104.2 72.4072Z" fill="black"/>
<path id="Vector_199" d="M104.2 80.6865C104.962 80.6865 105.58 80.0687 105.58 79.3066C105.58 78.5445 104.962 77.9268 104.2 77.9268C103.438 77.9268 102.82 78.5445 102.82 79.3066C102.82 80.0687 103.438 80.6865 104.2 80.6865Z" fill="black"/>
<path id="Vector_200" d="M104.2 84.8261C104.962 84.8261 105.58 84.2083 105.58 83.4463C105.58 82.6842 104.962 82.0664 104.2 82.0664C103.438 82.0664 102.82 82.6842 102.82 83.4463C102.82 84.2083 103.438 84.8261 104.2 84.8261Z" fill="black"/>
<path id="Vector_201" d="M104.2 88.9638C104.962 88.9638 105.58 88.346 105.58 87.5839C105.58 86.8219 104.962 86.2041 104.2 86.2041C103.438 86.2041 102.82 86.8219 102.82 87.5839C102.82 88.346 103.438 88.9638 104.2 88.9638Z" fill="black"/>
<path id="Vector_202" d="M104.2 101.384C104.962 101.384 105.58 100.766 105.58 100.004C105.58 99.2418 104.962 98.624 104.2 98.624C103.438 98.624 102.82 99.2418 102.82 100.004C102.82 100.766 103.438 101.384 104.2 101.384Z" fill="black"/>
<path id="Vector_203" d="M104.2 105.523C104.962 105.523 105.58 104.906 105.58 104.144C105.58 103.381 104.962 102.764 104.2 102.764C103.438 102.764 102.82 103.381 102.82 104.144C102.82 104.906 103.438 105.523 104.2 105.523Z" fill="black"/>
<path id="Vector_204" d="M104.2 117.944C104.962 117.944 105.58 117.326 105.58 116.564C105.58 115.802 104.962 115.185 104.2 115.185C103.438 115.185 102.82 115.802 102.82 116.564C102.82 117.326 103.438 117.944 104.2 117.944Z" fill="black"/>
<path id="Vector_205" d="M104.2 122.08C104.962 122.08 105.58 121.462 105.58 120.7C105.58 119.938 104.962 119.32 104.2 119.32C103.438 119.32 102.82 119.938 102.82 120.7C102.82 121.462 103.438 122.08 104.2 122.08Z" fill="black"/>
<path id="Vector_206" d="M104.2 130.361C104.962 130.361 105.58 129.743 105.58 128.981C105.58 128.219 104.962 127.602 104.2 127.602C103.438 127.602 102.82 128.219 102.82 128.981C102.82 129.743 103.438 130.361 104.2 130.361Z" fill="black"/>
<path id="Vector_207" d="M104.2 142.779C104.962 142.779 105.58 142.161 105.58 141.399C105.58 140.637 104.962 140.02 104.2 140.02C103.438 140.02 102.82 140.637 102.82 141.399C102.82 142.161 103.438 142.779 104.2 142.779Z" fill="black"/>
<path id="Vector_208" d="M108.34 35.1532C109.102 35.1532 109.719 34.5355 109.719 33.7734C109.719 33.0113 109.102 32.3936 108.34 32.3936C107.577 32.3936 106.96 33.0113 106.96 33.7734C106.96 34.5355 107.577 35.1532 108.34 35.1532Z" fill="black"/>
<path id="Vector_209" d="M108.34 43.4286C109.102 43.4286 109.719 42.8109 109.719 42.0488C109.719 41.2867 109.102 40.6689 108.34 40.6689C107.577 40.6689 106.96 41.2867 106.96 42.0488C106.96 42.8109 107.577 43.4286 108.34 43.4286Z" fill="black"/>
<path id="Vector_210" d="M108.34 47.5702C109.102 47.5702 109.719 46.9525 109.719 46.1904C109.719 45.4283 109.102 44.8105 108.34 44.8105C107.577 44.8105 106.96 45.4283 106.96 46.1904C106.96 46.9525 107.577 47.5702 108.34 47.5702Z" fill="black"/>
<path id="Vector_211" d="M108.34 51.7099C109.102 51.7099 109.719 51.0921 109.719 50.33C109.719 49.568 109.102 48.9502 108.34 48.9502C107.577 48.9502 106.96 49.568 106.96 50.33C106.96 51.0921 107.577 51.7099 108.34 51.7099Z" fill="black"/>
<path id="Vector_212" d="M108.34 59.9882C109.102 59.9882 109.719 59.3704 109.719 58.6084C109.719 57.8463 109.102 57.2285 108.34 57.2285C107.577 57.2285 106.96 57.8463 106.96 58.6084C106.96 59.3704 107.577 59.9882 108.34 59.9882Z" fill="black"/>
<path id="Vector_213" d="M108.34 93.1054C109.102 93.1054 109.719 92.4876 109.719 91.7255C109.719 90.9635 109.102 90.3457 108.34 90.3457C107.577 90.3457 106.96 90.9635 106.96 91.7255C106.96 92.4876 107.577 93.1054 108.34 93.1054Z" fill="black"/>
<path id="Vector_214" d="M108.34 97.245C109.102 97.245 109.719 96.6273 109.719 95.8652C109.719 95.1031 109.102 94.4854 108.34 94.4854C107.577 94.4854 106.96 95.1031 106.96 95.8652C106.96 96.6273 107.577 97.245 108.34 97.245Z" fill="black"/>
<path id="Vector_215" d="M108.34 101.384C109.102 101.384 109.719 100.766 109.719 100.004C109.719 99.2418 109.102 98.624 108.34 98.624C107.577 98.624 106.96 99.2418 106.96 100.004C106.96 100.766 107.577 101.384 108.34 101.384Z" fill="black"/>
<path id="Vector_216" d="M108.34 117.944C109.102 117.944 109.719 117.326 109.719 116.564C109.719 115.802 109.102 115.185 108.34 115.185C107.577 115.185 106.96 115.802 106.96 116.564C106.96 117.326 107.577 117.944 108.34 117.944Z" fill="black"/>
<path id="Vector_217" d="M108.34 126.22C109.102 126.22 109.719 125.602 109.719 124.84C109.719 124.078 109.102 123.46 108.34 123.46C107.577 123.46 106.96 124.078 106.96 124.84C106.96 125.602 107.577 126.22 108.34 126.22Z" fill="black"/>
<path id="Vector_218" d="M108.34 130.361C109.102 130.361 109.719 129.743 109.719 128.981C109.719 128.219 109.102 127.602 108.34 127.602C107.577 127.602 106.96 128.219 106.96 128.981C106.96 129.743 107.577 130.361 108.34 130.361Z" fill="black"/>
<path id="Vector_219" d="M108.34 138.639C109.102 138.639 109.719 138.021 109.719 137.259C109.719 136.497 109.102 135.879 108.34 135.879C107.577 135.879 106.96 136.497 106.96 137.259C106.96 138.021 107.577 138.639 108.34 138.639Z" fill="black"/>
<path id="Vector_220" d="M112.479 64.1279C113.241 64.1279 113.859 63.5101 113.859 62.748C113.859 61.9859 113.241 61.3682 112.479 61.3682C111.717 61.3682 111.099 61.9859 111.099 62.748C111.099 63.5101 111.717 64.1279 112.479 64.1279Z" fill="black"/>
<path id="Vector_221" d="M112.479 72.4072C113.241 72.4072 113.859 71.7894 113.859 71.0273C113.859 70.2652 113.241 69.6475 112.479 69.6475C111.717 69.6475 111.099 70.2652 111.099 71.0273C111.099 71.7894 111.717 72.4072 112.479 72.4072Z" fill="black"/>
<path id="Vector_222" d="M112.479 76.5468C113.241 76.5468 113.859 75.929 113.859 75.167C113.859 74.4049 113.241 73.7871 112.479 73.7871C111.717 73.7871 111.099 74.4049 111.099 75.167C111.099 75.929 111.717 76.5468 112.479 76.5468Z" fill="black"/>
<path id="Vector_223" d="M112.479 93.1054C113.241 93.1054 113.859 92.4876 113.859 91.7255C113.859 90.9635 113.241 90.3457 112.479 90.3457C111.717 90.3457 111.099 90.9635 111.099 91.7255C111.099 92.4876 111.717 93.1054 112.479 93.1054Z" fill="black"/>
<path id="Vector_224" d="M112.479 105.523C113.241 105.523 113.859 104.906 113.859 104.144C113.859 103.381 113.241 102.764 112.479 102.764C111.717 102.764 111.099 103.381 111.099 104.144C111.099 104.906 111.717 105.523 112.479 105.523Z" fill="black"/>
<path id="Vector_225" d="M112.479 109.663C113.241 109.663 113.859 109.045 113.859 108.283C113.859 107.521 113.241 106.903 112.479 106.903C111.717 106.903 111.099 107.521 111.099 108.283C111.099 109.045 111.717 109.663 112.479 109.663Z" fill="black"/>
<path id="Vector_226" d="M112.479 113.803C113.241 113.803 113.859 113.185 113.859 112.423C113.859 111.661 113.241 111.043 112.479 111.043C111.717 111.043 111.099 111.661 111.099 112.423C111.099 113.185 111.717 113.803 112.479 113.803Z" fill="black"/>
<path id="Vector_227" d="M112.479 117.944C113.241 117.944 113.859 117.326 113.859 116.564C113.859 115.802 113.241 115.185 112.479 115.185C111.717 115.185 111.099 115.802 111.099 116.564C111.099 117.326 111.717 117.944 112.479 117.944Z" fill="black"/>
<path id="Vector_228" d="M112.479 122.08C113.241 122.08 113.859 121.462 113.859 120.7C113.859 119.938 113.241 119.32 112.479 119.32C111.717 119.32 111.099 119.938 111.099 120.7C111.099 121.462 111.717 122.08 112.479 122.08Z" fill="black"/>
<path id="Vector_229" d="M112.479 126.22C113.241 126.22 113.859 125.602 113.859 124.84C113.859 124.078 113.241 123.46 112.479 123.46C111.717 123.46 111.099 124.078 111.099 124.84C111.099 125.602 111.717 126.22 112.479 126.22Z" fill="black"/>
<path id="Vector_230" d="M112.479 142.779C113.241 142.779 113.859 142.161 113.859 141.399C113.859 140.637 113.241 140.02 112.479 140.02C111.717 140.02 111.099 140.637 111.099 141.399C111.099 142.161 111.717 142.779 112.479 142.779Z" fill="black"/>
<path id="Vector_231" d="M116.618 39.2929C117.38 39.2929 117.998 38.6751 117.998 37.913C117.998 37.151 117.38 36.5332 116.618 36.5332C115.856 36.5332 115.239 37.151 115.239 37.913C115.239 38.6751 115.856 39.2929 116.618 39.2929Z" fill="black"/>
<path id="Vector_232" d="M116.618 43.4286C117.38 43.4286 117.998 42.8109 117.998 42.0488C117.998 41.2867 117.38 40.6689 116.618 40.6689C115.856 40.6689 115.239 41.2867 115.239 42.0488C115.239 42.8109 115.856 43.4286 116.618 43.4286Z" fill="black"/>
<path id="Vector_233" d="M116.618 47.5702C117.38 47.5702 117.998 46.9525 117.998 46.1904C117.998 45.4283 117.38 44.8105 116.618 44.8105C115.856 44.8105 115.239 45.4283 115.239 46.1904C115.239 46.9525 115.856 47.5702 116.618 47.5702Z" fill="black"/>
<path id="Vector_234" d="M116.618 51.7099C117.38 51.7099 117.998 51.0921 117.998 50.33C117.998 49.568 117.38 48.9502 116.618 48.9502C115.856 48.9502 115.239 49.568 115.239 50.33C115.239 51.0921 115.856 51.7099 116.618 51.7099Z" fill="black"/>
<path id="Vector_235" d="M116.618 55.8466C117.38 55.8466 117.998 55.2288 117.998 54.4668C117.998 53.7047 117.38 53.0869 116.618 53.0869C115.856 53.0869 115.239 53.7047 115.239 54.4668C115.239 55.2288 115.856 55.8466 116.618 55.8466Z" fill="black"/>
<path id="Vector_236" d="M116.618 59.9882C117.38 59.9882 117.998 59.3704 117.998 58.6084C117.998 57.8463 117.38 57.2285 116.618 57.2285C115.856 57.2285 115.239 57.8463 115.239 58.6084C115.239 59.3704 115.856 59.9882 116.618 59.9882Z" fill="black"/>
<path id="Vector_237" d="M116.618 76.5468C117.38 76.5468 117.998 75.929 117.998 75.167C117.998 74.4049 117.38 73.7871 116.618 73.7871C115.856 73.7871 115.239 74.4049 115.239 75.167C115.239 75.929 115.856 76.5468 116.618 76.5468Z" fill="black"/>
<path id="Vector_238" d="M116.618 80.6865C117.38 80.6865 117.998 80.0687 117.998 79.3066C117.998 78.5445 117.38 77.9268 116.618 77.9268C115.856 77.9268 115.239 78.5445 115.239 79.3066C115.239 80.0687 115.856 80.6865 116.618 80.6865Z" fill="black"/>
<path id="Vector_239" d="M116.618 101.384C117.38 101.384 117.998 100.766 117.998 100.004C117.998 99.2418 117.38 98.624 116.618 98.624C115.856 98.624 115.239 99.2418 115.239 100.004C115.239 100.766 115.856 101.384 116.618 101.384Z" fill="black"/>
<path id="Vector_240" d="M116.618 105.523C117.38 105.523 117.998 104.906 117.998 104.144C117.998 103.381 117.38 102.764 116.618 102.764C115.856 102.764 115.239 103.381 115.239 104.144C115.239 104.906 115.856 105.523 116.618 105.523Z" fill="black"/>
<path id="Vector_241" d="M116.618 109.663C117.38 109.663 117.998 109.045 117.998 108.283C117.998 107.521 117.38 106.903 116.618 106.903C115.856 106.903 115.239 107.521 115.239 108.283C115.239 109.045 115.856 109.663 116.618 109.663Z" fill="black"/>
<path id="Vector_242" d="M116.618 113.803C117.38 113.803 117.998 113.185 117.998 112.423C117.998 111.661 117.38 111.043 116.618 111.043C115.856 111.043 115.239 111.661 115.239 112.423C115.239 113.185 115.856 113.803 116.618 113.803Z" fill="black"/>
<path id="Vector_243" d="M116.618 117.944C117.38 117.944 117.998 117.326 117.998 116.564C117.998 115.802 117.38 115.185 116.618 115.185C115.856 115.185 115.239 115.802 115.239 116.564C115.239 117.326 115.856 117.944 116.618 117.944Z" fill="black"/>
<path id="Vector_244" d="M116.618 122.08C117.38 122.08 117.998 121.462 117.998 120.7C117.998 119.938 117.38 119.32 116.618 119.32C115.856 119.32 115.239 119.938 115.239 120.7C115.239 121.462 115.856 122.08 116.618 122.08Z" fill="black"/>
<path id="Vector_245" d="M116.618 126.22C117.38 126.22 117.998 125.602 117.998 124.84C117.998 124.078 117.38 123.46 116.618 123.46C115.856 123.46 115.239 124.078 115.239 124.84C115.239 125.602 115.856 126.22 116.618 126.22Z" fill="black"/>
<path id="Vector_246" d="M116.618 130.361C117.38 130.361 117.998 129.743 117.998 128.981C117.998 128.219 117.38 127.602 116.618 127.602C115.856 127.602 115.239 128.219 115.239 128.981C115.239 129.743 115.856 130.361 116.618 130.361Z" fill="black"/>
<path id="Vector_247" d="M116.618 134.501C117.38 134.501 117.998 133.883 117.998 133.121C117.998 132.359 117.38 131.741 116.618 131.741C115.856 131.741 115.239 132.359 115.239 133.121C115.239 133.883 115.856 134.501 116.618 134.501Z" fill="black"/>
<path id="Vector_248" d="M116.618 138.639C117.38 138.639 117.998 138.021 117.998 137.259C117.998 136.497 117.38 135.879 116.618 135.879C115.856 135.879 115.239 136.497 115.239 137.259C115.239 138.021 115.856 138.639 116.618 138.639Z" fill="black"/>
<path id="Vector_249" d="M116.618 142.779C117.38 142.779 117.998 142.161 117.998 141.399C117.998 140.637 117.38 140.02 116.618 140.02C115.856 140.02 115.239 140.637 115.239 141.399C115.239 142.161 115.856 142.779 116.618 142.779Z" fill="black"/>
<path id="Vector_250" d="M116.618 146.919C117.38 146.919 117.998 146.301 117.998 145.539C117.998 144.777 117.38 144.159 116.618 144.159C115.856 144.159 115.239 144.777 115.239 145.539C115.239 146.301 115.856 146.919 116.618 146.919Z" fill="black"/>
<path id="Vector_251" d="M120.758 68.2685C121.52 68.2685 122.137 67.6507 122.137 66.8886C122.137 66.1266 121.52 65.5088 120.758 65.5088C119.995 65.5088 119.378 66.1266 119.378 66.8886C119.378 67.6507 119.995 68.2685 120.758 68.2685Z" fill="black"/>
<path id="Vector_252" d="M120.758 76.5468C121.52 76.5468 122.137 75.929 122.137 75.167C122.137 74.4049 121.52 73.7871 120.758 73.7871C119.995 73.7871 119.378 74.4049 119.378 75.167C119.378 75.929 119.995 76.5468 120.758 76.5468Z" fill="black"/>
<path id="Vector_253" d="M120.758 84.8261C121.52 84.8261 122.137 84.2083 122.137 83.4463C122.137 82.6842 121.52 82.0664 120.758 82.0664C119.995 82.0664 119.378 82.6842 119.378 83.4463C119.378 84.2083 119.995 84.8261 120.758 84.8261Z" fill="black"/>
<path id="Vector_254" d="M120.758 93.1054C121.52 93.1054 122.137 92.4876 122.137 91.7255C122.137 90.9635 121.52 90.3457 120.758 90.3457C119.995 90.3457 119.378 90.9635 119.378 91.7255C119.378 92.4876 119.995 93.1054 120.758 93.1054Z" fill="black"/>
<path id="Vector_255" d="M120.758 113.803C121.52 113.803 122.137 113.185 122.137 112.423C122.137 111.661 121.52 111.043 120.758 111.043C119.995 111.043 119.378 111.661 119.378 112.423C119.378 113.185 119.995 113.803 120.758 113.803Z" fill="black"/>
<path id="Vector_256" d="M120.758 117.944C121.52 117.944 122.137 117.326 122.137 116.564C122.137 115.802 121.52 115.185 120.758 115.185C119.995 115.185 119.378 115.802 119.378 116.564C119.378 117.326 119.995 117.944 120.758 117.944Z" fill="black"/>
<path id="Vector_257" d="M120.758 134.501C121.52 134.501 122.137 133.883 122.137 133.121C122.137 132.359 121.52 131.741 120.758 131.741C119.995 131.741 119.378 132.359 119.378 133.121C119.378 133.883 119.995 134.501 120.758 134.501Z" fill="black"/>
<path id="Vector_258" d="M120.758 138.639C121.52 138.639 122.137 138.021 122.137 137.259C122.137 136.497 121.52 135.879 120.758 135.879C119.995 135.879 119.378 136.497 119.378 137.259C119.378 138.021 119.995 138.639 120.758 138.639Z" fill="black"/>
<path id="Vector_259" d="M120.758 146.919C121.52 146.919 122.137 146.301 122.137 145.539C122.137 144.777 121.52 144.159 120.758 144.159C119.995 144.159 119.378 144.777 119.378 145.539C119.378 146.301 119.995 146.919 120.758 146.919Z" fill="black"/>
<path id="Vector_260" d="M120.758 151.059C121.52 151.059 122.137 150.441 122.137 149.679C122.137 148.917 121.52 148.299 120.758 148.299C119.995 148.299 119.378 148.917 119.378 149.679C119.378 150.441 119.995 151.059 120.758 151.059Z" fill="black"/>
<path id="Vector_261" d="M124.897 80.6865C125.659 80.6865 126.277 80.0687 126.277 79.3066C126.277 78.5445 125.659 77.9268 124.897 77.9268C124.135 77.9268 123.517 78.5445 123.517 79.3066C123.517 80.0687 124.135 80.6865 124.897 80.6865Z" fill="black"/>
<path id="Vector_262" d="M124.897 93.1054C125.659 93.1054 126.277 92.4876 126.277 91.7255C126.277 90.9635 125.659 90.3457 124.897 90.3457C124.135 90.3457 123.517 90.9635 123.517 91.7255C123.517 92.4876 124.135 93.1054 124.897 93.1054Z" fill="black"/>
<path id="Vector_263" d="M124.897 105.523C125.659 105.523 126.277 104.906 126.277 104.144C126.277 103.381 125.659 102.764 124.897 102.764C124.135 102.764 123.517 103.381 123.517 104.144C123.517 104.906 124.135 105.523 124.897 105.523Z" fill="black"/>
<path id="Vector_264" d="M124.897 113.803C125.659 113.803 126.277 113.185 126.277 112.423C126.277 111.661 125.659 111.043 124.897 111.043C124.135 111.043 123.517 111.661 123.517 112.423C123.517 113.185 124.135 113.803 124.897 113.803Z" fill="black"/>
<path id="Vector_265" d="M124.897 117.944C125.659 117.944 126.277 117.326 126.277 116.564C126.277 115.802 125.659 115.185 124.897 115.185C124.135 115.185 123.517 115.802 123.517 116.564C123.517 117.326 124.135 117.944 124.897 117.944Z" fill="black"/>
<path id="Vector_266" d="M124.897 126.22C125.659 126.22 126.277 125.602 126.277 124.84C126.277 124.078 125.659 123.46 124.897 123.46C124.135 123.46 123.517 124.078 123.517 124.84C123.517 125.602 124.135 126.22 124.897 126.22Z" fill="black"/>
<path id="Vector_267" d="M124.897 134.501C125.659 134.501 126.277 133.883 126.277 133.121C126.277 132.359 125.659 131.741 124.897 131.741C124.135 131.741 123.517 132.359 123.517 133.121C123.517 133.883 124.135 134.501 124.897 134.501Z" fill="black"/>
<path id="Vector_268" d="M124.897 142.779C125.659 142.779 126.277 142.161 126.277 141.399C126.277 140.637 125.659 140.02 124.897 140.02C124.135 140.02 123.517 140.637 123.517 141.399C123.517 142.161 124.135 142.779 124.897 142.779Z" fill="black"/>
<path id="Vector_269" d="M124.897 146.919C125.659 146.919 126.277 146.301 126.277 145.539C126.277 144.777 125.659 144.159 124.897 144.159C124.135 144.159 123.517 144.777 123.517 145.539C123.517 146.301 124.135 146.919 124.897 146.919Z" fill="black"/>
<path id="Vector_270" d="M129.037 68.2685C129.799 68.2685 130.417 67.6507 130.417 66.8886C130.417 66.1266 129.799 65.5088 129.037 65.5088C128.275 65.5088 127.657 66.1266 127.657 66.8886C127.657 67.6507 128.275 68.2685 129.037 68.2685Z" fill="black"/>
<path id="Vector_271" d="M129.037 72.4072C129.799 72.4072 130.417 71.7894 130.417 71.0273C130.417 70.2652 129.799 69.6475 129.037 69.6475C128.275 69.6475 127.657 70.2652 127.657 71.0273C127.657 71.7894 128.275 72.4072 129.037 72.4072Z" fill="black"/>
<path id="Vector_272" d="M129.037 84.8261C129.799 84.8261 130.417 84.2083 130.417 83.4463C130.417 82.6842 129.799 82.0664 129.037 82.0664C128.275 82.0664 127.657 82.6842 127.657 83.4463C127.657 84.2083 128.275 84.8261 129.037 84.8261Z" fill="black"/>
<path id="Vector_273" d="M129.037 88.9638C129.799 88.9638 130.417 88.346 130.417 87.5839C130.417 86.8219 129.799 86.2041 129.037 86.2041C128.275 86.2041 127.657 86.8219 127.657 87.5839C127.657 88.346 128.275 88.9638 129.037 88.9638Z" fill="black"/>
<path id="Vector_274" d="M129.037 97.245C129.799 97.245 130.417 96.6273 130.417 95.8652C130.417 95.1031 129.799 94.4854 129.037 94.4854C128.275 94.4854 127.657 95.1031 127.657 95.8652C127.657 96.6273 128.275 97.245 129.037 97.245Z" fill="black"/>
<path id="Vector_275" d="M129.037 101.384C129.799 101.384 130.417 100.766 130.417 100.004C130.417 99.2418 129.799 98.624 129.037 98.624C128.275 98.624 127.657 99.2418 127.657 100.004C127.657 100.766 128.275 101.384 129.037 101.384Z" fill="black"/>
<path id="Vector_276" d="M129.037 109.663C129.799 109.663 130.417 109.045 130.417 108.283C130.417 107.521 129.799 106.903 129.037 106.903C128.275 106.903 127.657 107.521 127.657 108.283C127.657 109.045 128.275 109.663 129.037 109.663Z" fill="black"/>
<path id="Vector_277" d="M129.037 117.944C129.799 117.944 130.417 117.326 130.417 116.564C130.417 115.802 129.799 115.185 129.037 115.185C128.275 115.185 127.657 115.802 127.657 116.564C127.657 117.326 128.275 117.944 129.037 117.944Z" fill="black"/>
<path id="Vector_278" d="M129.037 134.501C129.799 134.501 130.417 133.883 130.417 133.121C130.417 132.359 129.799 131.741 129.037 131.741C128.275 131.741 127.657 132.359 127.657 133.121C127.657 133.883 128.275 134.501 129.037 134.501Z" fill="black"/>
<path id="Vector_279" d="M133.176 72.4072C133.938 72.4072 134.556 71.7894 134.556 71.0273C134.556 70.2652 133.938 69.6475 133.176 69.6475C132.414 69.6475 131.796 70.2652 131.796 71.0273C131.796 71.7894 132.414 72.4072 133.176 72.4072Z" fill="black"/>
<path id="Vector_280" d="M133.176 80.6865C133.938 80.6865 134.556 80.0687 134.556 79.3066C134.556 78.5445 133.938 77.9268 133.176 77.9268C132.414 77.9268 131.796 78.5445 131.796 79.3066C131.796 80.0687 132.414 80.6865 133.176 80.6865Z" fill="black"/>
<path id="Vector_281" d="M133.176 84.8261C133.938 84.8261 134.556 84.2083 134.556 83.4463C134.556 82.6842 133.938 82.0664 133.176 82.0664C132.414 82.0664 131.796 82.6842 131.796 83.4463C131.796 84.2083 132.414 84.8261 133.176 84.8261Z" fill="black"/>
<path id="Vector_282" d="M133.176 88.9638C133.938 88.9638 134.556 88.346 134.556 87.5839C134.556 86.8219 133.938 86.2041 133.176 86.2041C132.414 86.2041 131.796 86.8219 131.796 87.5839C131.796 88.346 132.414 88.9638 133.176 88.9638Z" fill="black"/>
<path id="Vector_283" d="M133.176 93.1054C133.938 93.1054 134.556 92.4876 134.556 91.7255C134.556 90.9635 133.938 90.3457 133.176 90.3457C132.414 90.3457 131.796 90.9635 131.796 91.7255C131.796 92.4876 132.414 93.1054 133.176 93.1054Z" fill="black"/>
<path id="Vector_284" d="M133.176 97.245C133.938 97.245 134.556 96.6273 134.556 95.8652C134.556 95.1031 133.938 94.4854 133.176 94.4854C132.414 94.4854 131.796 95.1031 131.796 95.8652C131.796 96.6273 132.414 97.245 133.176 97.245Z" fill="black"/>
<path id="Vector_285" d="M133.176 109.663C133.938 109.663 134.556 109.045 134.556 108.283C134.556 107.521 133.938 106.903 133.176 106.903C132.414 106.903 131.796 107.521 131.796 108.283C131.796 109.045 132.414 109.663 133.176 109.663Z" fill="black"/>
<path id="Vector_286" d="M133.176 117.944C133.938 117.944 134.556 117.326 134.556 116.564C134.556 115.802 133.938 115.185 133.176 115.185C132.414 115.185 131.796 115.802 131.796 116.564C131.796 117.326 132.414 117.944 133.176 117.944Z" fill="black"/>
<path id="Vector_287" d="M133.176 122.08C133.938 122.08 134.556 121.462 134.556 120.7C134.556 119.938 133.938 119.32 133.176 119.32C132.414 119.32 131.796 119.938 131.796 120.7C131.796 121.462 132.414 122.08 133.176 122.08Z" fill="black"/>
<path id="Vector_288" d="M133.176 126.22C133.938 126.22 134.556 125.602 134.556 124.84C134.556 124.078 133.938 123.46 133.176 123.46C132.414 123.46 131.796 124.078 131.796 124.84C131.796 125.602 132.414 126.22 133.176 126.22Z" fill="black"/>
<path id="Vector_289" d="M133.176 130.361C133.938 130.361 134.556 129.743 134.556 128.981C134.556 128.219 133.938 127.602 133.176 127.602C132.414 127.602 131.796 128.219 131.796 128.981C131.796 129.743 132.414 130.361 133.176 130.361Z" fill="black"/>
<path id="Vector_290" d="M133.176 134.501C133.938 134.501 134.556 133.883 134.556 133.121C134.556 132.359 133.938 131.741 133.176 131.741C132.414 131.741 131.796 132.359 131.796 133.121C131.796 133.883 132.414 134.501 133.176 134.501Z" fill="black"/>
<path id="Vector_291" d="M133.176 138.639C133.938 138.639 134.556 138.021 134.556 137.259C134.556 136.497 133.938 135.879 133.176 135.879C132.414 135.879 131.796 136.497 131.796 137.259C131.796 138.021 132.414 138.639 133.176 138.639Z" fill="black"/>
<path id="Vector_292" d="M133.176 142.779C133.938 142.779 134.556 142.161 134.556 141.399C134.556 140.637 133.938 140.02 133.176 140.02C132.414 140.02 131.796 140.637 131.796 141.399C131.796 142.161 132.414 142.779 133.176 142.779Z" fill="black"/>
<path id="Vector_293" d="M133.176 151.059C133.938 151.059 134.556 150.441 134.556 149.679C134.556 148.917 133.938 148.299 133.176 148.299C132.414 148.299 131.796 148.917 131.796 149.679C131.796 150.441 132.414 151.059 133.176 151.059Z" fill="black"/>
<path id="Vector_294" d="M137.316 68.2685C138.078 68.2685 138.695 67.6507 138.695 66.8886C138.695 66.1266 138.078 65.5088 137.316 65.5088C136.554 65.5088 135.936 66.1266 135.936 66.8886C135.936 67.6507 136.554 68.2685 137.316 68.2685Z" fill="black"/>
<path id="Vector_295" d="M137.316 72.4072C138.078 72.4072 138.695 71.7894 138.695 71.0273C138.695 70.2652 138.078 69.6475 137.316 69.6475C136.554 69.6475 135.936 70.2652 135.936 71.0273C135.936 71.7894 136.554 72.4072 137.316 72.4072Z" fill="black"/>
<path id="Vector_296" d="M137.316 84.8261C138.078 84.8261 138.695 84.2083 138.695 83.4463C138.695 82.6842 138.078 82.0664 137.316 82.0664C136.554 82.0664 135.936 82.6842 135.936 83.4463C135.936 84.2083 136.554 84.8261 137.316 84.8261Z" fill="black"/>
<path id="Vector_297" d="M137.316 101.384C138.078 101.384 138.695 100.766 138.695 100.004C138.695 99.2418 138.078 98.624 137.316 98.624C136.554 98.624 135.936 99.2418 135.936 100.004C135.936 100.766 136.554 101.384 137.316 101.384Z" fill="black"/>
<path id="Vector_298" d="M137.316 105.523C138.078 105.523 138.695 104.906 138.695 104.144C138.695 103.381 138.078 102.764 137.316 102.764C136.554 102.764 135.936 103.381 135.936 104.144C135.936 104.906 136.554 105.523 137.316 105.523Z" fill="black"/>
<path id="Vector_299" d="M137.316 109.663C138.078 109.663 138.695 109.045 138.695 108.283C138.695 107.521 138.078 106.903 137.316 106.903C136.554 106.903 135.936 107.521 135.936 108.283C135.936 109.045 136.554 109.663 137.316 109.663Z" fill="black"/>
<path id="Vector_300" d="M137.316 113.803C138.078 113.803 138.695 113.185 138.695 112.423C138.695 111.661 138.078 111.043 137.316 111.043C136.554 111.043 135.936 111.661 135.936 112.423C135.936 113.185 136.554 113.803 137.316 113.803Z" fill="black"/>
<path id="Vector_301" d="M137.316 134.501C138.078 134.501 138.695 133.883 138.695 133.121C138.695 132.359 138.078 131.741 137.316 131.741C136.554 131.741 135.936 132.359 135.936 133.121C135.936 133.883 136.554 134.501 137.316 134.501Z" fill="black"/>
<path id="Vector_302" d="M137.316 138.639C138.078 138.639 138.695 138.021 138.695 137.259C138.695 136.497 138.078 135.879 137.316 135.879C136.554 135.879 135.936 136.497 135.936 137.259C135.936 138.021 136.554 138.639 137.316 138.639Z" fill="black"/>
<path id="Vector_303" d="M137.316 146.919C138.078 146.919 138.695 146.301 138.695 145.539C138.695 144.777 138.078 144.159 137.316 144.159C136.554 144.159 135.936 144.777 135.936 145.539C135.936 146.301 136.554 146.919 137.316 146.919Z" fill="black"/>
<path id="Vector_304" d="M141.455 68.2685C142.217 68.2685 142.835 67.6507 142.835 66.8886C142.835 66.1266 142.217 65.5088 141.455 65.5088C140.693 65.5088 140.075 66.1266 140.075 66.8886C140.075 67.6507 140.693 68.2685 141.455 68.2685Z" fill="black"/>
<path id="Vector_305" d="M141.455 80.6865C142.217 80.6865 142.835 80.0687 142.835 79.3066C142.835 78.5445 142.217 77.9268 141.455 77.9268C140.693 77.9268 140.075 78.5445 140.075 79.3066C140.075 80.0687 140.693 80.6865 141.455 80.6865Z" fill="black"/>
<path id="Vector_306" d="M141.455 84.8261C142.217 84.8261 142.835 84.2083 142.835 83.4463C142.835 82.6842 142.217 82.0664 141.455 82.0664C140.693 82.0664 140.075 82.6842 140.075 83.4463C140.075 84.2083 140.693 84.8261 141.455 84.8261Z" fill="black"/>
<path id="Vector_307" d="M141.455 88.9638C142.217 88.9638 142.835 88.346 142.835 87.5839C142.835 86.8219 142.217 86.2041 141.455 86.2041C140.693 86.2041 140.075 86.8219 140.075 87.5839C140.075 88.346 140.693 88.9638 141.455 88.9638Z" fill="black"/>
<path id="Vector_308" d="M141.455 97.245C142.217 97.245 142.835 96.6273 142.835 95.8652C142.835 95.1031 142.217 94.4854 141.455 94.4854C140.693 94.4854 140.075 95.1031 140.075 95.8652C140.075 96.6273 140.693 97.245 141.455 97.245Z" fill="black"/>
<path id="Vector_309" d="M141.455 101.384C142.217 101.384 142.835 100.766 142.835 100.004C142.835 99.2418 142.217 98.624 141.455 98.624C140.693 98.624 140.075 99.2418 140.075 100.004C140.075 100.766 140.693 101.384 141.455 101.384Z" fill="black"/>
<path id="Vector_310" d="M141.455 117.944C142.217 117.944 142.835 117.326 142.835 116.564C142.835 115.802 142.217 115.185 141.455 115.185C140.693 115.185 140.075 115.802 140.075 116.564C140.075 117.326 140.693 117.944 141.455 117.944Z" fill="black"/>
<path id="Vector_311" d="M141.455 130.361C142.217 130.361 142.835 129.743 142.835 128.981C142.835 128.219 142.217 127.602 141.455 127.602C140.693 127.602 140.075 128.219 140.075 128.981C140.075 129.743 140.693 130.361 141.455 130.361Z" fill="black"/>
<path id="Vector_312" d="M141.455 142.779C142.217 142.779 142.835 142.161 142.835 141.399C142.835 140.637 142.217 140.02 141.455 140.02C140.693 140.02 140.075 140.637 140.075 141.399C140.075 142.161 140.693 142.779 141.455 142.779Z" fill="black"/>
<path id="Vector_313" d="M141.455 151.059C142.217 151.059 142.835 150.441 142.835 149.679C142.835 148.917 142.217 148.299 141.455 148.299C140.693 148.299 140.075 148.917 140.075 149.679C140.075 150.441 140.693 151.059 141.455 151.059Z" fill="black"/>
<path id="Vector_314" d="M145.595 68.2685C146.357 68.2685 146.975 67.6507 146.975 66.8886C146.975 66.1266 146.357 65.5088 145.595 65.5088C144.833 65.5088 144.215 66.1266 144.215 66.8886C144.215 67.6507 144.833 68.2685 145.595 68.2685Z" fill="black"/>
<path id="Vector_315" d="M145.595 76.5468C146.357 76.5468 146.975 75.929 146.975 75.167C146.975 74.4049 146.357 73.7871 145.595 73.7871C144.833 73.7871 144.215 74.4049 144.215 75.167C144.215 75.929 144.833 76.5468 145.595 76.5468Z" fill="black"/>
<path id="Vector_316" d="M145.595 80.6865C146.357 80.6865 146.975 80.0687 146.975 79.3066C146.975 78.5445 146.357 77.9268 145.595 77.9268C144.833 77.9268 144.215 78.5445 144.215 79.3066C144.215 80.0687 144.833 80.6865 145.595 80.6865Z" fill="black"/>
<path id="Vector_317" d="M145.595 84.8261C146.357 84.8261 146.975 84.2083 146.975 83.4463C146.975 82.6842 146.357 82.0664 145.595 82.0664C144.833 82.0664 144.215 82.6842 144.215 83.4463C144.215 84.2083 144.833 84.8261 145.595 84.8261Z" fill="black"/>
<path id="Vector_318" d="M145.595 88.9638C146.357 88.9638 146.975 88.346 146.975 87.5839C146.975 86.8219 146.357 86.2041 145.595 86.2041C144.833 86.2041 144.215 86.8219 144.215 87.5839C144.215 88.346 144.833 88.9638 145.595 88.9638Z" fill="black"/>
<path id="Vector_319" d="M145.595 101.384C146.357 101.384 146.975 100.766 146.975 100.004C146.975 99.2418 146.357 98.624 145.595 98.624C144.833 98.624 144.215 99.2418 144.215 100.004C144.215 100.766 144.833 101.384 145.595 101.384Z" fill="black"/>
<path id="Vector_320" d="M145.595 113.803C146.357 113.803 146.975 113.185 146.975 112.423C146.975 111.661 146.357 111.043 145.595 111.043C144.833 111.043 144.215 111.661 144.215 112.423C144.215 113.185 144.833 113.803 145.595 113.803Z" fill="black"/>
<path id="Vector_321" d="M145.595 117.944C146.357 117.944 146.975 117.326 146.975 116.564C146.975 115.802 146.357 115.185 145.595 115.185C144.833 115.185 144.215 115.802 144.215 116.564C144.215 117.326 144.833 117.944 145.595 117.944Z" fill="black"/>
<path id="Vector_322" d="M145.595 134.501C146.357 134.501 146.975 133.883 146.975 133.121C146.975 132.359 146.357 131.741 145.595 131.741C144.833 131.741 144.215 132.359 144.215 133.121C144.215 133.883 144.833 134.501 145.595 134.501Z" fill="black"/>
<path id="Vector_323" d="M145.595 146.919C146.357 146.919 146.975 146.301 146.975 145.539C146.975 144.777 146.357 144.159 145.595 144.159C144.833 144.159 144.215 144.777 144.215 145.539C144.215 146.301 144.833 146.919 145.595 146.919Z" fill="black"/>
<path id="Vector_324" d="M149.734 80.6865C150.496 80.6865 151.114 80.0687 151.114 79.3066C151.114 78.5445 150.496 77.9268 149.734 77.9268C148.972 77.9268 148.354 78.5445 148.354 79.3066C148.354 80.0687 148.972 80.6865 149.734 80.6865Z" fill="black"/>
<path id="Vector_325" d="M149.734 88.9638C150.496 88.9638 151.114 88.346 151.114 87.5839C151.114 86.8219 150.496 86.2041 149.734 86.2041C148.972 86.2041 148.354 86.8219 148.354 87.5839C148.354 88.346 148.972 88.9638 149.734 88.9638Z" fill="black"/>
<path id="Vector_326" d="M149.734 93.1054C150.496 93.1054 151.114 92.4876 151.114 91.7255C151.114 90.9635 150.496 90.3457 149.734 90.3457C148.972 90.3457 148.354 90.9635 148.354 91.7255C148.354 92.4876 148.972 93.1054 149.734 93.1054Z" fill="black"/>
<path id="Vector_327" d="M149.734 97.245C150.496 97.245 151.114 96.6273 151.114 95.8652C151.114 95.1031 150.496 94.4854 149.734 94.4854C148.972 94.4854 148.354 95.1031 148.354 95.8652C148.354 96.6273 148.972 97.245 149.734 97.245Z" fill="black"/>
<path id="Vector_328" d="M149.734 101.384C150.496 101.384 151.114 100.766 151.114 100.004C151.114 99.2418 150.496 98.624 149.734 98.624C148.972 98.624 148.354 99.2418 148.354 100.004C148.354 100.766 148.972 101.384 149.734 101.384Z" fill="black"/>
<path id="Vector_329" d="M149.734 109.663C150.496 109.663 151.114 109.045 151.114 108.283C151.114 107.521 150.496 106.903 149.734 106.903C148.972 106.903 148.354 107.521 148.354 108.283C148.354 109.045 148.972 109.663 149.734 109.663Z" fill="black"/>
<path id="Vector_330" d="M149.734 113.803C150.496 113.803 151.114 113.185 151.114 112.423C151.114 111.661 150.496 111.043 149.734 111.043C148.972 111.043 148.354 111.661 148.354 112.423C148.354 113.185 148.972 113.803 149.734 113.803Z" fill="black"/>
<path id="Vector_331" d="M149.734 117.944C150.496 117.944 151.114 117.326 151.114 116.564C151.114 115.802 150.496 115.185 149.734 115.185C148.972 115.185 148.354 115.802 148.354 116.564C148.354 117.326 148.972 117.944 149.734 117.944Z" fill="black"/>
<path id="Vector_332" d="M149.734 126.22C150.496 126.22 151.114 125.602 151.114 124.84C151.114 124.078 150.496 123.46 149.734 123.46C148.972 123.46 148.354 124.078 148.354 124.84C148.354 125.602 148.972 126.22 149.734 126.22Z" fill="black"/>
<path id="Vector_333" d="M149.734 130.361C150.496 130.361 151.114 129.743 151.114 128.981C151.114 128.219 150.496 127.602 149.734 127.602C148.972 127.602 148.354 128.219 148.354 128.981C148.354 129.743 148.972 130.361 149.734 130.361Z" fill="black"/>
<path id="Vector_334" d="M149.734 138.639C150.496 138.639 151.114 138.021 151.114 137.259C151.114 136.497 150.496 135.879 149.734 135.879C148.972 135.879 148.354 136.497 148.354 137.259C148.354 138.021 148.972 138.639 149.734 138.639Z" fill="black"/>
<path id="Vector_335" d="M149.734 146.919C150.496 146.919 151.114 146.301 151.114 145.539C151.114 144.777 150.496 144.159 149.734 144.159C148.972 144.159 148.354 144.777 148.354 145.539C148.354 146.301 148.972 146.919 149.734 146.919Z" fill="black"/>
</g>
<g id="Group_2">
<path id="Vector_336" d="M31.7572 42.051V50.3301C31.7572 53.0747 32.8475 55.707 34.7883 57.6478C36.7291 59.5886 39.3614 60.6789 42.106 60.6789H50.3851C53.1298 60.6789 55.7621 59.5886 57.7029 57.6478C59.6436 55.707 60.734 53.0747 60.734 50.3301V42.051C60.734 39.3063 59.6436 36.674 57.7029 34.7333C55.7621 32.7925 53.1298 31.7021 50.3851 31.7021H42.106C39.3614 31.7021 36.7291 32.7925 34.7883 34.7333C32.8475 36.674 31.7572 39.3063 31.7572 42.051ZM42.106 35.8417H50.3851C52.0319 35.8417 53.6113 36.4959 54.7758 37.6603C55.9402 38.8248 56.5944 40.4042 56.5944 42.051V50.3301C56.5944 51.9769 55.9402 53.5562 54.7758 54.7207C53.6113 55.8852 52.0319 56.5394 50.3851 56.5394H42.106C40.4592 56.5394 38.8799 55.8852 37.7154 54.7207C36.5509 53.5562 35.8967 51.9769 35.8967 50.3301V42.051C35.8967 40.4042 36.5509 38.8248 37.7154 37.6603C38.8799 36.4959 40.4592 35.8417 42.106 35.8417Z" fill="black"/>
</g>
<g id="Group_3">
<path id="Vector_337" d="M46.2458 52.4001C49.6751 52.4001 52.4551 49.6201 52.4551 46.1907C52.4551 42.7614 49.6751 39.9814 46.2458 39.9814C42.8165 39.9814 40.0365 42.7614 40.0365 46.1907C40.0365 49.6201 42.8165 52.4001 46.2458 52.4001Z" fill="black"/>
</g>
<g id="Group_4">
<path id="Vector_338" d="M141.455 31.7021H133.176C130.431 31.7021 127.799 32.7925 125.858 34.7333C123.918 36.674 122.827 39.3063 122.827 42.051V50.3301C122.827 53.0747 123.918 55.707 125.858 57.6478C127.799 59.5886 130.431 60.6789 133.176 60.6789H141.455C144.2 60.6789 146.832 59.5886 148.773 57.6478C150.714 55.707 151.804 53.0747 151.804 50.3301V42.051C151.804 39.3063 150.714 36.674 148.773 34.7333C146.832 32.7925 144.2 31.7021 141.455 31.7021ZM147.664 42.051V50.3301C147.664 51.9769 147.01 53.5562 145.846 54.7207C144.681 55.8852 143.102 56.5394 141.455 56.5394H133.176C131.529 56.5394 129.95 55.8852 128.785 54.7207C127.621 53.5562 126.967 51.9769 126.967 50.3301V42.051C126.967 40.4042 127.621 38.8248 128.785 37.6603C129.95 36.4959 131.529 35.8417 133.176 35.8417H141.455C143.102 35.8417 144.681 36.4959 145.846 37.6603C147.01 38.8248 147.664 40.4042 147.664 42.051Z" fill="black"/>
</g>
<g id="Group_5">
<path id="Vector_339" d="M131.106 46.1907C131.106 49.6201 133.886 52.4001 137.316 52.4001C140.745 52.4001 143.525 49.6201 143.525 46.1907C143.525 42.7614 140.745 39.9814 137.316 39.9814C133.886 39.9814 131.106 42.7614 131.106 46.1907Z" fill="black"/>
</g>
<g id="Group_6">
<path id="Vector_340" d="M42.106 151.747H50.3851C53.1298 151.747 55.7621 150.657 57.7029 148.716C59.6436 146.775 60.734 144.143 60.734 141.398V133.119C60.734 130.374 59.6436 127.742 57.7029 125.801C55.7621 123.861 53.1298 122.77 50.3851 122.77H42.106C39.3614 122.77 36.7291 123.861 34.7883 125.801C32.8475 127.742 31.7572 130.374 31.7572 133.119V141.398C31.7572 144.143 32.8475 146.775 34.7883 148.716C36.7291 150.657 39.3614 151.747 42.106 151.747ZM35.8967 141.398V133.119C35.8967 131.472 36.5509 129.893 37.7154 128.729C38.8799 127.564 40.4592 126.91 42.106 126.91H50.3851C52.0319 126.91 53.6113 127.564 54.7758 128.729C55.9402 129.893 56.5944 131.472 56.5944 133.119V141.398C56.5944 143.045 55.9402 144.624 54.7758 145.789C53.6113 146.953 52.0319 147.608 50.3851 147.608H42.106C40.4592 147.608 38.8799 146.953 37.7154 145.789C36.5509 144.624 35.8967 143.045 35.8967 141.398Z" fill="black"/>
</g>
<g id="Group_7">
<path id="Vector_341" d="M52.4551 137.257C52.4551 133.828 49.6751 131.048 46.2458 131.048C42.8165 131.048 40.0365 133.828 40.0365 137.257C40.0365 140.687 42.8165 143.467 46.2458 143.467C49.6751 143.467 52.4551 140.687 52.4551 137.257Z" fill="black"/>
</g>
</g>
</g>
</g>
</g>
</g>
</g>
</g>
</g>
</g>
<defs>
<clipPath id="clip0_14494_9653">
<rect width="375" height="8440.1" fill="white" transform="translate(-95.719 -7862.8)"/>
</clipPath>
<clipPath id="clip1_14494_9653">
<rect width="124.186" height="124.186" fill="white" transform="translate(29.6876 29.6318)"/>
</clipPath>
</defs>
</svg>
