<svg width="147" height="147" viewBox="0 0 147 147" fill="none" xmlns="http://www.w3.org/2000/svg">
<g clip-path="url(#clip0_4408_1904)">
<path d="M15.5468 54.1825C16.3089 54.1825 16.9267 53.5648 16.9267 52.8027C16.9267 52.0406 16.3089 51.4229 15.5468 51.4229C14.7848 51.4229 14.167 52.0406 14.167 52.8027C14.167 53.5648 14.7848 54.1825 15.5468 54.1825Z" fill="black"/>
<path d="M15.5468 66.6015C16.3089 66.6015 16.9267 65.9837 16.9267 65.2216C16.9267 64.4596 16.3089 63.8418 15.5468 63.8418C14.7848 63.8418 14.167 64.4596 14.167 65.2216C14.167 65.9837 14.7848 66.6015 15.5468 66.6015Z" fill="black"/>
<path d="M15.5468 83.1591C16.3089 83.1591 16.9267 82.5413 16.9267 81.7793C16.9267 81.0172 16.3089 80.3994 15.5468 80.3994C14.7848 80.3994 14.167 81.0172 14.167 81.7793C14.167 82.5413 14.7848 83.1591 15.5468 83.1591Z" fill="black"/>
<path d="M15.5468 87.2987C16.3089 87.2987 16.9267 86.681 16.9267 85.9189C16.9267 85.1568 16.3089 84.5391 15.5468 84.5391C14.7848 84.5391 14.167 85.1568 14.167 85.9189C14.167 86.681 14.7848 87.2987 15.5468 87.2987Z" fill="black"/>
<path d="M15.5468 91.4384C16.3089 91.4384 16.9267 90.8206 16.9267 90.0586C16.9267 89.2965 16.3089 88.6787 15.5468 88.6787C14.7848 88.6787 14.167 89.2965 14.167 90.0586C14.167 90.8206 14.7848 91.4384 15.5468 91.4384Z" fill="black"/>
<path d="M15.5468 95.578C16.3089 95.578 16.9267 94.9603 16.9267 94.1982C16.9267 93.4361 16.3089 92.8184 15.5468 92.8184C14.7848 92.8184 14.167 93.4361 14.167 94.1982C14.167 94.9603 14.7848 95.578 15.5468 95.578Z" fill="black"/>
<path d="M15.5468 99.7196C16.3089 99.7196 16.9267 99.1019 16.9267 98.3398C16.9267 97.5777 16.3089 96.96 15.5468 96.96C14.7848 96.96 14.167 97.5777 14.167 98.3398C14.167 99.1019 14.7848 99.7196 15.5468 99.7196Z" fill="black"/>
<path d="M19.6862 50.0439C20.4483 50.0439 21.0661 49.4261 21.0661 48.664C21.0661 47.902 20.4483 47.2842 19.6862 47.2842C18.9242 47.2842 18.3064 47.902 18.3064 48.664C18.3064 49.4261 18.9242 50.0439 19.6862 50.0439Z" fill="black"/>
<path d="M19.6862 54.1825C20.4483 54.1825 21.0661 53.5648 21.0661 52.8027C21.0661 52.0406 20.4483 51.4229 19.6862 51.4229C18.9242 51.4229 18.3064 52.0406 18.3064 52.8027C18.3064 53.5648 18.9242 54.1825 19.6862 54.1825Z" fill="black"/>
<path d="M19.6862 62.4618C20.4483 62.4618 21.0661 61.8441 21.0661 61.082C21.0661 60.3199 20.4483 59.7021 19.6862 59.7021C18.9242 59.7021 18.3064 60.3199 18.3064 61.082C18.3064 61.8441 18.9242 62.4618 19.6862 62.4618Z" fill="black"/>
<path d="M19.6862 79.0204C20.4483 79.0204 21.0661 78.4027 21.0661 77.6406C21.0661 76.8785 20.4483 76.2607 19.6862 76.2607C18.9242 76.2607 18.3064 76.8785 18.3064 77.6406C18.3064 78.4027 18.9242 79.0204 19.6862 79.0204Z" fill="black"/>
<path d="M19.6862 83.1591C20.4483 83.1591 21.0661 82.5413 21.0661 81.7793C21.0661 81.0172 20.4483 80.3994 19.6862 80.3994C18.9242 80.3994 18.3064 81.0172 18.3064 81.7793C18.3064 82.5413 18.9242 83.1591 19.6862 83.1591Z" fill="black"/>
<path d="M19.6862 87.2987C20.4483 87.2987 21.0661 86.681 21.0661 85.9189C21.0661 85.1568 20.4483 84.5391 19.6862 84.5391C18.9242 84.5391 18.3064 85.1568 18.3064 85.9189C18.3064 86.681 18.9242 87.2987 19.6862 87.2987Z" fill="black"/>
<path d="M19.6862 91.4384C20.4483 91.4384 21.0661 90.8206 21.0661 90.0586C21.0661 89.2965 20.4483 88.6787 19.6862 88.6787C18.9242 88.6787 18.3064 89.2965 18.3064 90.0586C18.3064 90.8206 18.9242 91.4384 19.6862 91.4384Z" fill="black"/>
<path d="M19.6862 99.7196C20.4483 99.7196 21.0661 99.1019 21.0661 98.3398C21.0661 97.5777 20.4483 96.96 19.6862 96.96C18.9242 96.96 18.3064 97.5777 18.3064 98.3398C18.3064 99.1019 18.9242 99.7196 19.6862 99.7196Z" fill="black"/>
<path d="M23.8264 50.0439C24.5884 50.0439 25.2062 49.4261 25.2062 48.664C25.2062 47.902 24.5884 47.2842 23.8264 47.2842C23.0643 47.2842 22.4465 47.902 22.4465 48.664C22.4465 49.4261 23.0643 50.0439 23.8264 50.0439Z" fill="black"/>
<path d="M23.8264 70.7392C24.5884 70.7392 25.2062 70.1214 25.2062 69.3593C25.2062 68.5973 24.5884 67.9795 23.8264 67.9795C23.0643 67.9795 22.4465 68.5973 22.4465 69.3593C22.4465 70.1214 23.0643 70.7392 23.8264 70.7392Z" fill="black"/>
<path d="M23.8264 74.8808C24.5884 74.8808 25.2062 74.263 25.2062 73.5009C25.2062 72.7389 24.5884 72.1211 23.8264 72.1211C23.0643 72.1211 22.4465 72.7389 22.4465 73.5009C22.4465 74.263 23.0643 74.8808 23.8264 74.8808Z" fill="black"/>
<path d="M23.8264 79.0204C24.5884 79.0204 25.2062 78.4027 25.2062 77.6406C25.2062 76.8785 24.5884 76.2607 23.8264 76.2607C23.0643 76.2607 22.4465 76.8785 22.4465 77.6406C22.4465 78.4027 23.0643 79.0204 23.8264 79.0204Z" fill="black"/>
<path d="M23.8264 83.1591C24.5884 83.1591 25.2062 82.5413 25.2062 81.7793C25.2062 81.0172 24.5884 80.3994 23.8264 80.3994C23.0643 80.3994 22.4465 81.0172 22.4465 81.7793C22.4465 82.5413 23.0643 83.1591 23.8264 83.1591Z" fill="black"/>
<path d="M23.8264 91.4384C24.5884 91.4384 25.2062 90.8206 25.2062 90.0586C25.2062 89.2965 24.5884 88.6787 23.8264 88.6787C23.0643 88.6787 22.4465 89.2965 22.4465 90.0586C22.4465 90.8206 23.0643 91.4384 23.8264 91.4384Z" fill="black"/>
<path d="M23.8264 99.7196C24.5884 99.7196 25.2062 99.1019 25.2062 98.3398C25.2062 97.5777 24.5884 96.96 23.8264 96.96C23.0643 96.96 22.4465 97.5777 22.4465 98.3398C22.4465 99.1019 23.0643 99.7196 23.8264 99.7196Z" fill="black"/>
<path d="M27.9658 62.4618C28.7278 62.4618 29.3456 61.8441 29.3456 61.082C29.3456 60.3199 28.7278 59.7021 27.9658 59.7021C27.2037 59.7021 26.5859 60.3199 26.5859 61.082C26.5859 61.8441 27.2037 62.4618 27.9658 62.4618Z" fill="black"/>
<path d="M27.9658 66.6015C28.7278 66.6015 29.3456 65.9837 29.3456 65.2216C29.3456 64.4596 28.7278 63.8418 27.9658 63.8418C27.2037 63.8418 26.5859 64.4596 26.5859 65.2216C26.5859 65.9837 27.2037 66.6015 27.9658 66.6015Z" fill="black"/>
<path d="M27.9658 70.7392C28.7278 70.7392 29.3456 70.1214 29.3456 69.3593C29.3456 68.5973 28.7278 67.9795 27.9658 67.9795C27.2037 67.9795 26.5859 68.5973 26.5859 69.3593C26.5859 70.1214 27.2037 70.7392 27.9658 70.7392Z" fill="black"/>
<path d="M27.9658 79.0204C28.7278 79.0204 29.3456 78.4027 29.3456 77.6406C29.3456 76.8785 28.7278 76.2607 27.9658 76.2607C27.2037 76.2607 26.5859 76.8785 26.5859 77.6406C26.5859 78.4027 27.2037 79.0204 27.9658 79.0204Z" fill="black"/>
<path d="M27.9658 87.2987C28.7278 87.2987 29.3456 86.681 29.3456 85.9189C29.3456 85.1568 28.7278 84.5391 27.9658 84.5391C27.2037 84.5391 26.5859 85.1568 26.5859 85.9189C26.5859 86.681 27.2037 87.2987 27.9658 87.2987Z" fill="black"/>
<path d="M32.1049 54.1825C32.867 54.1825 33.4848 53.5648 33.4848 52.8027C33.4848 52.0406 32.867 51.4229 32.1049 51.4229C31.3429 51.4229 30.7251 52.0406 30.7251 52.8027C30.7251 53.5648 31.3429 54.1825 32.1049 54.1825Z" fill="black"/>
<path d="M32.1049 62.4618C32.867 62.4618 33.4848 61.8441 33.4848 61.082C33.4848 60.3199 32.867 59.7021 32.1049 59.7021C31.3429 59.7021 30.7251 60.3199 30.7251 61.082C30.7251 61.8441 31.3429 62.4618 32.1049 62.4618Z" fill="black"/>
<path d="M32.1049 66.6015C32.867 66.6015 33.4848 65.9837 33.4848 65.2216C33.4848 64.4596 32.867 63.8418 32.1049 63.8418C31.3429 63.8418 30.7251 64.4596 30.7251 65.2216C30.7251 65.9837 31.3429 66.6015 32.1049 66.6015Z" fill="black"/>
<path d="M32.1049 79.0204C32.867 79.0204 33.4848 78.4027 33.4848 77.6406C33.4848 76.8785 32.867 76.2607 32.1049 76.2607C31.3429 76.2607 30.7251 76.8785 30.7251 77.6406C30.7251 78.4027 31.3429 79.0204 32.1049 79.0204Z" fill="black"/>
<path d="M32.1049 95.578C32.867 95.578 33.4848 94.9603 33.4848 94.1982C33.4848 93.4361 32.867 92.8184 32.1049 92.8184C31.3429 92.8184 30.7251 93.4361 30.7251 94.1982C30.7251 94.9603 31.3429 95.578 32.1049 95.578Z" fill="black"/>
<path d="M36.2446 54.1825C37.0067 54.1825 37.6244 53.5648 37.6244 52.8027C37.6244 52.0406 37.0067 51.4229 36.2446 51.4229C35.4825 51.4229 34.8647 52.0406 34.8647 52.8027C34.8647 53.5648 35.4825 54.1825 36.2446 54.1825Z" fill="black"/>
<path d="M36.2446 62.4618C37.0067 62.4618 37.6244 61.8441 37.6244 61.082C37.6244 60.3199 37.0067 59.7021 36.2446 59.7021C35.4825 59.7021 34.8647 60.3199 34.8647 61.082C34.8647 61.8441 35.4825 62.4618 36.2446 62.4618Z" fill="black"/>
<path d="M36.2446 66.6015C37.0067 66.6015 37.6244 65.9837 37.6244 65.2216C37.6244 64.4596 37.0067 63.8418 36.2446 63.8418C35.4825 63.8418 34.8647 64.4596 34.8647 65.2216C34.8647 65.9837 35.4825 66.6015 36.2446 66.6015Z" fill="black"/>
<path d="M36.2446 74.8808C37.0067 74.8808 37.6244 74.263 37.6244 73.5009C37.6244 72.7389 37.0067 72.1211 36.2446 72.1211C35.4825 72.1211 34.8647 72.7389 34.8647 73.5009C34.8647 74.263 35.4825 74.8808 36.2446 74.8808Z" fill="black"/>
<path d="M36.2446 83.1591C37.0067 83.1591 37.6244 82.5413 37.6244 81.7793C37.6244 81.0172 37.0067 80.3994 36.2446 80.3994C35.4825 80.3994 34.8647 81.0172 34.8647 81.7793C34.8647 82.5413 35.4825 83.1591 36.2446 83.1591Z" fill="black"/>
<path d="M36.2446 91.4384C37.0067 91.4384 37.6244 90.8206 37.6244 90.0586C37.6244 89.2965 37.0067 88.6787 36.2446 88.6787C35.4825 88.6787 34.8647 89.2965 34.8647 90.0586C34.8647 90.8206 35.4825 91.4384 36.2446 91.4384Z" fill="black"/>
<path d="M36.2446 95.578C37.0067 95.578 37.6244 94.9603 37.6244 94.1982C37.6244 93.4361 37.0067 92.8184 36.2446 92.8184C35.4825 92.8184 34.8647 93.4361 34.8647 94.1982C34.8647 94.9603 35.4825 95.578 36.2446 95.578Z" fill="black"/>
<path d="M40.384 50.0439C41.1461 50.0439 41.7638 49.4261 41.7638 48.664C41.7638 47.902 41.1461 47.2842 40.384 47.2842C39.6219 47.2842 39.0042 47.902 39.0042 48.664C39.0042 49.4261 39.6219 50.0439 40.384 50.0439Z" fill="black"/>
<path d="M40.384 58.3222C41.1461 58.3222 41.7638 57.7044 41.7638 56.9423C41.7638 56.1803 41.1461 55.5625 40.384 55.5625C39.6219 55.5625 39.0042 56.1803 39.0042 56.9423C39.0042 57.7044 39.6219 58.3222 40.384 58.3222Z" fill="black"/>
<path d="M40.384 66.6015C41.1461 66.6015 41.7638 65.9837 41.7638 65.2216C41.7638 64.4596 41.1461 63.8418 40.384 63.8418C39.6219 63.8418 39.0042 64.4596 39.0042 65.2216C39.0042 65.9837 39.6219 66.6015 40.384 66.6015Z" fill="black"/>
<path d="M40.384 74.8808C41.1461 74.8808 41.7638 74.263 41.7638 73.5009C41.7638 72.7389 41.1461 72.1211 40.384 72.1211C39.6219 72.1211 39.0042 72.7389 39.0042 73.5009C39.0042 74.263 39.6219 74.8808 40.384 74.8808Z" fill="black"/>
<path d="M40.384 83.1591C41.1461 83.1591 41.7638 82.5413 41.7638 81.7793C41.7638 81.0172 41.1461 80.3994 40.384 80.3994C39.6219 80.3994 39.0042 81.0172 39.0042 81.7793C39.0042 82.5413 39.6219 83.1591 40.384 83.1591Z" fill="black"/>
<path d="M40.384 91.4384C41.1461 91.4384 41.7638 90.8206 41.7638 90.0586C41.7638 89.2965 41.1461 88.6787 40.384 88.6787C39.6219 88.6787 39.0042 89.2965 39.0042 90.0586C39.0042 90.8206 39.6219 91.4384 40.384 91.4384Z" fill="black"/>
<path d="M40.384 99.7196C41.1461 99.7196 41.7638 99.1019 41.7638 98.3398C41.7638 97.5777 41.1461 96.96 40.384 96.96C39.6219 96.96 39.0042 97.5777 39.0042 98.3398C39.0042 99.1019 39.6219 99.7196 40.384 99.7196Z" fill="black"/>
<path d="M44.5241 54.1825C45.2862 54.1825 45.904 53.5648 45.904 52.8027C45.904 52.0406 45.2862 51.4229 44.5241 51.4229C43.7621 51.4229 43.1443 52.0406 43.1443 52.8027C43.1443 53.5648 43.7621 54.1825 44.5241 54.1825Z" fill="black"/>
<path d="M44.5241 58.3222C45.2862 58.3222 45.904 57.7044 45.904 56.9423C45.904 56.1803 45.2862 55.5625 44.5241 55.5625C43.7621 55.5625 43.1443 56.1803 43.1443 56.9423C43.1443 57.7044 43.7621 58.3222 44.5241 58.3222Z" fill="black"/>
<path d="M44.5241 62.4618C45.2862 62.4618 45.904 61.8441 45.904 61.082C45.904 60.3199 45.2862 59.7021 44.5241 59.7021C43.7621 59.7021 43.1443 60.3199 43.1443 61.082C43.1443 61.8441 43.7621 62.4618 44.5241 62.4618Z" fill="black"/>
<path d="M44.5241 74.8808C45.2862 74.8808 45.904 74.263 45.904 73.5009C45.904 72.7389 45.2862 72.1211 44.5241 72.1211C43.7621 72.1211 43.1443 72.7389 43.1443 73.5009C43.1443 74.263 43.7621 74.8808 44.5241 74.8808Z" fill="black"/>
<path d="M44.5241 79.0204C45.2862 79.0204 45.904 78.4027 45.904 77.6406C45.904 76.8785 45.2862 76.2607 44.5241 76.2607C43.7621 76.2607 43.1443 76.8785 43.1443 77.6406C43.1443 78.4027 43.7621 79.0204 44.5241 79.0204Z" fill="black"/>
<path d="M44.5241 87.2987C45.2862 87.2987 45.904 86.681 45.904 85.9189C45.904 85.1568 45.2862 84.5391 44.5241 84.5391C43.7621 84.5391 43.1443 85.1568 43.1443 85.9189C43.1443 86.681 43.7621 87.2987 44.5241 87.2987Z" fill="black"/>
<path d="M44.5241 91.4384C45.2862 91.4384 45.904 90.8206 45.904 90.0586C45.904 89.2965 45.2862 88.6787 44.5241 88.6787C43.7621 88.6787 43.1443 89.2965 43.1443 90.0586C43.1443 90.8206 43.7621 91.4384 44.5241 91.4384Z" fill="black"/>
<path d="M44.5241 95.578C45.2862 95.578 45.904 94.9603 45.904 94.1982C45.904 93.4361 45.2862 92.8184 44.5241 92.8184C43.7621 92.8184 43.1443 93.4361 43.1443 94.1982C43.1443 94.9603 43.7621 95.578 44.5241 95.578Z" fill="black"/>
<path d="M48.6635 21.0683C49.4256 21.0683 50.0434 20.4505 50.0434 19.6884C50.0434 18.9264 49.4256 18.3086 48.6635 18.3086C47.9015 18.3086 47.2837 18.9264 47.2837 19.6884C47.2837 20.4505 47.9015 21.0683 48.6635 21.0683Z" fill="black"/>
<path d="M48.6635 25.204C49.4256 25.204 50.0434 24.5862 50.0434 23.8242C50.0434 23.0621 49.4256 22.4443 48.6635 22.4443C47.9015 22.4443 47.2837 23.0621 47.2837 23.8242C47.2837 24.5862 47.9015 25.204 48.6635 25.204Z" fill="black"/>
<path d="M48.6635 29.3456C49.4256 29.3456 50.0434 28.7278 50.0434 27.9658C50.0434 27.2037 49.4256 26.5859 48.6635 26.5859C47.9015 26.5859 47.2837 27.2037 47.2837 27.9658C47.2837 28.7278 47.9015 29.3456 48.6635 29.3456Z" fill="black"/>
<path d="M48.6635 37.622C49.4256 37.622 50.0434 37.0042 50.0434 36.2421C50.0434 35.4801 49.4256 34.8623 48.6635 34.8623C47.9015 34.8623 47.2837 35.4801 47.2837 36.2421C47.2837 37.0042 47.9015 37.622 48.6635 37.622Z" fill="black"/>
<path d="M48.6635 41.7636C49.4256 41.7636 50.0434 41.1458 50.0434 40.3838C50.0434 39.6217 49.4256 39.0039 48.6635 39.0039C47.9015 39.0039 47.2837 39.6217 47.2837 40.3838C47.2837 41.1458 47.9015 41.7636 48.6635 41.7636Z" fill="black"/>
<path d="M48.6635 54.1825C49.4256 54.1825 50.0434 53.5648 50.0434 52.8027C50.0434 52.0406 49.4256 51.4229 48.6635 51.4229C47.9015 51.4229 47.2837 52.0406 47.2837 52.8027C47.2837 53.5648 47.9015 54.1825 48.6635 54.1825Z" fill="black"/>
<path d="M48.6635 66.6015C49.4256 66.6015 50.0434 65.9837 50.0434 65.2216C50.0434 64.4596 49.4256 63.8418 48.6635 63.8418C47.9015 63.8418 47.2837 64.4596 47.2837 65.2216C47.2837 65.9837 47.9015 66.6015 48.6635 66.6015Z" fill="black"/>
<path d="M48.6635 70.7392C49.4256 70.7392 50.0434 70.1214 50.0434 69.3593C50.0434 68.5973 49.4256 67.9795 48.6635 67.9795C47.9015 67.9795 47.2837 68.5973 47.2837 69.3593C47.2837 70.1214 47.9015 70.7392 48.6635 70.7392Z" fill="black"/>
<path d="M48.6635 83.1591C49.4256 83.1591 50.0434 82.5413 50.0434 81.7793C50.0434 81.0172 49.4256 80.3994 48.6635 80.3994C47.9015 80.3994 47.2837 81.0172 47.2837 81.7793C47.2837 82.5413 47.9015 83.1591 48.6635 83.1591Z" fill="black"/>
<path d="M48.6635 124.555C49.4256 124.555 50.0434 123.937 50.0434 123.175C50.0434 122.413 49.4256 121.795 48.6635 121.795C47.9015 121.795 47.2837 122.413 47.2837 123.175C47.2837 123.937 47.9015 124.555 48.6635 124.555Z" fill="black"/>
<path d="M48.6635 128.694C49.4256 128.694 50.0434 128.076 50.0434 127.314C50.0434 126.552 49.4256 125.935 48.6635 125.935C47.9015 125.935 47.2837 126.552 47.2837 127.314C47.2837 128.076 47.9015 128.694 48.6635 128.694Z" fill="black"/>
<path d="M52.8027 25.204C53.5648 25.204 54.1825 24.5862 54.1825 23.8242C54.1825 23.0621 53.5648 22.4443 52.8027 22.4443C52.0406 22.4443 51.4229 23.0621 51.4229 23.8242C51.4229 24.5862 52.0406 25.204 52.8027 25.204Z" fill="black"/>
<path d="M52.8027 29.3456C53.5648 29.3456 54.1825 28.7278 54.1825 27.9658C54.1825 27.2037 53.5648 26.5859 52.8027 26.5859C52.0406 26.5859 51.4229 27.2037 51.4229 27.9658C51.4229 28.7278 52.0406 29.3456 52.8027 29.3456Z" fill="black"/>
<path d="M52.8027 33.4853C53.5648 33.4853 54.1825 32.8675 54.1825 32.1054C54.1825 31.3434 53.5648 30.7256 52.8027 30.7256C52.0406 30.7256 51.4229 31.3434 51.4229 32.1054C51.4229 32.8675 52.0406 33.4853 52.8027 33.4853Z" fill="black"/>
<path d="M52.8027 37.622C53.5648 37.622 54.1825 37.0042 54.1825 36.2421C54.1825 35.4801 53.5648 34.8623 52.8027 34.8623C52.0406 34.8623 51.4229 35.4801 51.4229 36.2421C51.4229 37.0042 52.0406 37.622 52.8027 37.622Z" fill="black"/>
<path d="M52.8027 50.0439C53.5648 50.0439 54.1825 49.4261 54.1825 48.664C54.1825 47.902 53.5648 47.2842 52.8027 47.2842C52.0406 47.2842 51.4229 47.902 51.4229 48.664C51.4229 49.4261 52.0406 50.0439 52.8027 50.0439Z" fill="black"/>
<path d="M52.8027 70.7392C53.5648 70.7392 54.1825 70.1214 54.1825 69.3593C54.1825 68.5973 53.5648 67.9795 52.8027 67.9795C52.0406 67.9795 51.4229 68.5973 51.4229 69.3593C51.4229 70.1214 52.0406 70.7392 52.8027 70.7392Z" fill="black"/>
<path d="M52.8027 79.0204C53.5648 79.0204 54.1825 78.4027 54.1825 77.6406C54.1825 76.8785 53.5648 76.2607 52.8027 76.2607C52.0406 76.2607 51.4229 76.8785 51.4229 77.6406C51.4229 78.4027 52.0406 79.0204 52.8027 79.0204Z" fill="black"/>
<path d="M52.8027 83.1591C53.5648 83.1591 54.1825 82.5413 54.1825 81.7793C54.1825 81.0172 53.5648 80.3994 52.8027 80.3994C52.0406 80.3994 51.4229 81.0172 51.4229 81.7793C51.4229 82.5413 52.0406 83.1591 52.8027 83.1591Z" fill="black"/>
<path d="M52.8027 91.4384C53.5648 91.4384 54.1825 90.8206 54.1825 90.0586C54.1825 89.2965 53.5648 88.6787 52.8027 88.6787C52.0406 88.6787 51.4229 89.2965 51.4229 90.0586C51.4229 90.8206 52.0406 91.4384 52.8027 91.4384Z" fill="black"/>
<path d="M52.8027 95.578C53.5648 95.578 54.1825 94.9603 54.1825 94.1982C54.1825 93.4361 53.5648 92.8184 52.8027 92.8184C52.0406 92.8184 51.4229 93.4361 51.4229 94.1982C51.4229 94.9603 52.0406 95.578 52.8027 95.578Z" fill="black"/>
<path d="M52.8027 99.7196C53.5648 99.7196 54.1825 99.1019 54.1825 98.3398C54.1825 97.5777 53.5648 96.96 52.8027 96.96C52.0406 96.96 51.4229 97.5777 51.4229 98.3398C51.4229 99.1019 52.0406 99.7196 52.8027 99.7196Z" fill="black"/>
<path d="M52.8027 103.855C53.5648 103.855 54.1825 103.238 54.1825 102.476C54.1825 101.713 53.5648 101.096 52.8027 101.096C52.0406 101.096 51.4229 101.713 51.4229 102.476C51.4229 103.238 52.0406 103.855 52.8027 103.855Z" fill="black"/>
<path d="M52.8027 107.995C53.5648 107.995 54.1825 107.377 54.1825 106.615C54.1825 105.853 53.5648 105.235 52.8027 105.235C52.0406 105.235 51.4229 105.853 51.4229 106.615C51.4229 107.377 52.0406 107.995 52.8027 107.995Z" fill="black"/>
<path d="M52.8027 112.137C53.5648 112.137 54.1825 111.519 54.1825 110.757C54.1825 109.995 53.5648 109.377 52.8027 109.377C52.0406 109.377 51.4229 109.995 51.4229 110.757C51.4229 111.519 52.0406 112.137 52.8027 112.137Z" fill="black"/>
<path d="M52.8027 116.276C53.5648 116.276 54.1825 115.659 54.1825 114.896C54.1825 114.134 53.5648 113.517 52.8027 113.517C52.0406 113.517 51.4229 114.134 51.4229 114.896C51.4229 115.659 52.0406 116.276 52.8027 116.276Z" fill="black"/>
<path d="M52.8027 120.414C53.5648 120.414 54.1825 119.796 54.1825 119.034C54.1825 118.272 53.5648 117.654 52.8027 117.654C52.0406 117.654 51.4229 118.272 51.4229 119.034C51.4229 119.796 52.0406 120.414 52.8027 120.414Z" fill="black"/>
<path d="M52.8027 124.555C53.5648 124.555 54.1825 123.937 54.1825 123.175C54.1825 122.413 53.5648 121.795 52.8027 121.795C52.0406 121.795 51.4229 122.413 51.4229 123.175C51.4229 123.937 52.0406 124.555 52.8027 124.555Z" fill="black"/>
<path d="M52.8027 132.834C53.5648 132.834 54.1825 132.216 54.1825 131.454C54.1825 130.692 53.5648 130.074 52.8027 130.074C52.0406 130.074 51.4229 130.692 51.4229 131.454C51.4229 132.216 52.0406 132.834 52.8027 132.834Z" fill="black"/>
<path d="M56.9423 16.9286C57.7044 16.9286 58.3222 16.3109 58.3222 15.5488C58.3222 14.7867 57.7044 14.1689 56.9423 14.1689C56.1803 14.1689 55.5625 14.7867 55.5625 15.5488C55.5625 16.3109 56.1803 16.9286 56.9423 16.9286Z" fill="black"/>
<path d="M56.9423 29.3456C57.7044 29.3456 58.3222 28.7278 58.3222 27.9658C58.3222 27.2037 57.7044 26.5859 56.9423 26.5859C56.1803 26.5859 55.5625 27.2037 55.5625 27.9658C55.5625 28.7278 56.1803 29.3456 56.9423 29.3456Z" fill="black"/>
<path d="M56.9423 41.7636C57.7044 41.7636 58.3222 41.1458 58.3222 40.3838C58.3222 39.6217 57.7044 39.0039 56.9423 39.0039C56.1803 39.0039 55.5625 39.6217 55.5625 40.3838C55.5625 41.1458 56.1803 41.7636 56.9423 41.7636Z" fill="black"/>
<path d="M56.9423 45.9032C57.7044 45.9032 58.3222 45.2855 58.3222 44.5234C58.3222 43.7613 57.7044 43.1436 56.9423 43.1436C56.1803 43.1436 55.5625 43.7613 55.5625 44.5234C55.5625 45.2855 56.1803 45.9032 56.9423 45.9032Z" fill="black"/>
<path d="M56.9423 50.0439C57.7044 50.0439 58.3222 49.4261 58.3222 48.664C58.3222 47.902 57.7044 47.2842 56.9423 47.2842C56.1803 47.2842 55.5625 47.902 55.5625 48.664C55.5625 49.4261 56.1803 50.0439 56.9423 50.0439Z" fill="black"/>
<path d="M56.9423 54.1825C57.7044 54.1825 58.3222 53.5648 58.3222 52.8027C58.3222 52.0406 57.7044 51.4229 56.9423 51.4229C56.1803 51.4229 55.5625 52.0406 55.5625 52.8027C55.5625 53.5648 56.1803 54.1825 56.9423 54.1825Z" fill="black"/>
<path d="M56.9423 58.3222C57.7044 58.3222 58.3222 57.7044 58.3222 56.9423C58.3222 56.1803 57.7044 55.5625 56.9423 55.5625C56.1803 55.5625 55.5625 56.1803 55.5625 56.9423C55.5625 57.7044 56.1803 58.3222 56.9423 58.3222Z" fill="black"/>
<path d="M56.9423 62.4618C57.7044 62.4618 58.3222 61.8441 58.3222 61.082C58.3222 60.3199 57.7044 59.7021 56.9423 59.7021C56.1803 59.7021 55.5625 60.3199 55.5625 61.082C55.5625 61.8441 56.1803 62.4618 56.9423 62.4618Z" fill="black"/>
<path d="M56.9423 70.7392C57.7044 70.7392 58.3222 70.1214 58.3222 69.3593C58.3222 68.5973 57.7044 67.9795 56.9423 67.9795C56.1803 67.9795 55.5625 68.5973 55.5625 69.3593C55.5625 70.1214 56.1803 70.7392 56.9423 70.7392Z" fill="black"/>
<path d="M56.9423 83.1591C57.7044 83.1591 58.3222 82.5413 58.3222 81.7793C58.3222 81.0172 57.7044 80.3994 56.9423 80.3994C56.1803 80.3994 55.5625 81.0172 55.5625 81.7793C55.5625 82.5413 56.1803 83.1591 56.9423 83.1591Z" fill="black"/>
<path d="M56.9423 87.2987C57.7044 87.2987 58.3222 86.681 58.3222 85.9189C58.3222 85.1568 57.7044 84.5391 56.9423 84.5391C56.1803 84.5391 55.5625 85.1568 55.5625 85.9189C55.5625 86.681 56.1803 87.2987 56.9423 87.2987Z" fill="black"/>
<path d="M56.9423 91.4384C57.7044 91.4384 58.3222 90.8206 58.3222 90.0586C58.3222 89.2965 57.7044 88.6787 56.9423 88.6787C56.1803 88.6787 55.5625 89.2965 55.5625 90.0586C55.5625 90.8206 56.1803 91.4384 56.9423 91.4384Z" fill="black"/>
<path d="M56.9423 107.995C57.7044 107.995 58.3222 107.377 58.3222 106.615C58.3222 105.853 57.7044 105.235 56.9423 105.235C56.1803 105.235 55.5625 105.853 55.5625 106.615C55.5625 107.377 56.1803 107.995 56.9423 107.995Z" fill="black"/>
<path d="M56.9423 112.137C57.7044 112.137 58.3222 111.519 58.3222 110.757C58.3222 109.995 57.7044 109.377 56.9423 109.377C56.1803 109.377 55.5625 109.995 55.5625 110.757C55.5625 111.519 56.1803 112.137 56.9423 112.137Z" fill="black"/>
<path d="M56.9423 120.414C57.7044 120.414 58.3222 119.796 58.3222 119.034C58.3222 118.272 57.7044 117.654 56.9423 117.654C56.1803 117.654 55.5625 118.272 55.5625 119.034C55.5625 119.796 56.1803 120.414 56.9423 120.414Z" fill="black"/>
<path d="M56.9423 128.694C57.7044 128.694 58.3222 128.076 58.3222 127.314C58.3222 126.552 57.7044 125.935 56.9423 125.935C56.1803 125.935 55.5625 126.552 55.5625 127.314C55.5625 128.076 56.1803 128.694 56.9423 128.694Z" fill="black"/>
<path d="M61.0818 16.9286C61.8438 16.9286 62.4616 16.3109 62.4616 15.5488C62.4616 14.7867 61.8438 14.1689 61.0818 14.1689C60.3197 14.1689 59.7019 14.7867 59.7019 15.5488C59.7019 16.3109 60.3197 16.9286 61.0818 16.9286Z" fill="black"/>
<path d="M61.0818 21.0683C61.8438 21.0683 62.4616 20.4505 62.4616 19.6884C62.4616 18.9264 61.8438 18.3086 61.0818 18.3086C60.3197 18.3086 59.7019 18.9264 59.7019 19.6884C59.7019 20.4505 60.3197 21.0683 61.0818 21.0683Z" fill="black"/>
<path d="M61.0818 25.204C61.8438 25.204 62.4616 24.5862 62.4616 23.8242C62.4616 23.0621 61.8438 22.4443 61.0818 22.4443C60.3197 22.4443 59.7019 23.0621 59.7019 23.8242C59.7019 24.5862 60.3197 25.204 61.0818 25.204Z" fill="black"/>
<path d="M61.0818 33.4853C61.8438 33.4853 62.4616 32.8675 62.4616 32.1054C62.4616 31.3434 61.8438 30.7256 61.0818 30.7256C60.3197 30.7256 59.7019 31.3434 59.7019 32.1054C59.7019 32.8675 60.3197 33.4853 61.0818 33.4853Z" fill="black"/>
<path d="M61.0818 37.622C61.8438 37.622 62.4616 37.0042 62.4616 36.2421C62.4616 35.4801 61.8438 34.8623 61.0818 34.8623C60.3197 34.8623 59.7019 35.4801 59.7019 36.2421C59.7019 37.0042 60.3197 37.622 61.0818 37.622Z" fill="black"/>
<path d="M61.0818 50.0439C61.8438 50.0439 62.4616 49.4261 62.4616 48.664C62.4616 47.902 61.8438 47.2842 61.0818 47.2842C60.3197 47.2842 59.7019 47.902 59.7019 48.664C59.7019 49.4261 60.3197 50.0439 61.0818 50.0439Z" fill="black"/>
<path d="M61.0818 54.1825C61.8438 54.1825 62.4616 53.5648 62.4616 52.8027C62.4616 52.0406 61.8438 51.4229 61.0818 51.4229C60.3197 51.4229 59.7019 52.0406 59.7019 52.8027C59.7019 53.5648 60.3197 54.1825 61.0818 54.1825Z" fill="black"/>
<path d="M61.0818 62.4618C61.8438 62.4618 62.4616 61.8441 62.4616 61.082C62.4616 60.3199 61.8438 59.7021 61.0818 59.7021C60.3197 59.7021 59.7019 60.3199 59.7019 61.082C59.7019 61.8441 60.3197 62.4618 61.0818 62.4618Z" fill="black"/>
<path d="M61.0818 66.6015C61.8438 66.6015 62.4616 65.9837 62.4616 65.2216C62.4616 64.4596 61.8438 63.8418 61.0818 63.8418C60.3197 63.8418 59.7019 64.4596 59.7019 65.2216C59.7019 65.9837 60.3197 66.6015 61.0818 66.6015Z" fill="black"/>
<path d="M61.0818 70.7392C61.8438 70.7392 62.4616 70.1214 62.4616 69.3593C62.4616 68.5973 61.8438 67.9795 61.0818 67.9795C60.3197 67.9795 59.7019 68.5973 59.7019 69.3593C59.7019 70.1214 60.3197 70.7392 61.0818 70.7392Z" fill="black"/>
<path d="M61.0818 74.8808C61.8438 74.8808 62.4616 74.263 62.4616 73.5009C62.4616 72.7389 61.8438 72.1211 61.0818 72.1211C60.3197 72.1211 59.7019 72.7389 59.7019 73.5009C59.7019 74.263 60.3197 74.8808 61.0818 74.8808Z" fill="black"/>
<path d="M61.0818 83.1591C61.8438 83.1591 62.4616 82.5413 62.4616 81.7793C62.4616 81.0172 61.8438 80.3994 61.0818 80.3994C60.3197 80.3994 59.7019 81.0172 59.7019 81.7793C59.7019 82.5413 60.3197 83.1591 61.0818 83.1591Z" fill="black"/>
<path d="M61.0818 91.4384C61.8438 91.4384 62.4616 90.8206 62.4616 90.0586C62.4616 89.2965 61.8438 88.6787 61.0818 88.6787C60.3197 88.6787 59.7019 89.2965 59.7019 90.0586C59.7019 90.8206 60.3197 91.4384 61.0818 91.4384Z" fill="black"/>
<path d="M61.0818 95.578C61.8438 95.578 62.4616 94.9603 62.4616 94.1982C62.4616 93.4361 61.8438 92.8184 61.0818 92.8184C60.3197 92.8184 59.7019 93.4361 59.7019 94.1982C59.7019 94.9603 60.3197 95.578 61.0818 95.578Z" fill="black"/>
<path d="M61.0818 112.137C61.8438 112.137 62.4616 111.519 62.4616 110.757C62.4616 109.995 61.8438 109.377 61.0818 109.377C60.3197 109.377 59.7019 109.995 59.7019 110.757C59.7019 111.519 60.3197 112.137 61.0818 112.137Z" fill="black"/>
<path d="M61.0818 132.834C61.8438 132.834 62.4616 132.216 62.4616 131.454C62.4616 130.692 61.8438 130.074 61.0818 130.074C60.3197 130.074 59.7019 130.692 59.7019 131.454C59.7019 132.216 60.3197 132.834 61.0818 132.834Z" fill="black"/>
<path d="M65.2219 33.4853C65.984 33.4853 66.6017 32.8675 66.6017 32.1054C66.6017 31.3434 65.984 30.7256 65.2219 30.7256C64.4598 30.7256 63.842 31.3434 63.842 32.1054C63.842 32.8675 64.4598 33.4853 65.2219 33.4853Z" fill="black"/>
<path d="M65.2219 41.7636C65.984 41.7636 66.6017 41.1458 66.6017 40.3838C66.6017 39.6217 65.984 39.0039 65.2219 39.0039C64.4598 39.0039 63.842 39.6217 63.842 40.3838C63.842 41.1458 64.4598 41.7636 65.2219 41.7636Z" fill="black"/>
<path d="M65.2219 62.4618C65.984 62.4618 66.6017 61.8441 66.6017 61.082C66.6017 60.3199 65.984 59.7021 65.2219 59.7021C64.4598 59.7021 63.842 60.3199 63.842 61.082C63.842 61.8441 64.4598 62.4618 65.2219 62.4618Z" fill="black"/>
<path d="M65.2219 66.6015C65.984 66.6015 66.6017 65.9837 66.6017 65.2216C66.6017 64.4596 65.984 63.8418 65.2219 63.8418C64.4598 63.8418 63.842 64.4596 63.842 65.2216C63.842 65.9837 64.4598 66.6015 65.2219 66.6015Z" fill="black"/>
<path d="M65.2219 79.0204C65.984 79.0204 66.6017 78.4027 66.6017 77.6406C66.6017 76.8785 65.984 76.2607 65.2219 76.2607C64.4598 76.2607 63.842 76.8785 63.842 77.6406C63.842 78.4027 64.4598 79.0204 65.2219 79.0204Z" fill="black"/>
<path d="M65.2219 83.1591C65.984 83.1591 66.6017 82.5413 66.6017 81.7793C66.6017 81.0172 65.984 80.3994 65.2219 80.3994C64.4598 80.3994 63.842 81.0172 63.842 81.7793C63.842 82.5413 64.4598 83.1591 65.2219 83.1591Z" fill="black"/>
<path d="M65.2219 87.2987C65.984 87.2987 66.6017 86.681 66.6017 85.9189C66.6017 85.1568 65.984 84.5391 65.2219 84.5391C64.4598 84.5391 63.842 85.1568 63.842 85.9189C63.842 86.681 64.4598 87.2987 65.2219 87.2987Z" fill="black"/>
<path d="M65.2219 91.4384C65.984 91.4384 66.6017 90.8206 66.6017 90.0586C66.6017 89.2965 65.984 88.6787 65.2219 88.6787C64.4598 88.6787 63.842 89.2965 63.842 90.0586C63.842 90.8206 64.4598 91.4384 65.2219 91.4384Z" fill="black"/>
<path d="M65.2219 95.578C65.984 95.578 66.6017 94.9603 66.6017 94.1982C66.6017 93.4361 65.984 92.8184 65.2219 92.8184C64.4598 92.8184 63.842 93.4361 63.842 94.1982C63.842 94.9603 64.4598 95.578 65.2219 95.578Z" fill="black"/>
<path d="M65.2219 103.855C65.984 103.855 66.6017 103.238 66.6017 102.476C66.6017 101.713 65.984 101.096 65.2219 101.096C64.4598 101.096 63.842 101.713 63.842 102.476C63.842 103.238 64.4598 103.855 65.2219 103.855Z" fill="black"/>
<path d="M65.2219 112.137C65.984 112.137 66.6017 111.519 66.6017 110.757C66.6017 109.995 65.984 109.377 65.2219 109.377C64.4598 109.377 63.842 109.995 63.842 110.757C63.842 111.519 64.4598 112.137 65.2219 112.137Z" fill="black"/>
<path d="M65.2219 124.555C65.984 124.555 66.6017 123.937 66.6017 123.175C66.6017 122.413 65.984 121.795 65.2219 121.795C64.4598 121.795 63.842 122.413 63.842 123.175C63.842 123.937 64.4598 124.555 65.2219 124.555Z" fill="black"/>
<path d="M65.2219 128.694C65.984 128.694 66.6017 128.076 66.6017 127.314C66.6017 126.552 65.984 125.935 65.2219 125.935C64.4598 125.935 63.842 126.552 63.842 127.314C63.842 128.076 64.4598 128.694 65.2219 128.694Z" fill="black"/>
<path d="M65.2219 132.834C65.984 132.834 66.6017 132.216 66.6017 131.454C66.6017 130.692 65.984 130.074 65.2219 130.074C64.4598 130.074 63.842 130.692 63.842 131.454C63.842 132.216 64.4598 132.834 65.2219 132.834Z" fill="black"/>
<path d="M69.361 29.3456C70.1231 29.3456 70.7409 28.7278 70.7409 27.9658C70.7409 27.2037 70.1231 26.5859 69.361 26.5859C68.599 26.5859 67.9812 27.2037 67.9812 27.9658C67.9812 28.7278 68.599 29.3456 69.361 29.3456Z" fill="black"/>
<path d="M69.361 45.9032C70.1231 45.9032 70.7409 45.2855 70.7409 44.5234C70.7409 43.7613 70.1231 43.1436 69.361 43.1436C68.599 43.1436 67.9812 43.7613 67.9812 44.5234C67.9812 45.2855 68.599 45.9032 69.361 45.9032Z" fill="black"/>
<path d="M69.361 54.1825C70.1231 54.1825 70.7409 53.5648 70.7409 52.8027C70.7409 52.0406 70.1231 51.4229 69.361 51.4229C68.599 51.4229 67.9812 52.0406 67.9812 52.8027C67.9812 53.5648 68.599 54.1825 69.361 54.1825Z" fill="black"/>
<path d="M69.361 58.3222C70.1231 58.3222 70.7409 57.7044 70.7409 56.9423C70.7409 56.1803 70.1231 55.5625 69.361 55.5625C68.599 55.5625 67.9812 56.1803 67.9812 56.9423C67.9812 57.7044 68.599 58.3222 69.361 58.3222Z" fill="black"/>
<path d="M69.361 66.6015C70.1231 66.6015 70.7409 65.9837 70.7409 65.2216C70.7409 64.4596 70.1231 63.8418 69.361 63.8418C68.599 63.8418 67.9812 64.4596 67.9812 65.2216C67.9812 65.9837 68.599 66.6015 69.361 66.6015Z" fill="black"/>
<path d="M69.361 70.7392C70.1231 70.7392 70.7409 70.1214 70.7409 69.3593C70.7409 68.5973 70.1231 67.9795 69.361 67.9795C68.599 67.9795 67.9812 68.5973 67.9812 69.3593C67.9812 70.1214 68.599 70.7392 69.361 70.7392Z" fill="black"/>
<path d="M69.361 79.0204C70.1231 79.0204 70.7409 78.4027 70.7409 77.6406C70.7409 76.8785 70.1231 76.2607 69.361 76.2607C68.599 76.2607 67.9812 76.8785 67.9812 77.6406C67.9812 78.4027 68.599 79.0204 69.361 79.0204Z" fill="black"/>
<path d="M69.361 83.1591C70.1231 83.1591 70.7409 82.5413 70.7409 81.7793C70.7409 81.0172 70.1231 80.3994 69.361 80.3994C68.599 80.3994 67.9812 81.0172 67.9812 81.7793C67.9812 82.5413 68.599 83.1591 69.361 83.1591Z" fill="black"/>
<path d="M69.361 95.578C70.1231 95.578 70.7409 94.9603 70.7409 94.1982C70.7409 93.4361 70.1231 92.8184 69.361 92.8184C68.599 92.8184 67.9812 93.4361 67.9812 94.1982C67.9812 94.9603 68.599 95.578 69.361 95.578Z" fill="black"/>
<path d="M69.361 99.7196C70.1231 99.7196 70.7409 99.1019 70.7409 98.3398C70.7409 97.5777 70.1231 96.96 69.361 96.96C68.599 96.96 67.9812 97.5777 67.9812 98.3398C67.9812 99.1019 68.599 99.7196 69.361 99.7196Z" fill="black"/>
<path d="M69.361 107.995C70.1231 107.995 70.7409 107.377 70.7409 106.615C70.7409 105.853 70.1231 105.235 69.361 105.235C68.599 105.235 67.9812 105.853 67.9812 106.615C67.9812 107.377 68.599 107.995 69.361 107.995Z" fill="black"/>
<path d="M69.361 112.137C70.1231 112.137 70.7409 111.519 70.7409 110.757C70.7409 109.995 70.1231 109.377 69.361 109.377C68.599 109.377 67.9812 109.995 67.9812 110.757C67.9812 111.519 68.599 112.137 69.361 112.137Z" fill="black"/>
<path d="M69.361 120.414C70.1231 120.414 70.7409 119.796 70.7409 119.034C70.7409 118.272 70.1231 117.654 69.361 117.654C68.599 117.654 67.9812 118.272 67.9812 119.034C67.9812 119.796 68.599 120.414 69.361 120.414Z" fill="black"/>
<path d="M69.361 124.555C70.1231 124.555 70.7409 123.937 70.7409 123.175C70.7409 122.413 70.1231 121.795 69.361 121.795C68.599 121.795 67.9812 122.413 67.9812 123.175C67.9812 123.937 68.599 124.555 69.361 124.555Z" fill="black"/>
<path d="M69.361 132.834C70.1231 132.834 70.7409 132.216 70.7409 131.454C70.7409 130.692 70.1231 130.074 69.361 130.074C68.599 130.074 67.9812 130.692 67.9812 131.454C67.9812 132.216 68.599 132.834 69.361 132.834Z" fill="black"/>
<path d="M73.5004 21.0683C74.2625 21.0683 74.8803 20.4505 74.8803 19.6884C74.8803 18.9264 74.2625 18.3086 73.5004 18.3086C72.7384 18.3086 72.1206 18.9264 72.1206 19.6884C72.1206 20.4505 72.7384 21.0683 73.5004 21.0683Z" fill="black"/>
<path d="M73.5004 33.4853C74.2625 33.4853 74.8803 32.8675 74.8803 32.1054C74.8803 31.3434 74.2625 30.7256 73.5004 30.7256C72.7384 30.7256 72.1206 31.3434 72.1206 32.1054C72.1206 32.8675 72.7384 33.4853 73.5004 33.4853Z" fill="black"/>
<path d="M73.5004 41.7636C74.2625 41.7636 74.8803 41.1458 74.8803 40.3838C74.8803 39.6217 74.2625 39.0039 73.5004 39.0039C72.7384 39.0039 72.1206 39.6217 72.1206 40.3838C72.1206 41.1458 72.7384 41.7636 73.5004 41.7636Z" fill="black"/>
<path d="M73.5004 45.9032C74.2625 45.9032 74.8803 45.2855 74.8803 44.5234C74.8803 43.7613 74.2625 43.1436 73.5004 43.1436C72.7384 43.1436 72.1206 43.7613 72.1206 44.5234C72.1206 45.2855 72.7384 45.9032 73.5004 45.9032Z" fill="black"/>
<path d="M73.5004 50.0439C74.2625 50.0439 74.8803 49.4261 74.8803 48.664C74.8803 47.902 74.2625 47.2842 73.5004 47.2842C72.7384 47.2842 72.1206 47.902 72.1206 48.664C72.1206 49.4261 72.7384 50.0439 73.5004 50.0439Z" fill="black"/>
<path d="M73.5004 70.7392C74.2625 70.7392 74.8803 70.1214 74.8803 69.3593C74.8803 68.5973 74.2625 67.9795 73.5004 67.9795C72.7384 67.9795 72.1206 68.5973 72.1206 69.3593C72.1206 70.1214 72.7384 70.7392 73.5004 70.7392Z" fill="black"/>
<path d="M73.5004 83.1591C74.2625 83.1591 74.8803 82.5413 74.8803 81.7793C74.8803 81.0172 74.2625 80.3994 73.5004 80.3994C72.7384 80.3994 72.1206 81.0172 72.1206 81.7793C72.1206 82.5413 72.7384 83.1591 73.5004 83.1591Z" fill="black"/>
<path d="M73.5004 87.2987C74.2625 87.2987 74.8803 86.681 74.8803 85.9189C74.8803 85.1568 74.2625 84.5391 73.5004 84.5391C72.7384 84.5391 72.1206 85.1568 72.1206 85.9189C72.1206 86.681 72.7384 87.2987 73.5004 87.2987Z" fill="black"/>
<path d="M73.5004 91.4384C74.2625 91.4384 74.8803 90.8206 74.8803 90.0586C74.8803 89.2965 74.2625 88.6787 73.5004 88.6787C72.7384 88.6787 72.1206 89.2965 72.1206 90.0586C72.1206 90.8206 72.7384 91.4384 73.5004 91.4384Z" fill="black"/>
<path d="M73.5004 95.578C74.2625 95.578 74.8803 94.9603 74.8803 94.1982C74.8803 93.4361 74.2625 92.8184 73.5004 92.8184C72.7384 92.8184 72.1206 93.4361 72.1206 94.1982C72.1206 94.9603 72.7384 95.578 73.5004 95.578Z" fill="black"/>
<path d="M73.5004 99.7196C74.2625 99.7196 74.8803 99.1019 74.8803 98.3398C74.8803 97.5777 74.2625 96.96 73.5004 96.96C72.7384 96.96 72.1206 97.5777 72.1206 98.3398C72.1206 99.1019 72.7384 99.7196 73.5004 99.7196Z" fill="black"/>
<path d="M73.5004 103.855C74.2625 103.855 74.8803 103.238 74.8803 102.476C74.8803 101.713 74.2625 101.096 73.5004 101.096C72.7384 101.096 72.1206 101.713 72.1206 102.476C72.1206 103.238 72.7384 103.855 73.5004 103.855Z" fill="black"/>
<path d="M73.5004 112.137C74.2625 112.137 74.8803 111.519 74.8803 110.757C74.8803 109.995 74.2625 109.377 73.5004 109.377C72.7384 109.377 72.1206 109.995 72.1206 110.757C72.1206 111.519 72.7384 112.137 73.5004 112.137Z" fill="black"/>
<path d="M73.5004 116.276C74.2625 116.276 74.8803 115.659 74.8803 114.896C74.8803 114.134 74.2625 113.517 73.5004 113.517C72.7384 113.517 72.1206 114.134 72.1206 114.896C72.1206 115.659 72.7384 116.276 73.5004 116.276Z" fill="black"/>
<path d="M73.5004 120.414C74.2625 120.414 74.8803 119.796 74.8803 119.034C74.8803 118.272 74.2625 117.654 73.5004 117.654C72.7384 117.654 72.1206 118.272 72.1206 119.034C72.1206 119.796 72.7384 120.414 73.5004 120.414Z" fill="black"/>
<path d="M73.5004 128.694C74.2625 128.694 74.8803 128.076 74.8803 127.314C74.8803 126.552 74.2625 125.935 73.5004 125.935C72.7384 125.935 72.1206 126.552 72.1206 127.314C72.1206 128.076 72.7384 128.694 73.5004 128.694Z" fill="black"/>
<path d="M73.5004 132.834C74.2625 132.834 74.8803 132.216 74.8803 131.454C74.8803 130.692 74.2625 130.074 73.5004 130.074C72.7384 130.074 72.1206 130.692 72.1206 131.454C72.1206 132.216 72.7384 132.834 73.5004 132.834Z" fill="black"/>
<path d="M77.6401 21.0683C78.4022 21.0683 79.0199 20.4505 79.0199 19.6884C79.0199 18.9264 78.4022 18.3086 77.6401 18.3086C76.878 18.3086 76.2603 18.9264 76.2603 19.6884C76.2603 20.4505 76.878 21.0683 77.6401 21.0683Z" fill="black"/>
<path d="M77.6401 25.204C78.4022 25.204 79.0199 24.5862 79.0199 23.8242C79.0199 23.0621 78.4022 22.4443 77.6401 22.4443C76.878 22.4443 76.2603 23.0621 76.2603 23.8242C76.2603 24.5862 76.878 25.204 77.6401 25.204Z" fill="black"/>
<path d="M77.6401 29.3456C78.4022 29.3456 79.0199 28.7278 79.0199 27.9658C79.0199 27.2037 78.4022 26.5859 77.6401 26.5859C76.878 26.5859 76.2603 27.2037 76.2603 27.9658C76.2603 28.7278 76.878 29.3456 77.6401 29.3456Z" fill="black"/>
<path d="M77.6401 33.4853C78.4022 33.4853 79.0199 32.8675 79.0199 32.1054C79.0199 31.3434 78.4022 30.7256 77.6401 30.7256C76.878 30.7256 76.2603 31.3434 76.2603 32.1054C76.2603 32.8675 76.878 33.4853 77.6401 33.4853Z" fill="black"/>
<path d="M77.6401 37.622C78.4022 37.622 79.0199 37.0042 79.0199 36.2421C79.0199 35.4801 78.4022 34.8623 77.6401 34.8623C76.878 34.8623 76.2603 35.4801 76.2603 36.2421C76.2603 37.0042 76.878 37.622 77.6401 37.622Z" fill="black"/>
<path d="M77.6401 45.9032C78.4022 45.9032 79.0199 45.2855 79.0199 44.5234C79.0199 43.7613 78.4022 43.1436 77.6401 43.1436C76.878 43.1436 76.2603 43.7613 76.2603 44.5234C76.2603 45.2855 76.878 45.9032 77.6401 45.9032Z" fill="black"/>
<path d="M77.6401 50.0439C78.4022 50.0439 79.0199 49.4261 79.0199 48.664C79.0199 47.902 78.4022 47.2842 77.6401 47.2842C76.878 47.2842 76.2603 47.902 76.2603 48.664C76.2603 49.4261 76.878 50.0439 77.6401 50.0439Z" fill="black"/>
<path d="M77.6401 74.8808C78.4022 74.8808 79.0199 74.263 79.0199 73.5009C79.0199 72.7389 78.4022 72.1211 77.6401 72.1211C76.878 72.1211 76.2603 72.7389 76.2603 73.5009C76.2603 74.263 76.878 74.8808 77.6401 74.8808Z" fill="black"/>
<path d="M77.6401 83.1591C78.4022 83.1591 79.0199 82.5413 79.0199 81.7793C79.0199 81.0172 78.4022 80.3994 77.6401 80.3994C76.878 80.3994 76.2603 81.0172 76.2603 81.7793C76.2603 82.5413 76.878 83.1591 77.6401 83.1591Z" fill="black"/>
<path d="M77.6401 87.2987C78.4022 87.2987 79.0199 86.681 79.0199 85.9189C79.0199 85.1568 78.4022 84.5391 77.6401 84.5391C76.878 84.5391 76.2603 85.1568 76.2603 85.9189C76.2603 86.681 76.878 87.2987 77.6401 87.2987Z" fill="black"/>
<path d="M77.6401 91.4384C78.4022 91.4384 79.0199 90.8206 79.0199 90.0586C79.0199 89.2965 78.4022 88.6787 77.6401 88.6787C76.878 88.6787 76.2603 89.2965 76.2603 90.0586C76.2603 90.8206 76.878 91.4384 77.6401 91.4384Z" fill="black"/>
<path d="M77.6401 103.855C78.4022 103.855 79.0199 103.238 79.0199 102.476C79.0199 101.713 78.4022 101.096 77.6401 101.096C76.878 101.096 76.2603 101.713 76.2603 102.476C76.2603 103.238 76.878 103.855 77.6401 103.855Z" fill="black"/>
<path d="M77.6401 116.276C78.4022 116.276 79.0199 115.659 79.0199 114.896C79.0199 114.134 78.4022 113.517 77.6401 113.517C76.878 113.517 76.2603 114.134 76.2603 114.896C76.2603 115.659 76.878 116.276 77.6401 116.276Z" fill="black"/>
<path d="M77.6401 120.414C78.4022 120.414 79.0199 119.796 79.0199 119.034C79.0199 118.272 78.4022 117.654 77.6401 117.654C76.878 117.654 76.2603 118.272 76.2603 119.034C76.2603 119.796 76.878 120.414 77.6401 120.414Z" fill="black"/>
<path d="M77.6401 132.834C78.4022 132.834 79.0199 132.216 79.0199 131.454C79.0199 130.692 78.4022 130.074 77.6401 130.074C76.878 130.074 76.2603 130.692 76.2603 131.454C76.2603 132.216 76.878 132.834 77.6401 132.834Z" fill="black"/>
<path d="M81.7795 16.9286C82.5416 16.9286 83.1593 16.3109 83.1593 15.5488C83.1593 14.7867 82.5416 14.1689 81.7795 14.1689C81.0174 14.1689 80.3997 14.7867 80.3997 15.5488C80.3997 16.3109 81.0174 16.9286 81.7795 16.9286Z" fill="black"/>
<path d="M81.7795 21.0683C82.5416 21.0683 83.1593 20.4505 83.1593 19.6884C83.1593 18.9264 82.5416 18.3086 81.7795 18.3086C81.0174 18.3086 80.3997 18.9264 80.3997 19.6884C80.3997 20.4505 81.0174 21.0683 81.7795 21.0683Z" fill="black"/>
<path d="M81.7795 25.204C82.5416 25.204 83.1593 24.5862 83.1593 23.8242C83.1593 23.0621 82.5416 22.4443 81.7795 22.4443C81.0174 22.4443 80.3997 23.0621 80.3997 23.8242C80.3997 24.5862 81.0174 25.204 81.7795 25.204Z" fill="black"/>
<path d="M81.7795 37.622C82.5416 37.622 83.1593 37.0042 83.1593 36.2421C83.1593 35.4801 82.5416 34.8623 81.7795 34.8623C81.0174 34.8623 80.3997 35.4801 80.3997 36.2421C80.3997 37.0042 81.0174 37.622 81.7795 37.622Z" fill="black"/>
<path d="M81.7795 41.7636C82.5416 41.7636 83.1593 41.1458 83.1593 40.3838C83.1593 39.6217 82.5416 39.0039 81.7795 39.0039C81.0174 39.0039 80.3997 39.6217 80.3997 40.3838C80.3997 41.1458 81.0174 41.7636 81.7795 41.7636Z" fill="black"/>
<path d="M81.7795 45.9032C82.5416 45.9032 83.1593 45.2855 83.1593 44.5234C83.1593 43.7613 82.5416 43.1436 81.7795 43.1436C81.0174 43.1436 80.3997 43.7613 80.3997 44.5234C80.3997 45.2855 81.0174 45.9032 81.7795 45.9032Z" fill="black"/>
<path d="M81.7795 50.0439C82.5416 50.0439 83.1593 49.4261 83.1593 48.664C83.1593 47.902 82.5416 47.2842 81.7795 47.2842C81.0174 47.2842 80.3997 47.902 80.3997 48.664C80.3997 49.4261 81.0174 50.0439 81.7795 50.0439Z" fill="black"/>
<path d="M81.7795 62.4618C82.5416 62.4618 83.1593 61.8441 83.1593 61.082C83.1593 60.3199 82.5416 59.7021 81.7795 59.7021C81.0174 59.7021 80.3997 60.3199 80.3997 61.082C80.3997 61.8441 81.0174 62.4618 81.7795 62.4618Z" fill="black"/>
<path d="M81.7795 66.6015C82.5416 66.6015 83.1593 65.9837 83.1593 65.2216C83.1593 64.4596 82.5416 63.8418 81.7795 63.8418C81.0174 63.8418 80.3997 64.4596 80.3997 65.2216C80.3997 65.9837 81.0174 66.6015 81.7795 66.6015Z" fill="black"/>
<path d="M81.7795 70.7392C82.5416 70.7392 83.1593 70.1214 83.1593 69.3593C83.1593 68.5973 82.5416 67.9795 81.7795 67.9795C81.0174 67.9795 80.3997 68.5973 80.3997 69.3593C80.3997 70.1214 81.0174 70.7392 81.7795 70.7392Z" fill="black"/>
<path d="M81.7795 83.1591C82.5416 83.1591 83.1593 82.5413 83.1593 81.7793C83.1593 81.0172 82.5416 80.3994 81.7795 80.3994C81.0174 80.3994 80.3997 81.0172 80.3997 81.7793C80.3997 82.5413 81.0174 83.1591 81.7795 83.1591Z" fill="black"/>
<path d="M81.7795 87.2987C82.5416 87.2987 83.1593 86.681 83.1593 85.9189C83.1593 85.1568 82.5416 84.5391 81.7795 84.5391C81.0174 84.5391 80.3997 85.1568 80.3997 85.9189C80.3997 86.681 81.0174 87.2987 81.7795 87.2987Z" fill="black"/>
<path d="M81.7795 91.4384C82.5416 91.4384 83.1593 90.8206 83.1593 90.0586C83.1593 89.2965 82.5416 88.6787 81.7795 88.6787C81.0174 88.6787 80.3997 89.2965 80.3997 90.0586C80.3997 90.8206 81.0174 91.4384 81.7795 91.4384Z" fill="black"/>
<path d="M81.7795 99.7196C82.5416 99.7196 83.1593 99.1019 83.1593 98.3398C83.1593 97.5777 82.5416 96.96 81.7795 96.96C81.0174 96.96 80.3997 97.5777 80.3997 98.3398C80.3997 99.1019 81.0174 99.7196 81.7795 99.7196Z" fill="black"/>
<path d="M81.7795 103.855C82.5416 103.855 83.1593 103.238 83.1593 102.476C83.1593 101.713 82.5416 101.096 81.7795 101.096C81.0174 101.096 80.3997 101.713 80.3997 102.476C80.3997 103.238 81.0174 103.855 81.7795 103.855Z" fill="black"/>
<path d="M81.7795 116.276C82.5416 116.276 83.1593 115.659 83.1593 114.896C83.1593 114.134 82.5416 113.517 81.7795 113.517C81.0174 113.517 80.3997 114.134 80.3997 114.896C80.3997 115.659 81.0174 116.276 81.7795 116.276Z" fill="black"/>
<path d="M81.7795 120.414C82.5416 120.414 83.1593 119.796 83.1593 119.034C83.1593 118.272 82.5416 117.654 81.7795 117.654C81.0174 117.654 80.3997 118.272 80.3997 119.034C80.3997 119.796 81.0174 120.414 81.7795 120.414Z" fill="black"/>
<path d="M85.9191 25.204C86.6812 25.204 87.299 24.5862 87.299 23.8242C87.299 23.0621 86.6812 22.4443 85.9191 22.4443C85.1571 22.4443 84.5393 23.0621 84.5393 23.8242C84.5393 24.5862 85.1571 25.204 85.9191 25.204Z" fill="black"/>
<path d="M85.9191 29.3456C86.6812 29.3456 87.299 28.7278 87.299 27.9658C87.299 27.2037 86.6812 26.5859 85.9191 26.5859C85.1571 26.5859 84.5393 27.2037 84.5393 27.9658C84.5393 28.7278 85.1571 29.3456 85.9191 29.3456Z" fill="black"/>
<path d="M85.9191 33.4853C86.6812 33.4853 87.299 32.8675 87.299 32.1054C87.299 31.3434 86.6812 30.7256 85.9191 30.7256C85.1571 30.7256 84.5393 31.3434 84.5393 32.1054C84.5393 32.8675 85.1571 33.4853 85.9191 33.4853Z" fill="black"/>
<path d="M85.9191 50.0439C86.6812 50.0439 87.299 49.4261 87.299 48.664C87.299 47.902 86.6812 47.2842 85.9191 47.2842C85.1571 47.2842 84.5393 47.902 84.5393 48.664C84.5393 49.4261 85.1571 50.0439 85.9191 50.0439Z" fill="black"/>
<path d="M85.9191 54.1825C86.6812 54.1825 87.299 53.5648 87.299 52.8027C87.299 52.0406 86.6812 51.4229 85.9191 51.4229C85.1571 51.4229 84.5393 52.0406 84.5393 52.8027C84.5393 53.5648 85.1571 54.1825 85.9191 54.1825Z" fill="black"/>
<path d="M85.9191 62.4618C86.6812 62.4618 87.299 61.8441 87.299 61.082C87.299 60.3199 86.6812 59.7021 85.9191 59.7021C85.1571 59.7021 84.5393 60.3199 84.5393 61.082C84.5393 61.8441 85.1571 62.4618 85.9191 62.4618Z" fill="black"/>
<path d="M85.9191 66.6015C86.6812 66.6015 87.299 65.9837 87.299 65.2216C87.299 64.4596 86.6812 63.8418 85.9191 63.8418C85.1571 63.8418 84.5393 64.4596 84.5393 65.2216C84.5393 65.9837 85.1571 66.6015 85.9191 66.6015Z" fill="black"/>
<path d="M85.9191 70.7392C86.6812 70.7392 87.299 70.1214 87.299 69.3593C87.299 68.5973 86.6812 67.9795 85.9191 67.9795C85.1571 67.9795 84.5393 68.5973 84.5393 69.3593C84.5393 70.1214 85.1571 70.7392 85.9191 70.7392Z" fill="black"/>
<path d="M85.9191 83.1591C86.6812 83.1591 87.299 82.5413 87.299 81.7793C87.299 81.0172 86.6812 80.3994 85.9191 80.3994C85.1571 80.3994 84.5393 81.0172 84.5393 81.7793C84.5393 82.5413 85.1571 83.1591 85.9191 83.1591Z" fill="black"/>
<path d="M85.9191 87.2987C86.6812 87.2987 87.299 86.681 87.299 85.9189C87.299 85.1568 86.6812 84.5391 85.9191 84.5391C85.1571 84.5391 84.5393 85.1568 84.5393 85.9189C84.5393 86.681 85.1571 87.2987 85.9191 87.2987Z" fill="black"/>
<path d="M85.9191 99.7196C86.6812 99.7196 87.299 99.1019 87.299 98.3398C87.299 97.5777 86.6812 96.96 85.9191 96.96C85.1571 96.96 84.5393 97.5777 84.5393 98.3398C84.5393 99.1019 85.1571 99.7196 85.9191 99.7196Z" fill="black"/>
<path d="M85.9191 103.855C86.6812 103.855 87.299 103.238 87.299 102.476C87.299 101.713 86.6812 101.096 85.9191 101.096C85.1571 101.096 84.5393 101.713 84.5393 102.476C84.5393 103.238 85.1571 103.855 85.9191 103.855Z" fill="black"/>
<path d="M85.9191 112.137C86.6812 112.137 87.299 111.519 87.299 110.757C87.299 109.995 86.6812 109.377 85.9191 109.377C85.1571 109.377 84.5393 109.995 84.5393 110.757C84.5393 111.519 85.1571 112.137 85.9191 112.137Z" fill="black"/>
<path d="M85.9191 124.555C86.6812 124.555 87.299 123.937 87.299 123.175C87.299 122.413 86.6812 121.795 85.9191 121.795C85.1571 121.795 84.5393 122.413 84.5393 123.175C84.5393 123.937 85.1571 124.555 85.9191 124.555Z" fill="black"/>
<path d="M90.0588 16.9286C90.8209 16.9286 91.4386 16.3109 91.4386 15.5488C91.4386 14.7867 90.8209 14.1689 90.0588 14.1689C89.2967 14.1689 88.679 14.7867 88.679 15.5488C88.679 16.3109 89.2967 16.9286 90.0588 16.9286Z" fill="black"/>
<path d="M90.0588 25.204C90.8209 25.204 91.4386 24.5862 91.4386 23.8242C91.4386 23.0621 90.8209 22.4443 90.0588 22.4443C89.2967 22.4443 88.679 23.0621 88.679 23.8242C88.679 24.5862 89.2967 25.204 90.0588 25.204Z" fill="black"/>
<path d="M90.0588 29.3456C90.8209 29.3456 91.4386 28.7278 91.4386 27.9658C91.4386 27.2037 90.8209 26.5859 90.0588 26.5859C89.2967 26.5859 88.679 27.2037 88.679 27.9658C88.679 28.7278 89.2967 29.3456 90.0588 29.3456Z" fill="black"/>
<path d="M90.0588 33.4853C90.8209 33.4853 91.4386 32.8675 91.4386 32.1054C91.4386 31.3434 90.8209 30.7256 90.0588 30.7256C89.2967 30.7256 88.679 31.3434 88.679 32.1054C88.679 32.8675 89.2967 33.4853 90.0588 33.4853Z" fill="black"/>
<path d="M90.0588 41.7636C90.8209 41.7636 91.4386 41.1458 91.4386 40.3838C91.4386 39.6217 90.8209 39.0039 90.0588 39.0039C89.2967 39.0039 88.679 39.6217 88.679 40.3838C88.679 41.1458 89.2967 41.7636 90.0588 41.7636Z" fill="black"/>
<path d="M90.0588 74.8808C90.8209 74.8808 91.4386 74.263 91.4386 73.5009C91.4386 72.7389 90.8209 72.1211 90.0588 72.1211C89.2967 72.1211 88.679 72.7389 88.679 73.5009C88.679 74.263 89.2967 74.8808 90.0588 74.8808Z" fill="black"/>
<path d="M90.0588 79.0204C90.8209 79.0204 91.4386 78.4027 91.4386 77.6406C91.4386 76.8785 90.8209 76.2607 90.0588 76.2607C89.2967 76.2607 88.679 76.8785 88.679 77.6406C88.679 78.4027 89.2967 79.0204 90.0588 79.0204Z" fill="black"/>
<path d="M90.0588 83.1591C90.8209 83.1591 91.4386 82.5413 91.4386 81.7793C91.4386 81.0172 90.8209 80.3994 90.0588 80.3994C89.2967 80.3994 88.679 81.0172 88.679 81.7793C88.679 82.5413 89.2967 83.1591 90.0588 83.1591Z" fill="black"/>
<path d="M90.0588 99.7196C90.8209 99.7196 91.4386 99.1019 91.4386 98.3398C91.4386 97.5777 90.8209 96.96 90.0588 96.96C89.2967 96.96 88.679 97.5777 88.679 98.3398C88.679 99.1019 89.2967 99.7196 90.0588 99.7196Z" fill="black"/>
<path d="M90.0588 107.995C90.8209 107.995 91.4386 107.377 91.4386 106.615C91.4386 105.853 90.8209 105.235 90.0588 105.235C89.2967 105.235 88.679 105.853 88.679 106.615C88.679 107.377 89.2967 107.995 90.0588 107.995Z" fill="black"/>
<path d="M90.0588 112.137C90.8209 112.137 91.4386 111.519 91.4386 110.757C91.4386 109.995 90.8209 109.377 90.0588 109.377C89.2967 109.377 88.679 109.995 88.679 110.757C88.679 111.519 89.2967 112.137 90.0588 112.137Z" fill="black"/>
<path d="M90.0588 120.414C90.8209 120.414 91.4386 119.796 91.4386 119.034C91.4386 118.272 90.8209 117.654 90.0588 117.654C89.2967 117.654 88.679 118.272 88.679 119.034C88.679 119.796 89.2967 120.414 90.0588 120.414Z" fill="black"/>
<path d="M94.1982 45.9032C94.9603 45.9032 95.578 45.2855 95.578 44.5234C95.578 43.7613 94.9603 43.1436 94.1982 43.1436C93.4361 43.1436 92.8184 43.7613 92.8184 44.5234C92.8184 45.2855 93.4361 45.9032 94.1982 45.9032Z" fill="black"/>
<path d="M94.1982 54.1825C94.9603 54.1825 95.578 53.5648 95.578 52.8027C95.578 52.0406 94.9603 51.4229 94.1982 51.4229C93.4361 51.4229 92.8184 52.0406 92.8184 52.8027C92.8184 53.5648 93.4361 54.1825 94.1982 54.1825Z" fill="black"/>
<path d="M94.1982 58.3222C94.9603 58.3222 95.578 57.7044 95.578 56.9423C95.578 56.1803 94.9603 55.5625 94.1982 55.5625C93.4361 55.5625 92.8184 56.1803 92.8184 56.9423C92.8184 57.7044 93.4361 58.3222 94.1982 58.3222Z" fill="black"/>
<path d="M94.1982 74.8808C94.9603 74.8808 95.578 74.263 95.578 73.5009C95.578 72.7389 94.9603 72.1211 94.1982 72.1211C93.4361 72.1211 92.8184 72.7389 92.8184 73.5009C92.8184 74.263 93.4361 74.8808 94.1982 74.8808Z" fill="black"/>
<path d="M94.1982 87.2987C94.9603 87.2987 95.578 86.681 95.578 85.9189C95.578 85.1568 94.9603 84.5391 94.1982 84.5391C93.4361 84.5391 92.8184 85.1568 92.8184 85.9189C92.8184 86.681 93.4361 87.2987 94.1982 87.2987Z" fill="black"/>
<path d="M94.1982 91.4384C94.9603 91.4384 95.578 90.8206 95.578 90.0586C95.578 89.2965 94.9603 88.6787 94.1982 88.6787C93.4361 88.6787 92.8184 89.2965 92.8184 90.0586C92.8184 90.8206 93.4361 91.4384 94.1982 91.4384Z" fill="black"/>
<path d="M94.1982 95.578C94.9603 95.578 95.578 94.9603 95.578 94.1982C95.578 93.4361 94.9603 92.8184 94.1982 92.8184C93.4361 92.8184 92.8184 93.4361 92.8184 94.1982C92.8184 94.9603 93.4361 95.578 94.1982 95.578Z" fill="black"/>
<path d="M94.1982 99.7196C94.9603 99.7196 95.578 99.1019 95.578 98.3398C95.578 97.5777 94.9603 96.96 94.1982 96.96C93.4361 96.96 92.8184 97.5777 92.8184 98.3398C92.8184 99.1019 93.4361 99.7196 94.1982 99.7196Z" fill="black"/>
<path d="M94.1982 103.855C94.9603 103.855 95.578 103.238 95.578 102.476C95.578 101.713 94.9603 101.096 94.1982 101.096C93.4361 101.096 92.8184 101.713 92.8184 102.476C92.8184 103.238 93.4361 103.855 94.1982 103.855Z" fill="black"/>
<path d="M94.1982 107.995C94.9603 107.995 95.578 107.377 95.578 106.615C95.578 105.853 94.9603 105.235 94.1982 105.235C93.4361 105.235 92.8184 105.853 92.8184 106.615C92.8184 107.377 93.4361 107.995 94.1982 107.995Z" fill="black"/>
<path d="M94.1982 124.555C94.9603 124.555 95.578 123.937 95.578 123.175C95.578 122.413 94.9603 121.795 94.1982 121.795C93.4361 121.795 92.8184 122.413 92.8184 123.175C92.8184 123.937 93.4361 124.555 94.1982 124.555Z" fill="black"/>
<path d="M98.3376 21.0683C99.0997 21.0683 99.7175 20.4505 99.7175 19.6884C99.7175 18.9264 99.0997 18.3086 98.3376 18.3086C97.5755 18.3086 96.9578 18.9264 96.9578 19.6884C96.9578 20.4505 97.5755 21.0683 98.3376 21.0683Z" fill="black"/>
<path d="M98.3376 25.204C99.0997 25.204 99.7175 24.5862 99.7175 23.8242C99.7175 23.0621 99.0997 22.4443 98.3376 22.4443C97.5755 22.4443 96.9578 23.0621 96.9578 23.8242C96.9578 24.5862 97.5755 25.204 98.3376 25.204Z" fill="black"/>
<path d="M98.3376 29.3456C99.0997 29.3456 99.7175 28.7278 99.7175 27.9658C99.7175 27.2037 99.0997 26.5859 98.3376 26.5859C97.5755 26.5859 96.9578 27.2037 96.9578 27.9658C96.9578 28.7278 97.5755 29.3456 98.3376 29.3456Z" fill="black"/>
<path d="M98.3376 33.4853C99.0997 33.4853 99.7175 32.8675 99.7175 32.1054C99.7175 31.3434 99.0997 30.7256 98.3376 30.7256C97.5755 30.7256 96.9578 31.3434 96.9578 32.1054C96.9578 32.8675 97.5755 33.4853 98.3376 33.4853Z" fill="black"/>
<path d="M98.3376 37.622C99.0997 37.622 99.7175 37.0042 99.7175 36.2421C99.7175 35.4801 99.0997 34.8623 98.3376 34.8623C97.5755 34.8623 96.9578 35.4801 96.9578 36.2421C96.9578 37.0042 97.5755 37.622 98.3376 37.622Z" fill="black"/>
<path d="M98.3376 41.7636C99.0997 41.7636 99.7175 41.1458 99.7175 40.3838C99.7175 39.6217 99.0997 39.0039 98.3376 39.0039C97.5755 39.0039 96.9578 39.6217 96.9578 40.3838C96.9578 41.1458 97.5755 41.7636 98.3376 41.7636Z" fill="black"/>
<path d="M98.3376 58.3222C99.0997 58.3222 99.7175 57.7044 99.7175 56.9423C99.7175 56.1803 99.0997 55.5625 98.3376 55.5625C97.5755 55.5625 96.9578 56.1803 96.9578 56.9423C96.9578 57.7044 97.5755 58.3222 98.3376 58.3222Z" fill="black"/>
<path d="M98.3376 62.4618C99.0997 62.4618 99.7175 61.8441 99.7175 61.082C99.7175 60.3199 99.0997 59.7021 98.3376 59.7021C97.5755 59.7021 96.9578 60.3199 96.9578 61.082C96.9578 61.8441 97.5755 62.4618 98.3376 62.4618Z" fill="black"/>
<path d="M98.3376 83.1591C99.0997 83.1591 99.7175 82.5413 99.7175 81.7793C99.7175 81.0172 99.0997 80.3994 98.3376 80.3994C97.5755 80.3994 96.9578 81.0172 96.9578 81.7793C96.9578 82.5413 97.5755 83.1591 98.3376 83.1591Z" fill="black"/>
<path d="M98.3376 87.2987C99.0997 87.2987 99.7175 86.681 99.7175 85.9189C99.7175 85.1568 99.0997 84.5391 98.3376 84.5391C97.5755 84.5391 96.9578 85.1568 96.9578 85.9189C96.9578 86.681 97.5755 87.2987 98.3376 87.2987Z" fill="black"/>
<path d="M98.3376 91.4384C99.0997 91.4384 99.7175 90.8206 99.7175 90.0586C99.7175 89.2965 99.0997 88.6787 98.3376 88.6787C97.5755 88.6787 96.9578 89.2965 96.9578 90.0586C96.9578 90.8206 97.5755 91.4384 98.3376 91.4384Z" fill="black"/>
<path d="M98.3376 95.578C99.0997 95.578 99.7175 94.9603 99.7175 94.1982C99.7175 93.4361 99.0997 92.8184 98.3376 92.8184C97.5755 92.8184 96.9578 93.4361 96.9578 94.1982C96.9578 94.9603 97.5755 95.578 98.3376 95.578Z" fill="black"/>
<path d="M98.3376 99.7196C99.0997 99.7196 99.7175 99.1019 99.7175 98.3398C99.7175 97.5777 99.0997 96.96 98.3376 96.96C97.5755 96.96 96.9578 97.5777 96.9578 98.3398C96.9578 99.1019 97.5755 99.7196 98.3376 99.7196Z" fill="black"/>
<path d="M98.3376 103.855C99.0997 103.855 99.7175 103.238 99.7175 102.476C99.7175 101.713 99.0997 101.096 98.3376 101.096C97.5755 101.096 96.9578 101.713 96.9578 102.476C96.9578 103.238 97.5755 103.855 98.3376 103.855Z" fill="black"/>
<path d="M98.3376 107.995C99.0997 107.995 99.7175 107.377 99.7175 106.615C99.7175 105.853 99.0997 105.235 98.3376 105.235C97.5755 105.235 96.9578 105.853 96.9578 106.615C96.9578 107.377 97.5755 107.995 98.3376 107.995Z" fill="black"/>
<path d="M98.3376 112.137C99.0997 112.137 99.7175 111.519 99.7175 110.757C99.7175 109.995 99.0997 109.377 98.3376 109.377C97.5755 109.377 96.9578 109.995 96.9578 110.757C96.9578 111.519 97.5755 112.137 98.3376 112.137Z" fill="black"/>
<path d="M98.3376 116.276C99.0997 116.276 99.7175 115.659 99.7175 114.896C99.7175 114.134 99.0997 113.517 98.3376 113.517C97.5755 113.517 96.9578 114.134 96.9578 114.896C96.9578 115.659 97.5755 116.276 98.3376 116.276Z" fill="black"/>
<path d="M98.3376 120.414C99.0997 120.414 99.7175 119.796 99.7175 119.034C99.7175 118.272 99.0997 117.654 98.3376 117.654C97.5755 117.654 96.9578 118.272 96.9578 119.034C96.9578 119.796 97.5755 120.414 98.3376 120.414Z" fill="black"/>
<path d="M98.3376 124.555C99.0997 124.555 99.7175 123.937 99.7175 123.175C99.7175 122.413 99.0997 121.795 98.3376 121.795C97.5755 121.795 96.9578 122.413 96.9578 123.175C96.9578 123.937 97.5755 124.555 98.3376 124.555Z" fill="black"/>
<path d="M98.3376 128.694C99.0997 128.694 99.7175 128.076 99.7175 127.314C99.7175 126.552 99.0997 125.935 98.3376 125.935C97.5755 125.935 96.9578 126.552 96.9578 127.314C96.9578 128.076 97.5755 128.694 98.3376 128.694Z" fill="black"/>
<path d="M102.477 50.0439C103.239 50.0439 103.857 49.4261 103.857 48.664C103.857 47.902 103.239 47.2842 102.477 47.2842C101.715 47.2842 101.097 47.902 101.097 48.664C101.097 49.4261 101.715 50.0439 102.477 50.0439Z" fill="black"/>
<path d="M102.477 58.3222C103.239 58.3222 103.857 57.7044 103.857 56.9423C103.857 56.1803 103.239 55.5625 102.477 55.5625C101.715 55.5625 101.097 56.1803 101.097 56.9423C101.097 57.7044 101.715 58.3222 102.477 58.3222Z" fill="black"/>
<path d="M102.477 66.6015C103.239 66.6015 103.857 65.9837 103.857 65.2216C103.857 64.4596 103.239 63.8418 102.477 63.8418C101.715 63.8418 101.097 64.4596 101.097 65.2216C101.097 65.9837 101.715 66.6015 102.477 66.6015Z" fill="black"/>
<path d="M102.477 74.8808C103.239 74.8808 103.857 74.263 103.857 73.5009C103.857 72.7389 103.239 72.1211 102.477 72.1211C101.715 72.1211 101.097 72.7389 101.097 73.5009C101.097 74.263 101.715 74.8808 102.477 74.8808Z" fill="black"/>
<path d="M102.477 95.578C103.239 95.578 103.857 94.9603 103.857 94.1982C103.857 93.4361 103.239 92.8184 102.477 92.8184C101.715 92.8184 101.097 93.4361 101.097 94.1982C101.097 94.9603 101.715 95.578 102.477 95.578Z" fill="black"/>
<path d="M102.477 99.7196C103.239 99.7196 103.857 99.1019 103.857 98.3398C103.857 97.5777 103.239 96.96 102.477 96.96C101.715 96.96 101.097 97.5777 101.097 98.3398C101.097 99.1019 101.715 99.7196 102.477 99.7196Z" fill="black"/>
<path d="M102.477 116.276C103.239 116.276 103.857 115.659 103.857 114.896C103.857 114.134 103.239 113.517 102.477 113.517C101.715 113.517 101.097 114.134 101.097 114.896C101.097 115.659 101.715 116.276 102.477 116.276Z" fill="black"/>
<path d="M102.477 120.414C103.239 120.414 103.857 119.796 103.857 119.034C103.857 118.272 103.239 117.654 102.477 117.654C101.715 117.654 101.097 118.272 101.097 119.034C101.097 119.796 101.715 120.414 102.477 120.414Z" fill="black"/>
<path d="M102.477 128.694C103.239 128.694 103.857 128.076 103.857 127.314C103.857 126.552 103.239 125.935 102.477 125.935C101.715 125.935 101.097 126.552 101.097 127.314C101.097 128.076 101.715 128.694 102.477 128.694Z" fill="black"/>
<path d="M102.477 132.834C103.239 132.834 103.857 132.216 103.857 131.454C103.857 130.692 103.239 130.074 102.477 130.074C101.715 130.074 101.097 130.692 101.097 131.454C101.097 132.216 101.715 132.834 102.477 132.834Z" fill="black"/>
<path d="M106.616 62.4618C107.378 62.4618 107.996 61.8441 107.996 61.082C107.996 60.3199 107.378 59.7021 106.616 59.7021C105.854 59.7021 105.236 60.3199 105.236 61.082C105.236 61.8441 105.854 62.4618 106.616 62.4618Z" fill="black"/>
<path d="M106.616 74.8808C107.378 74.8808 107.996 74.263 107.996 73.5009C107.996 72.7389 107.378 72.1211 106.616 72.1211C105.854 72.1211 105.236 72.7389 105.236 73.5009C105.236 74.263 105.854 74.8808 106.616 74.8808Z" fill="black"/>
<path d="M106.616 87.2987C107.378 87.2987 107.996 86.681 107.996 85.9189C107.996 85.1568 107.378 84.5391 106.616 84.5391C105.854 84.5391 105.236 85.1568 105.236 85.9189C105.236 86.681 105.854 87.2987 106.616 87.2987Z" fill="black"/>
<path d="M106.616 95.578C107.378 95.578 107.996 94.9603 107.996 94.1982C107.996 93.4361 107.378 92.8184 106.616 92.8184C105.854 92.8184 105.236 93.4361 105.236 94.1982C105.236 94.9603 105.854 95.578 106.616 95.578Z" fill="black"/>
<path d="M106.616 99.7196C107.378 99.7196 107.996 99.1019 107.996 98.3398C107.996 97.5777 107.378 96.96 106.616 96.96C105.854 96.96 105.236 97.5777 105.236 98.3398C105.236 99.1019 105.854 99.7196 106.616 99.7196Z" fill="black"/>
<path d="M106.616 107.995C107.378 107.995 107.996 107.377 107.996 106.615C107.996 105.853 107.378 105.235 106.616 105.235C105.854 105.235 105.236 105.853 105.236 106.615C105.236 107.377 105.854 107.995 106.616 107.995Z" fill="black"/>
<path d="M106.616 116.276C107.378 116.276 107.996 115.659 107.996 114.896C107.996 114.134 107.378 113.517 106.616 113.517C105.854 113.517 105.236 114.134 105.236 114.896C105.236 115.659 105.854 116.276 106.616 116.276Z" fill="black"/>
<path d="M106.616 124.555C107.378 124.555 107.996 123.937 107.996 123.175C107.996 122.413 107.378 121.795 106.616 121.795C105.854 121.795 105.236 122.413 105.236 123.175C105.236 123.937 105.854 124.555 106.616 124.555Z" fill="black"/>
<path d="M106.616 128.694C107.378 128.694 107.996 128.076 107.996 127.314C107.996 126.552 107.378 125.935 106.616 125.935C105.854 125.935 105.236 126.552 105.236 127.314C105.236 128.076 105.854 128.694 106.616 128.694Z" fill="black"/>
<path d="M110.756 50.0439C111.518 50.0439 112.136 49.4261 112.136 48.664C112.136 47.902 111.518 47.2842 110.756 47.2842C109.994 47.2842 109.376 47.902 109.376 48.664C109.376 49.4261 109.994 50.0439 110.756 50.0439Z" fill="black"/>
<path d="M110.756 54.1825C111.518 54.1825 112.136 53.5648 112.136 52.8027C112.136 52.0406 111.518 51.4229 110.756 51.4229C109.994 51.4229 109.376 52.0406 109.376 52.8027C109.376 53.5648 109.994 54.1825 110.756 54.1825Z" fill="black"/>
<path d="M110.756 66.6015C111.518 66.6015 112.136 65.9837 112.136 65.2216C112.136 64.4596 111.518 63.8418 110.756 63.8418C109.994 63.8418 109.376 64.4596 109.376 65.2216C109.376 65.9837 109.994 66.6015 110.756 66.6015Z" fill="black"/>
<path d="M110.756 70.7392C111.518 70.7392 112.136 70.1214 112.136 69.3593C112.136 68.5973 111.518 67.9795 110.756 67.9795C109.994 67.9795 109.376 68.5973 109.376 69.3593C109.376 70.1214 109.994 70.7392 110.756 70.7392Z" fill="black"/>
<path d="M110.756 79.0204C111.518 79.0204 112.136 78.4027 112.136 77.6406C112.136 76.8785 111.518 76.2607 110.756 76.2607C109.994 76.2607 109.376 76.8785 109.376 77.6406C109.376 78.4027 109.994 79.0204 110.756 79.0204Z" fill="black"/>
<path d="M110.756 83.1591C111.518 83.1591 112.136 82.5413 112.136 81.7793C112.136 81.0172 111.518 80.3994 110.756 80.3994C109.994 80.3994 109.376 81.0172 109.376 81.7793C109.376 82.5413 109.994 83.1591 110.756 83.1591Z" fill="black"/>
<path d="M110.756 91.4384C111.518 91.4384 112.136 90.8206 112.136 90.0586C112.136 89.2965 111.518 88.6787 110.756 88.6787C109.994 88.6787 109.376 89.2965 109.376 90.0586C109.376 90.8206 109.994 91.4384 110.756 91.4384Z" fill="black"/>
<path d="M110.756 99.7196C111.518 99.7196 112.136 99.1019 112.136 98.3398C112.136 97.5777 111.518 96.96 110.756 96.96C109.994 96.96 109.376 97.5777 109.376 98.3398C109.376 99.1019 109.994 99.7196 110.756 99.7196Z" fill="black"/>
<path d="M110.756 116.276C111.518 116.276 112.136 115.659 112.136 114.896C112.136 114.134 111.518 113.517 110.756 113.517C109.994 113.517 109.376 114.134 109.376 114.896C109.376 115.659 109.994 116.276 110.756 116.276Z" fill="black"/>
<path d="M114.895 54.1825C115.658 54.1825 116.275 53.5648 116.275 52.8027C116.275 52.0406 115.658 51.4229 114.895 51.4229C114.133 51.4229 113.516 52.0406 113.516 52.8027C113.516 53.5648 114.133 54.1825 114.895 54.1825Z" fill="black"/>
<path d="M114.895 62.4618C115.658 62.4618 116.275 61.8441 116.275 61.082C116.275 60.3199 115.658 59.7021 114.895 59.7021C114.133 59.7021 113.516 60.3199 113.516 61.082C113.516 61.8441 114.133 62.4618 114.895 62.4618Z" fill="black"/>
<path d="M114.895 66.6015C115.658 66.6015 116.275 65.9837 116.275 65.2216C116.275 64.4596 115.658 63.8418 114.895 63.8418C114.133 63.8418 113.516 64.4596 113.516 65.2216C113.516 65.9837 114.133 66.6015 114.895 66.6015Z" fill="black"/>
<path d="M114.895 70.7392C115.658 70.7392 116.275 70.1214 116.275 69.3593C116.275 68.5973 115.658 67.9795 114.895 67.9795C114.133 67.9795 113.516 68.5973 113.516 69.3593C113.516 70.1214 114.133 70.7392 114.895 70.7392Z" fill="black"/>
<path d="M114.895 74.8808C115.658 74.8808 116.275 74.263 116.275 73.5009C116.275 72.7389 115.658 72.1211 114.895 72.1211C114.133 72.1211 113.516 72.7389 113.516 73.5009C113.516 74.263 114.133 74.8808 114.895 74.8808Z" fill="black"/>
<path d="M114.895 79.0204C115.658 79.0204 116.275 78.4027 116.275 77.6406C116.275 76.8785 115.658 76.2607 114.895 76.2607C114.133 76.2607 113.516 76.8785 113.516 77.6406C113.516 78.4027 114.133 79.0204 114.895 79.0204Z" fill="black"/>
<path d="M114.895 91.4384C115.658 91.4384 116.275 90.8206 116.275 90.0586C116.275 89.2965 115.658 88.6787 114.895 88.6787C114.133 88.6787 113.516 89.2965 113.516 90.0586C113.516 90.8206 114.133 91.4384 114.895 91.4384Z" fill="black"/>
<path d="M114.895 99.7196C115.658 99.7196 116.275 99.1019 116.275 98.3398C116.275 97.5777 115.658 96.96 114.895 96.96C114.133 96.96 113.516 97.5777 113.516 98.3398C113.516 99.1019 114.133 99.7196 114.895 99.7196Z" fill="black"/>
<path d="M114.895 103.855C115.658 103.855 116.275 103.238 116.275 102.476C116.275 101.713 115.658 101.096 114.895 101.096C114.133 101.096 113.516 101.713 113.516 102.476C113.516 103.238 114.133 103.855 114.895 103.855Z" fill="black"/>
<path d="M114.895 107.995C115.658 107.995 116.275 107.377 116.275 106.615C116.275 105.853 115.658 105.235 114.895 105.235C114.133 105.235 113.516 105.853 113.516 106.615C113.516 107.377 114.133 107.995 114.895 107.995Z" fill="black"/>
<path d="M114.895 112.137C115.658 112.137 116.275 111.519 116.275 110.757C116.275 109.995 115.658 109.377 114.895 109.377C114.133 109.377 113.516 109.995 113.516 110.757C113.516 111.519 114.133 112.137 114.895 112.137Z" fill="black"/>
<path d="M114.895 116.276C115.658 116.276 116.275 115.659 116.275 114.896C116.275 114.134 115.658 113.517 114.895 113.517C114.133 113.517 113.516 114.134 113.516 114.896C113.516 115.659 114.133 116.276 114.895 116.276Z" fill="black"/>
<path d="M114.895 120.414C115.658 120.414 116.275 119.796 116.275 119.034C116.275 118.272 115.658 117.654 114.895 117.654C114.133 117.654 113.516 118.272 113.516 119.034C113.516 119.796 114.133 120.414 114.895 120.414Z" fill="black"/>
<path d="M114.895 124.555C115.658 124.555 116.275 123.937 116.275 123.175C116.275 122.413 115.658 121.795 114.895 121.795C114.133 121.795 113.516 122.413 113.516 123.175C113.516 123.937 114.133 124.555 114.895 124.555Z" fill="black"/>
<path d="M114.895 132.834C115.658 132.834 116.275 132.216 116.275 131.454C116.275 130.692 115.658 130.074 114.895 130.074C114.133 130.074 113.516 130.692 113.516 131.454C113.516 132.216 114.133 132.834 114.895 132.834Z" fill="black"/>
<path d="M119.035 50.0439C119.797 50.0439 120.415 49.4261 120.415 48.664C120.415 47.902 119.797 47.2842 119.035 47.2842C118.273 47.2842 117.655 47.902 117.655 48.664C117.655 49.4261 118.273 50.0439 119.035 50.0439Z" fill="black"/>
<path d="M119.035 54.1825C119.797 54.1825 120.415 53.5648 120.415 52.8027C120.415 52.0406 119.797 51.4229 119.035 51.4229C118.273 51.4229 117.655 52.0406 117.655 52.8027C117.655 53.5648 118.273 54.1825 119.035 54.1825Z" fill="black"/>
<path d="M119.035 66.6015C119.797 66.6015 120.415 65.9837 120.415 65.2216C120.415 64.4596 119.797 63.8418 119.035 63.8418C118.273 63.8418 117.655 64.4596 117.655 65.2216C117.655 65.9837 118.273 66.6015 119.035 66.6015Z" fill="black"/>
<path d="M119.035 83.1591C119.797 83.1591 120.415 82.5413 120.415 81.7793C120.415 81.0172 119.797 80.3994 119.035 80.3994C118.273 80.3994 117.655 81.0172 117.655 81.7793C117.655 82.5413 118.273 83.1591 119.035 83.1591Z" fill="black"/>
<path d="M119.035 87.2987C119.797 87.2987 120.415 86.681 120.415 85.9189C120.415 85.1568 119.797 84.5391 119.035 84.5391C118.273 84.5391 117.655 85.1568 117.655 85.9189C117.655 86.681 118.273 87.2987 119.035 87.2987Z" fill="black"/>
<path d="M119.035 91.4384C119.797 91.4384 120.415 90.8206 120.415 90.0586C120.415 89.2965 119.797 88.6787 119.035 88.6787C118.273 88.6787 117.655 89.2965 117.655 90.0586C117.655 90.8206 118.273 91.4384 119.035 91.4384Z" fill="black"/>
<path d="M119.035 95.578C119.797 95.578 120.415 94.9603 120.415 94.1982C120.415 93.4361 119.797 92.8184 119.035 92.8184C118.273 92.8184 117.655 93.4361 117.655 94.1982C117.655 94.9603 118.273 95.578 119.035 95.578Z" fill="black"/>
<path d="M119.035 116.276C119.797 116.276 120.415 115.659 120.415 114.896C120.415 114.134 119.797 113.517 119.035 113.517C118.273 113.517 117.655 114.134 117.655 114.896C117.655 115.659 118.273 116.276 119.035 116.276Z" fill="black"/>
<path d="M119.035 120.414C119.797 120.414 120.415 119.796 120.415 119.034C120.415 118.272 119.797 117.654 119.035 117.654C118.273 117.654 117.655 118.272 117.655 119.034C117.655 119.796 118.273 120.414 119.035 120.414Z" fill="black"/>
<path d="M119.035 128.694C119.797 128.694 120.415 128.076 120.415 127.314C120.415 126.552 119.797 125.935 119.035 125.935C118.273 125.935 117.655 126.552 117.655 127.314C117.655 128.076 118.273 128.694 119.035 128.694Z" fill="black"/>
<path d="M123.175 50.0439C123.937 50.0439 124.554 49.4261 124.554 48.664C124.554 47.902 123.937 47.2842 123.175 47.2842C122.412 47.2842 121.795 47.902 121.795 48.664C121.795 49.4261 122.412 50.0439 123.175 50.0439Z" fill="black"/>
<path d="M123.175 62.4618C123.937 62.4618 124.554 61.8441 124.554 61.082C124.554 60.3199 123.937 59.7021 123.175 59.7021C122.412 59.7021 121.795 60.3199 121.795 61.082C121.795 61.8441 122.412 62.4618 123.175 62.4618Z" fill="black"/>
<path d="M123.175 66.6015C123.937 66.6015 124.554 65.9837 124.554 65.2216C124.554 64.4596 123.937 63.8418 123.175 63.8418C122.412 63.8418 121.795 64.4596 121.795 65.2216C121.795 65.9837 122.412 66.6015 123.175 66.6015Z" fill="black"/>
<path d="M123.175 70.7392C123.937 70.7392 124.554 70.1214 124.554 69.3593C124.554 68.5973 123.937 67.9795 123.175 67.9795C122.412 67.9795 121.795 68.5973 121.795 69.3593C121.795 70.1214 122.412 70.7392 123.175 70.7392Z" fill="black"/>
<path d="M123.175 79.0204C123.937 79.0204 124.554 78.4027 124.554 77.6406C124.554 76.8785 123.937 76.2607 123.175 76.2607C122.412 76.2607 121.795 76.8785 121.795 77.6406C121.795 78.4027 122.412 79.0204 123.175 79.0204Z" fill="black"/>
<path d="M123.175 83.1591C123.937 83.1591 124.554 82.5413 124.554 81.7793C124.554 81.0172 123.937 80.3994 123.175 80.3994C122.412 80.3994 121.795 81.0172 121.795 81.7793C121.795 82.5413 122.412 83.1591 123.175 83.1591Z" fill="black"/>
<path d="M123.175 99.7196C123.937 99.7196 124.554 99.1019 124.554 98.3398C124.554 97.5777 123.937 96.96 123.175 96.96C122.412 96.96 121.795 97.5777 121.795 98.3398C121.795 99.1019 122.412 99.7196 123.175 99.7196Z" fill="black"/>
<path d="M123.175 112.137C123.937 112.137 124.554 111.519 124.554 110.757C124.554 109.995 123.937 109.377 123.175 109.377C122.412 109.377 121.795 109.995 121.795 110.757C121.795 111.519 122.412 112.137 123.175 112.137Z" fill="black"/>
<path d="M123.175 124.555C123.937 124.555 124.554 123.937 124.554 123.175C124.554 122.413 123.937 121.795 123.175 121.795C122.412 121.795 121.795 122.413 121.795 123.175C121.795 123.937 122.412 124.555 123.175 124.555Z" fill="black"/>
<path d="M123.175 132.834C123.937 132.834 124.554 132.216 124.554 131.454C124.554 130.692 123.937 130.074 123.175 130.074C122.412 130.074 121.795 130.692 121.795 131.454C121.795 132.216 122.412 132.834 123.175 132.834Z" fill="black"/>
<path d="M127.314 50.0439C128.076 50.0439 128.694 49.4261 128.694 48.664C128.694 47.902 128.076 47.2842 127.314 47.2842C126.552 47.2842 125.934 47.902 125.934 48.664C125.934 49.4261 126.552 50.0439 127.314 50.0439Z" fill="black"/>
<path d="M127.314 58.3222C128.076 58.3222 128.694 57.7044 128.694 56.9423C128.694 56.1803 128.076 55.5625 127.314 55.5625C126.552 55.5625 125.934 56.1803 125.934 56.9423C125.934 57.7044 126.552 58.3222 127.314 58.3222Z" fill="black"/>
<path d="M127.314 62.4618C128.076 62.4618 128.694 61.8441 128.694 61.082C128.694 60.3199 128.076 59.7021 127.314 59.7021C126.552 59.7021 125.934 60.3199 125.934 61.082C125.934 61.8441 126.552 62.4618 127.314 62.4618Z" fill="black"/>
<path d="M127.314 66.6015C128.076 66.6015 128.694 65.9837 128.694 65.2216C128.694 64.4596 128.076 63.8418 127.314 63.8418C126.552 63.8418 125.934 64.4596 125.934 65.2216C125.934 65.9837 126.552 66.6015 127.314 66.6015Z" fill="black"/>
<path d="M127.314 70.7392C128.076 70.7392 128.694 70.1214 128.694 69.3593C128.694 68.5973 128.076 67.9795 127.314 67.9795C126.552 67.9795 125.934 68.5973 125.934 69.3593C125.934 70.1214 126.552 70.7392 127.314 70.7392Z" fill="black"/>
<path d="M127.314 83.1591C128.076 83.1591 128.694 82.5413 128.694 81.7793C128.694 81.0172 128.076 80.3994 127.314 80.3994C126.552 80.3994 125.934 81.0172 125.934 81.7793C125.934 82.5413 126.552 83.1591 127.314 83.1591Z" fill="black"/>
<path d="M127.314 95.578C128.076 95.578 128.694 94.9603 128.694 94.1982C128.694 93.4361 128.076 92.8184 127.314 92.8184C126.552 92.8184 125.934 93.4361 125.934 94.1982C125.934 94.9603 126.552 95.578 127.314 95.578Z" fill="black"/>
<path d="M127.314 99.7196C128.076 99.7196 128.694 99.1019 128.694 98.3398C128.694 97.5777 128.076 96.96 127.314 96.96C126.552 96.96 125.934 97.5777 125.934 98.3398C125.934 99.1019 126.552 99.7196 127.314 99.7196Z" fill="black"/>
<path d="M127.314 116.276C128.076 116.276 128.694 115.659 128.694 114.896C128.694 114.134 128.076 113.517 127.314 113.517C126.552 113.517 125.934 114.134 125.934 114.896C125.934 115.659 126.552 116.276 127.314 116.276Z" fill="black"/>
<path d="M127.314 128.694C128.076 128.694 128.694 128.076 128.694 127.314C128.694 126.552 128.076 125.935 127.314 125.935C126.552 125.935 125.934 126.552 125.934 127.314C125.934 128.076 126.552 128.694 127.314 128.694Z" fill="black"/>
<path d="M131.454 62.4618C132.216 62.4618 132.833 61.8441 132.833 61.082C132.833 60.3199 132.216 59.7021 131.454 59.7021C130.692 59.7021 130.074 60.3199 130.074 61.082C130.074 61.8441 130.692 62.4618 131.454 62.4618Z" fill="black"/>
<path d="M131.454 70.7392C132.216 70.7392 132.833 70.1214 132.833 69.3593C132.833 68.5973 132.216 67.9795 131.454 67.9795C130.692 67.9795 130.074 68.5973 130.074 69.3593C130.074 70.1214 130.692 70.7392 131.454 70.7392Z" fill="black"/>
<path d="M131.454 74.8808C132.216 74.8808 132.833 74.263 132.833 73.5009C132.833 72.7389 132.216 72.1211 131.454 72.1211C130.692 72.1211 130.074 72.7389 130.074 73.5009C130.074 74.263 130.692 74.8808 131.454 74.8808Z" fill="black"/>
<path d="M131.454 79.0204C132.216 79.0204 132.833 78.4027 132.833 77.6406C132.833 76.8785 132.216 76.2607 131.454 76.2607C130.692 76.2607 130.074 76.8785 130.074 77.6406C130.074 78.4027 130.692 79.0204 131.454 79.0204Z" fill="black"/>
<path d="M131.454 83.1591C132.216 83.1591 132.833 82.5413 132.833 81.7793C132.833 81.0172 132.216 80.3994 131.454 80.3994C130.692 80.3994 130.074 81.0172 130.074 81.7793C130.074 82.5413 130.692 83.1591 131.454 83.1591Z" fill="black"/>
<path d="M131.454 91.4384C132.216 91.4384 132.833 90.8206 132.833 90.0586C132.833 89.2965 132.216 88.6787 131.454 88.6787C130.692 88.6787 130.074 89.2965 130.074 90.0586C130.074 90.8206 130.692 91.4384 131.454 91.4384Z" fill="black"/>
<path d="M131.454 95.578C132.216 95.578 132.833 94.9603 132.833 94.1982C132.833 93.4361 132.216 92.8184 131.454 92.8184C130.692 92.8184 130.074 93.4361 130.074 94.1982C130.074 94.9603 130.692 95.578 131.454 95.578Z" fill="black"/>
<path d="M131.454 99.7196C132.216 99.7196 132.833 99.1019 132.833 98.3398C132.833 97.5777 132.216 96.96 131.454 96.96C130.692 96.96 130.074 97.5777 130.074 98.3398C130.074 99.1019 130.692 99.7196 131.454 99.7196Z" fill="black"/>
<path d="M131.454 107.995C132.216 107.995 132.833 107.377 132.833 106.615C132.833 105.853 132.216 105.235 131.454 105.235C130.692 105.235 130.074 105.853 130.074 106.615C130.074 107.377 130.692 107.995 131.454 107.995Z" fill="black"/>
<path d="M131.454 112.137C132.216 112.137 132.833 111.519 132.833 110.757C132.833 109.995 132.216 109.377 131.454 109.377C130.692 109.377 130.074 109.995 130.074 110.757C130.074 111.519 130.692 112.137 131.454 112.137Z" fill="black"/>
<path d="M131.454 120.414C132.216 120.414 132.833 119.796 132.833 119.034C132.833 118.272 132.216 117.654 131.454 117.654C130.692 117.654 130.074 118.272 130.074 119.034C130.074 119.796 130.692 120.414 131.454 120.414Z" fill="black"/>
<path d="M131.454 128.694C132.216 128.694 132.833 128.076 132.833 127.314C132.833 126.552 132.216 125.935 131.454 125.935C130.692 125.935 130.074 126.552 130.074 127.314C130.074 128.076 130.692 128.694 131.454 128.694Z" fill="black"/>
<path d="M13.4766 23.8264V32.1055C13.4766 34.8501 14.5669 37.4824 16.5077 39.4232C18.4485 41.364 21.0807 42.4543 23.8254 42.4543H32.1045C34.8492 42.4543 37.4814 41.364 39.4222 39.4232C41.363 37.4824 42.4533 34.8501 42.4533 32.1055V23.8264C42.4533 21.0817 41.363 18.4494 39.4222 16.5086C37.4814 14.5679 34.8492 13.4775 32.1045 13.4775H23.8254C21.0807 13.4775 18.4485 14.5679 16.5077 16.5086C14.5669 18.4494 13.4766 21.0817 13.4766 23.8264ZM23.8254 17.6171H32.1045C33.7513 17.6171 35.3306 18.2713 36.4951 19.4357C37.6596 20.6002 38.3138 22.1796 38.3138 23.8264V32.1055C38.3138 33.7523 37.6596 35.3316 36.4951 36.4961C35.3306 37.6606 33.7513 38.3148 32.1045 38.3148H23.8254C22.1786 38.3148 20.5992 37.6606 19.4348 36.4961C18.2703 35.3316 17.6161 33.7523 17.6161 32.1055V23.8264C17.6161 22.1796 18.2703 20.6002 19.4348 19.4357C20.5992 18.2713 22.1786 17.6171 23.8254 17.6171Z" fill="black"/>
<path d="M27.9652 34.1754C31.3945 34.1754 34.1745 31.3954 34.1745 27.9661C34.1745 24.5368 31.3945 21.7568 27.9652 21.7568C24.5359 21.7568 21.7559 24.5368 21.7559 27.9661C21.7559 31.3954 24.5359 34.1754 27.9652 34.1754Z" fill="black"/>
<path d="M123.174 13.4775L114.895 13.4775C112.151 13.4775 109.518 14.5679 107.578 16.5086C105.637 18.4494 104.546 21.0817 104.546 23.8264V32.1055C104.546 34.8501 105.637 37.4824 107.578 39.4232C109.518 41.364 112.151 42.4543 114.895 42.4543H123.174C125.919 42.4543 128.551 41.364 130.492 39.4232C132.433 37.4824 133.523 34.8501 133.523 32.1055V23.8264C133.523 21.0817 132.433 18.4494 130.492 16.5086C128.551 14.5679 125.919 13.4775 123.174 13.4775ZM129.384 23.8264V32.1055C129.384 33.7523 128.729 35.3316 127.565 36.4961C126.401 37.6606 124.821 38.3148 123.174 38.3148H114.895C113.248 38.3148 111.669 37.6606 110.505 36.4961C109.34 35.3316 108.686 33.7523 108.686 32.1055V23.8264C108.686 22.1796 109.34 20.6002 110.505 19.4357C111.669 18.2713 113.248 17.6171 114.895 17.6171H123.174C124.821 17.6171 126.401 18.2713 127.565 19.4357C128.729 20.6002 129.384 22.1796 129.384 23.8264Z" fill="black"/>
<path d="M112.826 27.9661C112.826 31.3954 115.606 34.1754 119.035 34.1754C122.464 34.1754 125.244 31.3954 125.244 27.9661C125.244 24.5368 122.464 21.7568 119.035 21.7568C115.606 21.7568 112.826 24.5368 112.826 27.9661Z" fill="black"/>
<path d="M23.8254 133.522H32.1045C34.8492 133.522 37.4814 132.432 39.4222 130.491C41.363 128.551 42.4533 125.918 42.4533 123.174V114.895C42.4533 112.15 41.363 109.518 39.4222 107.577C37.4814 105.636 34.8492 104.546 32.1045 104.546H23.8254C21.0807 104.546 18.4485 105.636 16.5077 107.577C14.5669 109.518 13.4766 112.15 13.4766 114.895L13.4766 123.174C13.4766 125.918 14.5669 128.551 16.5077 130.491C18.4485 132.432 21.0807 133.522 23.8254 133.522ZM17.6161 123.174V114.895C17.6161 113.248 18.2703 111.668 19.4348 110.504C20.5992 109.339 22.1786 108.685 23.8254 108.685H32.1045C33.7513 108.685 35.3306 109.339 36.4951 110.504C37.6596 111.668 38.3138 113.248 38.3138 114.895V123.174C38.3138 124.82 37.6596 126.4 36.4951 127.564C35.3306 128.729 33.7513 129.383 32.1045 129.383H23.8254C22.1786 129.383 20.5992 128.729 19.4348 127.564C18.2703 126.4 17.6161 124.82 17.6161 123.174Z" fill="black"/>
<path d="M34.1745 119.032C34.1745 115.603 31.3945 112.823 27.9652 112.823C24.5359 112.823 21.7559 115.603 21.7559 119.032C21.7559 122.461 24.5359 125.241 27.9652 125.241C31.3945 125.241 34.1745 122.461 34.1745 119.032Z" fill="black"/>
</g>
<defs>
<clipPath id="clip0_4408_1904">
<rect width="124.186" height="124.186" fill="white" transform="translate(11.407 11.4072)"/>
</clipPath>
</defs>
</svg>
