<svg preserveAspectRatio="none" width="100%" height="100%" overflow="visible" style="display: block;" viewBox="0 0 18 18" fill="none" xmlns="http://www.w3.org/2000/svg">
<g id="Apple">
<path id="Union" d="M4.12402 12.9193C4.19849 12.9295 4.27158 12.9536 4.33789 12.9925C4.40435 13.0317 4.46272 13.0844 4.50781 13.1449C4.55244 13.2052 4.58695 13.2759 4.60547 13.3509C4.6236 13.4249 4.62719 13.5029 4.61523 13.5785C4.60364 13.6512 4.57624 13.7203 4.53906 13.7826L4.53809 13.7855C4.53689 13.7875 4.53633 13.7903 4.53516 13.7923L3.87109 14.9173C3.83211 14.9833 3.77991 15.0398 3.7207 15.0843C3.66122 15.1288 3.59188 15.163 3.51855 15.182C3.37088 15.2196 3.21351 15.1964 3.08301 15.1195C2.95206 15.0421 2.8565 14.9156 2.81836 14.7679C2.78057 14.6208 2.80217 14.463 2.87988 14.3314L3.54492 13.2064C3.5829 13.139 3.63495 13.0808 3.69434 13.0345L3.79102 12.974C3.82511 12.9571 3.86072 12.9429 3.89746 12.933C3.97069 12.9135 4.0483 12.909 4.12402 12.9193ZM10.4502 6.75134L10.5566 6.79138L10.6543 6.85193L10.7363 6.93103L10.8018 7.0238L12.959 10.6742H16.3125C16.427 10.6742 16.5382 10.7083 16.6318 10.7709L16.7188 10.8422C16.8261 10.9497 16.8874 11.0963 16.8877 11.2484C16.8877 11.4006 16.8265 11.5477 16.7188 11.6556C16.6112 11.7629 16.4651 11.8246 16.3125 11.8246H13.6396L15.1211 14.3314C15.1987 14.463 15.2194 14.6208 15.1816 14.7679C15.1435 14.9156 15.048 15.0421 14.917 15.1195C14.8191 15.1771 14.707 15.2043 14.5947 15.1986L14.4824 15.182C14.3352 15.144 14.2077 15.0486 14.1299 14.9173L9.81152 7.60974L9.80762 7.60193L9.80664 7.599L9.80566 7.59802L9.7666 7.51794L9.76172 7.5072C9.74821 7.47095 9.73932 7.43304 9.7334 7.39587C9.7214 7.32014 9.72502 7.24234 9.74316 7.16833L9.78027 7.06091C9.7963 7.02669 9.81613 6.99393 9.83887 6.96326C9.88408 6.90245 9.94157 6.85011 10.0078 6.81091C10.0745 6.77148 10.1481 6.74692 10.2227 6.73669C10.2605 6.73154 10.2988 6.73039 10.3369 6.73279L10.4502 6.75134ZM7.45508 1.68982C7.52864 1.70882 7.59854 1.74267 7.6582 1.78748C7.71734 1.83201 7.76964 1.8886 7.80859 1.95447L9 3.974L10.1924 1.95642C10.2701 1.82505 10.3976 1.72968 10.5449 1.69178L10.6572 1.67518C10.7695 1.66937 10.8816 1.6966 10.9795 1.75428C11.1105 1.83166 11.206 1.95799 11.2441 2.10584C11.282 2.25298 11.2614 2.41059 11.1836 2.54236L6.37695 10.6742H10.0176C10.1697 10.6743 10.3169 10.7344 10.4248 10.8422C10.532 10.9496 10.5925 11.0964 10.5928 11.2484C10.5928 11.4005 10.5325 11.5477 10.4248 11.6556C10.3169 11.7635 10.1698 11.8245 10.0176 11.8246H1.6875C1.535 11.8245 1.3897 11.7628 1.28223 11.6556C1.2016 11.5748 1.14608 11.472 1.12402 11.3617L1.11328 11.2484C1.11353 11.0962 1.17368 10.9497 1.28125 10.8422C1.38874 10.7351 1.53521 10.6743 1.6875 10.6742H5.04199L8.33203 5.10095L6.81738 2.53846C6.74018 2.40717 6.71809 2.24997 6.75586 2.10291C6.79389 1.95569 6.8891 1.82801 7.02051 1.75037C7.1517 1.67316 7.30824 1.65229 7.45508 1.68982Z" fill="var(--fill-0, #AFAFAF)"/>
</g>
</svg>
