<svg width="56" height="23" viewBox="0 0 56 23" fill="none" xmlns="http://www.w3.org/2000/svg">
<path d="M0 11.0137C0 4.93099 4.93099 0 11.0137 0L18.3561 0C20.3837 0 22.0274 1.64366 22.0274 3.67123V18.3561C22.0274 20.3837 20.3837 22.0274 18.3561 22.0274H11.0137C4.931 22.0274 0 17.0964 0 11.0137Z" fill="#F7931A"/>
<path d="M16.0698 9.93541C16.2429 8.77813 15.3618 8.15605 14.157 7.74106L14.5478 6.17342L13.5936 5.93564L13.2131 7.46201C12.9622 7.39944 12.7046 7.34048 12.4485 7.28203L12.8318 5.74559L11.8781 5.50781L11.487 7.07494C11.2794 7.02767 11.0755 6.98096 10.8777 6.93174L10.8788 6.92681L9.56285 6.59819L9.309 7.61741C9.309 7.61741 10.017 7.7797 10.0021 7.78969C10.3885 7.88613 10.4584 8.14194 10.4468 8.34469L10.0016 10.1306C10.0282 10.1374 10.0627 10.1471 10.1008 10.1624C10.0689 10.1545 10.0351 10.1459 9.9999 10.1375L9.37586 12.6393C9.32863 12.7567 9.20877 12.9329 8.9386 12.866C8.94816 12.8798 8.24502 12.6929 8.24502 12.6929L7.77124 13.7852L9.01307 14.0948C9.24409 14.1527 9.47048 14.2134 9.69343 14.2704L9.29854 15.856L10.2517 16.0938L10.6428 14.525C10.9032 14.5957 11.1559 14.6609 11.4032 14.7223L11.0135 16.2837L11.9678 16.5215L12.3627 14.9389C13.9899 15.2468 15.2134 15.1226 15.7285 13.6508C16.1434 12.4658 15.7078 11.7823 14.8517 11.3366C15.4752 11.1928 15.9449 10.7827 16.0701 9.93554L16.0698 9.93533L16.0698 9.93541ZM13.8895 12.9927C13.5946 14.1777 11.5994 13.5372 10.9526 13.3765L11.4766 11.2759C12.1234 11.4373 14.1977 11.7569 13.8895 12.9927H13.8895ZM14.1846 9.91824C13.9156 10.9961 12.255 10.4485 11.7163 10.3142L12.1914 8.40905C12.7301 8.54333 14.4649 8.79395 14.1847 9.91824H14.1846Z" fill="white"/>
<path d="M23.863 3.67123C23.863 1.64367 25.5067 0 27.5343 0L44.0274 0C50.1101 0 55.0411 4.93099 55.0411 11.0137C55.0411 17.0964 50.1101 22.0274 44.0274 22.0274H27.5343C25.5067 22.0274 23.863 20.3837 23.863 18.3561V3.67123Z" fill="#F7931A" fill-opacity="0.3"/>
<path d="M28.3822 15.0137V6.80848H31.8405C32.3545 6.80848 32.7987 6.90026 33.1732 7.08382C33.5476 7.26004 33.834 7.51703 34.0323 7.85478C34.2305 8.18519 34.3296 8.57801 34.3296 9.03324C34.3296 9.42974 34.2268 9.79319 34.0212 10.1236C33.823 10.4467 33.5109 10.7037 33.0851 10.8946V10.3439C33.4595 10.4907 33.7643 10.678 33.9992 10.9056C34.2342 11.1258 34.403 11.3755 34.5058 11.6545C34.616 11.9335 34.671 12.2272 34.671 12.5356C34.671 13.3066 34.4177 13.9123 33.9111 14.3529C33.4118 14.7934 32.7253 15.0137 31.8515 15.0137H28.3822ZM29.6818 13.8572H31.9507C32.3839 13.8572 32.729 13.7398 32.986 13.5048C33.2429 13.2625 33.3714 12.9431 33.3714 12.5466C33.3714 12.1428 33.2429 11.8234 32.986 11.5884C32.729 11.3461 32.3839 11.225 31.9507 11.225H29.6818V13.8572ZM29.6818 10.0795H31.8736C32.226 10.0795 32.5087 9.98042 32.7216 9.78217C32.9346 9.57658 33.041 9.30858 33.041 8.97817C33.041 8.64776 32.9346 8.39078 32.7216 8.20722C32.5087 8.02366 32.226 7.93187 31.8736 7.93187H29.6818V10.0795ZM37.1089 15.0137V7.96492H34.9282V6.80848H40.5452V7.96492H38.3975V15.0137H37.1089ZM44.8676 15.1458C44.2875 15.1458 43.7478 15.0394 43.2486 14.8264C42.7566 14.6135 42.3271 14.3198 41.96 13.9453C41.6002 13.5635 41.3175 13.1156 41.1119 12.6017C40.9063 12.0877 40.8035 11.5223 40.8035 10.9056C40.8035 10.2961 40.9026 9.73445 41.1009 9.22048C41.3065 8.69916 41.5928 8.25127 41.96 7.87681C42.3271 7.495 42.7566 7.2013 43.2486 6.99571C43.7405 6.78278 44.2802 6.67631 44.8676 6.67631C45.4476 6.67631 45.9653 6.77544 46.4205 6.97368C46.8831 7.17193 47.2722 7.43259 47.5879 7.75566C47.9037 8.07138 48.1313 8.41648 48.2708 8.79094L47.1033 9.34163C46.9271 8.90108 46.6444 8.54497 46.2553 8.2733C45.8735 7.99429 45.4109 7.85478 44.8676 7.85478C44.3242 7.85478 43.8433 7.98327 43.4248 8.24026C43.0063 8.49724 42.6795 8.85335 42.4446 9.30858C42.2169 9.76382 42.1031 10.2961 42.1031 10.9056C42.1031 11.515 42.2169 12.051 42.4446 12.5136C42.6795 12.9688 43.0063 13.3249 43.4248 13.5819C43.8433 13.8315 44.3242 13.9564 44.8676 13.9564C45.4109 13.9564 45.8735 13.8205 46.2553 13.5489C46.6444 13.2772 46.9271 12.9211 47.1033 12.4805L48.2708 13.0312C48.1313 13.3983 47.9037 13.7434 47.5879 14.0665C47.2722 14.3896 46.8831 14.6502 46.4205 14.8485C45.9653 15.0467 45.4476 15.1458 44.8676 15.1458Z" fill="white"/>
</svg>
