<svg width="56" height="56" viewBox="0 0 56 56" fill="none" xmlns="http://www.w3.org/2000/svg">
<g clip-path="url(#clip0_4313_21629)">
<g clip-path="url(#clip1_4313_21629)">
<path d="M-0.164795 -2.05273L64.2953 9.31333L55.7708 57.6584L-8.68934 46.2924L-0.164795 -2.05273Z" fill="#EE1C25"/>
<path d="M4.41643 17.1989L11.0691 4.91294L13.1184 18.7333L2.92231 8.71051L17.4257 11.2678L4.41643 17.1989Z" fill="#FFFF00"/>
<path d="M25.5457 7.72341L20.893 7.92616L24.4935 4.97231L23.3746 9.60497L21.6209 5.01979L25.5457 7.72341Z" fill="#FFFF00"/>
<path d="M29.0548 14.2474L24.6876 12.6298L29.1519 11.3036L26.3239 15.1397L26.4858 10.2333L29.0548 14.2474Z" fill="#FFFF00"/>
<path d="M26.9795 22.1665L23.6518 18.9084L28.2689 19.5182L24.1222 21.8674L26.2711 17.4536L26.9795 22.1665Z" fill="#FFFF00"/>
<path d="M20.3623 26.4121L18.5512 22.1215L22.5744 24.4673L17.8422 25.0326L21.5291 21.7913L20.3623 26.4121Z" fill="#FFFF00"/>
</g>
</g>
<defs>
<clipPath id="clip0_4313_21629">
<rect x="8.33521" width="48" height="48" rx="24" transform="rotate(10 8.33521 0)" fill="white"/>
</clipPath>
<clipPath id="clip1_4313_21629">
<rect width="65.4545" height="49.0909" fill="white" transform="translate(-0.164795 -2.05273) rotate(10)"/>
</clipPath>
</defs>
</svg>
