<svg width="115" height="20" viewBox="0 0 115 20" fill="none" xmlns="http://www.w3.org/2000/svg">
<g clip-path="url(#clip0_4226_5490)">
<path d="M103.023 14.8834C102.765 15.3879 102.542 15.9284 101.926 16.115C101.181 16.3403 100.43 16.3721 99.7142 16.0238C99.0355 15.692 98.7231 14.7797 98.9152 13.8813C99.0645 13.1901 99.4557 12.7091 100.175 12.6151C100.675 12.5484 101.181 12.5428 101.683 12.5985C102.219 12.6593 102.582 13.0132 102.815 13.4997L103.023 13.9144V14.8834Z" fill="#131313"/>
<path d="M74.3039 1.33789H77.5067C77.6449 1.8908 77.6629 15.1689 77.5288 15.9541C76.6842 16.0038 75.8258 15.9859 74.9108 15.9541C74.89 15.7122 74.8596 15.5145 74.8582 15.3182C74.8582 14.6547 74.8582 13.9926 74.8582 13.3291C74.8513 12.9863 74.8347 12.9863 74.3827 12.8453C74.3039 13.0762 74.2168 13.307 74.1491 13.5365C73.628 15.3445 72.037 16.2775 70.381 16.2513C69.3706 16.2347 68.4279 16.0771 67.564 15.5187C66.3227 14.7349 65.6675 13.5655 65.3578 12.1832C65.0778 10.9071 65.1254 9.58086 65.4961 8.32806C65.9356 6.78406 66.8783 5.66165 68.4486 5.14883C69.4791 4.80656 70.591 4.79593 71.6278 5.11842C72.4494 5.36782 73.1403 5.92967 73.552 6.68315C73.7807 7.10556 73.9869 7.53974 74.1698 7.98387C74.2638 8.19675 74.373 8.33912 74.7145 8.19675C74.6039 7.0771 74.2307 5.96713 74.2873 4.80326C74.3468 3.66564 74.3039 2.52665 74.3039 1.33789ZM71.4523 13.7936C72.6646 13.7936 73.5077 13.2407 73.9653 12.1431C74.1973 11.6092 74.3032 11.0289 74.275 10.4474C74.2467 9.86589 74.0849 9.29869 73.8022 8.78974C73.5733 8.3128 73.2025 7.91834 72.7406 7.66042C71.4965 6.99969 69.5807 7.18354 68.9753 9.01782C68.7035 9.78999 68.6322 10.6185 68.7679 11.4257C69.025 12.9324 69.9318 13.795 71.4523 13.7936Z" fill="#131313"/>
<path d="M96.7687 15.9459H94.0511C93.8051 15.1677 93.8023 14.3756 93.7332 13.6237C93.5106 13.4703 93.3475 13.4855 93.2259 13.6762C93.1388 13.8144 93.0766 13.9527 92.9964 14.0909C92.1878 15.5008 90.9562 16.2058 89.3334 16.2569C88.5123 16.2832 87.7507 16.145 87.0374 15.693C86.5196 15.3836 86.1424 14.8849 85.9855 14.3024C85.5708 12.7017 85.8984 11.2904 87.7051 10.5951C88.8316 10.1611 89.9955 9.9731 91.1746 9.8017C91.6962 9.72521 92.2136 9.63306 92.7269 9.52524C93.1582 9.42986 93.3434 9.08568 93.4858 8.70279C93.371 8.18029 93.2646 7.64258 92.684 7.43662C92.3444 7.29928 91.9819 7.22706 91.6155 7.22375C90.4254 7.27628 89.4039 7.63843 88.9768 8.90184C88.9629 8.94192 88.9229 8.97371 88.8455 9.07186L86.2025 8.31299C86.2444 7.80624 86.4535 7.32778 86.7969 6.95283C87.6125 5.95621 88.6879 5.39362 89.9485 5.14481C91.0979 4.90501 92.2856 4.91585 93.4305 5.1766C95.0353 5.55673 96.09 6.38609 96.3913 8.11947C96.5033 8.76499 96.5033 9.43125 96.5364 10.0892C96.5572 10.4776 96.5364 10.8661 96.5364 11.2545C96.5306 12.6436 96.6156 14.0316 96.7908 15.4096C96.7971 15.5887 96.7897 15.768 96.7687 15.9459ZM93.4318 10.8591C92.684 10.9808 91.9846 11.0706 91.2948 11.213C90.7361 11.3299 90.185 11.4804 89.6444 11.6636C89.4451 11.725 89.27 11.8471 89.1436 12.0129C89.0172 12.1787 88.9458 12.3799 88.9394 12.5884C88.8994 13.0832 88.9394 13.5712 89.4094 13.8614C89.8794 14.1517 90.4254 14.3162 90.9852 14.1255C91.4169 13.9822 91.8336 13.797 92.2293 13.5725C93.2812 12.9657 93.7207 12.0714 93.4318 10.8591Z" fill="#131313"/>
<path d="M49.3282 10.769C49.3995 11.6391 49.2448 12.5128 48.8789 13.3055C48.1698 14.826 46.9313 15.7106 45.332 16.07C43.9304 16.3893 42.508 16.3893 41.1327 15.8834C39.4739 15.2724 38.3681 14.1293 37.9382 12.4028C37.5873 11.0725 37.6271 9.66931 38.0529 8.36106C38.2391 7.76952 38.5483 7.22404 38.9602 6.76044C39.3721 6.29685 39.8774 5.92563 40.4429 5.67115C42.4776 4.74088 44.5897 4.6538 46.6175 5.67115C48.344 6.53508 49.2508 8.0072 49.3268 9.95621C49.3365 10.1801 49.3282 10.4096 49.3282 10.769ZM40.8963 10.5962C40.8831 10.8545 40.8831 11.1133 40.8963 11.3717C40.9668 12.0365 41.1465 12.6558 41.5874 13.1907C42.2067 13.9358 43.0098 14.1182 43.929 14.0699C44.7584 14.027 45.415 13.6856 45.7647 12.9516C46.4558 11.5154 46.4378 10.0391 45.773 8.59467C45.473 7.94223 44.9118 7.53861 44.2068 7.36444C43.9457 7.27839 43.6716 7.23863 43.3968 7.24695C42.5675 7.34509 41.7768 7.54552 41.3234 8.37074C40.9709 9.05622 40.8253 9.82946 40.9046 10.5962H40.8963Z" fill="#131313"/>
<path d="M54.714 15.667H51.6591C51.5002 15.1763 51.4449 6.42093 51.5969 5.31511C51.984 5.30405 52.3876 5.28746 52.7898 5.28193C53.1921 5.2764 53.6192 5.28193 54.0906 5.28193C54.2578 6.32555 54.056 7.35535 54.2081 8.35888C54.5412 8.46531 54.6366 8.29944 54.7112 8.04648C54.9245 7.31973 55.3111 6.65564 55.8378 6.1113C56.4791 5.42845 57.2822 5.12435 58.1544 5.03174C58.7934 4.97885 59.4367 5.01748 60.0648 5.14647C61.5535 5.42292 62.4036 6.42508 62.8293 7.8032C63.0446 8.50555 63.1477 9.23749 63.1348 9.972C63.1113 11.6169 63.1279 13.2632 63.1279 14.9081V15.5674C62.6109 15.7306 60.8955 15.7679 59.8588 15.6435C59.845 15.4195 59.8173 15.179 59.8173 14.9385C59.8173 13.3848 59.8408 11.8312 59.8007 10.2775C59.7867 9.7295 59.6836 9.18746 59.4953 8.67266C59.1303 7.68986 58.453 7.3042 57.3348 7.35258C56.4888 7.3899 55.8709 7.86264 55.4231 8.53996C55.0982 9.06539 54.8965 9.65749 54.8328 10.2719C54.6186 11.7925 54.7582 13.3254 54.7153 14.8528C54.7071 15.0989 54.714 15.3449 54.714 15.667Z" fill="#131313"/>
<path d="M33.5369 12.0624C34.1244 11.9988 35.6781 12.2974 36.3111 12.6056C36.0264 14.227 35.0671 15.2969 33.5272 15.8318C31.5856 16.5391 29.4456 16.4673 27.5558 15.6314C25.8943 14.9071 25.0345 13.5414 24.7304 11.7693C24.5941 10.8468 24.6473 9.90611 24.8866 9.00478C25.358 7.01707 27.0375 5.47859 29.2242 5.13441C30.2423 4.96891 31.2809 4.97498 32.297 5.15238C33.9226 5.43851 35.5578 6.61621 35.8909 8.3952C34.9786 8.78085 33.9917 8.93705 33.0241 9.28124C32.9425 9.09048 32.8762 8.94949 32.8209 8.80573C32.3869 7.67641 31.8284 7.38613 30.6176 7.28523C30.2736 7.27979 29.9316 7.33742 29.6085 7.45525C29.3669 7.52575 29.1426 7.64588 28.9501 7.80797C28.7575 7.97005 28.6009 8.17053 28.4902 8.39658C27.8143 9.68901 27.7701 11.0229 28.2207 12.372C28.5745 13.4364 29.4288 14.0307 30.5636 14.0598C30.8152 14.0598 31.0696 14.0722 31.3211 14.0598C32.1381 14.0128 32.7711 13.6658 33.1402 12.9139C33.2743 12.6291 33.407 12.3402 33.5369 12.0624Z" fill="#131313"/>
<path d="M10.4367 5.47679C10.416 6.16793 10.9316 6.7858 10.3911 7.39539C9.50094 7.66217 8.59417 7.90683 7.70536 8.20678C6.76508 8.50574 5.87543 8.9452 5.0666 9.51027C4.23723 10.1116 3.72303 10.8608 3.52674 11.8463C3.5143 11.9127 3.51016 11.9845 3.49219 12.0481C3.47304 12.1027 3.44898 12.1555 3.42031 12.2057C3.0458 11.8684 2.81767 11.3982 2.78446 10.8953C2.7347 10.4336 2.74023 9.96642 2.71673 9.39692C1.88736 10.4654 1.48236 11.556 1.82378 12.8733C0.607377 12.214 0.272866 10.8345 0.528587 9.66923C0.805042 8.42518 1.45057 7.4023 2.24952 6.43885C3.88061 4.46773 6.01899 3.25962 8.39789 2.46895C9.43321 2.122 10.5294 1.95475 11.6006 1.73358C12.1646 1.62024 12.524 1.85937 12.7064 2.40537C12.8557 2.83526 12.9829 3.27482 13.0976 3.71577C13.287 4.44837 13.0976 4.78565 12.3664 5.00405C11.9517 5.12707 11.5177 5.18236 11.0947 5.2805C10.8874 5.33027 10.6731 5.41044 10.4367 5.47679Z" fill="#131313"/>
<path d="M0.416049 12.1006C0.93089 12.9168 1.6387 13.5937 2.47702 14.0717C3.51274 14.6684 4.66321 15.0387 5.85254 15.1582C6.41855 15.2386 6.98935 15.2806 7.56103 15.284C9.86391 15.2093 12.1129 14.8292 14.2734 14.0012C14.5272 13.8965 14.7941 13.8272 15.0668 13.7953C15.6197 13.7413 15.9376 13.9915 16.0344 14.5334C16.1173 15.0034 16.1989 15.4747 16.2403 15.9502C16.2397 16.1827 16.2142 16.4143 16.1643 16.6414C15.3502 17.1735 14.4904 17.4486 13.6403 17.6988C12.6119 18.0029 11.5586 18.2918 10.497 18.3899C9.46166 18.4895 8.42358 18.6733 7.35093 18.4853C6.49945 18.336 5.62861 18.3056 4.79234 18.0347C2.91797 17.4362 1.64766 16.1921 0.930256 14.4035C0.644125 13.693 0.483781 12.9313 0.265381 12.1932L0.416049 12.1006Z" fill="#131313"/>
<path d="M80.0622 5.04688H83.1737C83.3119 5.56661 83.352 14.7394 83.2276 15.5812C82.7618 15.7194 81.0547 15.7595 80.094 15.6476C80.0829 15.6351 80.0663 15.6185 80.0525 15.6006C80.0387 15.5826 80.0166 15.566 80.0138 15.5466C79.9986 15.3891 79.9751 15.2301 79.9751 15.0725C79.9751 11.8104 79.9783 8.54818 79.9848 5.28601C80.0008 5.20345 80.0268 5.12315 80.0622 5.04688Z" fill="#131313"/>
<path d="M10.7825 13.7247C12.1012 13.3764 13.3507 13.0267 14.5271 12.4392C15.7034 11.8518 16.6461 10.9394 17.5335 10.0811C17.9772 10.1377 18.0408 10.4252 18.1182 10.6823C18.2896 11.2491 18.4251 11.8283 18.6089 12.3908C18.6627 12.5301 18.6763 12.6817 18.6482 12.8283C18.6201 12.9749 18.5514 13.1107 18.45 13.2202C17.897 13.8229 17.3607 14.4643 16.5148 14.8444C16.4512 14.6315 16.3765 14.449 16.342 14.2611C16.2038 13.6363 15.7241 13.2824 15.0979 13.4027C14.6722 13.4842 14.2534 13.61 13.8345 13.7247C12.9209 13.9805 12.0155 14.2334 11.0479 14.5085C10.9497 14.232 10.8751 14.0081 10.7825 13.7247Z" fill="#131313"/>
<path d="M81.6543 3.41511C81.2708 3.3791 80.8902 3.31675 80.5153 3.2285C79.9499 3.06124 79.7025 2.68803 79.6859 2.12268C79.6707 1.39007 79.8532 1.00718 80.4365 0.817809C81.3737 0.513708 82.3261 0.412802 83.2011 0.993358C83.9295 1.47163 83.8922 2.59403 83.1734 3.06677C82.7131 3.37917 82.1934 3.38331 81.6543 3.41511Z" fill="#131313"/>
<path d="M9.61302 14.7019C9.29095 14.771 9.03661 14.8664 8.78365 14.8719C7.88655 14.8926 6.98669 14.9175 6.09374 14.8719C5.13104 14.8287 4.18164 14.6303 3.28219 14.2844C3.13221 14.2304 2.99612 14.1437 2.88376 14.0306C2.7714 13.9176 2.68559 13.7809 2.63252 13.6306C2.38648 13.0072 2.19572 12.3866 2.29387 11.6318C2.57861 11.9428 2.81637 12.2041 3.05688 12.4612C3.91942 13.3804 5.05012 13.7232 6.24579 13.9223C6.53689 13.9818 6.83223 14.0184 7.12907 14.0315C7.56114 14.0371 7.99306 14.0117 8.4215 13.9554C9.0532 13.8697 9.2398 13.9513 9.61302 14.7019Z" fill="#131313"/>
</g>
<defs>
<clipPath id="clip0_4226_5490">
<rect width="102.757" height="18" fill="white" transform="translate(0.265625 0.572266)"/>
</clipPath>
</defs>
</svg>
