<svg preserveAspectRatio="none" width="100%" height="100%" overflow="visible" style="display: block;" viewBox="0 0 1180.08 436.659" fill="none" xmlns="http://www.w3.org/2000/svg">
<path id="Vector" d="M1087.43 436.547L710.488 417.468C630.203 413.419 549.764 413.419 469.479 417.468L92.5976 436.547C80.6618 437.149 68.7282 435.318 57.522 431.166C46.3159 427.014 36.0712 420.628 27.4105 412.395C18.7497 404.163 11.8538 394.256 7.14179 383.277C2.42975 372.297 -4.28381e-05 360.475 7.09031e-05 348.528V88.2419C-0.0150974 76.2854 2.4036 64.451 7.10895 53.4587C11.8143 42.4664 18.7079 32.5461 27.3702 24.3017C36.0325 16.0574 46.2824 9.66121 57.496 5.50258C68.7096 1.34395 80.6524 -0.490197 92.5976 0.111773L469.535 19.3018C549.82 23.3506 630.258 23.3506 710.544 19.3018L1087.43 0.111773C1099.36 -0.489472 1111.3 1.34111 1122.51 5.49239C1133.72 9.64366 1143.97 16.029 1152.63 24.2607C1161.3 32.4924 1168.2 42.3988 1172.92 53.3782C1177.63 64.3577 1180.07 76.1812 1180.08 88.1309V348.528C1180.07 360.478 1177.63 372.301 1172.92 383.281C1168.2 394.26 1161.3 404.166 1152.63 412.398C1143.97 420.63 1133.72 427.015 1122.51 431.166C1111.3 435.318 1099.36 437.148 1087.43 436.547V436.547Z" fill="var(--fill-0, #39CAE5)"/>
</svg>
