<svg preserveAspectRatio="none" width="1280" height="552.465" viewBox="0 0 1280 552.465" xmlns="http://www.w3.org/2000/svg"><path d="M1179.57 552.333L770.718 531.44C683.65 526.986 596.415 526.986 509.347 531.44L100.627 552.333C87.6648 553.018 74.7006 551.025 62.5239 546.475C50.3472 541.926 39.2128 534.916 29.7987 525.872C20.3846 516.828 12.8878 505.939 7.76483 493.868C2.6419 481.798 2.10657e-05 468.798 8.35394e-05 455.661V169.836C-0.0170832 156.685 2.61164 143.669 7.72605 131.579C12.8405 119.49 20.3335 108.581 29.7484 99.5178C39.1633 90.4545 50.3031 83.4265 62.4887 78.8618C74.6743 74.2972 87.6507 72.2916 100.627 72.9674L509.476 93.9262C596.544 98.3799 698.432 4.45369 785.5 0L982.534 0L1179.57 72.9674C1192.51 72.3106 1205.46 74.324 1217.61 78.8856C1229.76 83.4472 1240.88 90.4618 1250.27 99.5031C1259.66 108.544 1267.14 119.424 1272.25 131.481C1277.36 143.537 1280 156.52 1280 169.64V455.661C1280.01 468.784 1277.38 481.77 1272.27 493.832C1267.16 505.893 1259.68 516.776 1250.29 525.819C1240.89 534.862 1229.78 541.876 1217.62 546.434C1205.46 550.993 1192.52 553 1179.57 552.333Z" fill="#ffffff"/></svg>
