<svg preserveAspectRatio="none" width="100%" height="100%" overflow="visible" style="display: block;" viewBox="0 0 1280 479.625" fill="none" xmlns="http://www.w3.org/2000/svg">
<path id="Vector" d="M1179.57 479.494L770.718 458.601C683.65 454.147 596.415 454.147 509.347 458.601L100.627 479.494C87.6648 480.178 74.7006 478.185 62.5239 473.636C50.3472 469.087 39.2128 462.077 29.7987 453.033C20.3846 443.988 12.8878 433.1 7.76483 421.029C2.6419 408.958 2.10657e-05 395.959 8.35394e-05 382.822V96.9967C-0.0170832 83.8458 2.61164 70.8291 7.72605 58.7398C12.8405 46.6504 20.3335 35.7417 29.7484 26.6784C39.1633 17.6151 50.3031 10.587 62.4887 6.02235C74.6743 1.45773 87.6507 -0.547798 100.627 0.127987L509.476 21.0867C596.544 25.5404 683.779 25.5404 770.847 21.0867L1179.57 0.127987C1192.51 -0.528885 1205.46 1.48463 1217.61 6.04623C1229.76 10.6078 1240.88 17.6223 1250.27 26.6636C1259.66 35.705 1267.14 46.5844 1272.25 58.6412C1277.36 70.698 1280 83.6805 1280 96.8002V382.822C1280.01 395.944 1277.38 408.931 1272.27 420.992C1267.16 433.053 1259.68 443.936 1250.29 452.98C1240.89 462.023 1229.78 469.037 1217.62 473.595C1205.46 478.153 1192.52 480.16 1179.57 479.494Z" fill="var(--fill-0, #131313)"/>
</svg>
