<svg width="56" height="56" viewBox="0 0 56 56" fill="none" xmlns="http://www.w3.org/2000/svg">
<rect x="8.33521" width="48" height="48" rx="24" transform="rotate(10 8.33521 0)" fill="#003399"/>
<path d="M30.5014 12.4989L29.5705 13.7685L27.9976 13.7212L28.9164 14.9993L28.3849 16.4817L29.8838 16.002L31.1282 16.9655L31.1357 15.3907L32.4362 14.5039L30.942 14.0104L30.5014 12.4989ZM23.7139 13.283L22.7829 14.5528L21.2101 14.5055L22.1289 15.7836L21.5974 17.2661L23.0962 16.7861L24.3406 17.7498L24.3481 16.1749L25.6487 15.2881L24.1544 14.7947L23.7139 13.283ZM36.6114 15.5572L35.6804 16.827L34.1076 16.7796L35.0264 18.0578L34.4949 19.5403L35.9938 19.0603L37.238 20.0239L37.2456 18.4491L38.5461 17.5623L37.0519 17.0688L36.6114 15.5572ZM17.9605 17.3423L17.0295 18.612L15.4567 18.5646L16.3755 19.8427L15.844 21.3252L17.3428 20.8454L18.5872 21.8089L18.5947 20.2341L19.8953 19.3473L18.401 18.8538L17.9605 17.3423ZM40.6295 21.3395L39.6985 22.6091L38.1256 22.5618L39.0444 23.8399L38.513 25.3223L40.0119 24.8425L41.256 25.806L41.2636 24.2312L42.5642 23.3444L41.07 22.8509L40.6295 21.3393L40.6295 21.3395ZM15.0716 23.4922L14.1406 24.7619L12.5677 24.7145L13.4866 25.9927L12.9551 27.4751L14.4539 26.9953L15.6983 27.9587L15.7058 26.3839L17.0063 25.4972L15.5121 25.0037L15.0716 23.4921L15.0716 23.4922ZM41.2408 28.1066L40.3098 29.3762L38.737 29.3289L39.6558 30.607L39.1243 32.0894L40.6232 31.6096L41.8674 32.573L41.875 30.9982L43.1756 30.1114L41.6813 29.618L41.2409 28.1064L41.2408 28.1066ZM15.6648 30.3616L14.7339 31.6314L13.161 31.5841L14.0799 32.8621L13.5484 34.3446L15.0472 33.8646L16.2915 34.8283L16.2991 33.2535L17.5996 32.3668L16.1054 31.8732L15.6648 30.3616ZM38.3339 34.3588L37.4028 35.6285L35.83 35.5813L36.7488 36.8593L36.2173 38.3418L37.7163 37.8619L38.9604 38.8255L38.968 37.2507L40.2685 36.364L38.7743 35.8704L38.3339 34.3588ZM19.7045 36.0214L18.7736 37.2911L17.2007 37.2438L18.1195 38.522L17.5881 40.0044L19.0868 39.5244L20.3312 40.4881L20.3388 38.9133L21.6393 38.0265L20.1451 37.533L19.7045 36.0214ZM32.6021 38.2956L31.671 39.5653L30.0981 39.518L31.0169 40.7961L30.4854 42.2785L31.9844 41.7986L33.2285 42.7622L33.2361 41.1874L34.5367 40.3006L33.0425 39.8071L32.6021 38.2956ZM25.8366 38.8796L24.9056 40.1494L23.3327 40.102L24.2515 41.3802L23.7202 42.8625L23.7509 42.8527L23.7457 42.867L25.2305 42.3916L26.4632 43.3462L26.4633 43.3309L26.4888 43.3507L26.4965 41.7761L27.7969 40.8891L26.3027 40.3958L25.8622 38.8841L25.8448 38.9078L25.8365 38.8796L25.8366 38.8796Z" fill="#FFD900"/>
</svg>
