<svg width="111" height="24" viewBox="0 0 111 24" fill="none" xmlns="http://www.w3.org/2000/svg">
<path fill-rule="evenodd" clip-rule="evenodd" d="M19.9921 4.00799C19.9921 2.945 19.5698 1.92556 18.8181 1.17391C18.0665 0.422269 17.047 0 15.9841 0L3.98407 0C2.92939 0.00629674 1.9197 0.428059 1.17392 1.17384C0.428133 1.91962 0.00636949 2.92931 7.27349e-05 3.98399V19.9919C-0.00311302 20.5192 0.098382 21.0418 0.298674 21.5295C0.498967 22.0172 0.794073 22.4603 1.16689 22.8331C1.5397 23.2059 1.9828 23.501 2.47051 23.7013C2.95823 23.9016 3.48084 24.0031 4.00807 23.9999H16.0081C16.5333 23.9999 17.0533 23.8961 17.5382 23.6944C18.0232 23.4927 18.4634 23.1971 18.8337 22.8246C19.204 22.4521 19.4969 22.01 19.6957 21.5239C19.8945 21.0378 19.9952 20.5171 19.9921 19.9919V4.00799ZM15.9841 17.9999C16.5168 17.9937 17.026 17.7793 17.4027 17.4026C17.7794 17.0259 17.9938 16.5167 18.0001 15.984V3.98399C17.9877 3.45544 17.7705 2.95235 17.3945 2.58075C17.0184 2.20915 16.5127 1.99807 15.9841 1.99199H3.98407C3.4874 1.98968 3.00778 2.173 2.63927 2.50599C2.27076 2.83898 2.03994 3.29763 1.99207 3.79199C1.98042 3.86352 1.98042 3.93646 1.99207 4.00799V16.008C1.9983 16.5407 2.2127 17.0499 2.58943 17.4266C2.96616 17.8033 3.47533 18.0177 4.00807 18.0239L15.9841 17.9999ZM1.99207 19.4639C2.60703 19.8115 3.30169 19.9934 4.00807 19.9919H16.0081C16.7144 19.9934 17.4091 19.8115 18.0241 19.4639V19.9919C18.0177 20.5224 17.8026 21.0291 17.4252 21.402C17.0478 21.7749 16.5386 21.984 16.0081 21.9839H4.00807C3.47753 21.984 2.96835 21.7749 2.59096 21.402C2.21357 21.0291 1.99839 20.5224 1.99207 19.9919V19.4639ZM4.99207 5.99998C4.99207 5.73264 5.09827 5.47626 5.2873 5.28722C5.47634 5.09818 5.73273 4.99198 6.00007 4.99198H13.9921C14.2594 4.99198 14.5158 5.09818 14.7048 5.28722C14.8939 5.47626 15.0001 5.73264 15.0001 5.99998C15.0001 6.26732 14.8939 6.52371 14.7048 6.71274C14.5158 6.90178 14.2594 7.00798 13.9921 7.00798H6.00007C5.73273 7.00798 5.47634 6.90178 5.2873 6.71274C5.09827 6.52371 4.99207 6.26732 4.99207 5.99998ZM7.99207 8.99997C7.73109 8.99997 7.48081 9.10364 7.29627 9.28818C7.11174 9.47271 7.00807 9.723 7.00807 9.98397C7.00487 10.1152 7.02795 10.2457 7.07597 10.3679C7.12398 10.4901 7.19596 10.6014 7.28765 10.6953C7.37934 10.7893 7.4889 10.8639 7.60988 10.9148C7.73086 10.9658 7.8608 10.992 7.99207 10.992H12.0001C12.1313 10.992 12.2613 10.9658 12.3823 10.9148C12.5032 10.8639 12.6128 10.7893 12.7045 10.6953C12.7962 10.6014 12.8681 10.4901 12.9162 10.3679C12.9642 10.2457 12.9873 10.1152 12.9841 9.98397C12.9841 9.723 12.8804 9.47271 12.6959 9.28818C12.5113 9.10364 12.261 8.99997 12.0001 8.99997H7.99207Z" fill="white"/>
<path d="M105.038 20.0151C101.541 20.0151 99.5059 17.5353 99.5059 14.2499C99.5059 10.9646 101.541 8.48471 105.038 8.48471C108.514 8.48471 110.549 10.8586 110.549 14.5043V15.1401H102.346C102.579 16.7722 103.512 17.7896 105.038 17.7896C106.288 17.7896 107.115 17.2809 107.56 16.3695H110.358C109.637 18.5526 107.73 20.0151 105.038 20.0151ZM102.388 13.1478H107.666C107.391 11.6429 106.479 10.7103 105.038 10.7103C103.575 10.7103 102.664 11.6429 102.388 13.1478Z" fill="white"/>
<path d="M92.851 5.34781H95.7336V8.73911H98.489V10.9223H95.7336V16.5603C95.7336 17.2598 95.9879 17.5777 96.7721 17.5777H98.489V19.7609H96.0303C94.1863 19.7609 92.851 19.2098 92.851 16.857V10.9223H90.9434V8.73911H92.851V5.34781Z" fill="white"/>
<path d="M84.515 20.0151C80.9117 20.0151 78.877 17.5353 78.877 14.2499C78.877 10.9646 80.9117 8.48471 84.515 8.48471C88.1182 8.48471 90.153 10.9646 90.153 14.2499C90.153 17.5353 88.1182 20.0151 84.515 20.0151ZM81.8019 14.2499C81.8019 16.2847 82.6286 17.6412 84.515 17.6412C86.4014 17.6412 87.228 16.2847 87.228 14.2499C87.228 12.2151 86.4014 10.8586 84.515 10.8586C82.6286 10.8586 81.8019 12.2151 81.8019 14.2499Z" fill="white"/>
<path d="M74.4372 13.2325C74.4372 11.9608 73.9073 10.9858 72.4236 10.9858C71.4062 10.9858 70.0073 11.6429 70.0073 13.72H69.9861V19.7608H67.1035V8.73906H69.9013V10.2651C70.6644 9.24775 71.8089 8.48471 73.3986 8.48471C75.8785 8.48471 77.3198 10.138 77.3198 12.8934V19.7608H74.4372V13.2325Z" fill="white"/>
<path d="M60.0379 20.0151C56.5406 20.0151 54.5059 17.5353 54.5059 14.2499C54.5059 10.9646 56.5406 8.48471 60.0379 8.48471C63.514 8.48471 65.5487 10.8586 65.5487 14.5043V15.1401H57.3461C57.5792 16.7722 58.5118 17.7896 60.0379 17.7896C61.2884 17.7896 62.1151 17.2809 62.5602 16.3695H65.358C64.6373 18.5526 62.7297 20.0151 60.0379 20.0151ZM57.3885 13.1478H62.6662C62.3906 11.6429 61.4792 10.7103 60.0379 10.7103C58.5754 10.7103 57.664 11.6429 57.3885 13.1478Z" fill="white"/>
<path d="M49.669 19.7609V18.5315C48.7152 19.6337 47.5706 20.0152 46.1717 20.0152C43.7978 20.0152 42.1445 18.8283 42.1445 16.6663C42.1445 14.6951 43.501 13.7625 46.4472 13.2538L49.5842 12.7027V12.1304C49.5842 11.219 49.0755 10.6679 47.6766 10.6679C46.4896 10.6679 45.5782 11.1766 45.5358 12.2788H42.6744C42.7168 9.67173 44.9211 8.48477 47.6554 8.48477C50.8559 8.48477 52.4032 9.75651 52.4032 11.7913V19.7609H49.669ZM45.0907 16.5603C45.0907 17.3869 45.6842 17.938 46.8923 17.938C48.2488 17.938 49.5842 17.2386 49.5842 15.5005V14.5679L46.9983 15.0978C45.769 15.331 45.0907 15.6277 45.0907 16.5603Z" fill="white"/>
<path d="M28.9922 19.7609V4.5H35.4992C39.2508 4.5 41.1584 6.64076 41.1584 9.48098C41.1584 12.3212 39.2508 14.4832 35.4992 14.4832H32.0867V19.7609H28.9922ZM32.0867 11.8125H35.3297C37.1525 11.8125 38.0427 10.9647 38.0427 9.48098C38.0427 7.99728 37.1525 7.17065 35.3297 7.17065H32.0867V11.8125Z" fill="white"/>
</svg>
