<svg width="86" height="86" viewBox="0 0 86 86" fill="none" xmlns="http://www.w3.org/2000/svg">
<rect width="86" height="86" rx="11.1224" fill="#2E2E2E"/>
<g clip-path="url(#clip0_4408_1552)">
<path d="M9.09534 31.6985C9.54118 31.6985 9.9026 31.3371 9.9026 30.8912C9.9026 30.4454 9.54118 30.084 9.09534 30.084C8.64951 30.084 8.28809 30.4454 8.28809 30.8912C8.28809 31.3371 8.64951 31.6985 9.09534 31.6985Z" fill="white"/>
<path d="M9.09534 38.9641C9.54118 38.9641 9.9026 38.6027 9.9026 38.1569C9.9026 37.711 9.54118 37.3496 9.09534 37.3496C8.64951 37.3496 8.28809 37.711 8.28809 38.1569C8.28809 38.6027 8.64951 38.9641 9.09534 38.9641Z" fill="white"/>
<path d="M9.09534 48.6506C9.54118 48.6506 9.9026 48.2892 9.9026 47.8434C9.9026 47.3976 9.54118 47.0361 9.09534 47.0361C8.64951 47.0361 8.28809 47.3976 8.28809 47.8434C8.28809 48.2892 8.64951 48.6506 9.09534 48.6506Z" fill="white"/>
<path d="M9.09534 51.0725C9.54118 51.0725 9.9026 50.7111 9.9026 50.2653C9.9026 49.8194 9.54118 49.458 9.09534 49.458C8.64951 49.458 8.28809 49.8194 8.28809 50.2653C8.28809 50.7111 8.64951 51.0725 9.09534 51.0725Z" fill="white"/>
<path d="M9.09534 53.4944C9.54118 53.4944 9.9026 53.133 9.9026 52.6871C9.9026 52.2413 9.54118 51.8799 9.09534 51.8799C8.64951 51.8799 8.28809 52.2413 8.28809 52.6871C8.28809 53.133 8.64951 53.4944 9.09534 53.4944Z" fill="white"/>
<path d="M9.09534 55.9163C9.54118 55.9163 9.9026 55.5548 9.9026 55.109C9.9026 54.6632 9.54118 54.3018 9.09534 54.3018C8.64951 54.3018 8.28809 54.6632 8.28809 55.109C8.28809 55.5548 8.64951 55.9163 9.09534 55.9163Z" fill="white"/>
<path d="M9.09534 58.3391C9.54118 58.3391 9.9026 57.9777 9.9026 57.5319C9.9026 57.086 9.54118 56.7246 9.09534 56.7246C8.64951 56.7246 8.28809 57.086 8.28809 57.5319C8.28809 57.9777 8.64951 58.3391 9.09534 58.3391Z" fill="white"/>
<path d="M11.517 29.2776C11.9628 29.2776 12.3242 28.9162 12.3242 28.4703C12.3242 28.0245 11.9628 27.6631 11.517 27.6631C11.0711 27.6631 10.7097 28.0245 10.7097 28.4703C10.7097 28.9162 11.0711 29.2776 11.517 29.2776Z" fill="white"/>
<path d="M11.517 31.6985C11.9628 31.6985 12.3242 31.3371 12.3242 30.8912C12.3242 30.4454 11.9628 30.084 11.517 30.084C11.0711 30.084 10.7097 30.4454 10.7097 30.8912C10.7097 31.3371 11.0711 31.6985 11.517 31.6985Z" fill="white"/>
<path d="M11.517 36.5422C11.9628 36.5422 12.3242 36.1808 12.3242 35.735C12.3242 35.2892 11.9628 34.9277 11.517 34.9277C11.0711 34.9277 10.7097 35.2892 10.7097 35.735C10.7097 36.1808 11.0711 36.5422 11.517 36.5422Z" fill="white"/>
<path d="M11.517 46.2297C11.9628 46.2297 12.3242 45.8683 12.3242 45.4225C12.3242 44.9767 11.9628 44.6152 11.517 44.6152C11.0711 44.6152 10.7097 44.9767 10.7097 45.4225C10.7097 45.8683 11.0711 46.2297 11.517 46.2297Z" fill="white"/>
<path d="M11.517 48.6506C11.9628 48.6506 12.3242 48.2892 12.3242 47.8434C12.3242 47.3976 11.9628 47.0361 11.517 47.0361C11.0711 47.0361 10.7097 47.3976 10.7097 47.8434C10.7097 48.2892 11.0711 48.6506 11.517 48.6506Z" fill="white"/>
<path d="M11.517 51.0725C11.9628 51.0725 12.3242 50.7111 12.3242 50.2653C12.3242 49.8194 11.9628 49.458 11.517 49.458C11.0711 49.458 10.7097 49.8194 10.7097 50.2653C10.7097 50.7111 11.0711 51.0725 11.517 51.0725Z" fill="white"/>
<path d="M11.517 53.4944C11.9628 53.4944 12.3242 53.133 12.3242 52.6871C12.3242 52.2413 11.9628 51.8799 11.517 51.8799C11.0711 51.8799 10.7097 52.2413 10.7097 52.6871C10.7097 53.133 11.0711 53.4944 11.517 53.4944Z" fill="white"/>
<path d="M11.517 58.3391C11.9628 58.3391 12.3242 57.9777 12.3242 57.5319C12.3242 57.086 11.9628 56.7246 11.517 56.7246C11.0711 56.7246 10.7097 57.086 10.7097 57.5319C10.7097 57.9777 11.0711 58.3391 11.517 58.3391Z" fill="white"/>
<path d="M13.9391 29.2776C14.3849 29.2776 14.7463 28.9162 14.7463 28.4703C14.7463 28.0245 14.3849 27.6631 13.9391 27.6631C13.4933 27.6631 13.1318 28.0245 13.1318 28.4703C13.1318 28.9162 13.4933 29.2776 13.9391 29.2776Z" fill="white"/>
<path d="M13.9391 41.385C14.3849 41.385 14.7463 41.0236 14.7463 40.5778C14.7463 40.1319 14.3849 39.7705 13.9391 39.7705C13.4933 39.7705 13.1318 40.1319 13.1318 40.5778C13.1318 41.0236 13.4933 41.385 13.9391 41.385Z" fill="white"/>
<path d="M13.9391 43.8079C14.3849 43.8079 14.7463 43.4464 14.7463 43.0006C14.7463 42.5548 14.3849 42.1934 13.9391 42.1934C13.4933 42.1934 13.1318 42.5548 13.1318 43.0006C13.1318 43.4464 13.4933 43.8079 13.9391 43.8079Z" fill="white"/>
<path d="M13.9391 46.2297C14.3849 46.2297 14.7463 45.8683 14.7463 45.4225C14.7463 44.9767 14.3849 44.6152 13.9391 44.6152C13.4933 44.6152 13.1318 44.9767 13.1318 45.4225C13.1318 45.8683 13.4933 46.2297 13.9391 46.2297Z" fill="white"/>
<path d="M13.9391 48.6506C14.3849 48.6506 14.7463 48.2892 14.7463 47.8434C14.7463 47.3976 14.3849 47.0361 13.9391 47.0361C13.4933 47.0361 13.1318 47.3976 13.1318 47.8434C13.1318 48.2892 13.4933 48.6506 13.9391 48.6506Z" fill="white"/>
<path d="M13.9391 53.4944C14.3849 53.4944 14.7463 53.133 14.7463 52.6871C14.7463 52.2413 14.3849 51.8799 13.9391 51.8799C13.4933 51.8799 13.1318 52.2413 13.1318 52.6871C13.1318 53.133 13.4933 53.4944 13.9391 53.4944Z" fill="white"/>
<path d="M13.9391 58.3391C14.3849 58.3391 14.7463 57.9777 14.7463 57.5319C14.7463 57.086 14.3849 56.7246 13.9391 56.7246C13.4933 56.7246 13.1318 57.086 13.1318 57.5319C13.1318 57.9777 13.4933 58.3391 13.9391 58.3391Z" fill="white"/>
<path d="M16.3607 36.5422C16.8066 36.5422 17.168 36.1808 17.168 35.735C17.168 35.2892 16.8066 34.9277 16.3607 34.9277C15.9149 34.9277 15.5535 35.2892 15.5535 35.735C15.5535 36.1808 15.9149 36.5422 16.3607 36.5422Z" fill="white"/>
<path d="M16.3607 38.9641C16.8066 38.9641 17.168 38.6027 17.168 38.1569C17.168 37.711 16.8066 37.3496 16.3607 37.3496C15.9149 37.3496 15.5535 37.711 15.5535 38.1569C15.5535 38.6027 15.9149 38.9641 16.3607 38.9641Z" fill="white"/>
<path d="M16.3607 41.385C16.8066 41.385 17.168 41.0236 17.168 40.5778C17.168 40.1319 16.8066 39.7705 16.3607 39.7705C15.9149 39.7705 15.5535 40.1319 15.5535 40.5778C15.5535 41.0236 15.9149 41.385 16.3607 41.385Z" fill="white"/>
<path d="M16.3607 46.2297C16.8066 46.2297 17.168 45.8683 17.168 45.4225C17.168 44.9767 16.8066 44.6152 16.3607 44.6152C15.9149 44.6152 15.5535 44.9767 15.5535 45.4225C15.5535 45.8683 15.9149 46.2297 16.3607 46.2297Z" fill="white"/>
<path d="M16.3607 51.0725C16.8066 51.0725 17.168 50.7111 17.168 50.2653C17.168 49.8194 16.8066 49.458 16.3607 49.458C15.9149 49.458 15.5535 49.8194 15.5535 50.2653C15.5535 50.7111 15.9149 51.0725 16.3607 51.0725Z" fill="white"/>
<path d="M18.7824 31.6985C19.2282 31.6985 19.5896 31.3371 19.5896 30.8912C19.5896 30.4454 19.2282 30.084 18.7824 30.084C18.3365 30.084 17.9751 30.4454 17.9751 30.8912C17.9751 31.3371 18.3365 31.6985 18.7824 31.6985Z" fill="white"/>
<path d="M18.7824 36.5422C19.2282 36.5422 19.5896 36.1808 19.5896 35.735C19.5896 35.2892 19.2282 34.9277 18.7824 34.9277C18.3365 34.9277 17.9751 35.2892 17.9751 35.735C17.9751 36.1808 18.3365 36.5422 18.7824 36.5422Z" fill="white"/>
<path d="M18.7824 38.9641C19.2282 38.9641 19.5896 38.6027 19.5896 38.1569C19.5896 37.711 19.2282 37.3496 18.7824 37.3496C18.3365 37.3496 17.9751 37.711 17.9751 38.1569C17.9751 38.6027 18.3365 38.9641 18.7824 38.9641Z" fill="white"/>
<path d="M18.7824 46.2297C19.2282 46.2297 19.5896 45.8683 19.5896 45.4225C19.5896 44.9767 19.2282 44.6152 18.7824 44.6152C18.3365 44.6152 17.9751 44.9767 17.9751 45.4225C17.9751 45.8683 18.3365 46.2297 18.7824 46.2297Z" fill="white"/>
<path d="M18.7824 55.9163C19.2282 55.9163 19.5896 55.5548 19.5896 55.109C19.5896 54.6632 19.2282 54.3018 18.7824 54.3018C18.3365 54.3018 17.9751 54.6632 17.9751 55.109C17.9751 55.5548 18.3365 55.9163 18.7824 55.9163Z" fill="white"/>
<path d="M21.2042 31.6985C21.6501 31.6985 22.0115 31.3371 22.0115 30.8912C22.0115 30.4454 21.6501 30.084 21.2042 30.084C20.7584 30.084 20.397 30.4454 20.397 30.8912C20.397 31.3371 20.7584 31.6985 21.2042 31.6985Z" fill="white"/>
<path d="M21.2042 36.5422C21.6501 36.5422 22.0115 36.1808 22.0115 35.735C22.0115 35.2892 21.6501 34.9277 21.2042 34.9277C20.7584 34.9277 20.397 35.2892 20.397 35.735C20.397 36.1808 20.7584 36.5422 21.2042 36.5422Z" fill="white"/>
<path d="M21.2042 38.9641C21.6501 38.9641 22.0115 38.6027 22.0115 38.1569C22.0115 37.711 21.6501 37.3496 21.2042 37.3496C20.7584 37.3496 20.397 37.711 20.397 38.1569C20.397 38.6027 20.7584 38.9641 21.2042 38.9641Z" fill="white"/>
<path d="M21.2042 43.8079C21.6501 43.8079 22.0115 43.4464 22.0115 43.0006C22.0115 42.5548 21.6501 42.1934 21.2042 42.1934C20.7584 42.1934 20.397 42.5548 20.397 43.0006C20.397 43.4464 20.7584 43.8079 21.2042 43.8079Z" fill="white"/>
<path d="M21.2042 48.6506C21.6501 48.6506 22.0115 48.2892 22.0115 47.8434C22.0115 47.3976 21.6501 47.0361 21.2042 47.0361C20.7584 47.0361 20.397 47.3976 20.397 47.8434C20.397 48.2892 20.7584 48.6506 21.2042 48.6506Z" fill="white"/>
<path d="M21.2042 53.4944C21.6501 53.4944 22.0115 53.133 22.0115 52.6871C22.0115 52.2413 21.6501 51.8799 21.2042 51.8799C20.7584 51.8799 20.397 52.2413 20.397 52.6871C20.397 53.133 20.7584 53.4944 21.2042 53.4944Z" fill="white"/>
<path d="M21.2042 55.9163C21.6501 55.9163 22.0115 55.5548 22.0115 55.109C22.0115 54.6632 21.6501 54.3018 21.2042 54.3018C20.7584 54.3018 20.397 54.6632 20.397 55.109C20.397 55.5548 20.7584 55.9163 21.2042 55.9163Z" fill="white"/>
<path d="M23.6259 29.2776C24.0717 29.2776 24.4331 28.9162 24.4331 28.4703C24.4331 28.0245 24.0717 27.6631 23.6259 27.6631C23.18 27.6631 22.8186 28.0245 22.8186 28.4703C22.8186 28.9162 23.18 29.2776 23.6259 29.2776Z" fill="white"/>
<path d="M23.6259 34.1204C24.0717 34.1204 24.4331 33.759 24.4331 33.3131C24.4331 32.8673 24.0717 32.5059 23.6259 32.5059C23.18 32.5059 22.8186 32.8673 22.8186 33.3131C22.8186 33.759 23.18 34.1204 23.6259 34.1204Z" fill="white"/>
<path d="M23.6259 38.9641C24.0717 38.9641 24.4331 38.6027 24.4331 38.1569C24.4331 37.711 24.0717 37.3496 23.6259 37.3496C23.18 37.3496 22.8186 37.711 22.8186 38.1569C22.8186 38.6027 23.18 38.9641 23.6259 38.9641Z" fill="white"/>
<path d="M23.6259 43.8079C24.0717 43.8079 24.4331 43.4464 24.4331 43.0006C24.4331 42.5548 24.0717 42.1934 23.6259 42.1934C23.18 42.1934 22.8186 42.5548 22.8186 43.0006C22.8186 43.4464 23.18 43.8079 23.6259 43.8079Z" fill="white"/>
<path d="M23.6259 48.6506C24.0717 48.6506 24.4331 48.2892 24.4331 47.8434C24.4331 47.3976 24.0717 47.0361 23.6259 47.0361C23.18 47.0361 22.8186 47.3976 22.8186 47.8434C22.8186 48.2892 23.18 48.6506 23.6259 48.6506Z" fill="white"/>
<path d="M23.6259 53.4944C24.0717 53.4944 24.4331 53.133 24.4331 52.6871C24.4331 52.2413 24.0717 51.8799 23.6259 51.8799C23.18 51.8799 22.8186 52.2413 22.8186 52.6871C22.8186 53.133 23.18 53.4944 23.6259 53.4944Z" fill="white"/>
<path d="M23.6259 58.3391C24.0717 58.3391 24.4331 57.9777 24.4331 57.5319C24.4331 57.086 24.0717 56.7246 23.6259 56.7246C23.18 56.7246 22.8186 57.086 22.8186 57.5319C22.8186 57.9777 23.18 58.3391 23.6259 58.3391Z" fill="white"/>
<path d="M26.048 31.6985C26.4938 31.6985 26.8552 31.3371 26.8552 30.8912C26.8552 30.4454 26.4938 30.084 26.048 30.084C25.6021 30.084 25.2407 30.4454 25.2407 30.8912C25.2407 31.3371 25.6021 31.6985 26.048 31.6985Z" fill="white"/>
<path d="M26.048 34.1204C26.4938 34.1204 26.8552 33.759 26.8552 33.3131C26.8552 32.8673 26.4938 32.5059 26.048 32.5059C25.6021 32.5059 25.2407 32.8673 25.2407 33.3131C25.2407 33.759 25.6021 34.1204 26.048 34.1204Z" fill="white"/>
<path d="M26.048 36.5422C26.4938 36.5422 26.8552 36.1808 26.8552 35.735C26.8552 35.2892 26.4938 34.9277 26.048 34.9277C25.6021 34.9277 25.2407 35.2892 25.2407 35.735C25.2407 36.1808 25.6021 36.5422 26.048 36.5422Z" fill="white"/>
<path d="M26.048 43.8079C26.4938 43.8079 26.8552 43.4464 26.8552 43.0006C26.8552 42.5548 26.4938 42.1934 26.048 42.1934C25.6021 42.1934 25.2407 42.5548 25.2407 43.0006C25.2407 43.4464 25.6021 43.8079 26.048 43.8079Z" fill="white"/>
<path d="M26.048 46.2297C26.4938 46.2297 26.8552 45.8683 26.8552 45.4225C26.8552 44.9767 26.4938 44.6152 26.048 44.6152C25.6021 44.6152 25.2407 44.9767 25.2407 45.4225C25.2407 45.8683 25.6021 46.2297 26.048 46.2297Z" fill="white"/>
<path d="M26.048 51.0725C26.4938 51.0725 26.8552 50.7111 26.8552 50.2653C26.8552 49.8194 26.4938 49.458 26.048 49.458C25.6021 49.458 25.2407 49.8194 25.2407 50.2653C25.2407 50.7111 25.6021 51.0725 26.048 51.0725Z" fill="white"/>
<path d="M26.048 53.4944C26.4938 53.4944 26.8552 53.133 26.8552 52.6871C26.8552 52.2413 26.4938 51.8799 26.048 51.8799C25.6021 51.8799 25.2407 52.2413 25.2407 52.6871C25.2407 53.133 25.6021 53.4944 26.048 53.4944Z" fill="white"/>
<path d="M26.048 55.9163C26.4938 55.9163 26.8552 55.5548 26.8552 55.109C26.8552 54.6632 26.4938 54.3018 26.048 54.3018C25.6021 54.3018 25.2407 54.6632 25.2407 55.109C25.2407 55.5548 25.6021 55.9163 26.048 55.9163Z" fill="white"/>
<path d="M28.4696 12.3255C28.9154 12.3255 29.2769 11.964 29.2769 11.5182C29.2769 11.0724 28.9154 10.7109 28.4696 10.7109C28.0238 10.7109 27.6624 11.0724 27.6624 11.5182C27.6624 11.964 28.0238 12.3255 28.4696 12.3255Z" fill="white"/>
<path d="M28.4696 14.7454C28.9154 14.7454 29.2769 14.384 29.2769 13.9381C29.2769 13.4923 28.9154 13.1309 28.4696 13.1309C28.0238 13.1309 27.6624 13.4923 27.6624 13.9381C27.6624 14.384 28.0238 14.7454 28.4696 14.7454Z" fill="white"/>
<path d="M28.4696 17.1682C28.9154 17.1682 29.2769 16.8068 29.2769 16.361C29.2769 15.9151 28.9154 15.5537 28.4696 15.5537C28.0238 15.5537 27.6624 15.9151 27.6624 16.361C27.6624 16.8068 28.0238 17.1682 28.4696 17.1682Z" fill="white"/>
<path d="M28.4696 22.01C28.9154 22.01 29.2769 21.6486 29.2769 21.2028C29.2769 20.7569 28.9154 20.3955 28.4696 20.3955C28.0238 20.3955 27.6624 20.7569 27.6624 21.2028C27.6624 21.6486 28.0238 22.01 28.4696 22.01Z" fill="white"/>
<path d="M28.4696 24.4329C28.9154 24.4329 29.2769 24.0715 29.2769 23.6256C29.2769 23.1798 28.9154 22.8184 28.4696 22.8184C28.0238 22.8184 27.6624 23.1798 27.6624 23.6256C27.6624 24.0715 28.0238 24.4329 28.4696 24.4329Z" fill="white"/>
<path d="M28.4696 31.6985C28.9154 31.6985 29.2769 31.3371 29.2769 30.8912C29.2769 30.4454 28.9154 30.084 28.4696 30.084C28.0238 30.084 27.6624 30.4454 27.6624 30.8912C27.6624 31.3371 28.0238 31.6985 28.4696 31.6985Z" fill="white"/>
<path d="M28.4696 38.9641C28.9154 38.9641 29.2769 38.6027 29.2769 38.1569C29.2769 37.711 28.9154 37.3496 28.4696 37.3496C28.0238 37.3496 27.6624 37.711 27.6624 38.1569C27.6624 38.6027 28.0238 38.9641 28.4696 38.9641Z" fill="white"/>
<path d="M28.4696 41.385C28.9154 41.385 29.2769 41.0236 29.2769 40.5778C29.2769 40.1319 28.9154 39.7705 28.4696 39.7705C28.0238 39.7705 27.6624 40.1319 27.6624 40.5778C27.6624 41.0236 28.0238 41.385 28.4696 41.385Z" fill="white"/>
<path d="M28.4696 48.6506C28.9154 48.6506 29.2769 48.2892 29.2769 47.8434C29.2769 47.3976 28.9154 47.0361 28.4696 47.0361C28.0238 47.0361 27.6624 47.3976 27.6624 47.8434C27.6624 48.2892 28.0238 48.6506 28.4696 48.6506Z" fill="white"/>
<path d="M28.4696 72.8684C28.9154 72.8684 29.2769 72.507 29.2769 72.0612C29.2769 71.6153 28.9154 71.2539 28.4696 71.2539C28.0238 71.2539 27.6624 71.6153 27.6624 72.0612C27.6624 72.507 28.0238 72.8684 28.4696 72.8684Z" fill="white"/>
<path d="M28.4696 75.2903C28.9154 75.2903 29.2769 74.9289 29.2769 74.483C29.2769 74.0372 28.9154 73.6758 28.4696 73.6758C28.0238 73.6758 27.6624 74.0372 27.6624 74.483C27.6624 74.9289 28.0238 75.2903 28.4696 75.2903Z" fill="white"/>
<path d="M30.8912 14.7454C31.3371 14.7454 31.6985 14.384 31.6985 13.9381C31.6985 13.4923 31.3371 13.1309 30.8912 13.1309C30.4454 13.1309 30.084 13.4923 30.084 13.9381C30.084 14.384 30.4454 14.7454 30.8912 14.7454Z" fill="white"/>
<path d="M30.8912 17.1682C31.3371 17.1682 31.6985 16.8068 31.6985 16.361C31.6985 15.9151 31.3371 15.5537 30.8912 15.5537C30.4454 15.5537 30.084 15.9151 30.084 16.361C30.084 16.8068 30.4454 17.1682 30.8912 17.1682Z" fill="white"/>
<path d="M30.8912 19.5901C31.3371 19.5901 31.6985 19.2287 31.6985 18.7828C31.6985 18.337 31.3371 17.9756 30.8912 17.9756C30.4454 17.9756 30.084 18.337 30.084 18.7828C30.084 19.2287 30.4454 19.5901 30.8912 19.5901Z" fill="white"/>
<path d="M30.8912 22.01C31.3371 22.01 31.6985 21.6486 31.6985 21.2028C31.6985 20.7569 31.3371 20.3955 30.8912 20.3955C30.4454 20.3955 30.084 20.7569 30.084 21.2028C30.084 21.6486 30.4454 22.01 30.8912 22.01Z" fill="white"/>
<path d="M30.8912 29.2776C31.3371 29.2776 31.6985 28.9162 31.6985 28.4703C31.6985 28.0245 31.3371 27.6631 30.8912 27.6631C30.4454 27.6631 30.084 28.0245 30.084 28.4703C30.084 28.9162 30.4454 29.2776 30.8912 29.2776Z" fill="white"/>
<path d="M30.8912 41.385C31.3371 41.385 31.6985 41.0236 31.6985 40.5778C31.6985 40.1319 31.3371 39.7705 30.8912 39.7705C30.4454 39.7705 30.084 40.1319 30.084 40.5778C30.084 41.0236 30.4454 41.385 30.8912 41.385Z" fill="white"/>
<path d="M30.8912 46.2297C31.3371 46.2297 31.6985 45.8683 31.6985 45.4225C31.6985 44.9767 31.3371 44.6152 30.8912 44.6152C30.4454 44.6152 30.084 44.9767 30.084 45.4225C30.084 45.8683 30.4454 46.2297 30.8912 46.2297Z" fill="white"/>
<path d="M30.8912 48.6506C31.3371 48.6506 31.6985 48.2892 31.6985 47.8434C31.6985 47.3976 31.3371 47.0361 30.8912 47.0361C30.4454 47.0361 30.084 47.3976 30.084 47.8434C30.084 48.2892 30.4454 48.6506 30.8912 48.6506Z" fill="white"/>
<path d="M30.8912 53.4944C31.3371 53.4944 31.6985 53.133 31.6985 52.6871C31.6985 52.2413 31.3371 51.8799 30.8912 51.8799C30.4454 51.8799 30.084 52.2413 30.084 52.6871C30.084 53.133 30.4454 53.4944 30.8912 53.4944Z" fill="white"/>
<path d="M30.8912 55.9163C31.3371 55.9163 31.6985 55.5548 31.6985 55.109C31.6985 54.6632 31.3371 54.3018 30.8912 54.3018C30.4454 54.3018 30.084 54.6632 30.084 55.109C30.084 55.5548 30.4454 55.9163 30.8912 55.9163Z" fill="white"/>
<path d="M30.8912 58.3391C31.3371 58.3391 31.6985 57.9777 31.6985 57.5319C31.6985 57.086 31.3371 56.7246 30.8912 56.7246C30.4454 56.7246 30.084 57.086 30.084 57.5319C30.084 57.9777 30.4454 58.3391 30.8912 58.3391Z" fill="white"/>
<path d="M30.8912 60.759C31.3371 60.759 31.6985 60.3976 31.6985 59.9518C31.6985 59.506 31.3371 59.1445 30.8912 59.1445C30.4454 59.1445 30.084 59.506 30.084 59.9518C30.084 60.3976 30.4454 60.759 30.8912 60.759Z" fill="white"/>
<path d="M30.8912 63.1809C31.3371 63.1809 31.6985 62.8195 31.6985 62.3737C31.6985 61.9278 31.3371 61.5664 30.8912 61.5664C30.4454 61.5664 30.084 61.9278 30.084 62.3737C30.084 62.8195 30.4454 63.1809 30.8912 63.1809Z" fill="white"/>
<path d="M30.8912 65.6038C31.3371 65.6038 31.6985 65.2423 31.6985 64.7965C31.6985 64.3507 31.3371 63.9893 30.8912 63.9893C30.4454 63.9893 30.084 64.3507 30.084 64.7965C30.084 65.2423 30.4454 65.6038 30.8912 65.6038Z" fill="white"/>
<path d="M30.8912 68.0256C31.3371 68.0256 31.6985 67.6642 31.6985 67.2184C31.6985 66.7726 31.3371 66.4111 30.8912 66.4111C30.4454 66.4111 30.084 66.7726 30.084 67.2184C30.084 67.6642 30.4454 68.0256 30.8912 68.0256Z" fill="white"/>
<path d="M30.8912 70.4465C31.3371 70.4465 31.6985 70.0851 31.6985 69.6393C31.6985 69.1935 31.3371 68.832 30.8912 68.832C30.4454 68.832 30.084 69.1935 30.084 69.6393C30.084 70.0851 30.4454 70.4465 30.8912 70.4465Z" fill="white"/>
<path d="M30.8912 72.8684C31.3371 72.8684 31.6985 72.507 31.6985 72.0612C31.6985 71.6153 31.3371 71.2539 30.8912 71.2539C30.4454 71.2539 30.084 71.6153 30.084 72.0612C30.084 72.507 30.4454 72.8684 30.8912 72.8684Z" fill="white"/>
<path d="M30.8912 77.7122C31.3371 77.7122 31.6985 77.3508 31.6985 76.9049C31.6985 76.4591 31.3371 76.0977 30.8912 76.0977C30.4454 76.0977 30.084 76.4591 30.084 76.9049C30.084 77.3508 30.4454 77.7122 30.8912 77.7122Z" fill="white"/>
<path d="M33.3131 9.90358C33.759 9.90358 34.1204 9.54215 34.1204 9.09632C34.1204 8.65048 33.759 8.28906 33.3131 8.28906C32.8673 8.28906 32.5059 8.65048 32.5059 9.09632C32.5059 9.54215 32.8673 9.90358 33.3131 9.90358Z" fill="white"/>
<path d="M33.3131 17.1682C33.759 17.1682 34.1204 16.8068 34.1204 16.361C34.1204 15.9151 33.759 15.5537 33.3131 15.5537C32.8673 15.5537 32.5059 15.9151 32.5059 16.361C32.5059 16.8068 32.8673 17.1682 33.3131 17.1682Z" fill="white"/>
<path d="M33.3131 24.4329C33.759 24.4329 34.1204 24.0715 34.1204 23.6256C34.1204 23.1798 33.759 22.8184 33.3131 22.8184C32.8673 22.8184 32.5059 23.1798 32.5059 23.6256C32.5059 24.0715 32.8673 24.4329 33.3131 24.4329Z" fill="white"/>
<path d="M33.3131 26.8547C33.759 26.8547 34.1204 26.4933 34.1204 26.0475C34.1204 25.6017 33.759 25.2402 33.3131 25.2402C32.8673 25.2402 32.5059 25.6017 32.5059 26.0475C32.5059 26.4933 32.8673 26.8547 33.3131 26.8547Z" fill="white"/>
<path d="M33.3131 29.2776C33.759 29.2776 34.1204 28.9162 34.1204 28.4703C34.1204 28.0245 33.759 27.6631 33.3131 27.6631C32.8673 27.6631 32.5059 28.0245 32.5059 28.4703C32.5059 28.9162 32.8673 29.2776 33.3131 29.2776Z" fill="white"/>
<path d="M33.3131 31.6985C33.759 31.6985 34.1204 31.3371 34.1204 30.8912C34.1204 30.4454 33.759 30.084 33.3131 30.084C32.8673 30.084 32.5059 30.4454 32.5059 30.8912C32.5059 31.3371 32.8673 31.6985 33.3131 31.6985Z" fill="white"/>
<path d="M33.3131 34.1204C33.759 34.1204 34.1204 33.759 34.1204 33.3131C34.1204 32.8673 33.759 32.5059 33.3131 32.5059C32.8673 32.5059 32.5059 32.8673 32.5059 33.3131C32.5059 33.759 32.8673 34.1204 33.3131 34.1204Z" fill="white"/>
<path d="M33.3131 36.5422C33.759 36.5422 34.1204 36.1808 34.1204 35.735C34.1204 35.2892 33.759 34.9277 33.3131 34.9277C32.8673 34.9277 32.5059 35.2892 32.5059 35.735C32.5059 36.1808 32.8673 36.5422 33.3131 36.5422Z" fill="white"/>
<path d="M33.3131 41.385C33.759 41.385 34.1204 41.0236 34.1204 40.5778C34.1204 40.1319 33.759 39.7705 33.3131 39.7705C32.8673 39.7705 32.5059 40.1319 32.5059 40.5778C32.5059 41.0236 32.8673 41.385 33.3131 41.385Z" fill="white"/>
<path d="M33.3131 48.6506C33.759 48.6506 34.1204 48.2892 34.1204 47.8434C34.1204 47.3976 33.759 47.0361 33.3131 47.0361C32.8673 47.0361 32.5059 47.3976 32.5059 47.8434C32.5059 48.2892 32.8673 48.6506 33.3131 48.6506Z" fill="white"/>
<path d="M33.3131 51.0725C33.759 51.0725 34.1204 50.7111 34.1204 50.2653C34.1204 49.8194 33.759 49.458 33.3131 49.458C32.8673 49.458 32.5059 49.8194 32.5059 50.2653C32.5059 50.7111 32.8673 51.0725 33.3131 51.0725Z" fill="white"/>
<path d="M33.3131 53.4944C33.759 53.4944 34.1204 53.133 34.1204 52.6871C34.1204 52.2413 33.759 51.8799 33.3131 51.8799C32.8673 51.8799 32.5059 52.2413 32.5059 52.6871C32.5059 53.133 32.8673 53.4944 33.3131 53.4944Z" fill="white"/>
<path d="M33.3131 63.1809C33.759 63.1809 34.1204 62.8195 34.1204 62.3737C34.1204 61.9278 33.759 61.5664 33.3131 61.5664C32.8673 61.5664 32.5059 61.9278 32.5059 62.3737C32.5059 62.8195 32.8673 63.1809 33.3131 63.1809Z" fill="white"/>
<path d="M33.3131 65.6038C33.759 65.6038 34.1204 65.2423 34.1204 64.7965C34.1204 64.3507 33.759 63.9893 33.3131 63.9893C32.8673 63.9893 32.5059 64.3507 32.5059 64.7965C32.5059 65.2423 32.8673 65.6038 33.3131 65.6038Z" fill="white"/>
<path d="M33.3131 70.4465C33.759 70.4465 34.1204 70.0851 34.1204 69.6393C34.1204 69.1935 33.759 68.832 33.3131 68.832C32.8673 68.832 32.5059 69.1935 32.5059 69.6393C32.5059 70.0851 32.8673 70.4465 33.3131 70.4465Z" fill="white"/>
<path d="M33.3131 75.2903C33.759 75.2903 34.1204 74.9289 34.1204 74.483C34.1204 74.0372 33.759 73.6758 33.3131 73.6758C32.8673 73.6758 32.5059 74.0372 32.5059 74.483C32.5059 74.9289 32.8673 75.2903 33.3131 75.2903Z" fill="white"/>
<path d="M35.7347 9.90358C36.1806 9.90358 36.542 9.54215 36.542 9.09632C36.542 8.65048 36.1806 8.28906 35.7347 8.28906C35.2889 8.28906 34.9275 8.65048 34.9275 9.09632C34.9275 9.54215 35.2889 9.90358 35.7347 9.90358Z" fill="white"/>
<path d="M35.7347 12.3255C36.1806 12.3255 36.542 11.964 36.542 11.5182C36.542 11.0724 36.1806 10.7109 35.7347 10.7109C35.2889 10.7109 34.9275 11.0724 34.9275 11.5182C34.9275 11.964 35.2889 12.3255 35.7347 12.3255Z" fill="white"/>
<path d="M35.7347 14.7454C36.1806 14.7454 36.542 14.384 36.542 13.9381C36.542 13.4923 36.1806 13.1309 35.7347 13.1309C35.2889 13.1309 34.9275 13.4923 34.9275 13.9381C34.9275 14.384 35.2889 14.7454 35.7347 14.7454Z" fill="white"/>
<path d="M35.7347 19.5901C36.1806 19.5901 36.542 19.2287 36.542 18.7828C36.542 18.337 36.1806 17.9756 35.7347 17.9756C35.2889 17.9756 34.9275 18.337 34.9275 18.7828C34.9275 19.2287 35.2889 19.5901 35.7347 19.5901Z" fill="white"/>
<path d="M35.7347 22.01C36.1806 22.01 36.542 21.6486 36.542 21.2028C36.542 20.7569 36.1806 20.3955 35.7347 20.3955C35.2889 20.3955 34.9275 20.7569 34.9275 21.2028C34.9275 21.6486 35.2889 22.01 35.7347 22.01Z" fill="white"/>
<path d="M35.7347 29.2776C36.1806 29.2776 36.542 28.9162 36.542 28.4703C36.542 28.0245 36.1806 27.6631 35.7347 27.6631C35.2889 27.6631 34.9275 28.0245 34.9275 28.4703C34.9275 28.9162 35.2889 29.2776 35.7347 29.2776Z" fill="white"/>
<path d="M35.7347 31.6985C36.1806 31.6985 36.542 31.3371 36.542 30.8912C36.542 30.4454 36.1806 30.084 35.7347 30.084C35.2889 30.084 34.9275 30.4454 34.9275 30.8912C34.9275 31.3371 35.2889 31.6985 35.7347 31.6985Z" fill="white"/>
<path d="M35.7347 36.5422C36.1806 36.5422 36.542 36.1808 36.542 35.735C36.542 35.2892 36.1806 34.9277 35.7347 34.9277C35.2889 34.9277 34.9275 35.2892 34.9275 35.735C34.9275 36.1808 35.2889 36.5422 35.7347 36.5422Z" fill="white"/>
<path d="M35.7347 38.9641C36.1806 38.9641 36.542 38.6027 36.542 38.1569C36.542 37.711 36.1806 37.3496 35.7347 37.3496C35.2889 37.3496 34.9275 37.711 34.9275 38.1569C34.9275 38.6027 35.2889 38.9641 35.7347 38.9641Z" fill="white"/>
<path d="M35.7347 41.385C36.1806 41.385 36.542 41.0236 36.542 40.5778C36.542 40.1319 36.1806 39.7705 35.7347 39.7705C35.2889 39.7705 34.9275 40.1319 34.9275 40.5778C34.9275 41.0236 35.2889 41.385 35.7347 41.385Z" fill="white"/>
<path d="M35.7347 43.8079C36.1806 43.8079 36.542 43.4464 36.542 43.0006C36.542 42.5548 36.1806 42.1934 35.7347 42.1934C35.2889 42.1934 34.9275 42.5548 34.9275 43.0006C34.9275 43.4464 35.2889 43.8079 35.7347 43.8079Z" fill="white"/>
<path d="M35.7347 48.6506C36.1806 48.6506 36.542 48.2892 36.542 47.8434C36.542 47.3976 36.1806 47.0361 35.7347 47.0361C35.2889 47.0361 34.9275 47.3976 34.9275 47.8434C34.9275 48.2892 35.2889 48.6506 35.7347 48.6506Z" fill="white"/>
<path d="M35.7347 53.4944C36.1806 53.4944 36.542 53.133 36.542 52.6871C36.542 52.2413 36.1806 51.8799 35.7347 51.8799C35.2889 51.8799 34.9275 52.2413 34.9275 52.6871C34.9275 53.133 35.2889 53.4944 35.7347 53.4944Z" fill="white"/>
<path d="M35.7347 55.9163C36.1806 55.9163 36.542 55.5548 36.542 55.109C36.542 54.6632 36.1806 54.3018 35.7347 54.3018C35.2889 54.3018 34.9275 54.6632 34.9275 55.109C34.9275 55.5548 35.2889 55.9163 35.7347 55.9163Z" fill="white"/>
<path d="M35.7347 65.6038C36.1806 65.6038 36.542 65.2423 36.542 64.7965C36.542 64.3507 36.1806 63.9893 35.7347 63.9893C35.2889 63.9893 34.9275 64.3507 34.9275 64.7965C34.9275 65.2423 35.2889 65.6038 35.7347 65.6038Z" fill="white"/>
<path d="M35.7347 77.7122C36.1806 77.7122 36.542 77.3508 36.542 76.9049C36.542 76.4591 36.1806 76.0977 35.7347 76.0977C35.2889 76.0977 34.9275 76.4591 34.9275 76.9049C34.9275 77.3508 35.2889 77.7122 35.7347 77.7122Z" fill="white"/>
<path d="M38.1569 19.5901C38.6027 19.5901 38.9641 19.2287 38.9641 18.7828C38.9641 18.337 38.6027 17.9756 38.1569 17.9756C37.711 17.9756 37.3496 18.337 37.3496 18.7828C37.3496 19.2287 37.711 19.5901 38.1569 19.5901Z" fill="white"/>
<path d="M38.1569 24.4329C38.6027 24.4329 38.9641 24.0715 38.9641 23.6256C38.9641 23.1798 38.6027 22.8184 38.1569 22.8184C37.711 22.8184 37.3496 23.1798 37.3496 23.6256C37.3496 24.0715 37.711 24.4329 38.1569 24.4329Z" fill="white"/>
<path d="M38.1569 36.5422C38.6027 36.5422 38.9641 36.1808 38.9641 35.735C38.9641 35.2892 38.6027 34.9277 38.1569 34.9277C37.711 34.9277 37.3496 35.2892 37.3496 35.735C37.3496 36.1808 37.711 36.5422 38.1569 36.5422Z" fill="white"/>
<path d="M38.1569 38.9641C38.6027 38.9641 38.9641 38.6027 38.9641 38.1569C38.9641 37.711 38.6027 37.3496 38.1569 37.3496C37.711 37.3496 37.3496 37.711 37.3496 38.1569C37.3496 38.6027 37.711 38.9641 38.1569 38.9641Z" fill="white"/>
<path d="M38.1569 46.2297C38.6027 46.2297 38.9641 45.8683 38.9641 45.4225C38.9641 44.9767 38.6027 44.6152 38.1569 44.6152C37.711 44.6152 37.3496 44.9767 37.3496 45.4225C37.3496 45.8683 37.711 46.2297 38.1569 46.2297Z" fill="white"/>
<path d="M38.1569 48.6506C38.6027 48.6506 38.9641 48.2892 38.9641 47.8434C38.9641 47.3976 38.6027 47.0361 38.1569 47.0361C37.711 47.0361 37.3496 47.3976 37.3496 47.8434C37.3496 48.2892 37.711 48.6506 38.1569 48.6506Z" fill="white"/>
<path d="M38.1569 51.0725C38.6027 51.0725 38.9641 50.7111 38.9641 50.2653C38.9641 49.8194 38.6027 49.458 38.1569 49.458C37.711 49.458 37.3496 49.8194 37.3496 50.2653C37.3496 50.7111 37.711 51.0725 38.1569 51.0725Z" fill="white"/>
<path d="M38.1569 53.4944C38.6027 53.4944 38.9641 53.133 38.9641 52.6871C38.9641 52.2413 38.6027 51.8799 38.1569 51.8799C37.711 51.8799 37.3496 52.2413 37.3496 52.6871C37.3496 53.133 37.711 53.4944 38.1569 53.4944Z" fill="white"/>
<path d="M38.1569 55.9163C38.6027 55.9163 38.9641 55.5548 38.9641 55.109C38.9641 54.6632 38.6027 54.3018 38.1569 54.3018C37.711 54.3018 37.3496 54.6632 37.3496 55.109C37.3496 55.5548 37.711 55.9163 38.1569 55.9163Z" fill="white"/>
<path d="M38.1569 60.759C38.6027 60.759 38.9641 60.3976 38.9641 59.9518C38.9641 59.506 38.6027 59.1445 38.1569 59.1445C37.711 59.1445 37.3496 59.506 37.3496 59.9518C37.3496 60.3976 37.711 60.759 38.1569 60.759Z" fill="white"/>
<path d="M38.1569 65.6038C38.6027 65.6038 38.9641 65.2423 38.9641 64.7965C38.9641 64.3507 38.6027 63.9893 38.1569 63.9893C37.711 63.9893 37.3496 64.3507 37.3496 64.7965C37.3496 65.2423 37.711 65.6038 38.1569 65.6038Z" fill="white"/>
<path d="M38.1569 72.8684C38.6027 72.8684 38.9641 72.507 38.9641 72.0612C38.9641 71.6153 38.6027 71.2539 38.1569 71.2539C37.711 71.2539 37.3496 71.6153 37.3496 72.0612C37.3496 72.507 37.711 72.8684 38.1569 72.8684Z" fill="white"/>
<path d="M38.1569 75.2903C38.6027 75.2903 38.9641 74.9289 38.9641 74.483C38.9641 74.0372 38.6027 73.6758 38.1569 73.6758C37.711 73.6758 37.3496 74.0372 37.3496 74.483C37.3496 74.9289 37.711 75.2903 38.1569 75.2903Z" fill="white"/>
<path d="M38.1569 77.7122C38.6027 77.7122 38.9641 77.3508 38.9641 76.9049C38.9641 76.4591 38.6027 76.0977 38.1569 76.0977C37.711 76.0977 37.3496 76.4591 37.3496 76.9049C37.3496 77.3508 37.711 77.7122 38.1569 77.7122Z" fill="white"/>
<path d="M40.5785 17.1682C41.0243 17.1682 41.3858 16.8068 41.3858 16.361C41.3858 15.9151 41.0243 15.5537 40.5785 15.5537C40.1327 15.5537 39.7712 15.9151 39.7712 16.361C39.7712 16.8068 40.1327 17.1682 40.5785 17.1682Z" fill="white"/>
<path d="M40.5785 26.8547C41.0243 26.8547 41.3858 26.4933 41.3858 26.0475C41.3858 25.6017 41.0243 25.2402 40.5785 25.2402C40.1327 25.2402 39.7712 25.6017 39.7712 26.0475C39.7712 26.4933 40.1327 26.8547 40.5785 26.8547Z" fill="white"/>
<path d="M40.5785 31.6985C41.0243 31.6985 41.3858 31.3371 41.3858 30.8912C41.3858 30.4454 41.0243 30.084 40.5785 30.084C40.1327 30.084 39.7712 30.4454 39.7712 30.8912C39.7712 31.3371 40.1327 31.6985 40.5785 31.6985Z" fill="white"/>
<path d="M40.5785 34.1204C41.0243 34.1204 41.3858 33.759 41.3858 33.3131C41.3858 32.8673 41.0243 32.5059 40.5785 32.5059C40.1327 32.5059 39.7712 32.8673 39.7712 33.3131C39.7712 33.759 40.1327 34.1204 40.5785 34.1204Z" fill="white"/>
<path d="M40.5785 38.9641C41.0243 38.9641 41.3858 38.6027 41.3858 38.1569C41.3858 37.711 41.0243 37.3496 40.5785 37.3496C40.1327 37.3496 39.7712 37.711 39.7712 38.1569C39.7712 38.6027 40.1327 38.9641 40.5785 38.9641Z" fill="white"/>
<path d="M40.5785 41.385C41.0243 41.385 41.3858 41.0236 41.3858 40.5778C41.3858 40.1319 41.0243 39.7705 40.5785 39.7705C40.1327 39.7705 39.7712 40.1319 39.7712 40.5778C39.7712 41.0236 40.1327 41.385 40.5785 41.385Z" fill="white"/>
<path d="M40.5785 46.2297C41.0243 46.2297 41.3858 45.8683 41.3858 45.4225C41.3858 44.9767 41.0243 44.6152 40.5785 44.6152C40.1327 44.6152 39.7712 44.9767 39.7712 45.4225C39.7712 45.8683 40.1327 46.2297 40.5785 46.2297Z" fill="white"/>
<path d="M40.5785 48.6506C41.0243 48.6506 41.3858 48.2892 41.3858 47.8434C41.3858 47.3976 41.0243 47.0361 40.5785 47.0361C40.1327 47.0361 39.7712 47.3976 39.7712 47.8434C39.7712 48.2892 40.1327 48.6506 40.5785 48.6506Z" fill="white"/>
<path d="M40.5785 55.9163C41.0243 55.9163 41.3858 55.5548 41.3858 55.109C41.3858 54.6632 41.0243 54.3018 40.5785 54.3018C40.1327 54.3018 39.7712 54.6632 39.7712 55.109C39.7712 55.5548 40.1327 55.9163 40.5785 55.9163Z" fill="white"/>
<path d="M40.5785 58.3391C41.0243 58.3391 41.3858 57.9777 41.3858 57.5319C41.3858 57.086 41.0243 56.7246 40.5785 56.7246C40.1327 56.7246 39.7712 57.086 39.7712 57.5319C39.7712 57.9777 40.1327 58.3391 40.5785 58.3391Z" fill="white"/>
<path d="M40.5785 63.1809C41.0243 63.1809 41.3858 62.8195 41.3858 62.3737C41.3858 61.9278 41.0243 61.5664 40.5785 61.5664C40.1327 61.5664 39.7712 61.9278 39.7712 62.3737C39.7712 62.8195 40.1327 63.1809 40.5785 63.1809Z" fill="white"/>
<path d="M40.5785 65.6038C41.0243 65.6038 41.3858 65.2423 41.3858 64.7965C41.3858 64.3507 41.0243 63.9893 40.5785 63.9893C40.1327 63.9893 39.7712 64.3507 39.7712 64.7965C39.7712 65.2423 40.1327 65.6038 40.5785 65.6038Z" fill="white"/>
<path d="M40.5785 70.4465C41.0243 70.4465 41.3858 70.0851 41.3858 69.6393C41.3858 69.1935 41.0243 68.832 40.5785 68.832C40.1327 68.832 39.7712 69.1935 39.7712 69.6393C39.7712 70.0851 40.1327 70.4465 40.5785 70.4465Z" fill="white"/>
<path d="M40.5785 72.8684C41.0243 72.8684 41.3858 72.507 41.3858 72.0612C41.3858 71.6153 41.0243 71.2539 40.5785 71.2539C40.1327 71.2539 39.7712 71.6153 39.7712 72.0612C39.7712 72.507 40.1327 72.8684 40.5785 72.8684Z" fill="white"/>
<path d="M40.5785 77.7122C41.0243 77.7122 41.3858 77.3508 41.3858 76.9049C41.3858 76.4591 41.0243 76.0977 40.5785 76.0977C40.1327 76.0977 39.7712 76.4591 39.7712 76.9049C39.7712 77.3508 40.1327 77.7122 40.5785 77.7122Z" fill="white"/>
<path d="M43.0001 12.3255C43.446 12.3255 43.8074 11.964 43.8074 11.5182C43.8074 11.0724 43.446 10.7109 43.0001 10.7109C42.5543 10.7109 42.1929 11.0724 42.1929 11.5182C42.1929 11.964 42.5543 12.3255 43.0001 12.3255Z" fill="white"/>
<path d="M43.0001 19.5901C43.446 19.5901 43.8074 19.2287 43.8074 18.7828C43.8074 18.337 43.446 17.9756 43.0001 17.9756C42.5543 17.9756 42.1929 18.337 42.1929 18.7828C42.1929 19.2287 42.5543 19.5901 43.0001 19.5901Z" fill="white"/>
<path d="M43.0001 24.4329C43.446 24.4329 43.8074 24.0715 43.8074 23.6256C43.8074 23.1798 43.446 22.8184 43.0001 22.8184C42.5543 22.8184 42.1929 23.1798 42.1929 23.6256C42.1929 24.0715 42.5543 24.4329 43.0001 24.4329Z" fill="white"/>
<path d="M43.0001 26.8547C43.446 26.8547 43.8074 26.4933 43.8074 26.0475C43.8074 25.6017 43.446 25.2402 43.0001 25.2402C42.5543 25.2402 42.1929 25.6017 42.1929 26.0475C42.1929 26.4933 42.5543 26.8547 43.0001 26.8547Z" fill="white"/>
<path d="M43.0001 29.2776C43.446 29.2776 43.8074 28.9162 43.8074 28.4703C43.8074 28.0245 43.446 27.6631 43.0001 27.6631C42.5543 27.6631 42.1929 28.0245 42.1929 28.4703C42.1929 28.9162 42.5543 29.2776 43.0001 29.2776Z" fill="white"/>
<path d="M43.0001 41.385C43.446 41.385 43.8074 41.0236 43.8074 40.5778C43.8074 40.1319 43.446 39.7705 43.0001 39.7705C42.5543 39.7705 42.1929 40.1319 42.1929 40.5778C42.1929 41.0236 42.5543 41.385 43.0001 41.385Z" fill="white"/>
<path d="M43.0001 48.6506C43.446 48.6506 43.8074 48.2892 43.8074 47.8434C43.8074 47.3976 43.446 47.0361 43.0001 47.0361C42.5543 47.0361 42.1929 47.3976 42.1929 47.8434C42.1929 48.2892 42.5543 48.6506 43.0001 48.6506Z" fill="white"/>
<path d="M43.0001 51.0725C43.446 51.0725 43.8074 50.7111 43.8074 50.2653C43.8074 49.8194 43.446 49.458 43.0001 49.458C42.5543 49.458 42.1929 49.8194 42.1929 50.2653C42.1929 50.7111 42.5543 51.0725 43.0001 51.0725Z" fill="white"/>
<path d="M43.0001 53.4944C43.446 53.4944 43.8074 53.133 43.8074 52.6871C43.8074 52.2413 43.446 51.8799 43.0001 51.8799C42.5543 51.8799 42.1929 52.2413 42.1929 52.6871C42.1929 53.133 42.5543 53.4944 43.0001 53.4944Z" fill="white"/>
<path d="M43.0001 55.9163C43.446 55.9163 43.8074 55.5548 43.8074 55.109C43.8074 54.6632 43.446 54.3018 43.0001 54.3018C42.5543 54.3018 42.1929 54.6632 42.1929 55.109C42.1929 55.5548 42.5543 55.9163 43.0001 55.9163Z" fill="white"/>
<path d="M43.0001 58.3391C43.446 58.3391 43.8074 57.9777 43.8074 57.5319C43.8074 57.086 43.446 56.7246 43.0001 56.7246C42.5543 56.7246 42.1929 57.086 42.1929 57.5319C42.1929 57.9777 42.5543 58.3391 43.0001 58.3391Z" fill="white"/>
<path d="M43.0001 60.759C43.446 60.759 43.8074 60.3976 43.8074 59.9518C43.8074 59.506 43.446 59.1445 43.0001 59.1445C42.5543 59.1445 42.1929 59.506 42.1929 59.9518C42.1929 60.3976 42.5543 60.759 43.0001 60.759Z" fill="white"/>
<path d="M43.0001 65.6038C43.446 65.6038 43.8074 65.2423 43.8074 64.7965C43.8074 64.3507 43.446 63.9893 43.0001 63.9893C42.5543 63.9893 42.1929 64.3507 42.1929 64.7965C42.1929 65.2423 42.5543 65.6038 43.0001 65.6038Z" fill="white"/>
<path d="M43.0001 68.0256C43.446 68.0256 43.8074 67.6642 43.8074 67.2184C43.8074 66.7726 43.446 66.4111 43.0001 66.4111C42.5543 66.4111 42.1929 66.7726 42.1929 67.2184C42.1929 67.6642 42.5543 68.0256 43.0001 68.0256Z" fill="white"/>
<path d="M43.0001 70.4465C43.446 70.4465 43.8074 70.0851 43.8074 69.6393C43.8074 69.1935 43.446 68.832 43.0001 68.832C42.5543 68.832 42.1929 69.1935 42.1929 69.6393C42.1929 70.0851 42.5543 70.4465 43.0001 70.4465Z" fill="white"/>
<path d="M43.0001 75.2903C43.446 75.2903 43.8074 74.9289 43.8074 74.483C43.8074 74.0372 43.446 73.6758 43.0001 73.6758C42.5543 73.6758 42.1929 74.0372 42.1929 74.483C42.1929 74.9289 42.5543 75.2903 43.0001 75.2903Z" fill="white"/>
<path d="M43.0001 77.7122C43.446 77.7122 43.8074 77.3508 43.8074 76.9049C43.8074 76.4591 43.446 76.0977 43.0001 76.0977C42.5543 76.0977 42.1929 76.4591 42.1929 76.9049C42.1929 77.3508 42.5543 77.7122 43.0001 77.7122Z" fill="white"/>
<path d="M45.422 12.3255C45.8678 12.3255 46.2293 11.964 46.2293 11.5182C46.2293 11.0724 45.8678 10.7109 45.422 10.7109C44.9762 10.7109 44.6147 11.0724 44.6147 11.5182C44.6147 11.964 44.9762 12.3255 45.422 12.3255Z" fill="white"/>
<path d="M45.422 14.7454C45.8678 14.7454 46.2293 14.384 46.2293 13.9381C46.2293 13.4923 45.8678 13.1309 45.422 13.1309C44.9762 13.1309 44.6147 13.4923 44.6147 13.9381C44.6147 14.384 44.9762 14.7454 45.422 14.7454Z" fill="white"/>
<path d="M45.422 17.1682C45.8678 17.1682 46.2293 16.8068 46.2293 16.361C46.2293 15.9151 45.8678 15.5537 45.422 15.5537C44.9762 15.5537 44.6147 15.9151 44.6147 16.361C44.6147 16.8068 44.9762 17.1682 45.422 17.1682Z" fill="white"/>
<path d="M45.422 19.5901C45.8678 19.5901 46.2293 19.2287 46.2293 18.7828C46.2293 18.337 45.8678 17.9756 45.422 17.9756C44.9762 17.9756 44.6147 18.337 44.6147 18.7828C44.6147 19.2287 44.9762 19.5901 45.422 19.5901Z" fill="white"/>
<path d="M45.422 22.01C45.8678 22.01 46.2293 21.6486 46.2293 21.2028C46.2293 20.7569 45.8678 20.3955 45.422 20.3955C44.9762 20.3955 44.6147 20.7569 44.6147 21.2028C44.6147 21.6486 44.9762 22.01 45.422 22.01Z" fill="white"/>
<path d="M45.422 26.8547C45.8678 26.8547 46.2293 26.4933 46.2293 26.0475C46.2293 25.6017 45.8678 25.2402 45.422 25.2402C44.9762 25.2402 44.6147 25.6017 44.6147 26.0475C44.6147 26.4933 44.9762 26.8547 45.422 26.8547Z" fill="white"/>
<path d="M45.422 29.2776C45.8678 29.2776 46.2293 28.9162 46.2293 28.4703C46.2293 28.0245 45.8678 27.6631 45.422 27.6631C44.9762 27.6631 44.6147 28.0245 44.6147 28.4703C44.6147 28.9162 44.9762 29.2776 45.422 29.2776Z" fill="white"/>
<path d="M45.422 43.8079C45.8678 43.8079 46.2293 43.4464 46.2293 43.0006C46.2293 42.5548 45.8678 42.1934 45.422 42.1934C44.9762 42.1934 44.6147 42.5548 44.6147 43.0006C44.6147 43.4464 44.9762 43.8079 45.422 43.8079Z" fill="white"/>
<path d="M45.422 48.6506C45.8678 48.6506 46.2293 48.2892 46.2293 47.8434C46.2293 47.3976 45.8678 47.0361 45.422 47.0361C44.9762 47.0361 44.6147 47.3976 44.6147 47.8434C44.6147 48.2892 44.9762 48.6506 45.422 48.6506Z" fill="white"/>
<path d="M45.422 51.0725C45.8678 51.0725 46.2293 50.7111 46.2293 50.2653C46.2293 49.8194 45.8678 49.458 45.422 49.458C44.9762 49.458 44.6147 49.8194 44.6147 50.2653C44.6147 50.7111 44.9762 51.0725 45.422 51.0725Z" fill="white"/>
<path d="M45.422 53.4944C45.8678 53.4944 46.2293 53.133 46.2293 52.6871C46.2293 52.2413 45.8678 51.8799 45.422 51.8799C44.9762 51.8799 44.6147 52.2413 44.6147 52.6871C44.6147 53.133 44.9762 53.4944 45.422 53.4944Z" fill="white"/>
<path d="M45.422 60.759C45.8678 60.759 46.2293 60.3976 46.2293 59.9518C46.2293 59.506 45.8678 59.1445 45.422 59.1445C44.9762 59.1445 44.6147 59.506 44.6147 59.9518C44.6147 60.3976 44.9762 60.759 45.422 60.759Z" fill="white"/>
<path d="M45.422 68.0256C45.8678 68.0256 46.2293 67.6642 46.2293 67.2184C46.2293 66.7726 45.8678 66.4111 45.422 66.4111C44.9762 66.4111 44.6147 66.7726 44.6147 67.2184C44.6147 67.6642 44.9762 68.0256 45.422 68.0256Z" fill="white"/>
<path d="M45.422 70.4465C45.8678 70.4465 46.2293 70.0851 46.2293 69.6393C46.2293 69.1935 45.8678 68.832 45.422 68.832C44.9762 68.832 44.6147 69.1935 44.6147 69.6393C44.6147 70.0851 44.9762 70.4465 45.422 70.4465Z" fill="white"/>
<path d="M45.422 77.7122C45.8678 77.7122 46.2293 77.3508 46.2293 76.9049C46.2293 76.4591 45.8678 76.0977 45.422 76.0977C44.9762 76.0977 44.6147 76.4591 44.6147 76.9049C44.6147 77.3508 44.9762 77.7122 45.422 77.7122Z" fill="white"/>
<path d="M47.8436 9.90358C48.2895 9.90358 48.6509 9.54215 48.6509 9.09632C48.6509 8.65048 48.2895 8.28906 47.8436 8.28906C47.3978 8.28906 47.0364 8.65048 47.0364 9.09632C47.0364 9.54215 47.3978 9.90358 47.8436 9.90358Z" fill="white"/>
<path d="M47.8436 12.3255C48.2895 12.3255 48.6509 11.964 48.6509 11.5182C48.6509 11.0724 48.2895 10.7109 47.8436 10.7109C47.3978 10.7109 47.0364 11.0724 47.0364 11.5182C47.0364 11.964 47.3978 12.3255 47.8436 12.3255Z" fill="white"/>
<path d="M47.8436 14.7454C48.2895 14.7454 48.6509 14.384 48.6509 13.9381C48.6509 13.4923 48.2895 13.1309 47.8436 13.1309C47.3978 13.1309 47.0364 13.4923 47.0364 13.9381C47.0364 14.384 47.3978 14.7454 47.8436 14.7454Z" fill="white"/>
<path d="M47.8436 22.01C48.2895 22.01 48.6509 21.6486 48.6509 21.2028C48.6509 20.7569 48.2895 20.3955 47.8436 20.3955C47.3978 20.3955 47.0364 20.7569 47.0364 21.2028C47.0364 21.6486 47.3978 22.01 47.8436 22.01Z" fill="white"/>
<path d="M47.8436 24.4329C48.2895 24.4329 48.6509 24.0715 48.6509 23.6256C48.6509 23.1798 48.2895 22.8184 47.8436 22.8184C47.3978 22.8184 47.0364 23.1798 47.0364 23.6256C47.0364 24.0715 47.3978 24.4329 47.8436 24.4329Z" fill="white"/>
<path d="M47.8436 26.8547C48.2895 26.8547 48.6509 26.4933 48.6509 26.0475C48.6509 25.6017 48.2895 25.2402 47.8436 25.2402C47.3978 25.2402 47.0364 25.6017 47.0364 26.0475C47.0364 26.4933 47.3978 26.8547 47.8436 26.8547Z" fill="white"/>
<path d="M47.8436 29.2776C48.2895 29.2776 48.6509 28.9162 48.6509 28.4703C48.6509 28.0245 48.2895 27.6631 47.8436 27.6631C47.3978 27.6631 47.0364 28.0245 47.0364 28.4703C47.0364 28.9162 47.3978 29.2776 47.8436 29.2776Z" fill="white"/>
<path d="M47.8436 36.5422C48.2895 36.5422 48.6509 36.1808 48.6509 35.735C48.6509 35.2892 48.2895 34.9277 47.8436 34.9277C47.3978 34.9277 47.0364 35.2892 47.0364 35.735C47.0364 36.1808 47.3978 36.5422 47.8436 36.5422Z" fill="white"/>
<path d="M47.8436 38.9641C48.2895 38.9641 48.6509 38.6027 48.6509 38.1569C48.6509 37.711 48.2895 37.3496 47.8436 37.3496C47.3978 37.3496 47.0364 37.711 47.0364 38.1569C47.0364 38.6027 47.3978 38.9641 47.8436 38.9641Z" fill="white"/>
<path d="M47.8436 41.385C48.2895 41.385 48.6509 41.0236 48.6509 40.5778C48.6509 40.1319 48.2895 39.7705 47.8436 39.7705C47.3978 39.7705 47.0364 40.1319 47.0364 40.5778C47.0364 41.0236 47.3978 41.385 47.8436 41.385Z" fill="white"/>
<path d="M47.8436 48.6506C48.2895 48.6506 48.6509 48.2892 48.6509 47.8434C48.6509 47.3976 48.2895 47.0361 47.8436 47.0361C47.3978 47.0361 47.0364 47.3976 47.0364 47.8434C47.0364 48.2892 47.3978 48.6506 47.8436 48.6506Z" fill="white"/>
<path d="M47.8436 51.0725C48.2895 51.0725 48.6509 50.7111 48.6509 50.2653C48.6509 49.8194 48.2895 49.458 47.8436 49.458C47.3978 49.458 47.0364 49.8194 47.0364 50.2653C47.0364 50.7111 47.3978 51.0725 47.8436 51.0725Z" fill="white"/>
<path d="M47.8436 53.4944C48.2895 53.4944 48.6509 53.133 48.6509 52.6871C48.6509 52.2413 48.2895 51.8799 47.8436 51.8799C47.3978 51.8799 47.0364 52.2413 47.0364 52.6871C47.0364 53.133 47.3978 53.4944 47.8436 53.4944Z" fill="white"/>
<path d="M47.8436 58.3391C48.2895 58.3391 48.6509 57.9777 48.6509 57.5319C48.6509 57.086 48.2895 56.7246 47.8436 56.7246C47.3978 56.7246 47.0364 57.086 47.0364 57.5319C47.0364 57.9777 47.3978 58.3391 47.8436 58.3391Z" fill="white"/>
<path d="M47.8436 60.759C48.2895 60.759 48.6509 60.3976 48.6509 59.9518C48.6509 59.506 48.2895 59.1445 47.8436 59.1445C47.3978 59.1445 47.0364 59.506 47.0364 59.9518C47.0364 60.3976 47.3978 60.759 47.8436 60.759Z" fill="white"/>
<path d="M47.8436 68.0256C48.2895 68.0256 48.6509 67.6642 48.6509 67.2184C48.6509 66.7726 48.2895 66.4111 47.8436 66.4111C47.3978 66.4111 47.0364 66.7726 47.0364 67.2184C47.0364 67.6642 47.3978 68.0256 47.8436 68.0256Z" fill="white"/>
<path d="M47.8436 70.4465C48.2895 70.4465 48.6509 70.0851 48.6509 69.6393C48.6509 69.1935 48.2895 68.832 47.8436 68.832C47.3978 68.832 47.0364 69.1935 47.0364 69.6393C47.0364 70.0851 47.3978 70.4465 47.8436 70.4465Z" fill="white"/>
<path d="M50.2655 14.7454C50.7113 14.7454 51.0728 14.384 51.0728 13.9381C51.0728 13.4923 50.7113 13.1309 50.2655 13.1309C49.8197 13.1309 49.4583 13.4923 49.4583 13.9381C49.4583 14.384 49.8197 14.7454 50.2655 14.7454Z" fill="white"/>
<path d="M50.2655 17.1682C50.7113 17.1682 51.0728 16.8068 51.0728 16.361C51.0728 15.9151 50.7113 15.5537 50.2655 15.5537C49.8197 15.5537 49.4583 15.9151 49.4583 16.361C49.4583 16.8068 49.8197 17.1682 50.2655 17.1682Z" fill="white"/>
<path d="M50.2655 19.5901C50.7113 19.5901 51.0728 19.2287 51.0728 18.7828C51.0728 18.337 50.7113 17.9756 50.2655 17.9756C49.8197 17.9756 49.4583 18.337 49.4583 18.7828C49.4583 19.2287 49.8197 19.5901 50.2655 19.5901Z" fill="white"/>
<path d="M50.2655 29.2776C50.7113 29.2776 51.0728 28.9162 51.0728 28.4703C51.0728 28.0245 50.7113 27.6631 50.2655 27.6631C49.8197 27.6631 49.4583 28.0245 49.4583 28.4703C49.4583 28.9162 49.8197 29.2776 50.2655 29.2776Z" fill="white"/>
<path d="M50.2655 31.6985C50.7113 31.6985 51.0728 31.3371 51.0728 30.8912C51.0728 30.4454 50.7113 30.084 50.2655 30.084C49.8197 30.084 49.4583 30.4454 49.4583 30.8912C49.4583 31.3371 49.8197 31.6985 50.2655 31.6985Z" fill="white"/>
<path d="M50.2655 36.5422C50.7113 36.5422 51.0728 36.1808 51.0728 35.735C51.0728 35.2892 50.7113 34.9277 50.2655 34.9277C49.8197 34.9277 49.4583 35.2892 49.4583 35.735C49.4583 36.1808 49.8197 36.5422 50.2655 36.5422Z" fill="white"/>
<path d="M50.2655 38.9641C50.7113 38.9641 51.0728 38.6027 51.0728 38.1569C51.0728 37.711 50.7113 37.3496 50.2655 37.3496C49.8197 37.3496 49.4583 37.711 49.4583 38.1569C49.4583 38.6027 49.8197 38.9641 50.2655 38.9641Z" fill="white"/>
<path d="M50.2655 41.385C50.7113 41.385 51.0728 41.0236 51.0728 40.5778C51.0728 40.1319 50.7113 39.7705 50.2655 39.7705C49.8197 39.7705 49.4583 40.1319 49.4583 40.5778C49.4583 41.0236 49.8197 41.385 50.2655 41.385Z" fill="white"/>
<path d="M50.2655 48.6506C50.7113 48.6506 51.0728 48.2892 51.0728 47.8434C51.0728 47.3976 50.7113 47.0361 50.2655 47.0361C49.8197 47.0361 49.4583 47.3976 49.4583 47.8434C49.4583 48.2892 49.8197 48.6506 50.2655 48.6506Z" fill="white"/>
<path d="M50.2655 51.0725C50.7113 51.0725 51.0728 50.7111 51.0728 50.2653C51.0728 49.8194 50.7113 49.458 50.2655 49.458C49.8197 49.458 49.4583 49.8194 49.4583 50.2653C49.4583 50.7111 49.8197 51.0725 50.2655 51.0725Z" fill="white"/>
<path d="M50.2655 58.3391C50.7113 58.3391 51.0728 57.9777 51.0728 57.5319C51.0728 57.086 50.7113 56.7246 50.2655 56.7246C49.8197 56.7246 49.4583 57.086 49.4583 57.5319C49.4583 57.9777 49.8197 58.3391 50.2655 58.3391Z" fill="white"/>
<path d="M50.2655 60.759C50.7113 60.759 51.0728 60.3976 51.0728 59.9518C51.0728 59.506 50.7113 59.1445 50.2655 59.1445C49.8197 59.1445 49.4583 59.506 49.4583 59.9518C49.4583 60.3976 49.8197 60.759 50.2655 60.759Z" fill="white"/>
<path d="M50.2655 65.6038C50.7113 65.6038 51.0728 65.2423 51.0728 64.7965C51.0728 64.3507 50.7113 63.9893 50.2655 63.9893C49.8197 63.9893 49.4583 64.3507 49.4583 64.7965C49.4583 65.2423 49.8197 65.6038 50.2655 65.6038Z" fill="white"/>
<path d="M50.2655 72.8684C50.7113 72.8684 51.0728 72.507 51.0728 72.0612C51.0728 71.6153 50.7113 71.2539 50.2655 71.2539C49.8197 71.2539 49.4583 71.6153 49.4583 72.0612C49.4583 72.507 49.8197 72.8684 50.2655 72.8684Z" fill="white"/>
<path d="M52.6874 9.90358C53.1332 9.90358 53.4946 9.54215 53.4946 9.09632C53.4946 8.65048 53.1332 8.28906 52.6874 8.28906C52.2415 8.28906 51.8801 8.65048 51.8801 9.09632C51.8801 9.54215 52.2415 9.90358 52.6874 9.90358Z" fill="white"/>
<path d="M52.6874 14.7454C53.1332 14.7454 53.4946 14.384 53.4946 13.9381C53.4946 13.4923 53.1332 13.1309 52.6874 13.1309C52.2415 13.1309 51.8801 13.4923 51.8801 13.9381C51.8801 14.384 52.2415 14.7454 52.6874 14.7454Z" fill="white"/>
<path d="M52.6874 17.1682C53.1332 17.1682 53.4946 16.8068 53.4946 16.361C53.4946 15.9151 53.1332 15.5537 52.6874 15.5537C52.2415 15.5537 51.8801 15.9151 51.8801 16.361C51.8801 16.8068 52.2415 17.1682 52.6874 17.1682Z" fill="white"/>
<path d="M52.6874 19.5901C53.1332 19.5901 53.4946 19.2287 53.4946 18.7828C53.4946 18.337 53.1332 17.9756 52.6874 17.9756C52.2415 17.9756 51.8801 18.337 51.8801 18.7828C51.8801 19.2287 52.2415 19.5901 52.6874 19.5901Z" fill="white"/>
<path d="M52.6874 24.4329C53.1332 24.4329 53.4946 24.0715 53.4946 23.6256C53.4946 23.1798 53.1332 22.8184 52.6874 22.8184C52.2415 22.8184 51.8801 23.1798 51.8801 23.6256C51.8801 24.0715 52.2415 24.4329 52.6874 24.4329Z" fill="white"/>
<path d="M52.6874 43.8079C53.1332 43.8079 53.4946 43.4464 53.4946 43.0006C53.4946 42.5548 53.1332 42.1934 52.6874 42.1934C52.2415 42.1934 51.8801 42.5548 51.8801 43.0006C51.8801 43.4464 52.2415 43.8079 52.6874 43.8079Z" fill="white"/>
<path d="M52.6874 46.2297C53.1332 46.2297 53.4946 45.8683 53.4946 45.4225C53.4946 44.9767 53.1332 44.6152 52.6874 44.6152C52.2415 44.6152 51.8801 44.9767 51.8801 45.4225C51.8801 45.8683 52.2415 46.2297 52.6874 46.2297Z" fill="white"/>
<path d="M52.6874 48.6506C53.1332 48.6506 53.4946 48.2892 53.4946 47.8434C53.4946 47.3976 53.1332 47.0361 52.6874 47.0361C52.2415 47.0361 51.8801 47.3976 51.8801 47.8434C51.8801 48.2892 52.2415 48.6506 52.6874 48.6506Z" fill="white"/>
<path d="M52.6874 58.3391C53.1332 58.3391 53.4946 57.9777 53.4946 57.5319C53.4946 57.086 53.1332 56.7246 52.6874 56.7246C52.2415 56.7246 51.8801 57.086 51.8801 57.5319C51.8801 57.9777 52.2415 58.3391 52.6874 58.3391Z" fill="white"/>
<path d="M52.6874 63.1809C53.1332 63.1809 53.4946 62.8195 53.4946 62.3737C53.4946 61.9278 53.1332 61.5664 52.6874 61.5664C52.2415 61.5664 51.8801 61.9278 51.8801 62.3737C51.8801 62.8195 52.2415 63.1809 52.6874 63.1809Z" fill="white"/>
<path d="M52.6874 65.6038C53.1332 65.6038 53.4946 65.2423 53.4946 64.7965C53.4946 64.3507 53.1332 63.9893 52.6874 63.9893C52.2415 63.9893 51.8801 64.3507 51.8801 64.7965C51.8801 65.2423 52.2415 65.6038 52.6874 65.6038Z" fill="white"/>
<path d="M52.6874 70.4465C53.1332 70.4465 53.4946 70.0851 53.4946 69.6393C53.4946 69.1935 53.1332 68.832 52.6874 68.832C52.2415 68.832 51.8801 69.1935 51.8801 69.6393C51.8801 70.0851 52.2415 70.4465 52.6874 70.4465Z" fill="white"/>
<path d="M55.109 26.8547C55.5548 26.8547 55.9163 26.4933 55.9163 26.0475C55.9163 25.6017 55.5548 25.2402 55.109 25.2402C54.6632 25.2402 54.3018 25.6017 54.3018 26.0475C54.3018 26.4933 54.6632 26.8547 55.109 26.8547Z" fill="white"/>
<path d="M55.109 31.6985C55.5548 31.6985 55.9163 31.3371 55.9163 30.8912C55.9163 30.4454 55.5548 30.084 55.109 30.084C54.6632 30.084 54.3018 30.4454 54.3018 30.8912C54.3018 31.3371 54.6632 31.6985 55.109 31.6985Z" fill="white"/>
<path d="M55.109 34.1204C55.5548 34.1204 55.9163 33.759 55.9163 33.3131C55.9163 32.8673 55.5548 32.5059 55.109 32.5059C54.6632 32.5059 54.3018 32.8673 54.3018 33.3131C54.3018 33.759 54.6632 34.1204 55.109 34.1204Z" fill="white"/>
<path d="M55.109 43.8079C55.5548 43.8079 55.9163 43.4464 55.9163 43.0006C55.9163 42.5548 55.5548 42.1934 55.109 42.1934C54.6632 42.1934 54.3018 42.5548 54.3018 43.0006C54.3018 43.4464 54.6632 43.8079 55.109 43.8079Z" fill="white"/>
<path d="M55.109 51.0725C55.5548 51.0725 55.9163 50.7111 55.9163 50.2653C55.9163 49.8194 55.5548 49.458 55.109 49.458C54.6632 49.458 54.3018 49.8194 54.3018 50.2653C54.3018 50.7111 54.6632 51.0725 55.109 51.0725Z" fill="white"/>
<path d="M55.109 53.4944C55.5548 53.4944 55.9163 53.133 55.9163 52.6871C55.9163 52.2413 55.5548 51.8799 55.109 51.8799C54.6632 51.8799 54.3018 52.2413 54.3018 52.6871C54.3018 53.133 54.6632 53.4944 55.109 53.4944Z" fill="white"/>
<path d="M55.109 55.9163C55.5548 55.9163 55.9163 55.5548 55.9163 55.109C55.9163 54.6632 55.5548 54.3018 55.109 54.3018C54.6632 54.3018 54.3018 54.6632 54.3018 55.109C54.3018 55.5548 54.6632 55.9163 55.109 55.9163Z" fill="white"/>
<path d="M55.109 58.3391C55.5548 58.3391 55.9163 57.9777 55.9163 57.5319C55.9163 57.086 55.5548 56.7246 55.109 56.7246C54.6632 56.7246 54.3018 57.086 54.3018 57.5319C54.3018 57.9777 54.6632 58.3391 55.109 58.3391Z" fill="white"/>
<path d="M55.109 60.759C55.5548 60.759 55.9163 60.3976 55.9163 59.9518C55.9163 59.506 55.5548 59.1445 55.109 59.1445C54.6632 59.1445 54.3018 59.506 54.3018 59.9518C54.3018 60.3976 54.6632 60.759 55.109 60.759Z" fill="white"/>
<path d="M55.109 63.1809C55.5548 63.1809 55.9163 62.8195 55.9163 62.3737C55.9163 61.9278 55.5548 61.5664 55.109 61.5664C54.6632 61.5664 54.3018 61.9278 54.3018 62.3737C54.3018 62.8195 54.6632 63.1809 55.109 63.1809Z" fill="white"/>
<path d="M55.109 72.8684C55.5548 72.8684 55.9163 72.507 55.9163 72.0612C55.9163 71.6153 55.5548 71.2539 55.109 71.2539C54.6632 71.2539 54.3018 71.6153 54.3018 72.0612C54.3018 72.507 54.6632 72.8684 55.109 72.8684Z" fill="white"/>
<path d="M57.5306 12.3255C57.9765 12.3255 58.3379 11.964 58.3379 11.5182C58.3379 11.0724 57.9765 10.7109 57.5306 10.7109C57.0848 10.7109 56.7234 11.0724 56.7234 11.5182C56.7234 11.964 57.0848 12.3255 57.5306 12.3255Z" fill="white"/>
<path d="M57.5306 14.7454C57.9765 14.7454 58.3379 14.384 58.3379 13.9381C58.3379 13.4923 57.9765 13.1309 57.5306 13.1309C57.0848 13.1309 56.7234 13.4923 56.7234 13.9381C56.7234 14.384 57.0848 14.7454 57.5306 14.7454Z" fill="white"/>
<path d="M57.5306 17.1682C57.9765 17.1682 58.3379 16.8068 58.3379 16.361C58.3379 15.9151 57.9765 15.5537 57.5306 15.5537C57.0848 15.5537 56.7234 15.9151 56.7234 16.361C56.7234 16.8068 57.0848 17.1682 57.5306 17.1682Z" fill="white"/>
<path d="M57.5306 19.5901C57.9765 19.5901 58.3379 19.2287 58.3379 18.7828C58.3379 18.337 57.9765 17.9756 57.5306 17.9756C57.0848 17.9756 56.7234 18.337 56.7234 18.7828C56.7234 19.2287 57.0848 19.5901 57.5306 19.5901Z" fill="white"/>
<path d="M57.5306 22.01C57.9765 22.01 58.3379 21.6486 58.3379 21.2028C58.3379 20.7569 57.9765 20.3955 57.5306 20.3955C57.0848 20.3955 56.7234 20.7569 56.7234 21.2028C56.7234 21.6486 57.0848 22.01 57.5306 22.01Z" fill="white"/>
<path d="M57.5306 24.4329C57.9765 24.4329 58.3379 24.0715 58.3379 23.6256C58.3379 23.1798 57.9765 22.8184 57.5306 22.8184C57.0848 22.8184 56.7234 23.1798 56.7234 23.6256C56.7234 24.0715 57.0848 24.4329 57.5306 24.4329Z" fill="white"/>
<path d="M57.5306 34.1204C57.9765 34.1204 58.3379 33.759 58.3379 33.3131C58.3379 32.8673 57.9765 32.5059 57.5306 32.5059C57.0848 32.5059 56.7234 32.8673 56.7234 33.3131C56.7234 33.759 57.0848 34.1204 57.5306 34.1204Z" fill="white"/>
<path d="M57.5306 36.5422C57.9765 36.5422 58.3379 36.1808 58.3379 35.735C58.3379 35.2892 57.9765 34.9277 57.5306 34.9277C57.0848 34.9277 56.7234 35.2892 56.7234 35.735C56.7234 36.1808 57.0848 36.5422 57.5306 36.5422Z" fill="white"/>
<path d="M57.5306 48.6506C57.9765 48.6506 58.3379 48.2892 58.3379 47.8434C58.3379 47.3976 57.9765 47.0361 57.5306 47.0361C57.0848 47.0361 56.7234 47.3976 56.7234 47.8434C56.7234 48.2892 57.0848 48.6506 57.5306 48.6506Z" fill="white"/>
<path d="M57.5306 51.0725C57.9765 51.0725 58.3379 50.7111 58.3379 50.2653C58.3379 49.8194 57.9765 49.458 57.5306 49.458C57.0848 49.458 56.7234 49.8194 56.7234 50.2653C56.7234 50.7111 57.0848 51.0725 57.5306 51.0725Z" fill="white"/>
<path d="M57.5306 53.4944C57.9765 53.4944 58.3379 53.133 58.3379 52.6871C58.3379 52.2413 57.9765 51.8799 57.5306 51.8799C57.0848 51.8799 56.7234 52.2413 56.7234 52.6871C56.7234 53.133 57.0848 53.4944 57.5306 53.4944Z" fill="white"/>
<path d="M57.5306 55.9163C57.9765 55.9163 58.3379 55.5548 58.3379 55.109C58.3379 54.6632 57.9765 54.3018 57.5306 54.3018C57.0848 54.3018 56.7234 54.6632 56.7234 55.109C56.7234 55.5548 57.0848 55.9163 57.5306 55.9163Z" fill="white"/>
<path d="M57.5306 58.3391C57.9765 58.3391 58.3379 57.9777 58.3379 57.5319C58.3379 57.086 57.9765 56.7246 57.5306 56.7246C57.0848 56.7246 56.7234 57.086 56.7234 57.5319C56.7234 57.9777 57.0848 58.3391 57.5306 58.3391Z" fill="white"/>
<path d="M57.5306 60.759C57.9765 60.759 58.3379 60.3976 58.3379 59.9518C58.3379 59.506 57.9765 59.1445 57.5306 59.1445C57.0848 59.1445 56.7234 59.506 56.7234 59.9518C56.7234 60.3976 57.0848 60.759 57.5306 60.759Z" fill="white"/>
<path d="M57.5306 63.1809C57.9765 63.1809 58.3379 62.8195 58.3379 62.3737C58.3379 61.9278 57.9765 61.5664 57.5306 61.5664C57.0848 61.5664 56.7234 61.9278 56.7234 62.3737C56.7234 62.8195 57.0848 63.1809 57.5306 63.1809Z" fill="white"/>
<path d="M57.5306 65.6038C57.9765 65.6038 58.3379 65.2423 58.3379 64.7965C58.3379 64.3507 57.9765 63.9893 57.5306 63.9893C57.0848 63.9893 56.7234 64.3507 56.7234 64.7965C56.7234 65.2423 57.0848 65.6038 57.5306 65.6038Z" fill="white"/>
<path d="M57.5306 68.0256C57.9765 68.0256 58.3379 67.6642 58.3379 67.2184C58.3379 66.7726 57.9765 66.4111 57.5306 66.4111C57.0848 66.4111 56.7234 66.7726 56.7234 67.2184C56.7234 67.6642 57.0848 68.0256 57.5306 68.0256Z" fill="white"/>
<path d="M57.5306 70.4465C57.9765 70.4465 58.3379 70.0851 58.3379 69.6393C58.3379 69.1935 57.9765 68.832 57.5306 68.832C57.0848 68.832 56.7234 69.1935 56.7234 69.6393C56.7234 70.0851 57.0848 70.4465 57.5306 70.4465Z" fill="white"/>
<path d="M57.5306 72.8684C57.9765 72.8684 58.3379 72.507 58.3379 72.0612C58.3379 71.6153 57.9765 71.2539 57.5306 71.2539C57.0848 71.2539 56.7234 71.6153 56.7234 72.0612C56.7234 72.507 57.0848 72.8684 57.5306 72.8684Z" fill="white"/>
<path d="M57.5306 75.2903C57.9765 75.2903 58.3379 74.9289 58.3379 74.483C58.3379 74.0372 57.9765 73.6758 57.5306 73.6758C57.0848 73.6758 56.7234 74.0372 56.7234 74.483C56.7234 74.9289 57.0848 75.2903 57.5306 75.2903Z" fill="white"/>
<path d="M59.9523 29.2776C60.3981 29.2776 60.7595 28.9162 60.7595 28.4703C60.7595 28.0245 60.3981 27.6631 59.9523 27.6631C59.5064 27.6631 59.145 28.0245 59.145 28.4703C59.145 28.9162 59.5064 29.2776 59.9523 29.2776Z" fill="white"/>
<path d="M59.9523 34.1204C60.3981 34.1204 60.7595 33.759 60.7595 33.3131C60.7595 32.8673 60.3981 32.5059 59.9523 32.5059C59.5064 32.5059 59.145 32.8673 59.145 33.3131C59.145 33.759 59.5064 34.1204 59.9523 34.1204Z" fill="white"/>
<path d="M59.9523 38.9641C60.3981 38.9641 60.7595 38.6027 60.7595 38.1569C60.7595 37.711 60.3981 37.3496 59.9523 37.3496C59.5064 37.3496 59.145 37.711 59.145 38.1569C59.145 38.6027 59.5064 38.9641 59.9523 38.9641Z" fill="white"/>
<path d="M59.9523 43.8079C60.3981 43.8079 60.7595 43.4464 60.7595 43.0006C60.7595 42.5548 60.3981 42.1934 59.9523 42.1934C59.5064 42.1934 59.145 42.5548 59.145 43.0006C59.145 43.4464 59.5064 43.8079 59.9523 43.8079Z" fill="white"/>
<path d="M59.9523 55.9163C60.3981 55.9163 60.7595 55.5548 60.7595 55.109C60.7595 54.6632 60.3981 54.3018 59.9523 54.3018C59.5064 54.3018 59.145 54.6632 59.145 55.109C59.145 55.5548 59.5064 55.9163 59.9523 55.9163Z" fill="white"/>
<path d="M59.9523 58.3391C60.3981 58.3391 60.7595 57.9777 60.7595 57.5319C60.7595 57.086 60.3981 56.7246 59.9523 56.7246C59.5064 56.7246 59.145 57.086 59.145 57.5319C59.145 57.9777 59.5064 58.3391 59.9523 58.3391Z" fill="white"/>
<path d="M59.9523 68.0256C60.3981 68.0256 60.7595 67.6642 60.7595 67.2184C60.7595 66.7726 60.3981 66.4111 59.9523 66.4111C59.5064 66.4111 59.145 66.7726 59.145 67.2184C59.145 67.6642 59.5064 68.0256 59.9523 68.0256Z" fill="white"/>
<path d="M59.9523 70.4465C60.3981 70.4465 60.7595 70.0851 60.7595 69.6393C60.7595 69.1935 60.3981 68.832 59.9523 68.832C59.5064 68.832 59.145 69.1935 59.145 69.6393C59.145 70.0851 59.5064 70.4465 59.9523 70.4465Z" fill="white"/>
<path d="M59.9523 75.2903C60.3981 75.2903 60.7595 74.9289 60.7595 74.483C60.7595 74.0372 60.3981 73.6758 59.9523 73.6758C59.5064 73.6758 59.145 74.0372 59.145 74.483C59.145 74.9289 59.5064 75.2903 59.9523 75.2903Z" fill="white"/>
<path d="M59.9523 77.7122C60.3981 77.7122 60.7595 77.3508 60.7595 76.9049C60.7595 76.4591 60.3981 76.0977 59.9523 76.0977C59.5064 76.0977 59.145 76.4591 59.145 76.9049C59.145 77.3508 59.5064 77.7122 59.9523 77.7122Z" fill="white"/>
<path d="M62.3739 36.5422C62.8197 36.5422 63.1812 36.1808 63.1812 35.735C63.1812 35.2892 62.8197 34.9277 62.3739 34.9277C61.9281 34.9277 61.5667 35.2892 61.5667 35.735C61.5667 36.1808 61.9281 36.5422 62.3739 36.5422Z" fill="white"/>
<path d="M62.3739 43.8079C62.8197 43.8079 63.1812 43.4464 63.1812 43.0006C63.1812 42.5548 62.8197 42.1934 62.3739 42.1934C61.9281 42.1934 61.5667 42.5548 61.5667 43.0006C61.5667 43.4464 61.9281 43.8079 62.3739 43.8079Z" fill="white"/>
<path d="M62.3739 51.0725C62.8197 51.0725 63.1812 50.7111 63.1812 50.2653C63.1812 49.8194 62.8197 49.458 62.3739 49.458C61.9281 49.458 61.5667 49.8194 61.5667 50.2653C61.5667 50.7111 61.9281 51.0725 62.3739 51.0725Z" fill="white"/>
<path d="M62.3739 55.9163C62.8197 55.9163 63.1812 55.5548 63.1812 55.109C63.1812 54.6632 62.8197 54.3018 62.3739 54.3018C61.9281 54.3018 61.5667 54.6632 61.5667 55.109C61.5667 55.5548 61.9281 55.9163 62.3739 55.9163Z" fill="white"/>
<path d="M62.3739 58.3391C62.8197 58.3391 63.1812 57.9777 63.1812 57.5319C63.1812 57.086 62.8197 56.7246 62.3739 56.7246C61.9281 56.7246 61.5667 57.086 61.5667 57.5319C61.5667 57.9777 61.9281 58.3391 62.3739 58.3391Z" fill="white"/>
<path d="M62.3739 63.1809C62.8197 63.1809 63.1812 62.8195 63.1812 62.3737C63.1812 61.9278 62.8197 61.5664 62.3739 61.5664C61.9281 61.5664 61.5667 61.9278 61.5667 62.3737C61.5667 62.8195 61.9281 63.1809 62.3739 63.1809Z" fill="white"/>
<path d="M62.3739 68.0256C62.8197 68.0256 63.1812 67.6642 63.1812 67.2184C63.1812 66.7726 62.8197 66.4111 62.3739 66.4111C61.9281 66.4111 61.5667 66.7726 61.5667 67.2184C61.5667 67.6642 61.9281 68.0256 62.3739 68.0256Z" fill="white"/>
<path d="M62.3739 72.8684C62.8197 72.8684 63.1812 72.507 63.1812 72.0612C63.1812 71.6153 62.8197 71.2539 62.3739 71.2539C61.9281 71.2539 61.5667 71.6153 61.5667 72.0612C61.5667 72.507 61.9281 72.8684 62.3739 72.8684Z" fill="white"/>
<path d="M62.3739 75.2903C62.8197 75.2903 63.1812 74.9289 63.1812 74.483C63.1812 74.0372 62.8197 73.6758 62.3739 73.6758C61.9281 73.6758 61.5667 74.0372 61.5667 74.483C61.5667 74.9289 61.9281 75.2903 62.3739 75.2903Z" fill="white"/>
<path d="M64.796 29.2776C65.2419 29.2776 65.6033 28.9162 65.6033 28.4703C65.6033 28.0245 65.2419 27.6631 64.796 27.6631C64.3502 27.6631 63.9888 28.0245 63.9888 28.4703C63.9888 28.9162 64.3502 29.2776 64.796 29.2776Z" fill="white"/>
<path d="M64.796 31.6985C65.2419 31.6985 65.6033 31.3371 65.6033 30.8912C65.6033 30.4454 65.2419 30.084 64.796 30.084C64.3502 30.084 63.9888 30.4454 63.9888 30.8912C63.9888 31.3371 64.3502 31.6985 64.796 31.6985Z" fill="white"/>
<path d="M64.796 38.9641C65.2419 38.9641 65.6033 38.6027 65.6033 38.1569C65.6033 37.711 65.2419 37.3496 64.796 37.3496C64.3502 37.3496 63.9888 37.711 63.9888 38.1569C63.9888 38.6027 64.3502 38.9641 64.796 38.9641Z" fill="white"/>
<path d="M64.796 41.385C65.2419 41.385 65.6033 41.0236 65.6033 40.5778C65.6033 40.1319 65.2419 39.7705 64.796 39.7705C64.3502 39.7705 63.9888 40.1319 63.9888 40.5778C63.9888 41.0236 64.3502 41.385 64.796 41.385Z" fill="white"/>
<path d="M64.796 46.2297C65.2419 46.2297 65.6033 45.8683 65.6033 45.4225C65.6033 44.9767 65.2419 44.6152 64.796 44.6152C64.3502 44.6152 63.9888 44.9767 63.9888 45.4225C63.9888 45.8683 64.3502 46.2297 64.796 46.2297Z" fill="white"/>
<path d="M64.796 48.6506C65.2419 48.6506 65.6033 48.2892 65.6033 47.8434C65.6033 47.3976 65.2419 47.0361 64.796 47.0361C64.3502 47.0361 63.9888 47.3976 63.9888 47.8434C63.9888 48.2892 64.3502 48.6506 64.796 48.6506Z" fill="white"/>
<path d="M64.796 53.4944C65.2419 53.4944 65.6033 53.133 65.6033 52.6871C65.6033 52.2413 65.2419 51.8799 64.796 51.8799C64.3502 51.8799 63.9888 52.2413 63.9888 52.6871C63.9888 53.133 64.3502 53.4944 64.796 53.4944Z" fill="white"/>
<path d="M64.796 58.3391C65.2419 58.3391 65.6033 57.9777 65.6033 57.5319C65.6033 57.086 65.2419 56.7246 64.796 56.7246C64.3502 56.7246 63.9888 57.086 63.9888 57.5319C63.9888 57.9777 64.3502 58.3391 64.796 58.3391Z" fill="white"/>
<path d="M64.796 68.0256C65.2419 68.0256 65.6033 67.6642 65.6033 67.2184C65.6033 66.7726 65.2419 66.4111 64.796 66.4111C64.3502 66.4111 63.9888 66.7726 63.9888 67.2184C63.9888 67.6642 64.3502 68.0256 64.796 68.0256Z" fill="white"/>
<path d="M67.2177 31.6985C67.6635 31.6985 68.0249 31.3371 68.0249 30.8912C68.0249 30.4454 67.6635 30.084 67.2177 30.084C66.7718 30.084 66.4104 30.4454 66.4104 30.8912C66.4104 31.3371 66.7718 31.6985 67.2177 31.6985Z" fill="white"/>
<path d="M67.2177 36.5422C67.6635 36.5422 68.0249 36.1808 68.0249 35.735C68.0249 35.2892 67.6635 34.9277 67.2177 34.9277C66.7718 34.9277 66.4104 35.2892 66.4104 35.735C66.4104 36.1808 66.7718 36.5422 67.2177 36.5422Z" fill="white"/>
<path d="M67.2177 38.9641C67.6635 38.9641 68.0249 38.6027 68.0249 38.1569C68.0249 37.711 67.6635 37.3496 67.2177 37.3496C66.7718 37.3496 66.4104 37.711 66.4104 38.1569C66.4104 38.6027 66.7718 38.9641 67.2177 38.9641Z" fill="white"/>
<path d="M67.2177 41.385C67.6635 41.385 68.0249 41.0236 68.0249 40.5778C68.0249 40.1319 67.6635 39.7705 67.2177 39.7705C66.7718 39.7705 66.4104 40.1319 66.4104 40.5778C66.4104 41.0236 66.7718 41.385 67.2177 41.385Z" fill="white"/>
<path d="M67.2177 43.8079C67.6635 43.8079 68.0249 43.4464 68.0249 43.0006C68.0249 42.5548 67.6635 42.1934 67.2177 42.1934C66.7718 42.1934 66.4104 42.5548 66.4104 43.0006C66.4104 43.4464 66.7718 43.8079 67.2177 43.8079Z" fill="white"/>
<path d="M67.2177 46.2297C67.6635 46.2297 68.0249 45.8683 68.0249 45.4225C68.0249 44.9767 67.6635 44.6152 67.2177 44.6152C66.7718 44.6152 66.4104 44.9767 66.4104 45.4225C66.4104 45.8683 66.7718 46.2297 67.2177 46.2297Z" fill="white"/>
<path d="M67.2177 53.4944C67.6635 53.4944 68.0249 53.133 68.0249 52.6871C68.0249 52.2413 67.6635 51.8799 67.2177 51.8799C66.7718 51.8799 66.4104 52.2413 66.4104 52.6871C66.4104 53.133 66.7718 53.4944 67.2177 53.4944Z" fill="white"/>
<path d="M67.2177 58.3391C67.6635 58.3391 68.0249 57.9777 68.0249 57.5319C68.0249 57.086 67.6635 56.7246 67.2177 56.7246C66.7718 56.7246 66.4104 57.086 66.4104 57.5319C66.4104 57.9777 66.7718 58.3391 67.2177 58.3391Z" fill="white"/>
<path d="M67.2177 60.759C67.6635 60.759 68.0249 60.3976 68.0249 59.9518C68.0249 59.506 67.6635 59.1445 67.2177 59.1445C66.7718 59.1445 66.4104 59.506 66.4104 59.9518C66.4104 60.3976 66.7718 60.759 67.2177 60.759Z" fill="white"/>
<path d="M67.2177 63.1809C67.6635 63.1809 68.0249 62.8195 68.0249 62.3737C68.0249 61.9278 67.6635 61.5664 67.2177 61.5664C66.7718 61.5664 66.4104 61.9278 66.4104 62.3737C66.4104 62.8195 66.7718 63.1809 67.2177 63.1809Z" fill="white"/>
<path d="M67.2177 65.6038C67.6635 65.6038 68.0249 65.2423 68.0249 64.7965C68.0249 64.3507 67.6635 63.9893 67.2177 63.9893C66.7718 63.9893 66.4104 64.3507 66.4104 64.7965C66.4104 65.2423 66.7718 65.6038 67.2177 65.6038Z" fill="white"/>
<path d="M67.2177 68.0256C67.6635 68.0256 68.0249 67.6642 68.0249 67.2184C68.0249 66.7726 67.6635 66.4111 67.2177 66.4111C66.7718 66.4111 66.4104 66.7726 66.4104 67.2184C66.4104 67.6642 66.7718 68.0256 67.2177 68.0256Z" fill="white"/>
<path d="M67.2177 70.4465C67.6635 70.4465 68.0249 70.0851 68.0249 69.6393C68.0249 69.1935 67.6635 68.832 67.2177 68.832C66.7718 68.832 66.4104 69.1935 66.4104 69.6393C66.4104 70.0851 66.7718 70.4465 67.2177 70.4465Z" fill="white"/>
<path d="M67.2177 72.8684C67.6635 72.8684 68.0249 72.507 68.0249 72.0612C68.0249 71.6153 67.6635 71.2539 67.2177 71.2539C66.7718 71.2539 66.4104 71.6153 66.4104 72.0612C66.4104 72.507 66.7718 72.8684 67.2177 72.8684Z" fill="white"/>
<path d="M67.2177 77.7122C67.6635 77.7122 68.0249 77.3508 68.0249 76.9049C68.0249 76.4591 67.6635 76.0977 67.2177 76.0977C66.7718 76.0977 66.4104 76.4591 66.4104 76.9049C66.4104 77.3508 66.7718 77.7122 67.2177 77.7122Z" fill="white"/>
<path d="M69.6393 29.2776C70.0851 29.2776 70.4465 28.9162 70.4465 28.4703C70.4465 28.0245 70.0851 27.6631 69.6393 27.6631C69.1935 27.6631 68.832 28.0245 68.832 28.4703C68.832 28.9162 69.1935 29.2776 69.6393 29.2776Z" fill="white"/>
<path d="M69.6393 31.6985C70.0851 31.6985 70.4465 31.3371 70.4465 30.8912C70.4465 30.4454 70.0851 30.084 69.6393 30.084C69.1935 30.084 68.832 30.4454 68.832 30.8912C68.832 31.3371 69.1935 31.6985 69.6393 31.6985Z" fill="white"/>
<path d="M69.6393 38.9641C70.0851 38.9641 70.4465 38.6027 70.4465 38.1569C70.4465 37.711 70.0851 37.3496 69.6393 37.3496C69.1935 37.3496 68.832 37.711 68.832 38.1569C68.832 38.6027 69.1935 38.9641 69.6393 38.9641Z" fill="white"/>
<path d="M69.6393 48.6506C70.0851 48.6506 70.4465 48.2892 70.4465 47.8434C70.4465 47.3976 70.0851 47.0361 69.6393 47.0361C69.1935 47.0361 68.832 47.3976 68.832 47.8434C68.832 48.2892 69.1935 48.6506 69.6393 48.6506Z" fill="white"/>
<path d="M69.6393 51.0725C70.0851 51.0725 70.4465 50.7111 70.4465 50.2653C70.4465 49.8194 70.0851 49.458 69.6393 49.458C69.1935 49.458 68.832 49.8194 68.832 50.2653C68.832 50.7111 69.1935 51.0725 69.6393 51.0725Z" fill="white"/>
<path d="M69.6393 53.4944C70.0851 53.4944 70.4465 53.133 70.4465 52.6871C70.4465 52.2413 70.0851 51.8799 69.6393 51.8799C69.1935 51.8799 68.832 52.2413 68.832 52.6871C68.832 53.133 69.1935 53.4944 69.6393 53.4944Z" fill="white"/>
<path d="M69.6393 55.9163C70.0851 55.9163 70.4465 55.5548 70.4465 55.109C70.4465 54.6632 70.0851 54.3018 69.6393 54.3018C69.1935 54.3018 68.832 54.6632 68.832 55.109C68.832 55.5548 69.1935 55.9163 69.6393 55.9163Z" fill="white"/>
<path d="M69.6393 68.0256C70.0851 68.0256 70.4465 67.6642 70.4465 67.2184C70.4465 66.7726 70.0851 66.4111 69.6393 66.4111C69.1935 66.4111 68.832 66.7726 68.832 67.2184C68.832 67.6642 69.1935 68.0256 69.6393 68.0256Z" fill="white"/>
<path d="M69.6393 70.4465C70.0851 70.4465 70.4465 70.0851 70.4465 69.6393C70.4465 69.1935 70.0851 68.832 69.6393 68.832C69.1935 68.832 68.832 69.1935 68.832 69.6393C68.832 70.0851 69.1935 70.4465 69.6393 70.4465Z" fill="white"/>
<path d="M69.6393 75.2903C70.0851 75.2903 70.4465 74.9289 70.4465 74.483C70.4465 74.0372 70.0851 73.6758 69.6393 73.6758C69.1935 73.6758 68.832 74.0372 68.832 74.483C68.832 74.9289 69.1935 75.2903 69.6393 75.2903Z" fill="white"/>
<path d="M72.0612 29.2776C72.507 29.2776 72.8684 28.9162 72.8684 28.4703C72.8684 28.0245 72.507 27.6631 72.0612 27.6631C71.6153 27.6631 71.2539 28.0245 71.2539 28.4703C71.2539 28.9162 71.6153 29.2776 72.0612 29.2776Z" fill="white"/>
<path d="M72.0612 36.5422C72.507 36.5422 72.8684 36.1808 72.8684 35.735C72.8684 35.2892 72.507 34.9277 72.0612 34.9277C71.6153 34.9277 71.2539 35.2892 71.2539 35.735C71.2539 36.1808 71.6153 36.5422 72.0612 36.5422Z" fill="white"/>
<path d="M72.0612 38.9641C72.507 38.9641 72.8684 38.6027 72.8684 38.1569C72.8684 37.711 72.507 37.3496 72.0612 37.3496C71.6153 37.3496 71.2539 37.711 71.2539 38.1569C71.2539 38.6027 71.6153 38.9641 72.0612 38.9641Z" fill="white"/>
<path d="M72.0612 41.385C72.507 41.385 72.8684 41.0236 72.8684 40.5778C72.8684 40.1319 72.507 39.7705 72.0612 39.7705C71.6153 39.7705 71.2539 40.1319 71.2539 40.5778C71.2539 41.0236 71.6153 41.385 72.0612 41.385Z" fill="white"/>
<path d="M72.0612 46.2297C72.507 46.2297 72.8684 45.8683 72.8684 45.4225C72.8684 44.9767 72.507 44.6152 72.0612 44.6152C71.6153 44.6152 71.2539 44.9767 71.2539 45.4225C71.2539 45.8683 71.6153 46.2297 72.0612 46.2297Z" fill="white"/>
<path d="M72.0612 48.6506C72.507 48.6506 72.8684 48.2892 72.8684 47.8434C72.8684 47.3976 72.507 47.0361 72.0612 47.0361C71.6153 47.0361 71.2539 47.3976 71.2539 47.8434C71.2539 48.2892 71.6153 48.6506 72.0612 48.6506Z" fill="white"/>
<path d="M72.0612 58.3391C72.507 58.3391 72.8684 57.9777 72.8684 57.5319C72.8684 57.086 72.507 56.7246 72.0612 56.7246C71.6153 56.7246 71.2539 57.086 71.2539 57.5319C71.2539 57.9777 71.6153 58.3391 72.0612 58.3391Z" fill="white"/>
<path d="M72.0612 65.6038C72.507 65.6038 72.8684 65.2423 72.8684 64.7965C72.8684 64.3507 72.507 63.9893 72.0612 63.9893C71.6153 63.9893 71.2539 64.3507 71.2539 64.7965C71.2539 65.2423 71.6153 65.6038 72.0612 65.6038Z" fill="white"/>
<path d="M72.0612 72.8684C72.507 72.8684 72.8684 72.507 72.8684 72.0612C72.8684 71.6153 72.507 71.2539 72.0612 71.2539C71.6153 71.2539 71.2539 71.6153 71.2539 72.0612C71.2539 72.507 71.6153 72.8684 72.0612 72.8684Z" fill="white"/>
<path d="M72.0612 77.7122C72.507 77.7122 72.8684 77.3508 72.8684 76.9049C72.8684 76.4591 72.507 76.0977 72.0612 76.0977C71.6153 76.0977 71.2539 76.4591 71.2539 76.9049C71.2539 77.3508 71.6153 77.7122 72.0612 77.7122Z" fill="white"/>
<path d="M74.483 29.2776C74.9289 29.2776 75.2903 28.9162 75.2903 28.4703C75.2903 28.0245 74.9289 27.6631 74.483 27.6631C74.0372 27.6631 73.6758 28.0245 73.6758 28.4703C73.6758 28.9162 74.0372 29.2776 74.483 29.2776Z" fill="white"/>
<path d="M74.483 34.1204C74.9289 34.1204 75.2903 33.759 75.2903 33.3131C75.2903 32.8673 74.9289 32.5059 74.483 32.5059C74.0372 32.5059 73.6758 32.8673 73.6758 33.3131C73.6758 33.759 74.0372 34.1204 74.483 34.1204Z" fill="white"/>
<path d="M74.483 36.5422C74.9289 36.5422 75.2903 36.1808 75.2903 35.735C75.2903 35.2892 74.9289 34.9277 74.483 34.9277C74.0372 34.9277 73.6758 35.2892 73.6758 35.735C73.6758 36.1808 74.0372 36.5422 74.483 36.5422Z" fill="white"/>
<path d="M74.483 38.9641C74.9289 38.9641 75.2903 38.6027 75.2903 38.1569C75.2903 37.711 74.9289 37.3496 74.483 37.3496C74.0372 37.3496 73.6758 37.711 73.6758 38.1569C73.6758 38.6027 74.0372 38.9641 74.483 38.9641Z" fill="white"/>
<path d="M74.483 41.385C74.9289 41.385 75.2903 41.0236 75.2903 40.5778C75.2903 40.1319 74.9289 39.7705 74.483 39.7705C74.0372 39.7705 73.6758 40.1319 73.6758 40.5778C73.6758 41.0236 74.0372 41.385 74.483 41.385Z" fill="white"/>
<path d="M74.483 48.6506C74.9289 48.6506 75.2903 48.2892 75.2903 47.8434C75.2903 47.3976 74.9289 47.0361 74.483 47.0361C74.0372 47.0361 73.6758 47.3976 73.6758 47.8434C73.6758 48.2892 74.0372 48.6506 74.483 48.6506Z" fill="white"/>
<path d="M74.483 55.9163C74.9289 55.9163 75.2903 55.5548 75.2903 55.109C75.2903 54.6632 74.9289 54.3018 74.483 54.3018C74.0372 54.3018 73.6758 54.6632 73.6758 55.109C73.6758 55.5548 74.0372 55.9163 74.483 55.9163Z" fill="white"/>
<path d="M74.483 58.3391C74.9289 58.3391 75.2903 57.9777 75.2903 57.5319C75.2903 57.086 74.9289 56.7246 74.483 56.7246C74.0372 56.7246 73.6758 57.086 73.6758 57.5319C73.6758 57.9777 74.0372 58.3391 74.483 58.3391Z" fill="white"/>
<path d="M74.483 68.0256C74.9289 68.0256 75.2903 67.6642 75.2903 67.2184C75.2903 66.7726 74.9289 66.4111 74.483 66.4111C74.0372 66.4111 73.6758 66.7726 73.6758 67.2184C73.6758 67.6642 74.0372 68.0256 74.483 68.0256Z" fill="white"/>
<path d="M74.483 75.2903C74.9289 75.2903 75.2903 74.9289 75.2903 74.483C75.2903 74.0372 74.9289 73.6758 74.483 73.6758C74.0372 73.6758 73.6758 74.0372 73.6758 74.483C73.6758 74.9289 74.0372 75.2903 74.483 75.2903Z" fill="white"/>
<path d="M76.9047 36.5422C77.3505 36.5422 77.7119 36.1808 77.7119 35.735C77.7119 35.2892 77.3505 34.9277 76.9047 34.9277C76.4588 34.9277 76.0974 35.2892 76.0974 35.735C76.0974 36.1808 76.4588 36.5422 76.9047 36.5422Z" fill="white"/>
<path d="M76.9047 41.385C77.3505 41.385 77.7119 41.0236 77.7119 40.5778C77.7119 40.1319 77.3505 39.7705 76.9047 39.7705C76.4588 39.7705 76.0974 40.1319 76.0974 40.5778C76.0974 41.0236 76.4588 41.385 76.9047 41.385Z" fill="white"/>
<path d="M76.9047 43.8079C77.3505 43.8079 77.7119 43.4464 77.7119 43.0006C77.7119 42.5548 77.3505 42.1934 76.9047 42.1934C76.4588 42.1934 76.0974 42.5548 76.0974 43.0006C76.0974 43.4464 76.4588 43.8079 76.9047 43.8079Z" fill="white"/>
<path d="M76.9047 46.2297C77.3505 46.2297 77.7119 45.8683 77.7119 45.4225C77.7119 44.9767 77.3505 44.6152 76.9047 44.6152C76.4588 44.6152 76.0974 44.9767 76.0974 45.4225C76.0974 45.8683 76.4588 46.2297 76.9047 46.2297Z" fill="white"/>
<path d="M76.9047 48.6506C77.3505 48.6506 77.7119 48.2892 77.7119 47.8434C77.7119 47.3976 77.3505 47.0361 76.9047 47.0361C76.4588 47.0361 76.0974 47.3976 76.0974 47.8434C76.0974 48.2892 76.4588 48.6506 76.9047 48.6506Z" fill="white"/>
<path d="M76.9047 53.4944C77.3505 53.4944 77.7119 53.133 77.7119 52.6871C77.7119 52.2413 77.3505 51.8799 76.9047 51.8799C76.4588 51.8799 76.0974 52.2413 76.0974 52.6871C76.0974 53.133 76.4588 53.4944 76.9047 53.4944Z" fill="white"/>
<path d="M76.9047 55.9163C77.3505 55.9163 77.7119 55.5548 77.7119 55.109C77.7119 54.6632 77.3505 54.3018 76.9047 54.3018C76.4588 54.3018 76.0974 54.6632 76.0974 55.109C76.0974 55.5548 76.4588 55.9163 76.9047 55.9163Z" fill="white"/>
<path d="M76.9047 58.3391C77.3505 58.3391 77.7119 57.9777 77.7119 57.5319C77.7119 57.086 77.3505 56.7246 76.9047 56.7246C76.4588 56.7246 76.0974 57.086 76.0974 57.5319C76.0974 57.9777 76.4588 58.3391 76.9047 58.3391Z" fill="white"/>
<path d="M76.9047 63.1809C77.3505 63.1809 77.7119 62.8195 77.7119 62.3737C77.7119 61.9278 77.3505 61.5664 76.9047 61.5664C76.4588 61.5664 76.0974 61.9278 76.0974 62.3737C76.0974 62.8195 76.4588 63.1809 76.9047 63.1809Z" fill="white"/>
<path d="M76.9047 65.6038C77.3505 65.6038 77.7119 65.2423 77.7119 64.7965C77.7119 64.3507 77.3505 63.9893 76.9047 63.9893C76.4588 63.9893 76.0974 64.3507 76.0974 64.7965C76.0974 65.2423 76.4588 65.6038 76.9047 65.6038Z" fill="white"/>
<path d="M76.9047 70.4465C77.3505 70.4465 77.7119 70.0851 77.7119 69.6393C77.7119 69.1935 77.3505 68.832 76.9047 68.832C76.4588 68.832 76.0974 69.1935 76.0974 69.6393C76.0974 70.0851 76.4588 70.4465 76.9047 70.4465Z" fill="white"/>
<path d="M76.9047 75.2903C77.3505 75.2903 77.7119 74.9289 77.7119 74.483C77.7119 74.0372 77.3505 73.6758 76.9047 73.6758C76.4588 73.6758 76.0974 74.0372 76.0974 74.483C76.0974 74.9289 76.4588 75.2903 76.9047 75.2903Z" fill="white"/>
<path d="M7.88403 13.9392V18.7827C7.88403 20.3885 8.52191 21.9284 9.65733 23.0639C10.7928 24.1993 12.3327 24.8372 13.9385 24.8372H18.782C20.3877 24.8372 21.9277 24.1993 23.0631 23.0639C24.1985 21.9284 24.8364 20.3885 24.8364 18.7827V13.9392C24.8364 12.3335 24.1985 10.7935 23.0631 9.65807C21.9277 8.52264 20.3877 7.88477 18.782 7.88477H13.9385C12.3327 7.88477 10.7928 8.52264 9.65733 9.65807C8.52191 10.7935 7.88403 12.3335 7.88403 13.9392ZM13.9385 10.3065H18.782C19.7454 10.3065 20.6694 10.6893 21.3507 11.3705C22.0319 12.0518 22.4146 12.9757 22.4146 13.9392V18.7827C22.4146 19.7462 22.0319 20.6701 21.3507 21.3514C20.6694 22.0327 19.7454 22.4154 18.782 22.4154H13.9385C12.975 22.4154 12.051 22.0327 11.3698 21.3514C10.6885 20.6701 10.3058 19.7462 10.3058 18.7827V13.9392C10.3058 12.9757 10.6885 12.0518 11.3698 11.3705C12.051 10.6893 12.975 10.3065 13.9385 10.3065Z" fill="white"/>
<path d="M16.3604 19.9938C18.3667 19.9938 19.9931 18.3674 19.9931 16.3612C19.9931 14.3549 18.3667 12.7285 16.3604 12.7285C14.3542 12.7285 12.7278 14.3549 12.7278 16.3612C12.7278 18.3674 14.3542 19.9938 16.3604 19.9938Z" fill="white"/>
<path d="M72.0611 7.88477L67.2175 7.88477C65.6118 7.88477 64.0718 8.52264 62.9364 9.65806C61.801 10.7935 61.1631 12.3335 61.1631 13.9392V18.7827C61.1631 20.3885 61.801 21.9284 62.9364 23.0639C64.0718 24.1993 65.6118 24.8372 67.2175 24.8372H72.0611C73.6668 24.8372 75.2068 24.1993 76.3422 23.0639C77.4776 21.9284 78.1155 20.3885 78.1155 18.7827V13.9392C78.1155 12.3335 77.4776 10.7935 76.3422 9.65806C75.2068 8.52264 73.6668 7.88477 72.0611 7.88477ZM75.6937 13.9392V18.7827C75.6937 19.7462 75.311 20.6701 74.6297 21.3514C73.9485 22.0327 73.0245 22.4154 72.0611 22.4154H67.2175C66.2541 22.4154 65.3301 22.0327 64.6488 21.3514C63.9676 20.6701 63.5849 19.7462 63.5849 18.7827V13.9392C63.5849 12.9757 63.9676 12.0518 64.6488 11.3705C65.3301 10.6893 66.2541 10.3065 67.2175 10.3065H72.0611C73.0245 10.3065 73.9485 10.6893 74.6297 11.3705C75.311 12.0518 75.6937 12.9757 75.6937 13.9392Z" fill="white"/>
<path d="M66.0067 16.3612C66.0067 18.3674 67.6331 19.9938 69.6393 19.9938C71.6456 19.9938 73.272 18.3674 73.272 16.3612C73.272 14.3549 71.6456 12.7285 69.6393 12.7285C67.6331 12.7285 66.0067 14.3549 66.0067 16.3612Z" fill="white"/>
<path d="M13.9385 78.1152H18.782C20.3877 78.1152 21.9277 77.4774 23.0631 76.3419C24.1985 75.2065 24.8364 73.6665 24.8364 72.0608V67.2173C24.8364 65.6115 24.1985 64.0716 23.0631 62.9361C21.9277 61.8007 20.3877 61.1628 18.782 61.1628H13.9385C12.3327 61.1628 10.7928 61.8007 9.65733 62.9361C8.52191 64.0716 7.88403 65.6115 7.88403 67.2173L7.88403 72.0608C7.88403 73.6665 8.52191 75.2065 9.65733 76.3419C10.7928 77.4774 12.3327 78.1152 13.9385 78.1152ZM10.3058 72.0608V67.2173C10.3058 66.2538 10.6885 65.3299 11.3698 64.6486C12.051 63.9673 12.975 63.5846 13.9385 63.5846H18.782C19.7454 63.5846 20.6694 63.9673 21.3507 64.6486C22.0319 65.3299 22.4146 66.2538 22.4146 67.2173V72.0608C22.4146 73.0243 22.0319 73.9482 21.3507 74.6295C20.6694 75.3107 19.7454 75.6935 18.782 75.6935H13.9385C12.975 75.6935 12.051 75.3107 11.3698 74.6295C10.6885 73.9482 10.3058 73.0243 10.3058 72.0608Z" fill="white"/>
<path d="M19.9931 69.6379C19.9931 67.6316 18.3667 66.0052 16.3604 66.0052C14.3542 66.0052 12.7278 67.6316 12.7278 69.6379C12.7278 71.6441 14.3542 73.2705 16.3604 73.2705C18.3667 73.2705 19.9931 71.6441 19.9931 69.6379Z" fill="white"/>
</g>
<defs>
<clipPath id="clip0_4408_1552">
<rect width="72.6531" height="72.6531" fill="white" transform="translate(6.67334 6.67383)"/>
</clipPath>
</defs>
</svg>
