<svg width="40" height="32" viewBox="0 0 40 32" fill="none" xmlns="http://www.w3.org/2000/svg">
<path d="M22.6014 32V22.3776C22.6014 16.3357 24.0187 11.4126 26.8531 7.60839C29.7622 3.7296 34.0513 1.19347 39.7203 0V7.27273C37.1842 7.86947 35.1702 8.98835 33.6783 10.6294C32.1865 12.1958 31.2168 14.0979 30.7692 16.3357H37.4825V32H22.6014ZM0 32L0 22.3776C0 16.3357 1.41725 11.4126 4.25175 7.60839C7.16084 3.7296 11.4126 1.19347 17.007 0V7.27273C14.4709 7.86947 12.4569 8.98835 10.965 10.6294C9.4732 12.1958 8.5035 14.0979 8.05595 16.3357H14.7692V32H0Z" fill="#39CAE5"/>
</svg>
