<svg width="32" height="32" viewBox="0 0 32 32" fill="none" xmlns="http://www.w3.org/2000/svg">
<path d="M13.3333 14.6667V12C13.3333 11.2928 13.6143 10.6145 14.1144 10.1144C14.6145 9.61428 15.2928 9.33333 16 9.33333C16.7072 9.33333 17.3855 9.61428 17.8856 10.1144C18.3857 10.6145 18.6667 11.2928 18.6667 12V14.6667M16 4C25.6 4 28 6.4 28 16C28 25.6 25.6 28 16 28C6.4 28 4 25.6 4 16C4 6.4 6.4 4 16 4ZM10.6667 16C10.6667 15.6464 10.8071 15.3072 11.0572 15.0572C11.3072 14.8071 11.6464 14.6667 12 14.6667H20C20.3536 14.6667 20.6928 14.8071 20.9428 15.0572C21.1929 15.3072 21.3333 15.6464 21.3333 16V20C21.3333 20.3536 21.1929 20.6928 20.9428 20.9428C20.6928 21.1929 20.3536 21.3333 20 21.3333H12C11.6464 21.3333 11.3072 21.1929 11.0572 20.9428C10.8071 20.6928 10.6667 20.3536 10.6667 20V16Z" stroke="#F88C9E" stroke-width="2" stroke-linecap="round" stroke-linejoin="round"/>
</svg>
