<svg width="24" height="24" viewBox="0 0 24 24" fill="none" xmlns="http://www.w3.org/2000/svg">
<path d="M24 18.8091L23.9039 18.9148C22.6991 20.1228 21.4911 21.3276 20.283 22.5324C19.7928 23.0227 19.3025 23.5097 18.8091 24H0V0H24V18.8091ZM3.98613 6.31242C3.86437 6.31882 3.74901 6.34125 3.61764 6.35407C3.61764 6.42455 3.61765 6.47262 3.61444 6.52389C3.61765 9.32122 3.62084 12.1186 3.61764 14.9159C3.61764 15.326 3.7394 15.6849 4.01817 15.9829C4.65262 16.659 5.29669 17.3287 5.93754 18.0016C6.133 18.2067 6.36371 18.2932 6.65209 18.29C8.22859 18.2772 9.80189 18.2836 11.3784 18.2836C11.5443 18.2836 11.5987 18.282 11.6165 18.1955C11.6258 18.1581 11.6273 18.1035 11.6283 18.024L11.6667 11.5226C11.6699 11.2021 11.6091 11.1445 11.2822 11.1445C10.4331 11.1412 9.58396 11.1413 8.73483 11.1348C8.45612 11.1329 8.32376 11.1565 8.26399 11.281C8.2242 11.3582 8.21451 11.476 8.21577 11.6539C8.22218 12.7178 8.2254 13.7784 8.2254 14.8422C8.22856 14.997 8.21305 15.1518 8.20647 15.3036H7.06223V9.91081H7.23846C8.53619 9.9076 9.83393 9.9076 11.1317 9.90439C11.1797 9.90439 11.2278 9.90761 11.2758 9.9012C11.4292 9.88477 11.5662 9.8074 11.6027 9.71123C11.6109 9.69287 11.6155 9.67387 11.6155 9.65447C11.6219 9.04246 11.6187 8.42724 11.6187 7.79921C11.5482 7.7928 11.4681 7.78319 11.3912 7.78319C10.1992 7.77678 9.01041 7.77356 7.81842 7.76395C7.66782 7.76395 7.52043 7.75754 7.36983 7.73832C7.16155 7.70948 7.07182 7.62936 7.05259 7.42108C7.02696 7.17756 7.02377 6.93084 7.02377 6.68732C7.02057 6.38613 6.95648 6.31242 6.64567 6.31242H3.98613ZM15.3357 6.2964C15.153 6.2964 14.9896 6.34125 14.855 6.47582C14.1533 7.17756 13.4548 7.88251 12.7402 8.57143C12.7316 8.57964 12.7232 8.5879 12.7149 8.59618C12.4565 8.85383 12.3685 9.14851 12.3685 9.50386C12.3717 12.2691 12.3717 15.0344 12.3717 17.8029C12.3717 17.8766 12.3749 17.9535 12.3781 18.0272C12.3973 18.2675 12.3973 18.2675 12.644 18.2675C14.2878 18.2675 15.9348 18.2644 17.5786 18.2708C17.7805 18.2708 17.9407 18.2099 18.0817 18.0689C18.1343 18.0165 18.187 17.9642 18.2396 17.9119C18.8774 17.2779 19.5175 16.6462 20.1549 16.0118C20.3119 15.8547 20.3952 15.6657 20.3952 15.4382C20.3984 14.3904 20.408 13.3458 20.4112 12.298C20.4112 12.0352 20.3247 11.9551 20.062 11.9551C19.4211 11.9551 18.7803 11.9584 18.1394 11.9584C17.8606 11.9584 17.5851 11.9551 17.3063 11.9551C17.1954 11.9551 17.1203 11.9759 17.0711 12.0246C17.0213 12.0714 16.9971 12.1453 16.9891 12.2531C16.9859 12.3108 16.9858 12.3717 16.9858 12.4294C16.9858 13.4323 16.9859 14.4385 16.9891 15.4414V15.6112H15.8003V9.24752H16.6686C16.9186 9.24752 16.989 9.31483 16.9923 9.57117C16.9923 9.99733 16.9891 10.4267 16.9891 10.8529C16.9891 11.1028 17.0756 11.1989 17.3223 11.1989C18.2259 11.2021 19.1263 11.2021 20.0299 11.1989C20.1465 11.1977 20.2293 11.1852 20.2873 11.1537C20.3853 11.102 20.4144 10.9958 20.4144 10.7984C20.4176 9.44619 20.4177 8.0972 20.4177 6.74499C20.4177 6.37971 20.3471 6.29959 19.9819 6.29959C18.4342 6.29638 16.8833 6.2964 15.3357 6.2964Z" fill="white"/>
</svg>
