<svg width="65" height="23" viewBox="0 0 65 23" fill="none" xmlns="http://www.w3.org/2000/svg">
<path d="M0 11.0137C0 4.93099 4.93099 0 11.0137 0L18.3561 0C20.3837 0 22.0274 1.64366 22.0274 3.67123V18.3561C22.0274 20.3837 20.3837 22.0274 18.3561 22.0274H11.0137C4.931 22.0274 0 17.0964 0 11.0137Z" fill="#FF060A"/>
<g clip-path="url(#clip0_4226_5465)">
<path d="M16.3811 9.09858C15.9294 8.68148 15.3045 8.04453 14.7955 7.5928L14.7654 7.57172C14.7153 7.53148 14.6588 7.49993 14.5983 7.47836C13.371 7.24948 7.65964 6.18189 7.54821 6.19544C7.51699 6.19981 7.48714 6.21113 7.46087 6.22857L7.43226 6.25115C7.39704 6.28693 7.37028 6.33015 7.35396 6.37764L7.34644 6.39721V6.50412V6.52069C7.9894 8.31106 10.5281 14.1761 11.0281 15.5523C11.0582 15.6457 11.1154 15.8234 11.2223 15.8324H11.2464C11.3036 15.8324 11.5476 15.5102 11.5476 15.5102C11.5476 15.5102 15.9083 10.2219 16.3495 9.65873C16.4066 9.58936 16.457 9.51474 16.5001 9.43587C16.511 9.37417 16.5059 9.31066 16.485 9.25155C16.4642 9.19244 16.4284 9.13974 16.3811 9.09858ZM12.6663 9.71444L14.5275 8.17102L15.6192 9.17688L12.6663 9.71444ZM11.9436 9.61355L8.73928 6.98748L13.9237 7.94365L11.9436 9.61355ZM12.2327 10.3017L15.5123 9.77317L11.7629 14.2905L12.2327 10.3017ZM8.30411 7.24948L11.6755 10.1105L11.1877 14.2935L8.30411 7.24948Z" fill="white"/>
</g>
<path d="M23.863 3.67123C23.863 1.64367 25.5067 0 27.5343 0L53.0274 0C59.1101 0 64.0411 4.93099 64.0411 11.0137C64.0411 17.0964 59.1101 22.0274 53.0274 22.0274H27.5343C25.5067 22.0274 23.863 20.3837 23.863 18.3561V3.67123Z" fill="#FF060A" fill-opacity="0.2"/>
<path d="M29.836 15.0137V7.96492H27.6553V6.80848H33.2723V7.96492H31.1246V15.0137H29.836ZM34.1063 15.0137V6.80848H37.091C37.6417 6.80848 38.1263 6.91127 38.5448 7.11686C38.9634 7.31511 39.2901 7.60881 39.5251 7.99796C39.7674 8.37976 39.8885 8.83867 39.8885 9.37467C39.8885 9.94004 39.7453 10.4246 39.459 10.8285C39.18 11.2323 38.8018 11.526 38.3246 11.7096L40.2189 15.0137H38.7431L36.7276 11.4342L37.5756 11.9298H35.406V15.0137H34.1063ZM35.406 10.7734H37.1131C37.4141 10.7734 37.6748 10.7147 37.895 10.5972C38.1153 10.4797 38.2842 10.3182 38.4017 10.1126C38.5265 9.89965 38.5889 9.65001 38.5889 9.36365C38.5889 9.0773 38.5265 8.83132 38.4017 8.62574C38.2842 8.41281 38.1153 8.25127 37.895 8.14113C37.6748 8.02366 37.4141 7.96492 37.1131 7.96492H35.406V10.7734ZM45.1618 15.1458C44.5671 15.1458 44.0127 15.0394 43.4988 14.8264C42.9921 14.6135 42.5443 14.3161 42.1551 13.9343C41.7733 13.5525 41.4723 13.1046 41.252 12.5907C41.039 12.0767 40.9326 11.515 40.9326 10.9056C40.9326 10.2961 41.039 9.73445 41.252 9.22048C41.4723 8.69916 41.7733 8.25127 42.1551 7.87681C42.5369 7.495 42.9848 7.2013 43.4988 6.99571C44.0127 6.78278 44.5671 6.67631 45.1618 6.67631C45.7639 6.67631 46.3183 6.78278 46.8249 6.99571C47.3389 7.2013 47.7868 7.495 48.1686 7.87681C48.5577 8.25861 48.8588 8.7065 49.0717 9.22048C49.2846 9.73445 49.3911 10.2961 49.3911 10.9056C49.3911 11.515 49.281 12.0767 49.0607 12.5907C48.8477 13.1046 48.5504 13.5525 48.1686 13.9343C47.7868 14.3161 47.3389 14.6135 46.8249 14.8264C46.3109 15.0394 45.7566 15.1458 45.1618 15.1458ZM45.1618 13.9564C45.5877 13.9564 45.9768 13.8793 46.3293 13.7251C46.6891 13.5709 47.0011 13.3579 47.2654 13.0863C47.5298 12.8073 47.7354 12.4842 47.8822 12.1171C48.0291 11.7426 48.1025 11.3388 48.1025 10.9056C48.1025 10.4724 48.0291 10.0722 47.8822 9.70508C47.7354 9.33795 47.5298 9.01489 47.2654 8.73587C47.0011 8.45686 46.6891 8.24026 46.3293 8.08607C45.9768 7.93187 45.5877 7.85478 45.1618 7.85478C44.736 7.85478 44.3432 7.93187 43.9834 8.08607C43.6309 8.24026 43.3226 8.45686 43.0582 8.73587C42.7939 9.01489 42.5883 9.33795 42.4415 9.70508C42.3019 10.0722 42.2322 10.4724 42.2322 10.9056C42.2322 11.3388 42.3019 11.7426 42.4415 12.1171C42.5883 12.4842 42.7939 12.8073 43.0582 13.0863C43.3226 13.3579 43.6346 13.5709 43.9944 13.7251C44.3542 13.8793 44.7433 13.9564 45.1618 13.9564ZM50.7065 15.0137V6.80848L51.7527 6.80848L56.3565 13.1634L55.8609 13.2405V6.80848H57.1495V15.0137H56.1032L51.5325 8.61472L52.0061 8.52661V15.0137H50.7065Z" fill="white"/>
<defs>
<clipPath id="clip0_4226_5465">
<rect width="9.63697" height="9.63697" fill="white" transform="translate(7.11304 6.19531)"/>
</clipPath>
</defs>
</svg>
