<svg width="56" height="56" viewBox="0 0 56 56" fill="none" xmlns="http://www.w3.org/2000/svg">
<g clip-path="url(#clip0_4313_21639)">
<g clip-path="url(#clip1_4313_21639)">
<path d="M-0.164795 -2.05273L64.2953 9.31333L55.7708 57.6584L-8.68934 46.2924L-0.164795 -2.05273Z" fill="#012169"/>
<path d="M7.38913 -0.720774L28.7501 21.8427L56.4393 7.92809L64.2953 9.31333L63.1943 15.5579L35.8428 29.3243L56.8541 51.5146L55.7708 57.6584L47.7133 56.2377L26.7197 33.9467L-0.531105 47.7309L-8.68934 46.2924L-7.62377 40.2492L19.6092 26.5658L-1.3014 4.39328L-0.164795 -2.05273L7.38913 -0.720774Z" fill="white"/>
<path d="M37.5496 33.7793L56.4812 53.6297L55.7708 57.6584L32.0101 32.8025L37.5496 33.7793ZM18.6622 32.5259L18.6449 36.1577L-3.25052 47.2514L-8.68934 46.2924L18.6622 32.5259ZM64.2953 9.31333L64.2421 9.61549L35.8243 24.1285L36.8071 19.7324L59.2594 8.42535L64.2953 9.31333ZM-0.164795 -2.05273L20.7814 19.9183L14.7382 18.8528L-0.910693 2.17746L-0.164795 -2.05273Z" fill="#C8102E"/>
<path d="M24.1085 2.2273L15.5839 50.5724L31.699 53.4139L40.2235 5.06881L24.1085 2.2273ZM-3.00631 14.0623L-5.84783 30.1773L58.6123 41.5434L61.4538 25.4284L-3.00631 14.0623Z" fill="white"/>
<path d="M-3.59237 17.386L-5.29728 27.055L59.1629 38.4211L60.8678 28.7521L-3.59237 17.386ZM27.3315 2.7956L18.8069 51.1407L28.476 52.8456L37.0005 4.50051L27.3315 2.7956Z" fill="#C8102E"/>
</g>
</g>
<defs>
<clipPath id="clip0_4313_21639">
<rect x="8.33521" width="48" height="48" rx="24" transform="rotate(10 8.33521 0)" fill="white"/>
</clipPath>
<clipPath id="clip1_4313_21639">
<rect width="65.4545" height="49.0909" fill="white" transform="translate(-0.164795 -2.05273) rotate(10)"/>
</clipPath>
</defs>
</svg>
