<svg width="56" height="56" viewBox="0 0 56 56" fill="none" xmlns="http://www.w3.org/2000/svg">
<g clip-path="url(#clip0_4313_21626)">
<g clip-path="url(#clip1_4313_21626)">
<path fill-rule="evenodd" clip-rule="evenodd" d="M-0.164887 -2.05273L91.6908 14.1439L91.0337 17.8705L-0.821988 1.67387L-0.164887 -2.05273ZM-1.47731 5.3904L90.3784 21.587L89.7213 25.3136L-2.13441 9.117L-1.47731 5.3904ZM-2.78796 12.8235L89.0677 29.0201L88.4106 32.7467L-3.44506 16.5501L-2.78796 12.8235ZM-4.09861 20.2565L87.7571 36.4532L87.1 40.1798L-4.75571 23.9831L-4.09861 20.2565ZM-5.41281 27.7097L86.4429 43.9064L85.7893 47.6128L-6.06636 31.4162L-5.41281 27.7097ZM-6.72168 35.1327L85.134 51.3293L84.4769 55.056L-7.37879 38.8593L-6.72168 35.1327ZM-8.03233 42.5658L83.8234 58.7624L83.1663 62.489L-8.68943 46.2924L-8.03233 42.5658Z" fill="#BD3D44"/>
<path fill-rule="evenodd" clip-rule="evenodd" d="M-0.821992 1.67383L91.0337 17.8705L90.3784 21.587L-1.47732 5.39036L-0.821992 1.67383ZM-2.13264 9.10689L89.7231 25.3035L89.0677 29.0201L-2.78797 12.8234L-2.13264 9.10689ZM-3.44329 16.5399L88.4124 32.7366L87.7553 36.4632L-4.10039 20.2666L-3.44329 16.5399ZM-4.75571 23.9831L87.1 40.1797L86.4429 43.9063L-5.41282 27.7097L-4.75571 23.9831ZM-6.06636 31.4161L85.7893 47.6128L85.1322 51.3394L-6.72346 35.1427L-6.06636 31.4161ZM-7.37701 38.8492L84.4787 55.0458L83.8216 58.7724L-8.03411 42.5758L-7.37701 38.8492Z" fill="white"/>
<path fill-rule="evenodd" clip-rule="evenodd" d="M-0.164887 -2.05273L36.5774 4.42592L31.9866 30.4618L-4.75571 23.9831L-0.164887 -2.05273Z" fill="#192F5D"/>
<path fill-rule="evenodd" clip-rule="evenodd" d="M2.70166 -0.404865L2.86118 0.692923L3.9288 0.881173L2.95074 1.36297L3.10019 2.45898L2.33759 1.65987L1.35952 2.14167L1.86297 1.17117L1.0986 0.382132L2.19644 0.57571L2.70166 -0.404865ZM8.82537 0.674911L8.97482 1.77092L10.0626 1.96273L9.07445 2.44275L9.21383 3.53698L8.46131 2.73965L7.47317 3.21967L7.98669 2.25095L7.23239 1.46368L8.30001 1.65193L8.82537 0.674911ZM14.9491 1.75469L15.0985 2.8507L16.1762 3.04073L15.1982 3.52252L15.3476 4.61854L14.585 3.81943L13.5969 4.29945L14.1104 3.33072L13.346 2.54168L14.4338 2.73349L14.9491 1.75469ZM21.0728 2.83446L21.2223 3.93048L22.31 4.12228L21.3219 4.6023L21.4713 5.69831L20.7087 4.8992L19.7206 5.37922L20.2442 4.41227L19.4697 3.62146L20.5474 3.81149L21.0728 2.83446ZM27.1965 3.91424L27.346 5.01025L28.4237 5.20028L27.4456 5.68208L27.595 6.77809L26.8324 5.97898L25.8443 6.459L26.3578 5.49027L25.6035 4.70301L26.6812 4.89304L27.1965 3.91424ZM33.3202 4.99402L33.4697 6.09003L34.5574 6.28183L33.5592 6.76008L33.7188 7.85786L32.9562 7.05875L31.968 7.53878L32.4916 6.57183L31.7172 5.78101L32.8049 5.97281L33.3202 4.99402ZM5.30177 2.75372L5.453 3.83966L6.55083 4.03323L5.56447 4.50319L5.70385 5.59742L4.95962 4.81194L3.97148 5.29196L4.46663 4.30961L3.7307 3.53597L4.8084 3.726L5.30177 2.75372ZM11.4255 3.83349L11.5868 4.92121L12.6645 5.11123L11.668 5.57941L11.8276 6.6772L11.0632 5.88816L10.0751 6.36818L10.5903 5.38938L9.8242 4.61042L10.912 4.80222L11.4255 3.83349ZM17.5492 4.91327L17.7004 5.99921L18.7882 6.19101L17.8018 6.66096L17.9513 7.75697L17.1869 6.96794L16.1988 7.44796L16.7141 6.46916L15.958 5.69197L17.0256 5.88022L17.5492 4.91327ZM23.6729 5.99304L23.8342 7.08076L24.9119 7.27079L23.9155 7.73896L24.075 8.83675L23.3106 8.04771L22.3326 8.52951L22.8378 7.54893L22.0716 6.76997L23.1695 6.96355L23.6729 5.99304ZM29.7966 7.07282L29.9479 8.15876L31.0356 8.35056L30.0493 8.82051L30.1987 9.91653L29.4343 9.12749L28.4462 9.60751L28.9615 8.62871L28.2054 7.85152L29.2831 8.04155L29.7966 7.07282ZM1.78527 4.79223L1.94302 5.90009L3.01064 6.08834L2.03257 6.57014L2.1838 7.65608L1.41943 6.86704L0.441359 7.34884L0.944807 6.37834L0.180436 5.5893L1.27827 5.78288L1.78527 4.79223ZM7.90899 5.87201L8.05666 6.97809L9.14443 7.1699L8.15629 7.64992L8.29744 8.73408L7.54314 7.94682L6.555 8.42684L7.0703 7.44804L6.316 6.66078L7.38362 6.84903L7.90899 5.87201ZM14.0327 6.95179L14.1822 8.0478L15.2598 8.23782L14.2818 8.71962L14.433 9.80556L13.6686 9.01653L12.6805 9.49655L13.1958 8.51775L12.4314 7.72871L13.5192 7.92051L14.0327 6.95179ZM20.1564 8.03156L20.3059 9.12757L21.3936 9.31938L20.4055 9.7994L20.5567 10.8853L19.7923 10.0963L18.8042 10.5763L19.3296 9.5993L18.5551 8.80849L19.6328 8.99851L20.1564 8.03156ZM26.2801 9.11134L26.4296 10.2074L27.5073 10.3974L26.5292 10.8792L26.6804 11.9651L25.9161 11.1761L24.9279 11.6561L25.4432 10.6773L24.6889 9.89004L25.7666 10.0801L26.2801 9.11134ZM32.4038 10.1911L32.5533 11.2871L33.6411 11.4789L32.6428 11.9572L32.8041 13.0449L32.0398 12.2559L31.0516 12.7359L31.577 11.7589L30.8026 10.968L31.8903 11.1598L32.4038 10.1911ZM4.38538 7.95082L4.53661 9.03676L5.63445 9.23033L4.64631 9.71036L4.79576 10.8064L4.03316 10.0073L3.04502 10.4873L3.55854 9.51855L2.80424 8.73129L3.88194 8.92132L4.38538 7.95082ZM10.5091 9.03059L10.6704 10.1183L11.7481 10.3083L10.7499 10.7866L10.9094 11.8844L10.1468 11.0853L9.15866 11.5653L9.67218 10.5966L8.90781 9.80752L9.99558 9.99932L10.5091 9.03059ZM16.6328 10.1104L16.784 11.1963L17.8718 11.3881L16.8837 11.8681L17.0331 12.9641L16.2705 12.165L15.2824 12.6451L15.7959 11.6763L15.0416 10.8891L16.1092 11.0773L16.6328 10.1104ZM22.7565 11.1901L22.9178 12.2779L23.9955 12.4679L23.0074 12.9479L23.1568 14.0439L22.3942 13.2448L21.4162 13.7266L21.9196 12.7561L21.1552 11.9671L22.2531 12.1606L22.7565 11.1901ZM28.8802 12.2699L29.0315 13.3559L30.1192 13.5477L29.1311 14.0277L29.2805 15.1237L28.5179 14.3246L27.5298 14.8046L28.0433 13.8359L27.289 13.0486L28.3667 13.2386L28.8802 12.2699ZM0.863556 10.0195L1.02485 11.1073L2.09248 11.2955L1.11441 11.7773L1.26386 12.8733L0.501263 12.0742L-0.476805 12.556L0.0266421 11.5855L-0.737728 10.7965L0.360109 10.9901L0.863556 10.0195ZM6.98727 11.0993L7.1385 12.1853L8.22626 12.3771L7.23812 12.8571L7.37927 13.9413L6.62498 13.154L5.63684 13.634L6.15036 12.6653L5.39606 11.878L6.46368 12.0663L6.98727 11.0993ZM13.111 12.1791L13.2622 13.265L14.3399 13.4551L13.3618 13.9369L13.5113 15.0329L12.7487 14.2338L11.7606 14.7138L12.2741 13.7451L11.5097 12.956L12.5975 13.1478L13.111 12.1791ZM19.2347 13.2589L19.3859 14.3448L20.4737 14.5366L19.4855 15.0166L19.635 16.1127L18.8724 15.3135L17.8843 15.7936L18.4079 14.8266L17.6334 14.0358L18.7111 14.2258L19.2347 13.2589ZM25.3584 14.3387L25.5096 15.4246L26.5873 15.6146L25.6093 16.0964L25.7587 17.1924L24.9961 16.3933L24.008 16.8733L24.5215 15.9046L23.7672 15.1174L24.8449 15.3074L25.3584 14.3387ZM31.4821 15.4184L31.6334 16.5044L32.7211 16.6962L31.7229 17.1744L31.8824 18.2722L31.1198 17.4731L30.1317 17.9531L30.6452 16.9844L29.8708 16.1936L30.9585 16.3854L31.4821 15.4184ZM3.46722 13.158L3.61667 14.254L4.71451 14.4476L3.72814 14.9175L3.87759 16.0135L3.115 15.2144L2.12508 15.7045L2.64038 14.7257L1.88608 13.9385L2.96377 14.1285L3.46722 13.158ZM9.59093 14.2378L9.75045 15.3356L10.8281 15.5256L9.83171 15.9938L9.99123 17.0915L9.22864 16.2924L8.23872 16.7825L8.75402 15.8037L7.98965 15.0147L9.07741 15.2065L9.59093 14.2378ZM15.7146 15.3175L15.8641 16.4136L16.9519 16.6054L15.9655 17.0753L16.1149 18.1713L15.3524 17.3722L14.3624 17.8623L14.8777 16.8835L14.1234 16.0962L15.1911 16.2845L15.7146 15.3175ZM21.8384 16.3973L21.9979 17.4951L23.0756 17.6851L22.0892 18.1551L22.2387 19.2511L21.4761 18.452L20.4962 18.9439L21.0014 17.9633L20.2371 17.1742L21.3349 17.3678L21.8384 16.3973ZM27.9621 17.4771L28.1115 18.5731L29.1993 18.7649L28.2129 19.2349L28.3624 20.3309L27.5998 19.5318L26.6099 20.0219L27.1252 19.0431L26.3709 18.2558L27.4486 18.4458L27.9621 17.4771ZM-0.0528333 15.2166L0.106689 16.3144L1.17431 16.5027L0.196242 16.9845L0.349244 18.0604L-0.416902 17.2814L-1.39319 17.7531L-0.889747 16.7826L-1.65412 15.9936L-0.55628 16.1872L-0.0528333 15.2166ZM6.07088 16.2964L6.22033 17.3924L7.3081 17.5842L6.31996 18.0643L6.47296 19.1401L5.70681 18.3612L4.72045 18.8311L5.24404 17.8642L4.47967 17.0751L5.54729 17.2634L6.07088 16.2964ZM12.1946 17.3762L12.344 18.4722L13.4217 18.6622L12.4437 19.144L12.5967 20.2199L11.8305 19.4409L10.8442 19.9109L11.3577 18.9422L10.5933 18.1531L11.6811 18.3449L12.1946 17.3762ZM18.3183 18.456L18.4678 19.552L19.5555 19.7438L18.5674 20.2238L18.7204 21.2997L17.9542 20.5207L16.9679 20.9907L17.4915 20.0237L16.717 19.2329L17.7947 19.4229L18.3183 18.456ZM24.442 19.5358L24.5915 20.6318L25.6692 20.8218L24.6911 21.3036L24.8441 22.3795L24.078 21.6005L23.0916 22.0704L23.6051 21.1017L22.8508 20.3145L23.9285 20.5045L24.442 19.5358ZM30.5657 20.6155L30.7152 21.7115L31.803 21.9033L30.8047 22.3816L30.9678 23.4592L30.2017 22.6803L29.2153 23.1502L29.7389 22.1833L28.9645 21.3925L30.0522 21.5843L30.5657 20.6155ZM2.54905 18.3652L2.70028 19.4511L3.79812 19.6447L2.80998 20.1247L2.95943 21.2207L2.19683 20.4216L1.20869 20.9016L1.72221 19.9329L0.967913 19.1456L2.04561 19.3357L2.54905 18.3652ZM8.67277 19.4449L8.83406 20.5326L9.91176 20.7227L8.91355 21.2009L9.07307 22.2987L8.31047 21.4996L7.32234 21.9796L7.83585 21.0109L7.07148 20.2219L8.15925 20.4137L8.67277 19.4449ZM14.7965 20.5247L14.9477 21.6106L16.0355 21.8025L15.0473 22.2825L15.1968 23.3785L14.4342 22.5794L13.446 23.0594L13.9596 22.0907L13.2053 21.3034L14.2729 21.4917L14.7965 20.5247ZM20.9202 21.6045L21.0815 22.6922L22.1592 22.8822L21.171 23.3623L21.3205 24.4583L20.5579 23.6592L19.5798 24.141L20.0833 23.1704L19.3189 22.3814L20.4167 22.575L20.9202 21.6045ZM27.0439 22.6843L27.1951 23.7702L28.2829 23.962L27.2948 24.442L27.4442 25.538L26.6816 24.7389L25.6935 25.219L26.207 24.2502L25.4527 23.463L26.5304 23.653L27.0439 22.6843ZM-0.972774 20.4339L-0.811476 21.5216L0.256145 21.7099L-0.721923 22.1917L-0.570697 23.2776L-1.33507 22.4886L-2.31314 22.9704L-1.80791 21.9898L-2.57228 21.2007L-1.47445 21.3943L-0.972774 20.4339ZM5.15094 21.5137L5.30217 22.5996L6.38993 22.7914L5.40179 23.2714L5.55302 24.3574L4.78865 23.5683L3.80051 24.0484L4.32587 23.0713L3.5615 22.2823L4.62912 22.4705L5.15094 21.5137ZM11.2747 22.5934L11.4259 23.6794L12.5036 23.8694L11.5456 24.3548L11.6969 25.4407L10.9325 24.6517L9.94436 25.1317L10.4597 24.1529L9.69529 23.3638L10.7831 23.5557L11.2747 22.5934ZM17.3984 23.6732L17.5496 24.7592L18.6374 24.951L17.6492 25.431L17.8004 26.5169L17.0361 25.7279L16.0479 26.2079L16.5733 25.2309L15.7989 24.4401L16.8766 24.6301L17.3984 23.6732ZM23.5221 24.753L23.6733 25.8389L24.751 26.029L23.7729 26.5108L23.9242 27.5967L23.1598 26.8077L22.1716 27.2877L22.6869 26.3089L21.9326 25.5216L23.0103 25.7117L23.5221 24.753ZM29.6458 25.8328L29.797 26.9187L30.8848 27.1105L29.8866 27.5888L30.0479 28.6765L29.2835 27.8874L28.2954 28.3675L28.8207 27.3904L28.0463 26.5996L29.1341 26.7914L29.6458 25.8328Z" fill="white"/>
</g>
</g>
<defs>
<clipPath id="clip0_4313_21626">
<rect x="8.33511" width="48" height="48" rx="24" transform="rotate(10 8.33511 0)" fill="white"/>
</clipPath>
<clipPath id="clip1_4313_21626">
<rect width="65.4545" height="49.0909" fill="white" transform="translate(-0.164887 -2.05273) rotate(10)"/>
</clipPath>
</defs>
</svg>
